<?xml version="1.0" encoding="utf-8"?>
<!-- Generator: Adobe Illustrator 23.1.0, SVG Export Plug-In . SVG Version: 6.00 Build 0)  -->
<svg version="1.1" id="Livello_1" xmlns="http://www.w3.org/2000/svg" xmlns:xlink="http://www.w3.org/1999/xlink" x="0px" y="0px"
	 viewBox="0 0 200 100" style="enable-background:new 0 0 200 100;" xml:space="preserve">
<g id="Bomaki_1_">
	<g>
		<path d="M11,70.2c-0.4,0-0.7,0.1-0.8,0.4c-0.1,0.2-0.2,0.5-0.3,1c-0.1,0.4-0.2,0.8-0.2,0.9c-0.3,0.6-0.6,1.4-0.9,2.4
			c-0.3,1.3-0.6,2.2-0.7,2.5c-0.3,0.9-0.8,1.6-1.3,2.1c-0.2-0.7-0.3-1.1-0.4-1.4c0-0.5-0.1-1-0.1-1.6c0-0.5,0-1.4,0.1-2.7
			c0.1-1.1,0.1-2,0.1-2.6l0,0l0,0c-0.1-0.1-0.3-0.1-0.5-0.2C5.8,71,5.7,71,5.5,71c-0.7,0-1,0.4-1,1.1c0,0.8,0,1,0,1.1
			c-0.2,1.3-0.3,2.4-0.3,3.3c0,1.5,0.3,2.8,0.8,3.9c0.3,0.7,0.8,1,1.4,1c0,0,0,0,0,0c0.7,0,1.3-0.3,1.9-0.9c0.9-1,1.5-2.1,1.8-3.2
			c0.1-0.4,0.5-1.5,1.1-3.3c0.5-1.4,0.7-2.5,0.8-3.3l0,0l0,0C11.8,70.3,11.5,70.2,11,70.2z"/>
		<path d="M27.7,79.3c-0.8-1.8-1.5-4.1-2.2-6.8c-0.1-0.5-0.1-1-0.2-1.4c-0.1-0.6-0.4-1-0.8-1.3c-0.2-0.1-0.3-0.2-0.5-0.2
			c-0.3,0-0.5,0.1-0.5,0.3c-0.4,0.7-0.8,1.8-1.2,3.2c-0.5,1.6-0.9,2.7-1.2,3.3c0,0-0.1,0.1-0.4,0.2c-0.2,0-0.4,0.1-0.5,0.2
			c-0.1,0.1-0.1,0.1-0.1,0.2c0,0.1,0.1,0.2,0.3,0.3c0.2,0.1,0.3,0.2,0.3,0.3c0,0.3-0.2,0.9-0.6,1.6c-0.3-0.2-0.6-0.5-0.9-0.7
			c-1.4-1.1-2.3-1.7-2.3-1.8c-0.2-0.2-0.4-0.3-0.7-0.5c-0.3-0.2-0.4-0.4-0.4-0.5c0-0.1,0.1-0.2,0.4-0.4c0.6-0.3,1.1-0.7,1.6-1.2
			c0.5-0.6,0.7-1.1,0.7-1.7c0-0.7-0.3-1.3-0.8-1.8c-0.6-0.6-1.2-0.9-2-1c-0.1,0-0.2,0-0.3,0c-1.3,0-2,0.3-2.2,1
			c-0.2,1.1-0.3,2.4-0.3,4v1.9c0,0.9,0,1.7-0.1,2.4c0,0.1,0,0.3-0.1,0.6c-0.1,0.3-0.1,0.5-0.1,0.7c0,0.6,0.3,1,0.9,1.1
			c0,0,0.1,0,0.1,0c0.1,0,0.2,0,0.3-0.1c0.2-0.1,0.2-0.1,0.3-0.1h0l0,0c0.2-0.6,0.3-1.4,0.4-2.3c0.1-1.2,0.2-2,0.2-2.3
			c0.6,0.4,1.5,1.2,2.7,2.3c0.8,0.7,1.5,1.3,2.1,1.7c0,0.2-0.1,0.4,0,0.5c0,0.2,0.3,0.4,0.8,0.5c0.1,0,0.2,0,0.3,0
			c0.2,0,0.4-0.1,0.4-0.2c0.2-0.4,0.5-1.1,0.7-1.9c0.2-0.9,0.5-1.6,0.6-1.9c0.3-0.2,0.7-0.4,1.3-0.4l1.4-0.1
			c0.3,0.6,0.5,1.3,0.7,2.2c0.2,0.8,0.6,1.3,1.3,1.4c0.1,0,0.3-0.1,0.5-0.3c0.2-0.2,0.4-0.4,0.4-0.6C27.8,79.6,27.8,79.5,27.7,79.3z
			 M24.6,75.9c-0.9,0-1.4,0-1.7,0c0.3-0.9,0.6-1.9,1-2.8c0.1,0.4,0.2,0.9,0.4,1.3C24.4,75,24.5,75.5,24.6,75.9z M14.8,73.3
			c0-0.6-0.1-1-0.1-1.2c0-0.4,0-0.7,0.1-1c0.1-0.2,0.3-0.2,0.6-0.2c0.4,0,0.8,0.1,1,0.3c0.2,0.2,0.3,0.4,0.4,0.6c0,0.2,0,0.3,0,0.6
			c-0.1,0.6-0.8,1.3-1.9,2C14.9,74.1,14.8,73.8,14.8,73.3z"/>
		<path d="M38.8,80.4c-0.4-1.7-0.7-3.7-0.8-6.2c0-0.3,0-0.7,0-1.2c0-0.6,0-1,0-1.2c0-0.5,0-1-0.1-1.5c-0.1-0.3-0.4-0.4-0.9-0.4
			c-0.4,0-0.6,0.1-0.7,0.3c-0.4,1.8-1.2,4.3-2.5,7.3c-0.4-0.5-0.7-1.1-0.8-1.8c-0.1-0.7-0.2-1.3-0.4-2c0-0.4-0.1-1-0.2-1.7
			c-0.1-0.7-0.2-1.3-0.2-1.6v0l0,0c-0.2-0.2-0.5-0.2-1-0.2c-0.2,0-0.3,0.1-0.4,0.3c-0.1,0.3-0.2,0.3-0.2,0.4l0,0l0,0
			c-0.3,2.1-0.6,3.6-0.9,4.4c-0.9,2.4-1.3,3.8-1.5,4c-0.3,0.7-0.4,1-0.4,1.1c0,0.3,0.2,0.6,0.6,0.7c0.3,0.1,0.5,0.2,0.6,0.2
			c0.1,0,0.2,0,0.3-0.1c0.7-1.2,1.3-3,1.9-5.4c0.1,0.3,0.3,0.8,0.5,1.5c0.2,0.7,0.4,1.2,0.7,1.6c0.4,0.5,0.9,0.8,1.6,1
			c0.3,0,0.6-0.1,0.9-0.5c0.1-0.1,0.2-0.4,0.5-1c0.4-1,0.7-1.7,0.9-2.2c0.1,0.3,0.1,0.9,0.1,1.6c0,0.7,0.1,1.3,0.3,1.7
			c0.2,0.4,0.4,0.8,0.6,1c0.3,0.2,0.7,0.3,1,0.3c0.3,0,0.5-0.1,0.6-0.2C38.8,80.6,38.8,80.5,38.8,80.4L38.8,80.4z"/>
		<path d="M45.2,72.5c-0.1-0.5-0.1-1-0.2-1.4c-0.1-0.6-0.4-1-0.8-1.3c-0.2-0.1-0.3-0.2-0.5-0.2c-0.3,0-0.5,0.1-0.5,0.3
			c-0.4,0.7-0.8,1.8-1.2,3.2c-0.5,1.6-0.9,2.7-1.2,3.3c0,0-0.1,0.1-0.4,0.2c-0.2,0-0.4,0.1-0.5,0.2c-0.1,0.1-0.1,0.1-0.1,0.2
			c0,0.1,0.1,0.2,0.3,0.3c0.2,0.1,0.3,0.2,0.3,0.3c0,0.4-0.3,1-0.7,1.8c-0.3,0.7-0.5,1.4-0.5,1.8c0,0.2,0.3,0.4,0.8,0.5
			c0.1,0,0.2,0,0.3,0c0.2,0,0.4-0.1,0.4-0.2c0.2-0.4,0.5-1.1,0.7-1.9c0.2-0.9,0.5-1.6,0.6-1.9c0.3-0.2,0.7-0.4,1.3-0.4l1.4-0.1
			c0.3,0.6,0.5,1.3,0.7,2.2c0.2,0.8,0.6,1.3,1.3,1.4c0.1,0,0.3-0.1,0.5-0.3c0.2-0.2,0.4-0.4,0.4-0.6c0-0.1,0-0.3-0.1-0.5
			C46.6,77.5,45.9,75.2,45.2,72.5z M44.2,75.9c-0.9,0-1.4,0-1.7,0c0.3-0.9,0.6-1.9,1-2.8c0.1,0.4,0.2,0.9,0.4,1.3
			C44.1,75,44.2,75.5,44.2,75.9z"/>
		<path d="M52.8,77.7c-0.8-0.4-1.7-0.8-2.6-1.3c0.4-0.5,1.2-1.3,2.6-2.4c1.1-1,1.9-1.9,2.3-2.6l0,0l0,0c0-0.3-0.3-0.5-0.9-0.5
			c-0.2,0-0.4,0-0.6,0.1l0,0c-0.6,0.6-1.2,1.2-1.9,1.8c-0.7,0.7-1.4,1.3-1.9,1.7c0-0.9-0.1-2.2-0.3-3.7c0-0.2-0.1-0.3-0.3-0.3
			c-0.2-0.1-0.4-0.1-0.6-0.2l0,0l0,0c-0.2,0-0.4,0-0.5,0.1c-0.2,0.1-0.3,0.2-0.3,0.3c0.2,0.9,0.3,2,0.3,3.2c0,0.4,0,1,0,1.8
			c0,0.8,0,1.4,0,1.8c0,1.1,0.1,2.1,0.3,3c0.1,0.3,0.3,0.5,0.6,0.6c0.1,0.1,0.2,0.1,0.3,0.1c0.2,0,0.3,0,0.4-0.1
			c0.3-0.1,0.5-0.3,0.5-0.6c0-0.1,0-0.2,0-0.4c0-0.2,0-0.3,0-0.4c0-0.8-0.1-1.4-0.1-1.8c1.9,1,3.4,1.7,4.3,2.2
			c0.1,0,0.2,0.1,0.2,0.1c0.1,0,0.2,0,0.3-0.1C54.9,80,55,80,55.1,80c0,0,0.1,0,0.1,0l0,0l0,0c0.1-0.3,0.2-0.5,0.2-0.5
			c0-0.1,0-0.2-0.1-0.3C54.6,78.7,53.8,78.2,52.8,77.7z"/>
		<path d="M63.1,70.6L63.1,70.6L63.1,70.6c-0.5-0.3-1-0.4-1.3-0.4c-0.1,0-0.2,0-0.3,0c-0.7,0.1-1.3,0.3-2.1,0.4
			c-0.8,0.2-1.4,0.4-2,0.6c-0.4,0.2-0.9,0.3-1.3,0.5c-0.5,0.2-0.7,0.5-0.8,0.8c0,0.4,0.4,0.6,1.2,0.8c-0.1,1-0.1,1.5-0.2,1.6
			c0,0.1-0.1,0.2-0.3,0.3c-0.2,0.1-0.3,0.2-0.3,0.3c0,0.2,0.1,0.4,0.5,0.7c-0.1,0.8-0.1,1.7,0,2.7c0,0.4,0.2,0.7,0.6,1
			c0.3,0.3,0.7,0.5,1.1,0.5c1.1,0.2,2.3,0.3,3.7,0.3c0.2,0,0.5,0,0.7,0c0.2,0,0.4-0.1,0.5-0.3c0.1-0.2,0.2-0.3,0.1-0.5
			c-0.1-0.6-0.4-0.8-0.8-0.8c-0.1,0-0.2,0-0.3,0.1c-0.1,0.1-0.2,0.1-0.3,0.1c-1.6,0.1-2.7-0.1-3.4-0.5c-0.1-0.2-0.2-0.5-0.2-0.8
			c0-0.5,0.1-1.2,0.4-2c0.4-0.1,0.9-0.2,1.5-0.2c0.8,0,1.3,0,1.6-0.1c0.2,0,0.3,0,0.4-0.1c0.2-0.2,0.3-0.2,0.3-0.2
			c0.1-0.1,0.2-0.1,0.2-0.2c0,0,0-0.2-0.3-0.5l0,0c-0.3-0.1-0.6-0.2-1-0.2c-0.2,0-0.5,0-1,0.1c-0.4,0.1-0.8,0.1-1,0.1
			c-0.3,0-0.5,0-0.7-0.1c0.1-1,0.1-1.7,0.3-2c0.5-0.2,1.3-0.4,2.3-0.6c1-0.2,1.8-0.4,2.3-0.6l0,0c0.1-0.1,0.2-0.1,0.2-0.3
			c0-0.1,0-0.2-0.1-0.3C63.2,70.7,63.1,70.6,63.1,70.6z"/>
		<path d="M73.5,71.3L73.5,71.3C73.4,71.2,73.4,71.2,73.5,71.3c-0.1-0.1-0.1-0.1-0.1-0.3c0-0.1,0-0.2-0.1-0.2c0,0-0.1,0-0.1,0
			c-0.3-0.1-0.5-0.2-0.8-0.2c-0.3,0-0.6,0.1-0.7,0.3l0,0l0,0c0,0.3,0,0.6,0,0.9c0,0.8-0.1,2-0.3,3.5C71.1,77,71,78.2,71,79
			c0,0,0,0,0,0.1c-0.3-0.2-0.6-0.5-0.9-0.7c-1.5-1.1-2.3-1.7-2.3-1.8c-0.2-0.2-0.4-0.3-0.7-0.5c-0.3-0.2-0.4-0.4-0.4-0.5
			c0-0.1,0.1-0.2,0.4-0.4c0.6-0.3,1.1-0.7,1.6-1.2c0.5-0.6,0.7-1.1,0.7-1.7c0-0.7-0.3-1.3-0.8-1.8c-0.6-0.6-1.2-0.9-2-1
			c-0.1,0-0.2,0-0.3,0c-1.3,0-2,0.3-2.2,1c-0.2,1.1-0.3,2.4-0.3,4v1.9c0,0.9,0,1.7-0.1,2.4c0,0.1,0,0.3-0.1,0.6
			c-0.1,0.3-0.1,0.5-0.1,0.7c0,0.6,0.3,1,0.9,1.1c0,0,0.1,0,0.1,0c0.1,0,0.2,0,0.3-0.1c0.2-0.1,0.2-0.1,0.3-0.1h0l0,0
			c0.2-0.6,0.3-1.4,0.4-2.3c0.1-1.2,0.2-2,0.2-2.3c0.6,0.4,1.5,1.2,2.7,2.3c1.1,1,2,1.7,2.8,2.2l0,0l0,0c0.2,0,0.4-0.1,0.6-0.2
			c0.1,0,0.2,0,0.3,0c0,0,0,0,0,0c0.4,0,0.7-0.2,0.8-0.5l0,0l0,0c0-0.3,0-0.6,0-0.9c0-0.8,0.1-2,0.3-3.6c0.2-1.6,0.3-2.8,0.3-3.6
			C73.5,72,73.5,71.6,73.5,71.3L73.5,71.3z M65.8,73.3c0-0.6-0.1-1-0.1-1.2c0-0.4,0-0.7,0.1-1c0.1-0.2,0.3-0.2,0.6-0.2
			c0.4,0,0.8,0.1,1,0.3c0.2,0.2,0.3,0.4,0.4,0.6c0,0.2,0,0.3,0,0.6c-0.1,0.6-0.8,1.3-1.9,2C65.8,74.1,65.8,73.8,65.8,73.3z"/>
		<path d="M80,72.5c-0.1-0.5-0.2-1-0.2-1.4c-0.1-0.6-0.4-1-0.8-1.3c-0.2-0.1-0.3-0.2-0.5-0.2c-0.3,0-0.5,0.1-0.5,0.3
			c-0.4,0.7-0.8,1.8-1.2,3.2c-0.5,1.6-0.9,2.7-1.2,3.3c0,0-0.1,0.1-0.4,0.2c-0.2,0-0.4,0.1-0.5,0.2c-0.1,0.1-0.1,0.1-0.1,0.2
			c0,0.1,0.1,0.2,0.3,0.3c0.2,0.1,0.3,0.2,0.3,0.3c0,0.4-0.3,1-0.7,1.8C74.1,80,74,80.6,74,81.1c0,0.2,0.3,0.4,0.8,0.5
			c0.1,0,0.2,0,0.3,0c0.2,0,0.4-0.1,0.4-0.2c0.2-0.4,0.5-1.1,0.7-1.9c0.3-0.9,0.5-1.6,0.6-1.9c0.3-0.2,0.7-0.4,1.3-0.4l1.4-0.1
			c0.3,0.6,0.5,1.3,0.7,2.2c0.2,0.8,0.6,1.3,1.3,1.4c0.1,0,0.3-0.1,0.5-0.3c0.2-0.2,0.4-0.4,0.4-0.6c0-0.1,0-0.3-0.1-0.5
			C81.5,77.5,80.7,75.2,80,72.5z M79.1,75.9c-0.9,0-1.4,0-1.7,0c0.3-0.9,0.6-1.9,1-2.8c0.1,0.4,0.2,0.9,0.4,1.3
			C79,75,79,75.5,79.1,75.9z"/>
		<path d="M96.8,69.3c0,0-0.2,0-0.4-0.1c-0.2,0-0.3-0.1-0.4-0.1c-0.4,0-0.6,0.1-0.6,0.4c-0.4,3.1-0.8,5.4-1,7
			c-0.5-0.8-1.1-1.9-1.7-3.4c-0.7-1.6-1.2-2.8-1.7-3.5l0,0c-0.5-0.3-0.8-0.5-1.1-0.4c-0.5,0-0.8,0.1-0.8,0.4c0,0.2-0.1,1.2-0.3,2.9
			l-0.2,1.8c-0.2,1.9-0.3,3.4-0.3,4.6c0,0.7,0,1.4,0.1,2.1c0,0.2,0,0.4,0,0.6c0,0.2,0.2,0.4,0.4,0.4c0.1,0,0.2,0.1,0.4,0.2
			c0.2,0.1,0.3,0.1,0.4,0.1c0.1,0,0.2,0,0.3-0.1c0.3-0.1,0.4-0.4,0.4-0.7c-0.1-0.9-0.1-1.8-0.1-2.7c0-1.8,0.1-3.6,0.4-5.3
			c0-0.2,0.1-0.2,0.2-0.2c0,0,0.1,0,0.1,0.1c1.3,3.1,2.4,5.4,3.3,6.9c0.3,0.5,0.7,0.7,1.1,0.7c0.2,0,0.4-0.1,0.6-0.2
			c0.2-0.1,0.3-0.3,0.3-0.5c0-0.4,0-0.8,0-1.2c0-1.2,0.1-2.8,0.4-4.7c0.2-1.6,0.4-3.1,0.6-4.7l0,0l0,0C97,69.4,96.9,69.3,96.8,69.3z
			"/>
		<path d="M100.5,71.3L100.5,71.3C100.5,71.2,100.5,71.2,100.5,71.3c-0.1-0.1-0.1-0.1-0.1-0.3c0-0.1,0-0.2-0.1-0.2c0,0-0.1,0-0.1,0
			c-0.3-0.1-0.5-0.2-0.8-0.2c-0.3,0-0.6,0.1-0.7,0.3l0,0l0,0c0,0.3,0,0.6,0,0.9c0,0.8-0.1,2-0.3,3.5c-0.2,1.6-0.3,2.8-0.3,3.6
			c0,0.5,0,0.9,0.1,1.3c0.1,0.4,0.4,0.6,1,0.7c0,0,0,0,0,0c0.4,0,0.7-0.2,0.8-0.5l0,0l0,0c0-0.3,0-0.6,0-0.9c0-0.8,0.1-2,0.3-3.6
			c0.2-1.6,0.3-2.8,0.3-3.6C100.6,72,100.6,71.6,100.5,71.3L100.5,71.3z"/>
		<path d="M103.4,69.7c-0.7-0.1-1.1-0.1-1.3,0c-0.2,0-0.3,0.2-0.4,0.6l0,0l0,0c0.1,0,0.1,0.1,0.2,0.3c0.1,0.1,0.2,0.2,0.3,0.2
			c0.1,0.7,0.2,1.6,0.2,2.5c0,0.6,0,1.6-0.1,2.8c-0.1,1.2-0.1,2.1-0.1,2.8c0,0.9,0.1,1.8,0.2,2.5c0,0.2,0.2,0.3,0.4,0.4l0.6,0.3l0,0
			l0,0c0.5-0.4,0.7-1,0.7-1.8c0-0.2,0-0.5-0.1-1c0-0.4-0.1-0.8-0.1-1c0-0.3,0-0.6,0.1-0.8c0.4-0.1,0.8-0.2,1.2-0.5
			c0,0,0.2-0.2,0.4-0.4l0.5-0.4c0.4-0.3,0.8-1,1.4-1.9v0c0.2-0.4,0.3-0.8,0.3-1.2c0-0.4-0.2-0.9-0.4-1.2
			C106.6,70.6,105.3,69.9,103.4,69.7z M104.1,71.2c1.2,0.4,1.4,0.5,1.5,0.5c0.5,0.3,0.8,0.6,0.7,1.1v0c-0.1,0.9-0.8,1.9-2,2.8
			C104.3,74.7,104.2,73.2,104.1,71.2z"/>
		<path d="M110.8,69.7c-0.7-0.1-1.1-0.1-1.3,0c-0.2,0-0.3,0.2-0.4,0.6l0,0l0,0c0.1,0,0.1,0.1,0.2,0.3c0.1,0.1,0.2,0.2,0.3,0.2
			c0.1,0.7,0.2,1.6,0.2,2.5c0,0.6,0,1.6-0.1,2.8c-0.1,1.2-0.1,2.1-0.1,2.8c0,0.9,0.1,1.8,0.2,2.5c0,0.2,0.2,0.3,0.4,0.4l0.6,0.3l0,0
			l0,0c0.5-0.4,0.7-1,0.7-1.8c0-0.2,0-0.5-0.1-1c0-0.4-0.1-0.8-0.1-1c0-0.3,0-0.6,0.1-0.8c0.4-0.1,0.8-0.2,1.2-0.5
			c0,0,0.2-0.2,0.4-0.4l0.5-0.4c0.4-0.3,0.8-1,1.4-1.9v0c0.2-0.4,0.3-0.8,0.3-1.2c0-0.4-0.2-0.9-0.4-1.2
			C114,70.6,112.6,69.9,110.8,69.7z M111.4,71.2c1.2,0.4,1.4,0.5,1.5,0.5c0.5,0.3,0.8,0.6,0.7,1.1v0c-0.1,0.9-0.8,1.9-2,2.8
			C111.6,74.7,111.6,73.2,111.4,71.2z"/>
		<path d="M121.5,72.5c-0.8-0.2-1.4-0.4-1.6-0.6c-0.2-0.1-0.4-0.2-0.6-0.2c-0.4,0-0.8,0.2-1.3,0.5c-0.4,0.3-0.7,0.7-1,1.1
			c-0.6,1-0.9,1.9-0.9,2.8c0,0.8,0.3,1.4,0.8,1.9c0.8,0.7,1.6,1.1,2.4,1.1c0.2,0,0.4,0,0.6-0.1c1.5-0.3,2.7-1.2,3.5-2.8
			c0.1-0.3,0.2-0.6,0.2-0.9c0-0.6-0.2-1.2-0.7-2C122.6,73,122.2,72.7,121.5,72.5z M118.6,74.3C118.6,74.3,118.7,74.3,118.6,74.3
			c0.1,0,0.2,0,0.4,0.1c0.2,0.1,0.3,0.1,0.4,0.1c0.2,0,0.4-0.2,0.7-0.5c0.2-0.2,0.4-0.3,0.6-0.3c0.1,0,0.1,0,0.2,0
			c0.4,0.2,0.7,0.7,0.8,1.5v0c0.1,0.5-0.2,1.1-0.7,1.7c-0.6,0.6-1.2,1-1.8,1c-0.3,0-0.6-0.2-1-0.7c-0.3-0.3-0.4-0.8-0.4-1.3
			C117.9,75.2,118.1,74.7,118.6,74.3z"/>
		<path d="M134,69.5c-0.6-0.2-1.1-0.4-1.6-0.5c-1-0.2-1.7-0.2-1.9-0.2c-0.4,0-0.8,0.1-1.1,0.3l0,0v0c0,0.1,0,0.1-0.1,0.2
			c-0.1,0.1-0.1,0.2-0.1,0.2c0.2,0.4,0.6,0.6,1.3,0.7c0.1,1.5,0.1,3.1-0.1,4.9c-0.2,0.1-0.3,0.2-0.4,0.3c-0.1,0.1-0.2,0.2-0.2,0.3
			c0,0.2,0.1,0.4,0.4,0.6c-0.1,0.8-0.2,1.7-0.2,2.9c0,1-0.1,1.9-0.1,2.9l0,0l0,0c0.2,0.3,0.5,0.5,1,0.5c0.2,0,0.4,0,0.6-0.1
			c0.7-0.3,1.3-0.7,2-1c0.8-0.4,1.5-0.9,1.9-1.3c0.5-0.6,0.8-1.2,0.8-1.9c0-0.9-0.6-1.6-1.8-2.3c-0.2-0.1-0.5-0.2-0.7-0.3
			c-0.2-0.1-0.4-0.2-0.4-0.4c0.7-0.4,1.4-0.8,2.1-1.2c0.7-0.5,1.2-1.1,1.4-1.7c0.1-0.3,0-0.7-0.1-1.1
			C136.4,70.8,135.5,70.1,134,69.5z M132.5,72.5c-0.1-0.7-0.1-1.2-0.1-1.5c0-0.2,0-0.4,0-0.6c0.1,0,0.1,0,0.2,0c0.1,0,0.2,0,0.4,0.1
			c0.2,0.1,0.4,0.2,0.5,0.2c0.8,0.2,1.2,0.6,1.2,1c0.1,0.4-0.1,0.8-0.4,1.2c-0.3,0.4-0.7,0.7-1.1,0.8c0,0-0.1,0-0.3,0.2
			c-0.2,0.1-0.3,0.2-0.4,0.2C132.6,73.6,132.6,73.1,132.5,72.5z M132.2,76.8c0.1,0,0.2,0,0.3,0c0.2,0,0.6,0.1,1.3,0.4
			c0.3,0.3,0.4,0.6,0.4,0.9c0,0.1,0,0.2,0,0.4c-0.1,0.4-0.3,0.7-0.5,1c-0.1,0.1-0.4,0.3-0.7,0.5c-0.3,0.2-0.6,0.3-0.8,0.5
			c-0.1-0.3-0.2-0.6-0.2-1c0-0.3,0-0.6,0.1-1.1c0.1-0.5,0.1-0.9,0.1-1.1C132.2,77.1,132.2,77,132.2,76.8z"/>
		<path d="M150.5,72.5c-0.1-0.5-0.2-1-0.2-1.4c-0.1-0.6-0.4-1-0.8-1.3c-0.2-0.1-0.3-0.2-0.5-0.2c-0.3,0-0.5,0.1-0.5,0.3
			c-0.4,0.7-0.8,1.8-1.2,3.2c-0.5,1.6-0.9,2.7-1.2,3.3c0,0-0.1,0.1-0.4,0.2c-0.2,0-0.4,0.1-0.5,0.2c-0.1,0.1-0.1,0.1-0.1,0.2
			c0,0.1,0.1,0.2,0.3,0.3c0.2,0.1,0.3,0.2,0.3,0.3c0,0.3-0.2,0.9-0.6,1.6c-0.3-0.2-0.6-0.5-0.9-0.7c-1.5-1.1-2.3-1.7-2.3-1.8
			c-0.2-0.2-0.4-0.3-0.7-0.5c-0.3-0.2-0.4-0.4-0.4-0.5c0-0.1,0.1-0.2,0.4-0.4c0.6-0.3,1.1-0.7,1.6-1.2c0.5-0.6,0.7-1.1,0.7-1.7
			c0-0.7-0.3-1.3-0.8-1.8c-0.6-0.6-1.2-0.9-2-1c-1.5-0.1-2.3,0.3-2.5,1c-0.2,1.1-0.3,2.4-0.3,4v1.9c0,0.9,0,1.7-0.1,2.4
			c0,0.1,0,0.3-0.1,0.6c-0.1,0.3-0.1,0.5-0.1,0.7c0,0.6,0.3,1,0.9,1.1c0,0,0.1,0,0.1,0c0.1,0,0.2,0,0.3-0.1c0.2-0.1,0.2-0.1,0.3-0.1
			h0l0,0c0.2-0.6,0.3-1.4,0.4-2.3c0.1-1.2,0.2-2,0.2-2.3c0.6,0.4,1.5,1.2,2.7,2.3c0.8,0.7,1.5,1.3,2.1,1.7c0,0.2-0.1,0.4,0,0.5
			c0,0.2,0.3,0.4,0.8,0.5c0.1,0,0.2,0,0.3,0c0.2,0,0.4-0.1,0.4-0.2c0.2-0.4,0.5-1.1,0.7-1.9c0.3-0.9,0.5-1.6,0.6-1.9
			c0.3-0.2,0.7-0.4,1.3-0.4l1.4-0.1c0.3,0.6,0.5,1.3,0.7,2.2c0.2,0.8,0.6,1.3,1.3,1.4c0.1,0,0.3-0.1,0.5-0.3
			c0.2-0.2,0.4-0.4,0.4-0.6c0-0.1,0-0.3-0.1-0.5C151.9,77.5,151.2,75.2,150.5,72.5z M149.6,75.9c-0.9,0-1.4,0-1.7,0
			c0.3-0.9,0.6-1.9,1-2.8c0.1,0.4,0.2,0.9,0.4,1.3C149.4,75,149.5,75.5,149.6,75.9z M139.8,73.3c0-0.6-0.1-1-0.1-1.2
			c0-0.4,0-0.7,0.1-1c0.1-0.2,0.3-0.2,0.6-0.2c0.4,0,0.8,0.1,1,0.3c0.2,0.2,0.3,0.4,0.4,0.6c0,0.2,0,0.3,0,0.6
			c-0.1,0.6-0.8,1.3-1.9,2C139.9,74.1,139.9,73.8,139.8,73.3z"/>
		<path d="M155.4,73.5c-0.1-0.3-0.2-0.6-0.2-0.9c0-0.9,0.4-1.7,1.1-2.3c0.1-0.1,0.2-0.1,0.2-0.1c0,0,0.1,0,0.3,0.1
			c0.1,0,0.3,0,0.4,0c0.4-0.2,0.6-0.4,0.6-0.6c0-0.1-0.1-0.3-0.2-0.4c-0.3-0.3-0.7-0.4-1.3-0.4c-0.3,0-0.6,0.1-1,0.2
			c-0.7,0.3-1.2,0.8-1.6,1.4c-0.3,0.6-0.5,1.2-0.5,1.9c0,0.9,0.5,2,1.4,3.5c0.9,1.4,1.3,2.5,1.3,3.3c0,0.5-0.1,1.1-0.4,1.6
			c-0.1,0.1-0.2,0.2-0.4,0.2c-0.2,0-0.4,0-0.4,0.1c-0.2,0.2-0.3,0.4-0.3,0.5c0,0.2,0.2,0.4,0.6,0.6c0.1,0,0.2,0.1,0.4,0.1
			c0.3,0,0.7-0.1,1.1-0.4c0.5-0.3,0.8-0.6,1-0.8c0.4-0.6,0.6-1.2,0.6-1.9c0-0.8-0.3-1.7-1-2.9C156,74.5,155.5,73.6,155.4,73.5z"/>
		<path d="M161.6,71.3L161.6,71.3C161.6,71.2,161.6,71.2,161.6,71.3c-0.1-0.1-0.1-0.1-0.1-0.3c0-0.1,0-0.2-0.1-0.2c0,0-0.1,0-0.1,0
			c-0.3-0.1-0.5-0.2-0.8-0.2c-0.3,0-0.6,0.1-0.7,0.3l0,0l0,0c0,0.3,0,0.6,0,0.9c0,0.8-0.1,2-0.3,3.5c-0.2,1.6-0.3,2.8-0.3,3.6
			c0,0.5,0,0.9,0.1,1.3c0.1,0.4,0.4,0.6,1,0.7c0,0,0,0,0,0c0.4,0,0.7-0.2,0.8-0.5l0,0l0,0c0-0.3,0-0.6,0-0.9c0-0.8,0.1-2,0.3-3.6
			c0.2-1.6,0.3-2.8,0.3-3.6C161.7,72,161.7,71.6,161.6,71.3L161.6,71.3z"/>
		<path d="M168.2,77.1c-0.1,0-0.2,0-0.4,0c-0.2,0-0.3,0-0.4,0l0,0c-0.3,0.1-0.8,0.4-1.5,0.8c-0.6,0.3-1.1,0.6-1.5,0.7
			c0-0.9,0-2.4,0.2-4.3c0.1-1.9,0.2-3.3,0.1-4.3c-0.1-0.3-0.4-0.5-1-0.5c-0.3,0-0.5,0.1-0.7,0.2l0,0l0,0c0.1,0.5,0.1,1.1,0.1,1.7
			c0,0.9-0.1,2.3-0.3,4.2c-0.2,1.8-0.3,3.3-0.2,4.3l0,0l0,0c0,0,0.1,0.1,0.4,0.4c0.2,0.2,0.4,0.3,0.6,0.3c0.1,0,0.2,0,0.3-0.1
			c0.7-0.3,1.6-0.7,2.5-1.3c1.6-0.9,2.4-1.4,2.4-1.5l0,0c0.2-0.2,0.2-0.4,0-0.7C168.7,77.2,168.5,77.1,168.2,77.1z"/>
		<path d="M171.8,71.3L171.8,71.3C171.8,71.2,171.8,71.2,171.8,71.3c-0.1-0.1-0.1-0.1-0.1-0.3c0-0.1,0-0.2-0.1-0.2c0,0-0.1,0-0.1,0
			c-0.3-0.1-0.5-0.2-0.8-0.2c-0.3,0-0.6,0.1-0.7,0.3l0,0l0,0c0,0.3,0,0.6,0,0.9c0,0.8-0.1,2-0.3,3.5c-0.2,1.6-0.3,2.8-0.3,3.6
			c0,0.5,0,0.9,0.1,1.3c0.1,0.4,0.4,0.6,1,0.7c0,0,0,0,0,0c0.4,0,0.7-0.2,0.8-0.5l0,0l0,0c0-0.3,0-0.6,0-0.9c0-0.8,0.1-2,0.3-3.6
			c0.2-1.6,0.3-2.8,0.3-3.6C171.9,72,171.9,71.6,171.8,71.3L171.8,71.3z"/>
		<path d="M178.4,72.5c-0.1-0.5-0.2-1-0.2-1.4c-0.1-0.6-0.4-1-0.8-1.3c-0.2-0.1-0.3-0.2-0.5-0.2c-0.3,0-0.5,0.1-0.5,0.3
			c-0.4,0.7-0.8,1.8-1.2,3.2c-0.5,1.6-0.9,2.7-1.2,3.3c0,0-0.1,0.1-0.4,0.2c-0.2,0-0.4,0.1-0.5,0.2c-0.1,0.1-0.1,0.1-0.1,0.2
			c0,0.1,0.1,0.2,0.3,0.3c0.2,0.1,0.3,0.2,0.3,0.3c0,0.4-0.3,1-0.7,1.8c-0.3,0.7-0.5,1.4-0.5,1.8c0,0.2,0.3,0.4,0.8,0.5
			c0.1,0,0.2,0,0.3,0c0.2,0,0.4-0.1,0.4-0.2c0.2-0.4,0.5-1.1,0.7-1.9c0.3-0.9,0.5-1.6,0.6-1.9c0.3-0.2,0.7-0.4,1.3-0.4l1.4-0.1
			c0.3,0.6,0.5,1.3,0.7,2.2c0.2,0.8,0.6,1.3,1.3,1.4c0.1,0,0.3-0.1,0.5-0.3c0.2-0.2,0.4-0.4,0.4-0.6c0-0.1,0-0.3-0.1-0.5
			C179.8,77.5,179.1,75.2,178.4,72.5z M177.5,75.9c-0.9,0-1.4,0-1.7,0c0.3-0.9,0.6-1.9,1-2.8c0.1,0.4,0.2,0.9,0.4,1.3
			C177.3,75,177.4,75.5,177.5,75.9z"/>
		<path d="M189.9,69.3c0,0-0.2,0-0.4-0.1c-0.2,0-0.3-0.1-0.4-0.1c-0.4,0-0.6,0.1-0.6,0.4c-0.4,3.1-0.8,5.4-1,7
			c-0.5-0.8-1.1-1.9-1.7-3.4c-0.7-1.6-1.2-2.8-1.7-3.5l0,0c-0.5-0.3-0.8-0.5-1.1-0.4c-0.5,0-0.8,0.1-0.8,0.4c0,0.2-0.1,1.2-0.3,2.9
			l-0.2,1.8c-0.2,1.9-0.3,3.4-0.3,4.6c0,0.7,0,1.4,0.1,2.1c0,0.2,0,0.4,0,0.6c0,0.2,0.2,0.4,0.4,0.4c0.1,0,0.2,0.1,0.4,0.2
			c0.2,0.1,0.3,0.1,0.4,0.1c0.1,0,0.2,0,0.3-0.1c0.3-0.1,0.4-0.4,0.4-0.7c-0.1-0.9-0.1-1.8-0.1-2.7c0-1.8,0.1-3.6,0.4-5.3
			c0-0.2,0.1-0.2,0.2-0.2c0,0,0.1,0,0.1,0.1c1.3,3.1,2.4,5.4,3.3,6.9c0.3,0.5,0.7,0.7,1.1,0.7c0.2,0,0.4-0.1,0.6-0.2
			c0.2-0.1,0.3-0.3,0.3-0.5c0-0.4,0-0.8,0-1.2c0-1.2,0.1-2.8,0.4-4.7c0.2-1.6,0.4-3.1,0.6-4.7l0,0l0,0
			C190.1,69.4,190,69.3,189.9,69.3z"/>
		<path d="M196.6,72.5c-0.1-0.5-0.2-1-0.2-1.4c-0.1-0.6-0.4-1-0.8-1.3c-0.2-0.1-0.3-0.2-0.5-0.2c-0.3,0-0.5,0.1-0.5,0.3
			c-0.4,0.7-0.8,1.8-1.2,3.2c-0.5,1.6-0.9,2.7-1.2,3.3c0,0-0.1,0.1-0.4,0.2c-0.2,0-0.4,0.1-0.5,0.2c-0.1,0.1-0.1,0.1-0.1,0.2
			c0,0.1,0.1,0.2,0.3,0.3c0.2,0.1,0.3,0.2,0.3,0.3c0,0.4-0.3,1-0.7,1.8c-0.3,0.7-0.5,1.4-0.5,1.8c0,0.2,0.3,0.4,0.8,0.5
			c0.1,0,0.2,0,0.3,0c0.2,0,0.4-0.1,0.4-0.2c0.2-0.4,0.5-1.1,0.7-1.9c0.3-0.9,0.5-1.6,0.6-1.9c0.3-0.2,0.7-0.4,1.3-0.4l1.4-0.1
			c0.3,0.6,0.5,1.3,0.7,2.2c0.2,0.8,0.6,1.3,1.3,1.4c0,0,0,0,0,0c0.1,0,0.2-0.1,0.5-0.3c0.2-0.2,0.4-0.4,0.4-0.6
			c0-0.1,0-0.3-0.1-0.5C198.1,77.5,197.3,75.2,196.6,72.5z M195.7,75.9c-0.9,0-1.4,0-1.7,0c0.3-0.9,0.6-1.9,1-2.8
			c0.1,0.4,0.2,0.9,0.4,1.3C195.6,75,195.7,75.5,195.7,75.9z"/>
		<path d="M4.2,63.7L4.2,63.7l0.1,0.2c0.8,0.9,2.3,1.4,4.3,1.4c0.9,0,1.7-0.1,2.4-0.3l8.7-2.7c3.6-1.2,6.3-2.4,8.1-3.6
			c2.4-1.6,3.6-3.4,3.6-5.3c0-2.5-2.6-4.6-7.7-6.4c-1-0.2-2-0.5-3-0.7c-0.8-0.2-1.4-0.4-1.6-0.8c2.9-1.1,6-2.2,9.1-3.4
			c3.2-1.4,5.3-3.1,6.1-4.9l0,0c0.4-0.9,0.2-2-0.7-3.3c-1.2-1.8-5-3.5-11.7-5.4c-2.9-0.8-5.9-1.3-8.8-1.5c-0.5,0-1.7-0.1-3.5-0.3
			c-1.3-0.1-2.3-0.2-3.1-0.2c-1.7,0-3.3,0.3-4.7,0.8l-0.1,0.1v0.1c0,0,0,0.2-0.3,0.5C1.2,28.3,0.9,28.7,1,29l0,0
			c0.9,1.1,2.8,1.8,5.6,2.1c0.4,4,0.2,8.5-0.5,13.2c-0.7,0.3-1.3,0.5-1.8,0.8c-0.5,0.3-0.8,0.6-0.8,1c0,0.7,0.6,1.2,1.9,1.7
			c-0.5,2.1-0.8,4.7-1,7.9C4.4,58.3,4.3,61,4.2,63.7z M14.3,49.2c0.4-0.1,0.7-0.1,1.1-0.1c0.8,0,2.8,0.4,5.8,1.2
			c1.1,0.7,1.6,1.5,1.6,2.4c0,0.3-0.1,0.6-0.2,0.9c-0.5,1.1-1.2,2-2.3,2.7c-0.6,0.4-1.7,0.8-3.2,1.3c-1.4,0.5-2.5,0.9-3.3,1.3
			c-0.4-0.8-0.6-1.6-0.6-2.5c0-0.7,0.2-1.7,0.5-3.1c0.3-1.4,0.5-2.5,0.5-3.2C14.3,49.8,14.3,49.5,14.3,49.2z M23.7,37.9
			c-1.4,1-3,1.8-4.7,2.2c0,0-0.2,0.1-1.5,0.6c-0.7,0.3-1.2,0.4-1.6,0.5c0-1,0-2.4-0.2-4.1c-0.2-2-0.4-3.4-0.4-4.2
			c0-0.5,0-1.1,0.1-1.6c0.2,0,0.4-0.1,0.6-0.1c0.5,0,1,0.1,1.8,0.4c1,0.3,1.8,0.5,2.3,0.6c3.2,0.6,5,1.5,5.3,2.6
			C25.6,35.8,25,36.9,23.7,37.9z"/>
		<path d="M40.6,52.7c3.5,2,7.1,3,10.6,3c0.8,0,1.6,0,2.4-0.1c6.6-0.8,11.7-3.4,15.3-7.7c0.6-0.7,1-1.6,1-2.5c0-1.6-1.1-3.5-3.2-5.7
			c-1.2-1.3-3.4-2.2-6.3-2.7c-3.7-0.6-5.9-1.2-6.8-1.5c-0.9-0.4-1.8-0.6-2.8-0.6c-1.7,0-3.6,0.5-5.5,1.5c-1.7,0.8-3.1,1.9-4.2,3
			c-2.7,2.8-4.1,5.4-4.1,7.9C36.9,49.5,38.2,51.4,40.6,52.7z M47.8,42.3c0.1,0,0.2-0.1,0.4-0.1c0.1,0,0.5,0.1,1.5,0.4
			c0.8,0.3,1.5,0.4,1.9,0.3c0.7-0.1,1.6-0.6,2.9-1.3c1.1-0.6,1.9-0.9,2.6-0.9c0.2,0,0.5,0,0.8,0.1c1.9,0.4,3,1.8,3.4,4l0,0
			c0.3,1.4-0.7,2.9-3,4.5c-2.4,1.7-5,2.6-7.6,2.6c-1.1,0-2.5-0.7-4.1-1.9c-1.2-0.9-1.7-2-1.7-3.4C44.7,44.6,45.7,43.2,47.8,42.3z"/>
		<path d="M139.1,49.9c1.1,1.6,2.1,3.6,2.9,6c0.8,2.3,2.8,3.7,5.8,4c0.4,0,1.1-0.2,2.2-0.7c1.1-0.5,1.7-1.2,1.7-1.9
			c0-0.4-0.2-0.9-0.6-1.5c-3.3-4.9-6.4-11.2-9.4-18.8c-0.3-1.3-0.6-2.7-1-4c-0.5-1.6-1.6-2.8-3.4-3.6c-0.7-0.3-1.5-0.5-2.4-0.5
			c-1.2,0-2,0.2-2.4,0.8c-1.6,2-3.4,5-5.4,8.8c-2.3,4.4-4.1,7.4-5.2,9c0,0-0.2,0.2-1.5,0.4c-1,0.1-1.7,0.3-2,0.5
			c-0.3,0.2-0.5,0.4-0.5,0.7c0,0.3,0.2,0.5,1.4,1c1.1,0.5,1.1,0.7,1.1,0.7c-0.2,1-1.2,2.6-3,5c-1.6,2.1-2.2,3.8-2,5.1
			c0.1,0.7,1.2,1.2,3.4,1.6c0.5,0.1,0.9,0.1,1.3,0.1c0.9,0,1.6-0.2,2-0.7c1-1.2,2-3.1,3-5.4c1.1-2.5,1.9-4.3,2.6-5.2
			c1.3-0.6,3.1-1,5.4-1.1L139.1,49.9z M137.4,46.4c-3.6,0-5.9,0-7,0.1c1.2-2.4,2.7-4.9,4.3-7.4c0.5,1.2,1,2.4,1.6,3.5
			C136.9,44.1,137.3,45.3,137.4,46.4z"/>
		<path d="M183.3,58.1c0.6-0.2,1-0.2,1.4-0.2c0.2,0,0.4,0,0.6,0l0.1,0l0.1-0.1c0.7-1.1,0.8-1.4,0.8-1.6c0-0.3-0.1-0.6-0.7-0.9
			c-2.9-1.3-6.5-2.7-10.8-4.1c-3.7-1.2-7.4-2.3-11-3.5c1.8-1.4,5.4-3.6,10.8-6.6c5-2.7,8.4-5.2,10.1-7.2l0.1-0.1l0-0.1
			c-0.1-1-1.4-1.5-3.9-1.5c-0.9,0-1.7,0.1-2.4,0.2l-0.1,0c-2.7,1.7-5.4,3.4-8.1,5c-3.1,1.9-5.8,3.4-8.2,4.6c0.1-2.6-0.3-6-1.2-10.2
			c-0.1-0.5-0.6-0.8-1.5-1c-0.9-0.2-1.7-0.3-2.5-0.5c-0.8,0.1-1.5,0.1-2.3,0.2c-0.8,0.1-1.2,0.3-1.4,0.6c-0.1,0.1-0.1,0.3-0.1,0.5
			c0.8,2.5,1.3,5.5,1.3,8.8c0,1.1-0.1,2.8-0.2,5.1c-0.1,2.2-0.2,3.9-0.2,5.1c0,3.1,0.4,5.9,1.1,8.2c0.3,0.9,1.2,1.5,2.8,1.8
			c0.2,0.2,0.7,0.4,1.5,0.4c0.7,0,1.2-0.1,1.6-0.2c1.4-0.3,2.1-0.9,2.1-1.8c0-0.2-0.1-0.6-0.2-1.2c-0.1-0.5-0.2-0.9-0.2-1.1
			c-0.1-2-0.2-3.6-0.4-4.8c8.3,2.6,14.6,4.7,18.6,6c0.4,0.1,0.7,0.2,1.1,0.2C182.2,58.4,182.7,58.3,183.3,58.1z"/>
		<path d="M192.8,60.6c0.1,0,0.1,0,0.2,0c1.8,0,3-0.5,3.6-1.4l0-0.1l0-0.1c-0.1-0.8-0.1-1.6-0.1-2.5c0-2.2,0.4-5.6,1.3-10
			c0.8-4.4,1.3-7.8,1.3-10c0-1-0.1-2-0.2-2.9l0-0.1l-0.1,0c-0.1,0-0.1,0-0.1-0.1c0,0,0-0.1,0-0.6c0-0.6-0.3-0.7-0.5-0.7
			c-0.1,0-0.3,0-0.6,0.1c-1.1-0.3-2.3-0.5-3.4-0.5c-1.5,0-2.6,0.3-3.2,1l-0.1,0.1l0,0.1c0.1,0.8,0.2,1.6,0.2,2.4
			c0,2.1-0.5,5.4-1.5,9.7c-1,4.4-1.5,7.7-1.5,9.9c0,1.3,0.1,2.5,0.4,3.6C188.6,59.9,190,60.5,192.8,60.6z"/>
		<path d="M111.1,58.4c-1.6-6.6-2.7-14.7-3.2-24.4c-0.1-1.2-0.1-2.7,0-4.6c0.1-2.3,0.2-3.9,0.2-4.6c0-2.2-0.2-4.1-0.6-5.7
			c-0.3-1.1-1.4-1.7-3.4-1.7c-1.4,0-2.2,0.4-2.5,1.1c-1.4,7.1-4.8,16.8-10,29.1c-1.6-1.9-2.7-4.3-3.3-7.2c-0.4-2.6-0.9-5.2-1.4-7.8
			c0-1.5-0.3-3.8-0.8-6.7c-0.5-3-0.8-5.1-0.8-6.5c-0.7-0.6-2-0.9-3.9-0.9c-0.7,0-1.2,0.3-1.5,1c-0.4,0.9-0.7,1.4-0.8,1.4
			C78,29.2,76.8,35,75.6,38.4c-3.3,9.5-5.2,14.8-5.7,15.9c-1.1,2.5-1.7,4-1.7,4.4c0,1.2,0.8,2.1,2.4,2.8c1.9,0.8,3.1,0.8,3.4,0.1
			c2.7-4.7,5.2-11.9,7.5-21.5c0.6,1.1,1.3,3.1,2.2,6.2c0.8,2.8,1.7,4.9,2.6,6.1c1.4,2,3.4,3.2,6.1,3.7c1.3,0.1,2.4-0.5,3.3-1.9
			c0.2-0.3,0.8-1.6,1.8-3.9c1.6-4.1,2.8-7.2,3.5-9.2c0.3,1.2,0.5,3.5,0.6,6.8c0.1,2.9,0.4,5.2,1,6.8c0.6,1.7,1.4,3,2.5,3.8
			c1.3,0.9,2.5,1.4,3.7,1.3C110.5,59.8,111.3,59.3,111.1,58.4z"/>
	</g>
</g>
</svg>
