<?xml version="1.0" encoding="utf-8"?>
<!-- Generator: Adobe Illustrator 23.0.0, SVG Export Plug-In . SVG Version: 6.00 Build 0)  -->
<svg version="1.1" id="Livello_1" xmlns="http://www.w3.org/2000/svg" xmlns:xlink="http://www.w3.org/1999/xlink" x="0px" y="0px"
	 viewBox="0 0 200 100" style="enable-background:new 0 0 200 100;" xml:space="preserve">
<style type="text/css">
	.st0{fill:#F15F4D;}
	.st1{fill:#008CC8;}
	.st2{fill-rule:evenodd;clip-rule:evenodd;fill:#0C94D2;}
	.st3{fill:#AD1F2A;}
	.st4{fill:#010101;}
	.st5{fill-rule:evenodd;clip-rule:evenodd;}
	.st6{fill-rule:evenodd;clip-rule:evenodd;fill:#FFFFFF;}
	.st7{fill-rule:evenodd;clip-rule:evenodd;fill:#ED1C24;}
	.st8{fill-rule:evenodd;clip-rule:evenodd;fill:#BB9A31;}
	.st9{fill:#E82946;}
	.st10{fill:#FFFFFF;}
	.st11{fill:#BB2826;}
	.st12{fill:#005596;}
	.st13{fill:#0096D6;}
	.st14{fill:#2F3382;}
	.st15{fill:#25275E;}
	.st16{fill:#7F6D62;}
	.st17{fill:#F68A3E;}
	.st18{fill:#005566;}
	.st19{fill:#FCB648;}
</style>
<g id="Comix_1_">
	<g>
		<path class="st4" d="M32.9,32.4c2.3,0.9,3.6,1.4,3.9,1.4c0.7,0,1.2-0.3,1.7-0.9c0.4-0.6,0.7-1.2,0.8-1.8h1.5v14h-1.4
			c-1.3-3-2.6-5.4-4-7.2c-2.5-3.2-5.4-4.8-8.6-4.8c-3.6,0-6.2,1.7-7.8,5.2c-1.5,3.5-2.3,8.1-2.3,13.9c0,4.3,0.5,7.8,1.4,10.6
			c1.7,5.2,4.8,7.8,9.4,7.8c2.8,0,5.4-0.9,7.8-2.6c1.4-1,3-2.6,4.9-4.8l1.6,1.5c-2.1,2.6-4,4.5-5.6,5.7c-2.9,2.1-6,3.1-9.6,3.1
			c-5.4,0-9.9-1.7-13.5-5.2C9,64.2,7,59,7,52.5c0-6.5,1.9-11.7,5.8-15.8c3.6-3.8,8-5.7,13.3-5.7C28.2,31,30.5,31.5,32.9,32.4z"/>
		<path class="st4" d="M78.9,36.7c3.7,4,5.6,9.1,5.6,15.4c0,6.3-1.9,11.4-5.6,15.4c-3.6,3.9-8.2,5.8-13.7,5.8
			c-5.8,0-10.5-2.1-14.2-6.4c-3.4-4-5.1-8.8-5.1-14.5c0-6.3,1.8-11.4,5.4-15.4c3.6-4.1,8.3-6.1,14-6.1
			C70.8,30.9,75.3,32.8,78.9,36.7z M73.7,63.4c0.8-2.9,1.2-6.6,1.2-11.3c0-6.4-0.9-11.1-2.6-14.4c-1.7-3.2-4.1-4.8-7-4.8
			c-4.1,0-6.9,2.7-8.4,8.1c-0.8,2.9-1.2,6.6-1.2,11.1c0,4.6,0.4,8.4,1.2,11.3c1.5,5.3,4.3,8,8.4,8C69.3,71.3,72.1,68.7,73.7,63.4z"
			/>
		<path class="st4" d="M87.2,70.6c2.1,0,3.4-0.4,4-1.2c0.6-0.8,0.9-2,0.9-3.5V37.5c0-1.6-0.4-2.7-1.1-3.2c-0.7-0.5-2-0.8-3.8-1v-1.5
			H101l10.7,27.6h0.5l10.6-27.6h13.7v1.5c-1.8,0.2-3.1,0.5-3.8,1.1c-0.7,0.6-1,2-1,4.3v26.4c0,2.2,0.3,3.6,1,4.3
			c0.7,0.7,1.9,1.1,3.8,1.1v1.5h-18v-1.5c1.6-0.1,2.8-0.4,3.6-0.9c0.8-0.5,1.2-1.7,1.2-3.5V37h-0.4l-13.3,35.1h-1.5L94.7,37.7h-0.2
			v27c0,2,0.3,3.4,1,4.4c0.7,0.9,2.2,1.4,4.5,1.5v1.5H87.2V70.6z"/>
		<path class="st4" d="M138.6,70.6c1.5,0,2.6-0.2,3.3-0.6c1.1-0.6,1.6-1.8,1.6-3.6V37.5c0-1.8-0.5-2.9-1.6-3.5
			c-0.6-0.4-1.8-0.6-3.4-0.7v-1.5h19v1.5c-1.7,0.1-2.9,0.3-3.5,0.6c-1.1,0.6-1.6,1.8-1.6,3.6v28.9c0,1.7,0.4,2.8,1.3,3.4
			c0.8,0.6,2.1,0.8,3.8,0.8v1.5h-19V70.6z"/>
		<path class="st4" d="M159.8,70.6c1.4-0.3,2.4-0.6,3-0.8c1-0.5,1.9-1.3,2.7-2.4l9.2-13.2l-10.5-17.4c-0.8-1.3-1.5-2.1-2.1-2.6
			c-0.6-0.5-1.4-0.8-2.3-0.8v-1.5h18.8v1.5c-1.8,0.1-2.9,0.3-3.5,0.5c-0.6,0.2-0.9,0.7-0.9,1.5c0,0.3,0.1,0.7,0.2,1
			c0.1,0.3,0.3,0.7,0.6,1.2l5.2,8.6c3-4.3,4.8-7,5.4-8.1c0.6-1,0.9-1.9,0.9-2.6c0-0.9-0.4-1.4-1.3-1.7c-0.5-0.2-1.4-0.3-2.7-0.3
			v-1.5h13.6v1.5c-2.4,0.3-4.2,1.2-5.6,2.8c-1.4,1.6-4.4,5.7-9,12.3l10.1,16.8c1.2,2.3,2.1,3.8,2.7,4.3c0.6,0.6,1.4,0.9,2.3,1.1v1.5
			h-18.5v-1.5c1.6-0.1,2.6-0.2,3.2-0.3c0.8-0.3,1.2-0.8,1.2-1.5c0-0.3-0.1-0.7-0.3-1.2c-0.2-0.5-0.5-1.1-0.9-1.9l-5.5-9.2l-2,2.8
			c-1.7,2.4-2.9,4.1-3.5,5.1c-1,1.7-1.5,3-1.5,3.7c0,1,0.6,1.8,1.9,2.2c0.7,0.2,1.5,0.3,2.5,0.3v1.5h-13.6V70.6z"/>
	</g>
</g>
</svg>
