<?xml version="1.0" encoding="utf-8"?>
<!-- Generator: Adobe Illustrator 23.1.0, SVG Export Plug-In . SVG Version: 6.00 Build 0)  -->
<svg version="1.1" id="Livello_1" xmlns="http://www.w3.org/2000/svg" xmlns:xlink="http://www.w3.org/1999/xlink" x="0px" y="0px"
	 viewBox="0 0 200 100" style="enable-background:new 0 0 200 100;" xml:space="preserve">
<style type="text/css">
	.st0{fill:#693128;}
	.st1{fill:#FFE9C0;}
	.st2{fill:#EC660C;}
</style>
<g>
	<path class="st0" d="M100,98.2c26.6,0,48.2-21.6,48.2-48.2S126.6,1.8,100,1.8S51.8,23.4,51.8,50S73.4,98.2,100,98.2"/>
	<path class="st1" d="M100,93.7c-24.1,0-43.7-19.6-43.7-43.7S75.9,6.3,100,6.3s43.7,19.6,43.7,43.7S124.1,93.7,100,93.7 M100,3.8
		C74.5,3.8,53.8,24.5,53.8,50S74.5,96.2,100,96.2s46.2-20.7,46.2-46.2S125.5,3.8,100,3.8"/>
	<path class="st1" d="M100,73.3c-12.8,0-23.3-10.4-23.3-23.3S87.1,26.7,100,26.7s23.3,10.4,23.3,23.3S112.8,73.3,100,73.3 M100,25.3
		c-13.6,0-24.7,11.1-24.7,24.7S86.4,74.7,100,74.7s24.7-11.1,24.7-24.7S113.6,25.3,100,25.3"/>
	<path class="st1" d="M108.4,66.6c0.5-1.8-0.2-5.8-1.8-9.2c-0.9-1.9-2-3.6-3.4-5.2c1.7,0.6,3.9,1.1,6.3,1.2c0.3,0,0.6,0,1,0
		c2.8,0,6.6-0.6,8.1-1.8C117.9,58.3,113.9,63.8,108.4,66.6 M92.8,67.2c1.6-0.9,3.9-3.7,5.5-7.1c0.5-1.1,1-2.3,1.3-3.5
		c0.3,1.2,0.8,2.4,1.3,3.5c1.7,3.6,4.2,6.5,5.8,7.2C102.2,69.1,97.3,69.1,92.8,67.2 M81.4,51.9c1.5,1.1,5.2,1.7,8,1.7l0,0
		c0.3,0,0.7,0,1,0c1.8-0.1,3.6-0.4,5.4-0.9c-1.2,1.5-2.3,3.1-3.1,4.9c-1.5,3.1-2.2,6.8-1.9,8.7C85.6,63.2,82,58,81.4,51.9
		 M89.4,34.6c-0.1,1.8,0.8,5.3,2.7,8.5c0.9,1.7,2.1,3.2,3.5,4.5c-1.8-0.4-3.6-0.5-5.4-0.5c-3.6,0.1-7.3,1.3-8.8,2.5
		C81.4,43.7,84.4,38.1,89.4,34.6 M108.2,33.3c-1.6,0.5-4.6,3.2-6.6,6.7c-0.9,1.6-1.6,3.2-2.1,4.9c-0.5-1.7-1.2-3.4-2.1-4.9
		c-1.8-3.2-4.5-5.8-6.1-6.6C96.7,30.7,102.9,30.6,108.2,33.3 M101.6,49.9c2.6-1,5.4-1.4,8.1-1.3c4,0.1,7.1,1.5,7.9,2.1
		c-0.8,0.5-3.5,1.4-7.1,1.4c-0.3,0-0.6,0-0.9,0C105.7,52,102.8,50.8,101.6,49.9 M98.3,49.9c-1.3,0.9-4.2,2-8,2.2c-0.3,0-0.6,0-0.9,0
		l0,0c-3.6,0-6.3-0.9-7.1-1.4c0.8-0.7,3.9-2,7.9-2.1C92.9,48.5,95.7,49,98.3,49.9 M105.9,42.5c-1.9,3.3-4.2,5.3-5.6,6
		c0,0,0-0.1,0-0.1c0.4-2.7,1.2-5.3,2.6-7.7c2-3.5,4.6-5.6,5.5-6C108.5,35.7,107.9,39,105.9,42.5 M90.8,34.7c1,0.4,3.6,2.6,5.5,6
		c1.3,2.4,2.2,5,2.6,7.7c0,0,0,0.1,0,0.1c-1.4-0.7-3.7-2.7-5.6-6C91.3,39,90.7,35.7,90.8,34.7 M93.8,58.1c1.2-2.5,2.9-4.7,4.9-6.6
		c0.2,1.5-0.1,4.6-1.7,8.1c-1.7,3.7-4.1,6-5,6.5C91.9,65,92.1,61.7,93.8,58.1 M107.1,66.1c-0.9-0.5-3.3-2.9-5-6.5
		c-1.6-3.5-1.9-6.6-1.7-8.1c2,1.9,3.7,4.1,4.9,6.6C107.1,61.7,107.3,65,107.1,66.1 M118.6,49.8c-1.4-1.3-5.2-2.4-8.8-2.6
		c-2.1-0.1-4.2,0.2-6.3,0.7c1.4-1.4,2.7-3,3.7-4.7c2.1-3.6,3-7.6,2.6-9.1C115.2,37.5,118.5,43.4,118.6,49.8 M100,30
		c-11.1,0-20,9-20,20s9,20,20,20s20-9,20-20S111,30,100,30"/>
	<path class="st2" d="M102.9,40.7c-1.3,2.4-2.2,5-2.6,7.7c0,0,0,0.1,0,0.1c1.4-0.7,3.7-2.7,5.6-6c2-3.5,2.6-6.8,2.5-7.8
		C107.4,35.1,104.8,37.2,102.9,40.7"/>
	<path class="st2" d="M109.5,53.5c-2.4-0.1-4.6-0.6-6.3-1.2c1.4,1.6,2.5,3.3,3.4,5.2c1.6,3.4,2.3,7.4,1.8,9.2
		c5.6-2.8,9.5-8.3,10.1-14.8c-1.5,1.1-5.2,1.8-8.1,1.8C110.1,53.6,109.8,53.6,109.5,53.5"/>
	<path class="st2" d="M107.1,43.2c-1,1.7-2.2,3.3-3.7,4.7c2.1-0.5,4.2-0.7,6.3-0.7c3.6,0.1,7.5,1.3,8.8,2.6
		c-0.1-6.4-3.4-12.3-8.9-15.7C110.1,35.6,109.2,39.6,107.1,43.2"/>
	<path class="st2" d="M110.5,52.2c3.6,0,6.3-0.9,7.1-1.4c-0.8-0.7-3.9-2-7.9-2.1c-2.8-0.1-5.5,0.4-8.1,1.3c1.3,0.9,4.2,2,8,2.2
		C109.9,52.2,110.2,52.2,110.5,52.2"/>
	<path class="st2" d="M97,59.6c1.6-3.5,1.9-6.6,1.7-8.1c-2,1.9-3.7,4.1-4.9,6.6c-1.7,3.6-2,6.9-1.8,8C93,65.5,95.3,63.2,97,59.6"/>
	<path class="st2" d="M100.4,51.5c-0.2,1.5,0.1,4.6,1.7,8.1c1.7,3.7,4.1,6,5,6.5c0.2-1,0-4.4-1.8-8
		C104.2,55.6,102.5,53.3,100.4,51.5"/>
	<path class="st2" d="M100.9,60.2c-0.5-1.1-1-2.3-1.3-3.5c-0.3,1.2-0.8,2.4-1.3,3.5c-1.6,3.4-3.9,6.1-5.5,7.1
		c4.4,1.8,9.4,1.9,13.8,0.2C105.1,66.7,102.6,63.8,100.9,60.2"/>
	<path class="st2" d="M97.5,40c0.9,1.6,1.6,3.2,2.1,4.9c0.5-1.7,1.2-3.4,2.1-4.9c2-3.5,5-6.3,6.6-6.7c-5.3-2.6-11.6-2.6-16.8,0.2
		C93.1,34.2,95.7,36.8,97.5,40"/>
	<path class="st2" d="M95.5,47.7c-1.4-1.3-2.5-2.9-3.5-4.5c-1.9-3.2-2.8-6.8-2.7-8.5c-5,3.4-8,9.1-8.1,15.1c1.5-1.2,5.2-2.4,8.8-2.5
		C91.9,47.2,93.7,47.3,95.5,47.7"/>
	<path class="st2" d="M100,30c11.1,0,20,9,20,20s-9,20-20,20s-20-9-20-20S88.9,30,100,30 M100,73.3c12.8,0,23.3-10.4,23.3-23.3
		S112.8,26.7,100,26.7S76.7,37.2,76.7,50S87.1,73.3,100,73.3"/>
	<path class="st2" d="M90.7,66.2c-0.3-1.9,0.4-5.6,1.9-8.7c0.8-1.7,1.9-3.4,3.1-4.9c-1.7,0.5-3.5,0.8-5.4,0.9c-0.3,0-0.6,0-1,0l0,0
		c-2.8,0-6.4-0.6-8-1.7C82,58,85.6,63.3,90.7,66.2"/>
	<path class="st2" d="M90.1,48.6c-4,0.1-7.1,1.5-7.9,2.1c0.8,0.5,3.5,1.4,7.1,1.4l0,0c0.3,0,0.6,0,0.9,0c3.8-0.2,6.7-1.3,8-2.2
		C95.7,49,92.9,48.5,90.1,48.6"/>
	<path class="st2" d="M98.9,48.5L98.9,48.5c-0.4-2.8-1.2-5.4-2.6-7.8c-2-3.5-4.6-5.6-5.5-6c-0.1,1,0.5,4.3,2.5,7.8
		C95.2,45.8,97.5,47.8,98.9,48.5"/>
	<path class="st1" d="M72.8,36.5l-0.2,0.4l-6.7-3.5l0.2-0.4c0.5-0.9,1.1-1.3,1.9-1.3c0.7,0,1.6,0.3,2.7,0.8c1.1,0.6,1.8,1.1,2.2,1.7
		C73.3,34.9,73.2,35.6,72.8,36.5 M75.5,33.3C75,32,73.8,30.9,72,29.9c-3.7-1.9-6.4-1.3-8.1,2l-1.5,2.8c0,0,0,0.1,0,0.1
		c0,0,0,0.1,0.1,0.1l10.7,5.7c0,0,0.1,0,0.1,0c0,0,0,0,0.1,0c0,0,0.1,0,0.1-0.1l1.4-2.7C75.8,36.1,76,34.6,75.5,33.3"/>
	<path class="st1" d="M80.4,29.8l-9.1-8.1c-0.1-0.1-0.2-0.1-0.3,0l-1.7,1.9c0,0,0,0.1,0,0.1c0,0,0,0.1,0.1,0.1l9.1,8.1
		c0.1,0.1,0.2,0.1,0.3,0l1.7-1.9c0,0,0-0.1,0-0.1C80.4,29.9,80.4,29.8,80.4,29.8"/>
	<path class="st1" d="M86.2,21.4c-0.6-0.8-1.3-1.3-2.1-1.5c-0.7-0.1-1.8-0.1-3.2,0.1c-0.8,0.1-1.4,0.2-1.8,0.1
		c-0.3,0-0.6-0.2-0.8-0.5c-0.1-0.2-0.2-0.4-0.1-0.7c0.1-0.3,0.3-0.5,0.5-0.7c0.4-0.3,0.7-0.4,1-0.4c0.3,0,0.8,0,1.3,0.1
		c0.1,0,0.2,0,0.2-0.1l0.5-2.1c0,0,0-0.1,0-0.1c0,0-0.1-0.1-0.1-0.1c-1.5-0.4-3-0.1-4.3,0.8c-1,0.7-1.6,1.5-1.9,2.5
		c-0.2,1-0.1,1.9,0.5,2.7c0.6,0.8,1.3,1.3,2.2,1.5c0.7,0.1,1.6,0.1,3-0.1c1.5-0.3,2.4-0.2,2.7,0.3c0.4,0.6,0.3,1.2-0.5,1.7
		c-0.7,0.5-1.6,0.6-2.8,0.3c0,0-0.1,0-0.1,0c0,0-0.1,0.1-0.1,0.1l-0.5,2.3c0,0.1,0,0.2,0.1,0.2c0.5,0.1,1,0.2,1.5,0.2
		c1.1,0,2.3-0.3,3.2-1c1.1-0.7,1.8-1.6,2-2.6C87,23.2,86.8,22.3,86.2,21.4"/>
	<path class="st1" d="M89.9,16.7L89,13.7l1-0.3c1.2-0.3,1.9,0,2.2,1s-0.1,1.7-1.2,2L89.9,16.7z M94.9,13.6c-0.4-1.2-1.1-2.1-2.1-2.5
		c-1-0.4-2.1-0.4-3.5,0l-3.6,1.1c0,0-0.1,0-0.1,0.1c0,0,0,0.1,0,0.1l3.5,11.6c0,0,0,0.1,0.1,0.1c0,0,0.1,0,0.1,0c0,0,0,0,0.1,0
		l2.4-0.7c0.1,0,0.1-0.1,0.1-0.2c0,0,0,0,0,0l-1.2-4l0.9-0.3c1.2-0.4,2.2-1,2.9-1.9C95.1,16,95.3,14.8,94.9,13.6"/>
	<path class="st1" d="M104.7,19.9c0,0-0.1-0.1-0.1-0.1l-4.6-0.1v-3.2l2.9,0.4l0,0c0.1-0.2,0.2-0.3,0.3-0.5l0-2.2c0,0,0-0.1-0.1-0.1
		c0,0-0.1-0.1-0.1-0.1l-3.1,0l0-2.1l4.5,0.1c0,0,0.1,0,0.1,0c0,0,0.1-0.1,0.1-0.1l0-1.9c0-0.1-0.1-0.2-0.2-0.2l-7.2-0.1
		c-0.1,0-0.2,0.1-0.2,0.1c0,0,0,0,0,0v12c0,0,0,0.1,0,0.1c0,0,0.1,0.1,0.1,0l7.3,0.4l0,0c0.1-0.1,0.1-0.3,0.1-0.4L104.7,19.9
		c0-0.1,0-0.1-0.1-0.2"/>
	<path class="st1" d="M118.7,14c0,0-0.1-0.1-0.1-0.1l-2.1-0.8c-0.1,0-0.2,0-0.2,0.1l-1.8,4.7c0,0,0,0,0,0c0,0,0,0.1-0.1,0.3
		c-0.1,0.3-0.3,0.7-0.5,1.4c0-0.5-0.1-1.1-0.1-1.8l-0.4-5.8c0-0.1-0.1-0.1-0.1-0.2l-2.3-0.9c0,0-0.1,0-0.1,0c0,0-0.1,0.1-0.1,0.1
		l-4.3,11.3c0,0.1,0,0.2,0.1,0.2l2.1,0.8c0.1,0,0.2,0,0.2-0.1l1.8-4.8c0.2-0.5,0.4-1.1,0.6-1.7c0,0.6,0,1.1,0.1,1.7l0.5,6
		c0,0.1,0.1,0.1,0.1,0.2l2.2,0.9c0,0,0,0,0.1,0c0,0,0.1,0,0.1,0c0,0,0.1-0.1,0.1-0.1l4.3-11.3C118.7,14.1,118.7,14,118.7,14"/>
	<path class="st1" d="M126.8,19.7c-0.9-0.8-1.9-1.2-2.9-1.2h0c-0.9,0-1.9,0.4-2.5,1.1c-0.7,0.8-1,1.6-1,2.5c0,0.7,0.3,1.6,0.8,2.9
		c0.6,1.4,0.7,2.3,0.3,2.7c-0.5,0.6-1.1,0.6-1.8-0.1c-0.6-0.6-1-1.5-1-2.6c0,0,0-0.1-0.1-0.1c0,0-0.1-0.1-0.1-0.1l-2.4,0.1
		c-0.1,0-0.2,0.1-0.2,0.2c0,1.8,0.7,3.3,1.9,4.4c1,0.9,2,1.3,3.1,1.4h0.1c1,0,1.9-0.4,2.6-1.2c0.7-0.8,1-1.6,1-2.5
		c0-0.7-0.3-1.8-0.9-3.1c-0.3-0.8-0.5-1.3-0.5-1.7c0-0.3,0.1-0.6,0.3-0.9c0.2-0.2,0.4-0.3,0.6-0.3c0.3,0,0.6,0.2,0.8,0.4
		c0.3,0.3,0.6,0.6,0.7,0.9c0.1,0.3,0.2,0.8,0.2,1.3c0,0.1,0.1,0.2,0.2,0.2l2.2,0c0,0,0.1,0,0.1-0.1c0,0,0.1-0.1,0.1-0.1
		C128.6,22.1,128,20.7,126.8,19.7"/>
	<path class="st1" d="M131.6,32.9c-0.5,0.4-1,0.9-1.6,1.4l-0.9,0.8l-0.7-1.4l1.3-0.3C130.4,33.2,131,33.1,131.6,32.9 M136,32
		l-1.1-2.2c0-0.1-0.1-0.1-0.2-0.1l-12.4,2.5c-0.1,0-0.2,0.1-0.1,0.2c0,0,0,0,0,0l1.2,2.3c0,0.1,0.1,0.1,0.2,0.1l2.4-0.6l1.3,2.5
		l-1.8,1.7c-0.1,0.1-0.1,0.1,0,0.2l1.2,2.3c0,0.1,0.1,0.1,0.1,0.1h0c0,0,0.1,0,0.1-0.1l9.1-8.8C136,32.1,136,32,136,32"/>
	<path class="st1" d="M86,74.4l-5.9-4c-0.1-0.1-0.2,0-0.2,0c0,0,0,0,0,0l-6.8,10c0,0,0,0.1,0,0.1c0,0,0,0.1,0.1,0.1l6.1,4.1
		c0,0,0.1,0,0.1,0c0.1,0,0.1,0,0.2-0.1l1.2-1.7c0.1-0.1,0-0.2,0-0.3l-3.9-2.6l1.7-2.5l2.4,1.7c0.1,0.1,0.2,0,0.3,0l1.1-1.7
		c0,0,0-0.1,0-0.1c0,0,0-0.1-0.1-0.1l-2.4-1.7l1.2-1.8l3.7,2.5c0.1,0.1,0.2,0,0.3,0c0,0,0,0,0,0l1.2-1.7
		C86.1,74.6,86.1,74.5,86,74.4C86,74.4,86,74.4,86,74.4"/>
	<path class="st1" d="M102.4,78.2c0,0,0-0.1-0.1-0.1c0,0-0.1,0-0.1,0l-2.5,0c-0.1,0-0.2,0.1-0.2,0.2c0,0,0,0,0,0l0,12.3
		c0,0.1,0.1,0.2,0.2,0.2h0l2.5,0c0,0,0.1,0,0.1-0.1c0,0,0.1-0.1,0-0.1L102.4,78.2z"/>
	<path class="st1" d="M114.4,87.8l-0.6-2c0-0.1-0.1-0.1-0.2-0.1l-4,1.2l-2.6-9.5c0-0.1-0.1-0.2-0.2-0.1c0,0,0,0,0,0l-2.4,0.6
		c0,0-0.1,0-0.1,0.1c0,0,0,0.1,0,0.1l3.2,11.7c0,0.1,0.1,0.1,0.2,0.1c0,0,0,0,0,0l6.6-1.9c0,0,0.1,0,0.1-0.1
		C114.4,87.9,114.4,87.9,114.4,87.8"/>
	<path class="st1" d="M119.3,85.3l-5.6-10.8c0-0.1-0.2-0.1-0.2-0.1l-2.2,1.1c0,0-0.1,0.1-0.1,0.1c0,0,0,0.1,0,0.1l5.6,10.8
		c0,0.1,0.1,0.1,0.2,0.1c0,0,0.1,0,0.1,0l2.2-1.1C119.4,85.5,119.4,85.4,119.3,85.3"/>
	<path class="st1" d="M120.7,74.8c0.5,0.4,1,0.8,1.7,1.3l1,0.7l-1.2,1l-0.6-1.2C121.3,75.9,121,75.3,120.7,74.8 M129.6,77.7
		l-10.5-7.1c-0.1,0-0.2,0-0.2,0l-1.9,1.6c-0.1,0.1-0.1,0.1-0.1,0.2l5,11.6c0,0.1,0.1,0.1,0.1,0.1c0,0,0,0,0,0c0,0,0.1,0,0.1,0l2-1.6
		c0.1-0.1,0.1-0.1,0-0.2l-1.1-2.2l2.2-1.8l2,1.4c0.1,0,0.2,0,0.2,0l2-1.6C129.7,77.9,129.7,77.8,129.6,77.7
		C129.6,77.7,129.6,77.7,129.6,77.7"/>
	<path class="st1" d="M97.6,78l-2.4-0.4c-0.1,0-0.2,0-0.2,0.1l-2.9,3.8c-0.6,0.9-1.1,1.5-1.4,1.9c0-0.7,0-1.3-0.1-1.8l-0.3-5.1
		c0-0.1-0.1-0.1-0.1-0.2l-2.4-0.9c-0.1,0-0.2,0-0.2,0.1l-4.6,11.3c0,0.1,0,0.2,0.1,0.2c0,0,0,0,0,0l2.1,0.8c0.1,0,0.2,0,0.2-0.1
		c0,0,2.3-5.3,2.8-6.6c0,0.9,0.1,2.4,0.2,3.3l0.3,4.5c0,0.1,0.1,0.2,0.2,0.2c0.1,0,0.1,0,0.1-0.1l2.8-3.6c0.6-0.7,1.5-1.9,2-2.6
		c-0.2,1-1.4,6.9-1.4,6.9c0,0.1,0,0.2,0.1,0.2l2.4,0.5c0.1,0,0.2,0,0.2-0.1l2.5-12.1C97.7,78.2,97.7,78.1,97.6,78
		C97.6,78,97.6,78,97.6,78"/>
	<path class="st1" d="M66.4,57.5c0.7,0,1.2-0.6,1.2-1.2c0-0.7-0.6-1.2-1.2-1.2c-0.7,0-1.2,0.6-1.2,1.2C65.1,57,65.7,57.5,66.4,57.5
		C66.4,57.5,66.4,57.5,66.4,57.5"/>
	<path class="st1" d="M133.4,57.5c0.7,0,1.2-0.6,1.2-1.2c0-0.7-0.6-1.2-1.2-1.2c-0.7,0-1.2,0.6-1.2,1.2
		C132.2,57,132.8,57.5,133.4,57.5"/>
</g>
</svg>
