<?xml version="1.0" encoding="utf-8"?>
<!-- Generator: Adobe Illustrator 25.0.1, SVG Export Plug-In . SVG Version: 6.00 Build 0)  -->
<svg version="1.1" id="Livello_1" xmlns="http://www.w3.org/2000/svg" xmlns:xlink="http://www.w3.org/1999/xlink" x="0px" y="0px"
	 viewBox="0 0 300 150" style="enable-background:new 0 0 300 150;" xml:space="preserve">
<style type="text/css">
	.st0{fill:#FFFFFF;}
	.st1{fill:#FEEB17;}
	.st2{fill:#F59C08;}
	.st3{fill:#575756;}
	.st4{fill:#008E39;}
	.st5{fill:#E20E17;}
	.st6{fill:#00B451;}
	.st7{fill:#E43D30;}
</style>
<g id="Livello_2_1_">
	<g id="Livello_1-2">
		<path class="st0" d="M129.2,67.6c0.5,0.1,0.9,0.2,1.4,0.3c0.5,0.1,1,0.1,1.4,0.1v-2.1l-2.9,0.3V67.6z"/>
		<path class="st0" d="M132.8,68c0.4,0,0.8,0,1.3-0.1c0.4,0,0.8-0.1,1.3-0.1v-2.6l-2.5,0.6L132.8,68z"/>
		<polygon class="st0" points="128.5,65.5 128.5,64.2 125.9,65.5 		"/>
		<polygon class="st0" points="129.2,65.5 132.1,65.2 132.1,62.3 129.2,63.9 		"/>
		<path class="st0" d="M134.7,53c-0.4,1-0.9,2-1.7,2.8l2.2-0.2c1.5-1.5,2.8-3.2,3.9-5c0.9-1.5,1.4-3.2,1.4-5c0-0.8-0.3-1.7-0.9-2.3
			c-0.7-0.6-1.5-0.9-2.4-0.8c-1.2,0-2.3,0.3-3.4,0.7c-1.2,0.5-2.3,1.2-3.3,2.1c-1.1,1-2,2.1-2.9,3.3c-0.9,1.4-1.6,2.8-2.2,4.3
			l1.3,1.7c0.2-0.9,0.5-1.8,0.9-2.7c0.4-0.9,0.9-1.8,1.5-2.6c0.5-0.7,1.2-1.4,1.9-1.9c0.6-0.5,1.3-0.8,2-0.8c0.7,0,1.3,0.3,1.6,1
			c0.4,0.7,0.5,1.6,0.4,2.4C135.3,51,135.1,52,134.7,53"/>
		<path class="st1" d="M109.4,66.7c0.7,0.3,1.4,0.5,2.2,0.7c0.8,0.1,1.5,0.2,2.3,0.1c0.8-0.1,1.5-0.3,2.2-0.6l19.8-10
			c0.3-0.2,0.7-0.3,1.1-0.4c0.4-0.1,0.8-0.2,1.1-0.3c-1.1,0-2.2,0.1-3.3,0.2c-1.1,0.2-2.2,0.2-3.3,0.2c-2.5,0-4.1-0.5-4.9-1.4
			l-3.2-3.9c-0.4-0.5-1-1-1.6-1.3c-0.8-0.4-1.6-0.5-2.4-0.5c-0.8,0-1.6,0.1-2.3,0.4c-0.6,0.3-1.2,0.6-1.7,1.2
			c-0.4,0.5-0.7,1.1-0.9,1.7c-0.2,0.7-0.2,1.4,0,2.1c0.4,0.3,0.7,0.6,0.9,0.9c0.3,0.2,0.5,0.5,0.8,0.8c0.3,0.3,0.5,0.6,0.7,1
			c0.3,0.5,0.6,1,0.8,1.5l-0.7,0.2c-0.4-0.9-0.9-1.8-1.5-2.5c-0.6-0.8-1.4-1.4-2.3-1.7l-26.7-8.5l21.1,19
			C108.1,66,108.7,66.4,109.4,66.7 M117.6,54.6c-0.2-0.2-0.3-0.5-0.3-0.7c0-0.2,0.1-0.5,0.2-0.7c0.1-0.2,0.3-0.4,0.5-0.5
			c0.2-0.1,0.4-0.2,0.7-0.3c0.2-0.1,0.5-0.1,0.7-0.1c0.4,0,0.7,0.1,1.1,0.3c0.3,0.2,0.5,0.6,0.4,1c0,0.2-0.1,0.4-0.3,0.6
			c-0.2,0.2-0.4,0.3-0.7,0.4c-0.3,0.1-0.6,0.2-0.9,0.3c-0.3,0.1-0.5,0.1-0.8,0.1C118,54.8,117.8,54.7,117.6,54.6"/>
		<path class="st0" d="M134,61.2c-0.3,0.2-0.6,0.3-0.8,0.4c-0.1,0.1-0.3,0.2-0.4,0.3V65l2.5-0.6v-3.9c-0.1,0-0.2,0.1-0.5,0.3
			L134,61.2"/>
		<path class="st0" d="M130.4,51.4c-0.4,0.3-0.7,0.6-1,1c-0.3,0.4-0.6,0.9-0.8,1.4c-0.2,0.5-0.4,1-0.5,1.5c0.2,0.1,0.3,0.2,0.5,0.3
			c0.2,0.1,0.5,0.1,0.7,0.2c0.3,0,0.5,0.1,0.8,0.1c0.2,0,0.5,0,0.7,0c0.8-1.5,1.2-2.7,1.2-3.6c0-0.8-0.2-1.3-0.6-1.3
			C131.1,51,130.7,51.1,130.4,51.4"/>
		<path class="st0" d="M127.2,66.8c0.4,0.2,0.9,0.4,1.3,0.5v-1.1l-2.5-0.1C126.4,66.4,126.8,66.6,127.2,66.8"/>
		<path class="st2" d="M216.4,18.7c-4,3.3-8.4,6.1-13.1,8.3c-5.1,2.5-10.3,4.4-15.8,5.8c-6,1.5-12,2.5-18.2,3
			c-6.7,0.5-13.5,0.4-20.2-0.3l0.8-2l-3.3,1.8l1.7-3.4l-4.3,2.7l3-4.5c-1.3,0.8-2.6,1.6-4,2.4c-1.4,0.8-2.9,1.7-4.3,2.6
			c-1.5,0.9-2.9,1.9-4.4,3c-1.5,1.1-2.8,2.3-4.1,3.5c-1.3,1.3-2.5,2.7-3.6,4.2c-1.1,1.5-2,3.2-2.7,4.9l1.1,1.3
			c0.6-1.4,1.4-2.8,2.3-4.1c0.8-1.2,1.8-2.3,2.9-3.3c1-0.9,2.2-1.6,3.4-2.2c1.2-0.5,2.5-0.8,3.8-0.8c1.4,0,2.4,0.4,3.1,1.1
			c0.7,0.8,1.1,1.8,1.1,2.9c0,0.9-0.1,1.9-0.4,2.8c-0.3,0.9-0.7,1.7-1.1,2.6c-0.5,0.8-1,1.6-1.6,2.4c-0.6,0.8-1.3,1.5-1.9,2.2
			c1.2-0.1,2.4,0,3.6,0.2c1.1,0.1,2.2,0.5,3.1,1c0.9,0.5,1.7,1.3,2.2,2.2c0.6,1.1,0.9,2.4,0.8,3.6l-0.1,0.8c0.9,0.6,1.8,1.1,2.8,1.4
			c1,0.4,2.1,0.7,3.2,1c1.1,0.3,2.2,0.4,3.3,0.6c1.1,0.1,2.2,0.2,3.3,0.2c1.5,0,2.9-0.1,4.3-0.2c1.4-0.1,2.7-0.4,4.1-0.7
			c1.2-0.3,2.4-0.6,3.6-1c1-0.4,2-0.8,2.9-1.3c-0.7-0.1-1.4-0.2-2.1-0.4c-0.7-0.2-1.3-0.4-2-0.7c-0.6-0.2-1.1-0.5-1.7-0.8
			c-0.5-0.3-0.9-0.5-1.3-0.7c1.8-0.2,3.7-0.4,5.4-0.6c1.8-0.2,3.4-0.5,5-0.8c1.5-0.3,2.9-0.7,4.4-1.2c1.3-0.4,2.5-1.1,3.6-1.8
			c-0.6,0-1.2-0.1-1.8-0.2c-0.6-0.1-1.3-0.3-1.9-0.4c-0.6-0.2-1.2-0.4-1.8-0.6c-0.6-0.2-1.1-0.5-1.6-0.7c1.5-0.1,2.9-0.3,4.3-0.5
			c1.4-0.2,2.8-0.5,4.2-0.9c1.4-0.4,2.7-0.9,4-1.5c1.4-0.6,2.6-1.4,3.8-2.3c-0.6,0-1.2-0.1-1.7-0.1c-0.6-0.1-1.3-0.2-1.9-0.4
			s-1.3-0.3-1.9-0.5c-0.6-0.2-1.2-0.4-1.7-0.6c1.2-0.3,2.5-0.6,3.8-1c1.4-0.3,2.8-0.7,4.1-1.2c1.4-0.5,2.7-1,4-1.6
			c1.3-0.6,2.4-1.3,3.5-2.2c-0.7,0.1-1.4,0.1-2.1,0.2c-0.7,0-1.4,0-2.2-0.1c-0.8,0-1.6-0.1-2.4-0.2l-2.8-0.3c2.4-0.6,4.7-1.4,7-2.4
			c2.2-0.9,4.2-2,6.2-3.3c1.9-1.3,3.6-2.7,5.2-4.3c1.6-1.7,3-3.5,4.1-5.5c-0.6,0.5-1.2,0.9-1.8,1.2c-0.8,0.4-1.7,0.9-2.6,1.3
			c-0.9,0.4-1.9,0.8-2.8,1.1c-0.8,0.3-1.6,0.5-2.4,0.6c2.3-1.6,4.4-3.4,6.4-5.4C213.8,22.6,215.2,20.7,216.4,18.7"/>
		<path class="st0" d="M136,67.6c0.4-0.1,0.9-0.2,1.3-0.4c0.4-0.1,0.8-0.3,1.2-0.5V64l-2.5,0.9V67.6z"/>
		<path class="st1" d="M144,58.3c-0.5-0.6-1.1-1-1.7-1.3c-0.8-0.3-1.6-0.5-2.4-0.5c-0.5,0-1,0.1-1.5,0.3c-0.7,0.2-1.3,0.4-2,0.7
			l-20,9.9c-2.3,1.1-5,1.1-7.3,0c-0.7-0.3-1.4-0.8-1.9-1.3l-22-20c-0.1,0-0.2-0.1-0.3-0.1s-0.3-0.1-0.5-0.2
			c-0.2-0.1-0.3-0.1-0.5-0.1c-0.1,0-0.2,0-0.3-0.1c-0.2,0-0.4,0.1-0.5,0.2c-0.1,0.1-0.2,0.3-0.2,0.5c0,0.3,0.1,0.6,0.3,0.8
			l20.1,18.2c1,0.9,1.9,1.7,2.7,2.4c0.7,0.6,1.4,1.1,2.2,1.5c0.7,0.4,1.4,0.7,2.1,0.8c0.8,0.2,1.7,0.3,2.5,0.3
			c0.8,0,1.5-0.1,2.2-0.3c0.8-0.2,1.5-0.5,2.2-0.8c0.9-0.4,1.8-0.8,2.6-1.3c0.8-0.5,1.7-0.9,2.4-1.3c0.7,0.8,1.4,1.4,2.3,1.9
			c0.9,0.6,1.9,1,2.9,1.4c1,0.4,2.1,0.6,3.1,0.8c1,0.2,2,0.3,3,0.3c1.4,0,2.8-0.2,4.1-0.6c1.3-0.4,2.6-0.9,3.8-1.7
			c1.1-0.7,2-1.6,2.8-2.6c0.7-1,1.1-2.2,1.1-3.5c0-0.8-0.1-1.6-0.3-2.4C144.8,59.5,144.4,58.9,144,58.3 M142.7,64
			c-0.3,0.7-0.8,1.3-1.4,1.8c-0.6,0.5-1.2,1-1.9,1.3c-0.7,0.4-1.5,0.7-2.3,0.9c-0.8,0.2-1.5,0.4-2.3,0.6c-2.2,0.4-4.5,0.2-6.7-0.5
			c-1.4-0.5-2.8-1.3-3.9-2.3l10.9-5.8c0.7-0.4,1.5-0.7,2.2-0.9c0.6-0.2,1.2-0.3,1.8-0.4c1.3-0.1,2.3,0.2,3,0.8
			c0.7,0.6,1.1,1.5,1,2.4C143.2,62.5,143,63.3,142.7,64"/>
		<path class="st0" d="M139.3,66.3c0.9-0.5,1.7-1.2,2.4-2c0.5-0.6,0.8-1.3,0.8-2.1l-3.2,1.6L139.3,66.3z"/>
		<path class="st0" d="M136,60.2v3.9l2.5-0.9v-3.9c-0.4,0.1-0.9,0.2-1.3,0.4C136.8,59.9,136.4,60,136,60.2"/>
		<path class="st0" d="M141.5,59.7c-0.3-0.2-0.6-0.4-1-0.4c-0.4-0.1-0.8-0.1-1.2-0.1v3.7l3.1-1.6c0-0.3-0.1-0.6-0.2-0.9
			C142,60.2,141.7,59.9,141.5,59.7"/>
		<path class="st3" d="M218.1,16.3c-0.3,1.2-0.8,2.3-1.4,3.3c-0.6,1.1-1.4,2.1-2.2,3.1c-0.8,1-1.6,1.9-2.6,2.7
			c-0.9,0.8-1.7,1.6-2.6,2.2c0.5-0.2,1-0.4,1.7-0.8c0.7-0.3,1.4-0.7,2.1-1.2c0.7-0.4,1.5-0.9,2.2-1.4c0.6-0.4,1.2-0.9,1.8-1.4
			c-0.5,1.4-1.2,2.7-1.9,3.9c-0.8,1.3-1.7,2.5-2.7,3.7c-1,1.2-2.2,2.3-3.4,3.3c-1.2,1-2.5,2-3.9,2.8c-1.3,0.9-2.7,1.6-4.2,2.2
			c-1.4,0.6-2.9,1.1-4.3,1.5c0.7,0.1,1.4,0.1,2.1,0.1s1.5,0,2.2,0c0.7,0,1.5-0.1,2.2-0.2c0.7-0.1,1.4-0.3,2.1-0.5
			c-0.9,1-2,1.9-3.1,2.6c-1.2,0.8-2.5,1.5-3.8,2.1c-1.4,0.6-2.8,1.2-4.2,1.6c-1.4,0.5-2.9,0.8-4.3,1.1l1.4,0.3
			c0.5,0.1,1.1,0.2,1.7,0.3c0.6,0.1,1.2,0.1,1.7,0.2c0.5,0,1,0,1.5,0c-0.9,1-2,1.8-3.1,2.5c-1.2,0.8-2.5,1.4-3.8,1.9
			c-1.3,0.5-2.7,1-4.1,1.3c-1.4,0.3-2.7,0.6-4.1,0.7c0.4,0.1,0.8,0.2,1.3,0.3c0.5,0.1,1.1,0.2,1.6,0.3c0.5,0.1,1.1,0.1,1.6,0.2
			c0.5,0,0.9,0,1.4,0c-1.1,1-2.4,1.9-3.8,2.5c-1.5,0.7-3.1,1.2-4.6,1.6c-1.6,0.4-3.2,0.8-4.9,1c-1.6,0.2-3.2,0.4-4.6,0.5
			c0.5,0.2,0.9,0.4,1.4,0.5c0.6,0.2,1.2,0.4,1.8,0.5c0.6,0.2,1.2,0.3,1.8,0.4c0.4,0.1,0.9,0.1,1.4,0.2c-0.9,0.9-2,1.6-3.2,2.1
			c-1.4,0.6-2.9,1.1-4.3,1.4c-1.6,0.4-3.2,0.6-4.8,0.8c-1.6,0.2-3.1,0.2-4.5,0.2c-1.2,0-2.3-0.1-3.4-0.2c-1.2-0.1-2.3-0.3-3.5-0.6
			c-1.1-0.3-2.1-0.6-3.2-1c-0.9-0.3-1.8-0.8-2.6-1.3c-0.3,1.2-0.8,2.3-1.6,3.3c-0.8,1-1.8,1.8-2.9,2.4c-1.2,0.7-2.4,1.2-3.7,1.5
			c-1.3,0.3-2.7,0.5-4,0.5c-1.1,0-2.2-0.1-3.2-0.2c-1-0.2-2-0.4-2.9-0.7c-0.9-0.3-1.8-0.8-2.7-1.3c-0.9-0.6-1.8-1.2-2.6-1.9
			c-0.8,0.4-1.5,0.7-2.2,1.2s-1.5,0.8-2.3,1.2c-0.8,0.4-1.6,0.7-2.4,0.9c-0.8,0.2-1.7,0.3-2.5,0.3c-0.8,0-1.5-0.1-2.3-0.2
			c-0.7-0.1-1.5-0.4-2.1-0.7c-0.9-0.4-1.7-1-2.4-1.6c-0.9-0.7-1.9-1.6-3.2-2.7l-20-18.3c-0.2-0.2-0.3-0.3-0.4-0.5
			c-0.1-0.2-0.2-0.4-0.2-0.7c0-0.4,0.2-0.8,0.6-1.1c0.3-0.3,0.8-0.3,1.2-0.2l29.8,9.4c-0.3-1.5,0.2-3,1.3-4.1
			c0.5-0.5,1.2-0.9,1.9-1.2c0.8-0.3,1.6-0.4,2.4-0.4c0.8,0,1.6,0.1,2.3,0.4c0.6,0.2,1.2,0.6,1.7,1.1c0.7-1.7,1.6-3.4,2.7-4.9
			c1.1-1.5,2.3-2.9,3.6-4.2c1.4-1.3,2.8-2.6,4.3-3.7c1.6-1.1,3.2-2.2,4.9-3.3c1.7-1.1,3.4-2.1,5.2-3l5.3-2.9l-2.9,4.3l3.4-2.3
			l-1.5,3.4l3-1.6l-0.9,2.6c4.6,0.5,9.2,0.6,13.8,0.5c4.4-0.1,8.8-0.5,13.2-1.1c4.1-0.6,8.2-1.5,12.2-2.7c3.8-1.1,7.5-2.4,11.1-3.9
			c3.3-1.5,6.5-3.2,9.6-5.1C212.9,20.6,215.6,18.6,218.1,16.3 M133.5,70.9c1.4,0,2.8-0.2,4.1-0.6c1.3-0.4,2.6-0.9,3.8-1.7
			c1.1-0.7,2-1.6,2.8-2.6c0.7-1,1.1-2.2,1.1-3.5c0-0.8-0.1-1.6-0.3-2.4c-0.2-0.7-0.6-1.3-1-1.9c-0.5-0.6-1.1-1-1.7-1.3
			c-0.8-0.3-1.6-0.5-2.4-0.5c-0.5,0-1,0.1-1.5,0.3c-0.7,0.2-1.3,0.4-2,0.7l-20,9.9c-2.3,1.1-5,1.1-7.3,0c-0.7-0.3-1.4-0.8-1.9-1.3
			l-22-20c-0.1,0-0.2-0.1-0.3-0.1s-0.3-0.1-0.5-0.2c-0.2-0.1-0.3-0.1-0.5-0.1c-0.1,0-0.2,0-0.3-0.1c-0.2,0-0.4,0.1-0.5,0.2
			c-0.1,0.1-0.2,0.3-0.2,0.5c0,0.3,0.1,0.6,0.3,0.8l20.1,18.2c1,0.9,1.9,1.7,2.7,2.4c0.7,0.6,1.4,1.1,2.2,1.5
			c0.7,0.4,1.4,0.7,2.1,0.8c0.8,0.2,1.7,0.3,2.5,0.3c0.8,0,1.5-0.1,2.2-0.3c0.8-0.2,1.5-0.5,2.2-0.8c0.9-0.4,1.8-0.8,2.6-1.3
			c0.8-0.5,1.7-0.9,2.4-1.3c0.7,0.8,1.4,1.4,2.3,1.9c0.9,0.6,1.9,1,2.9,1.4c1,0.4,2.1,0.6,3.1,0.8C131.5,70.9,132.5,71,133.5,70.9
			 M114.4,54.9c0.4,0.3,0.7,0.6,0.9,0.9c0.3,0.2,0.5,0.5,0.8,0.8c0.3,0.3,0.5,0.6,0.7,1c0.3,0.5,0.6,1,0.8,1.5l-0.7,0.2
			c-0.4-0.9-0.9-1.8-1.5-2.5c-0.6-0.8-1.4-1.4-2.3-1.7l-26.7-8.5l21.1,19c0.5,0.5,1.1,0.9,1.8,1.2c0.7,0.3,1.4,0.5,2.2,0.7
			c0.8,0.1,1.5,0.2,2.3,0.1c0.8-0.1,1.5-0.3,2.2-0.6l19.8-10c0.3-0.2,0.7-0.3,1.1-0.4c0.4-0.1,0.8-0.2,1.1-0.3
			c-1.1,0-2.2,0.1-3.3,0.2c-1.1,0.2-2.2,0.2-3.3,0.2c-2.5,0-4.1-0.5-4.9-1.4l-3.2-3.9c-0.4-0.5-1-1-1.6-1.3
			c-0.8-0.4-1.6-0.5-2.4-0.5c-0.8,0-1.6,0.1-2.3,0.4c-0.6,0.2-1.2,0.6-1.7,1.2c-0.4,0.5-0.7,1.1-0.9,1.7
			C114.3,53.5,114.3,54.2,114.4,54.9 M118.2,54.9c-0.2,0-0.5-0.1-0.6-0.3c-0.2-0.2-0.3-0.5-0.3-0.7c0-0.2,0.1-0.5,0.2-0.7
			c0.1-0.2,0.3-0.4,0.5-0.5c0.2-0.1,0.4-0.2,0.7-0.3c0.2-0.1,0.5-0.1,0.7-0.1c0.4,0,0.7,0.1,1.1,0.3c0.3,0.2,0.5,0.6,0.4,1
			c0,0.2-0.1,0.4-0.3,0.6c-0.2,0.2-0.4,0.3-0.7,0.4c-0.3,0.1-0.6,0.2-0.9,0.3C118.8,54.8,118.5,54.8,118.2,54.9 M205.7,29.5
			c2.3-1.6,4.4-3.4,6.4-5.3c1.7-1.6,3.2-3.5,4.3-5.5c-4,3.3-8.4,6.1-13.1,8.3c-5.1,2.5-10.3,4.4-15.8,5.8c-6,1.5-12,2.5-18.2,3
			c-6.7,0.5-13.5,0.4-20.2-0.3l0.8-2l-3.3,1.8l1.7-3.4l-4.3,2.7l3-4.5c-1.3,0.8-2.6,1.6-4,2.4s-2.9,1.7-4.3,2.6
			c-1.5,0.9-2.9,1.9-4.4,3c-1.5,1.1-2.8,2.3-4.1,3.5c-1.3,1.3-2.5,2.7-3.6,4.2c-1.1,1.5-2,3.2-2.7,4.9l1.1,1.3
			c0.6-1.4,1.4-2.8,2.3-4.1c0.8-1.2,1.8-2.3,2.9-3.3c1-0.9,2.2-1.6,3.4-2.2c1.2-0.5,2.5-0.8,3.8-0.8c1.4,0,2.4,0.4,3.1,1.1
			c0.7,0.8,1.1,1.8,1.1,2.9c0,0.9-0.1,1.9-0.4,2.8c-0.3,0.9-0.7,1.7-1.1,2.6c-0.5,0.8-1,1.6-1.6,2.4c-0.6,0.8-1.3,1.5-1.9,2.2
			c1.2-0.1,2.4,0,3.6,0.2c1.1,0.1,2.2,0.5,3.1,1c0.9,0.5,1.7,1.3,2.2,2.2c0.6,1.1,0.9,2.4,0.8,3.6l-0.1,0.8c0.9,0.6,1.8,1.1,2.8,1.4
			c1,0.4,2.1,0.7,3.2,1c1.1,0.3,2.2,0.4,3.3,0.6c1.1,0.1,2.2,0.2,3.3,0.2c1.5,0,2.9-0.1,4.3-0.2c1.4-0.1,2.7-0.4,4.1-0.7
			c1.2-0.3,2.4-0.6,3.6-1c1-0.4,2-0.8,2.9-1.3c-0.7-0.1-1.4-0.2-2.1-0.4c-0.7-0.2-1.3-0.4-2-0.7c-0.6-0.2-1.1-0.5-1.7-0.8
			c-0.5-0.3-0.9-0.5-1.3-0.7c1.8-0.2,3.7-0.4,5.4-0.6c1.8-0.2,3.4-0.5,5-0.8c1.5-0.3,2.9-0.7,4.4-1.2c1.3-0.4,2.5-1.1,3.6-1.8
			c-0.6,0-1.2-0.1-1.8-0.2c-0.6-0.1-1.2-0.3-1.8-0.4c-0.6-0.2-1.2-0.4-1.8-0.6s-1.1-0.5-1.6-0.7c1.5-0.1,2.9-0.3,4.3-0.5
			c1.4-0.2,2.8-0.5,4.2-0.9c1.4-0.4,2.7-0.9,4-1.5c1.4-0.6,2.6-1.4,3.8-2.3c-0.6,0-1.2-0.1-1.7-0.1c-0.6-0.1-1.3-0.2-1.9-0.4
			c-0.6-0.1-1.3-0.3-1.9-0.5c-0.6-0.2-1.2-0.4-1.7-0.6c1.2-0.3,2.4-0.6,3.8-1c1.4-0.3,2.8-0.7,4.1-1.2c1.4-0.5,2.7-1,4-1.6
			c1.2-0.6,2.4-1.3,3.5-2.2c-0.7,0.1-1.4,0.1-2.1,0.2c-0.7,0-1.4,0-2.2-0.1c-0.8,0-1.6-0.1-2.4-0.2l-2.8-0.3c2.4-0.6,4.7-1.4,7-2.4
			c2.2-0.9,4.2-2,6.2-3.3c1.9-1.3,3.6-2.7,5.2-4.3c1.6-1.7,3-3.5,4.1-5.5c-0.6,0.5-1.2,0.9-1.8,1.2c-0.8,0.4-1.7,0.9-2.6,1.3
			c-0.9,0.4-1.9,0.8-2.8,1.1C207.3,29.2,206.5,29.4,205.7,29.5 M139.2,58.5c1.3-0.1,2.3,0.2,3,0.8c0.7,0.6,1.1,1.5,1,2.4
			c0,0.8-0.2,1.5-0.5,2.2c-0.3,0.7-0.8,1.3-1.4,1.8c-0.6,0.5-1.2,1-1.9,1.3c-0.7,0.4-1.5,0.7-2.3,0.9c-0.8,0.2-1.5,0.4-2.3,0.6
			c-2.2,0.4-4.5,0.2-6.7-0.5c-1.4-0.5-2.8-1.3-3.9-2.3l10.9-5.8c0.7-0.4,1.5-0.7,2.2-0.9C138,58.7,138.6,58.6,139.2,58.5
			 M135.2,55.6c1.5-1.5,2.8-3.2,3.9-5c0.9-1.5,1.4-3.2,1.4-5c0-0.8-0.3-1.7-0.9-2.3c-0.7-0.6-1.5-0.9-2.4-0.8
			c-1.2,0-2.3,0.3-3.4,0.7c-1.2,0.5-2.3,1.2-3.3,2.1c-1.1,1-2,2.1-2.9,3.3c-0.9,1.4-1.6,2.8-2.2,4.3l1.3,1.7
			c0.2-0.9,0.5-1.8,0.9-2.7c0.4-0.9,0.9-1.8,1.5-2.6c0.5-0.7,1.2-1.4,1.9-1.9c0.6-0.5,1.3-0.8,2-0.8c0.7,0,1.3,0.3,1.6,1
			c0.4,0.7,0.5,1.6,0.4,2.4c-0.1,1-0.3,2-0.6,3c-0.4,1-0.9,2-1.7,2.8L135.2,55.6z M128.6,64.2l-2.6,1.3h2.6V64.2z M126,66.2
			c0.4,0.3,0.8,0.5,1.2,0.7c0.4,0.2,0.9,0.4,1.3,0.5v-1.1L126,66.2z M130.8,55.8c0.8-1.5,1.2-2.7,1.2-3.6c0-0.8-0.2-1.3-0.6-1.3
			c-0.4,0-0.7,0.2-1,0.4c-0.4,0.3-0.7,0.6-1,1c-0.3,0.4-0.6,0.9-0.8,1.4c-0.2,0.5-0.4,1-0.5,1.5c0.2,0.1,0.3,0.2,0.5,0.3
			c0.2,0.1,0.5,0.1,0.7,0.2c0.3,0,0.5,0.1,0.8,0.1C130.3,55.8,130.6,55.8,130.8,55.8 M129.2,65.5l2.9-0.3v-2.8l-2.9,1.5V65.5z
			 M129.2,67.6c0.5,0.1,0.9,0.2,1.4,0.3c0.5,0.1,1,0.1,1.4,0.1v-2.1l-2.9,0.3V67.6z M135.3,60.5c-0.1,0-0.2,0.1-0.5,0.3l-0.8,0.4
			c-0.3,0.2-0.6,0.3-0.8,0.4c-0.1,0.1-0.3,0.2-0.4,0.3v3.1l2.5-0.6L135.3,60.5z M132.8,68c0.4,0,0.8,0,1.3-0.1
			c0.4,0,0.8-0.1,1.3-0.1v-2.6l-2.5,0.6L132.8,68z M138.5,63.3v-3.9c-0.4,0.1-0.9,0.2-1.3,0.4c-0.4,0.2-0.8,0.3-1.2,0.5v3.9
			L138.5,63.3z M136,67.6c0.4-0.1,0.9-0.2,1.3-0.4c0.4-0.1,0.8-0.3,1.2-0.5V64l-2.5,0.9V67.6z M142.4,61.4c0-0.3-0.1-0.6-0.2-0.9
			c-0.2-0.3-0.4-0.5-0.7-0.7c-0.3-0.2-0.6-0.4-1-0.4c-0.4-0.1-0.8-0.1-1.2-0.1v3.7L142.4,61.4z M139.3,66.3c0.9-0.5,1.7-1.2,2.4-2
			c0.5-0.6,0.8-1.3,0.8-2.1l-3.2,1.6L139.3,66.3z"/>
		<path class="st3" d="M198.8,86.9c-11.8,0-19.4,7.2-19.4,15.8c0,6.9,6.5,11.8,15.4,11.8c11.5,0,19.3-7,19.3-16.1
			C214.1,91.8,208.1,86.9,198.8,86.9z M195.5,107.7c-3.7,0-5.7-2.3-5.7-5.4c0-4.2,3.4-8.5,8.5-8.5c3.6,0,5.7,2.4,5.7,5.5
			C203.9,103.3,200.6,107.7,195.5,107.7z"/>
		<path class="st3" d="M122.4,95.8c0-5.8-4.8-7.9-11.2-7.9H98L89,113.6h9.3l2.7-7.6h4l2.7,7.6h9.6l-2.9-8.2v-0.6
			C119.5,103.6,122.4,99.8,122.4,95.8z M108.9,99.9h-5.8l2-5.7h5c2,0,3.1,0.8,3.1,2.5C113.2,98.9,111.1,99.9,108.9,99.9z"/>
		<path class="st3" d="M72,87.9l-18.9,25.7h10l2.9-4h11.1v4h8.9V87.9L72,87.9z M77.2,104.1h-7.5l6.1-8.5h1.4L77.2,104.1z"/>
		<polygon class="st3" points="129.6,87.9 120.6,113.6 129.8,113.6 138.9,87.9 		"/>
		<polygon class="st3" points="42.4,87.9 32.4,101.5 32.4,87.9 15.4,87.9 15.4,87.9 15.4,87.9 6.1,113.6 15.5,113.6 22.1,95.5 
			23.5,95.5 23.5,113.6 33.6,113.6 46.8,95.5 48.1,95.5 41.8,113.6 51,113.6 60.1,87.9 		"/>
		<polygon class="st3" points="171.5,87.9 165.6,104.4 164.2,104.4 158.4,87.9 145,87.9 135.9,113.6 145.2,113.6 151,97.1 
			152.4,97.1 158.2,113.6 171.6,113.6 180.7,87.9 		"/>
		<path class="st3" d="M271.8,87.8h-6.2l-4.9,14.2c-1.4,4.3-3.2,6.9-7.1,6.9c-3.6,0-5.1-2.2-3.3-6.9l4.9-14.2h-6.1l-4.9,14.2
			c-2.6,6.7,1.6,12,8.9,12c7.5,0,11.1-4,13.7-12L271.8,87.8z"/>
		<path class="st3" d="M242.1,93.6c0.5-4-3.6-5.7-7.5-5.8h-10.6l-8.9,25.7h14.3c5.1,0,10.6-3.2,11.3-8.8c0.3-2.4-0.5-4.2-2.3-5.3
			C240.3,98.1,241.9,96.1,242.1,93.6z M234.9,104.9c-0.4,2.9-3.6,4-6.6,4.1h-5.7l2.5-7h6.8C233.5,102,235.1,102.8,234.9,104.9z
			 M236,94.6c-0.2,2.2-2.6,3.2-4.8,3.2h-4.7l1.8-5.4h5.1C234.6,92.4,236.2,93,236,94.6L236,94.6z"/>
		<path class="st3" d="M285.4,98.5l-3.6-1.4c-1.6-0.6-2.3-1.5-1.9-2.9c0.5-1.4,2-2.6,5.1-2.6c2.3,0,4,1.1,3.8,3.2l5.2-0.8
			c0-4.3-2.9-6.8-8.4-6.9c-5.5,0-9.9,2.3-11.1,6.7c-1.1,4,1.1,7,4.6,8.2l3,1.1c2,0.7,2.8,1.5,2.3,3.2c-0.5,1.5-2.2,2.6-5.4,2.6
			c-2.8,0-4.4-1.1-4.2-3.3l-5.5,0.8c-0.1,5.1,4,7.6,8.9,7.6c6,0,10.5-2.5,11.9-7.2C291,103,289.2,100,285.4,98.5z"/>
		<rect x="89" y="126.3" class="st4" width="40.7" height="7"/>
		<rect x="170.4" y="126.3" class="st5" width="40.7" height="7"/>
		<rect x="129.7" y="126.3" class="st0" width="40.7" height="7"/>
		<rect x="89" y="126.3" class="st6" width="40.7" height="7"/>
		<rect x="170.4" y="126.3" class="st7" width="40.7" height="7"/>
		<rect x="129.7" y="126.3" class="st0" width="40.7" height="7"/>
		<path class="st3" d="M211.5,133.7H88.6V126h122.9V133.7z M89.3,133h121.5v-6.4H89.3L89.3,133z"/>
	</g>
</g>
</svg>
