<?xml version="1.0" encoding="utf-8"?>
<!-- Generator: Adobe Illustrator 23.1.0, SVG Export Plug-In . SVG Version: 6.00 Build 0)  -->
<svg version="1.1" id="Livello_1" xmlns="http://www.w3.org/2000/svg" xmlns:xlink="http://www.w3.org/1999/xlink" x="0px" y="0px"
	 viewBox="0 0 200 100" style="enable-background:new 0 0 200 100;" xml:space="preserve">
<style type="text/css">
	.st0{fill:#F05E4D;}
	.st1{fill:#008BC7;}
</style>
<g id="Pescaria_1_1_">
	<g>
		<g>
			<path class="st0" d="M97.8,12.6c0,0.3,0,0.6,0,0.7c0.5,0,0.8-0.1,0.8-0.7c0-0.1,0-0.2,0-0.3c-0.1-0.2-0.2-0.2-0.4-0.2
				c0,0-0.2,0-0.5,0c0,0,0,0.1,0,0.1C97.8,12.3,97.8,12.4,97.8,12.6z"/>
			<path class="st0" d="M96.3,26.4c0,0.5,0,0.9,0,1.1c0,0.2,0,0.4,0,0.7c0,0.2,0,0.4,0,0.5c0,0.1,0,0.2,0,0.2c0,0,0,0.1,0,0.1
				c0,0.2,0,0.5,0,0.8c0,0.4,0,0.9,0,1.3c0.1,0,0.1,0,0.1,0c0.2,0,0.5,0,0.7,0.1c0-0.7,0-1.6,0-2.1c0-0.1,0-0.2,0-0.3
				c0-0.3,0-0.8,0-1.2c0-0.3,0-1.8,0.1-2.5c-0.3,0-0.6,0-0.8,0C96.3,25.3,96.3,25.9,96.3,26.4z"/>
			<path class="st0" d="M81.9,14.2c0,0.1,0.1,0.2,0.1,0.3c0.1,0.1,0.3,0.3,0.5,0.5c0.4,0.4,0.7,0.7,0.9,0.9c0.3,0.6,0.7,1.1,1.1,1.6
				c0.1,0.2,0.3,0.4,0.4,0.5c0.1,0.1,0.2,0.3,0.3,0.4c0.2,0.2,0.4,0.3,0.7,0.5l0.3,0.2c0.1,0.1,0.2,0.1,0.3,0.2
				c0.1,0.1,0.2,0.1,0.4,0.2c0.1,0.1,0.2,0.2,0.3,0.2l0.5,0c-0.2-0.1-0.3-0.2-0.4-0.3c-0.4-0.3-0.7-0.5-1-0.7
				c-0.2-0.1-0.3-0.3-0.4-0.4c-0.6-0.8-1.1-1.4-1.6-2.1c-0.2-0.3-1.4-1.6-1.6-1.9c-0.1-0.2-0.4-0.8-0.7-0.9
				c-0.1-0.1-0.2-0.1-0.4-0.1c0,0-0.1,0-0.1,0c0,0-0.1,0-0.1,0c0.1,0.1,0.2,0.2,0.3,0.3C81.8,13.7,81.9,13.9,81.9,14.2z"/>
			<path class="st0" d="M96.7,14.1c0,0.1-0.1,0.3-0.1,0.3c0,0.1,0,0.1,0,0.2c0,0.2,0,0.3,0,0.6c0,0.4,0,0.9,0,1.3c0,0.3,0,0.6,0,0.8
				c-0.1,0.4,0,0.5,0,0.7c0.1,0.3,0.1,0.5,0,1.1c0,0.2-0.1,0.4-0.1,0.6c0,0,0,0.1,0,0.1c0.3,0,0.6,0,0.8,0c0,0,0,0,0-0.1
				c0-0.2,0-0.5,0.1-0.7c-0.2-0.7-0.2-0.7-0.1-1.7c0-0.4,0-1.4,0-2.1c0-0.4,0-0.6,0-0.8c0-0.2,0-0.4,0-0.6c-0.2,0-0.4,0-0.6,0
				C96.7,13.9,96.7,14,96.7,14.1z"/>
			<path class="st0" d="M110.2,12.3c-0.3,0.2-0.5,0.5-0.8,0.8c-0.2,0.3-0.4,0.6-0.6,0.8c-0.3,0.4-0.6,0.8-0.8,1.3l-0.6,1.2
				c-0.2,0.3-0.4,0.6-0.5,0.8c-0.1,0.1-0.1,0.3-0.2,0.4c-0.1,0.2-0.2,0.3-0.3,0.4c0,0,0,0,0.1,0.1c0.2,0.1,0.4,0,0.5-0.1
				c0.1-0.1,0.2-0.2,0.3-0.3c0.1-0.1,0.2-0.2,0.3-0.4c0.1-0.2,0.2-0.3,0.2-0.4c0.1-0.1,0.3-0.4,0.5-0.8c0.1-0.2,0.2-0.4,0.3-0.6
				c0.1-0.2,0.2-0.3,0.2-0.5c0.4-0.9,0.9-1.4,1.4-2.2c0.1-0.2,0.3-0.4,0.4-0.6C110.5,12.2,110.4,12.1,110.2,12.3z"/>
			<path class="st0" d="M122.1,22.1c-0.1-0.2-0.1-0.5-0.2-0.6c-0.3-0.8-0.7-1.5-1-2.3c-0.3-0.6-1.9-2.5-2.9-4.5
				c-0.1-0.3-0.4-0.5-0.5-0.6l0,0c-0.1,0-0.9-1-1.2-1.3c-0.6-0.7-1.5-1.4-1.9-1.8c-0.4-0.4-1.5-1.2-2.5-1.6
				c-0.4-0.2-0.8-0.4-1.2-0.4c0,0,0,0,0,0c0,0,0.1,0,0.1,0c1.1,0.5,2.2,1.3,2.7,1.7l0.2,0.2c0.5,0.4,1.2,1,1.7,1.6
				c0.1,0.1,0.3,0.4,0.6,0.6c0.3,0.3,0.5,0.6,0.6,0.6c0,0,0.5,0.5,0.6,0.7c0.2,0.3,0.4,0.7,0.5,1c0.1,0.2,0.2,0.4,0.3,0.6
				c0.1,0.1,0.1,0.2,0.2,0.3c0.1,0.2,0.3,0.5,0.6,0.9c0.3,0.5,0.6,0.8,0.8,1c0.2,0.2,0.4,0.5,0.6,0.8l0.3,0.5
				c0.3,0.6,0.5,1.1,0.8,1.8c0.1,0.2,0.2,0.4,0.2,0.7c0,0.1,0.2,0.8,0.1,1.3c-0.2,0.6-0.4,1-0.6,1.3l-0.1,0.1
				c-0.2,0.3-0.4,0.6-0.6,0.9l-0.2,0.4c-0.2,0.5-0.5,1-0.9,1.6c-0.1,0.1-0.1,0.2-0.2,0.4c-0.2,0.3-0.3,0.6-0.5,0.9
				c-0.3,0.5-0.6,0.8-0.9,1.2c-0.2,0.3-0.5,0.6-0.8,1c-0.6,0.9-1.2,1.5-1.6,1.9c-0.4,0.4-0.7,0.6-0.9,0.8l-0.1,0.1
				c-0.8,0.6-1.6,1.4-2.5,1.8c-0.4,0.2-0.8,0.3-1.1,0.4c-0.2,0-0.4,0.1-0.5,0.2c-0.2,0.1-0.4,0.2-0.6,0.3c-0.1,0.1-0.2,0.1-0.3,0.2
				c0.1,0,0.1,0,0.2,0c1.1-0.1,2.3-0.6,2.8-0.8c0.5-0.2,2.3-1.8,3.1-2.4c0.2-0.2,0.5-0.4,1-0.8c0.4-0.4,1-1,1.6-1.8
				c0.7-1,1.1-1.2,1.7-2.1c0.3-0.5,0.6-0.9,0.7-1.2c0.5-0.8,0.8-1.4,1.1-2c0.2-0.4,0.4-0.7,0.6-1c0.2-0.4,0.5-0.8,0.6-1.4
				C122.3,22.7,122.2,22.3,122.1,22.1z"/>
			<path class="st0" d="M97.6,32.4c0,0.1-0.1,0.2-0.1,0.2c0,0,0.1,0,0.1,0c0.1,0,0.5-0.1,0.7-0.1c0.2,0,0.2-0.8,0.1-0.9
				c-0.4-0.2-0.6-0.1-0.8-0.1C97.7,31.8,97.6,32.3,97.6,32.4z"/>
			<path class="st0" d="M106.9,27.1c0.3,0.4,0.5,0.9,0.7,1.4c0.1,0.2,0.4,1,0.5,1.2c0.2,0.4,0.3,0.8,0.4,1.2
				c0.1,0.4,0.3,0.8,0.6,1.2c0.2,0.3,0.5,0.5,0.7,0.6l0.2,0.1c0.1,0.1,0.3,0.2,0.3,0.2c0.1,0,0.2-0.1,0.3-0.1
				c-0.2-0.2-0.4-0.4-0.6-0.6c-0.3-0.4-0.5-0.8-0.6-1.3c-0.1-0.4-0.3-0.8-0.4-1.2c0-0.1-0.3-0.7-0.5-1.1c-0.2-0.5-0.4-0.9-0.7-1.3
				c-0.2-0.4-0.6-0.6-0.9-0.6c-0.1,0-0.2,0-0.3,0c0,0-0.1,0-0.1,0C106.6,26.8,106.8,27,106.9,27.1z"/>
			<path class="st0" d="M86.2,25.5c-0.5,0.4-1.5,1.5-1.9,1.9l-0.4,0.5c-0.4,0.5-0.7,0.8-1,1.1c-0.1,0.2-0.3,0.4-0.4,0.8l-0.2,0.4
				c-0.1,0.2-0.1,0.2-0.3,0.4c-0.3,0.4-0.6,0.8-0.9,1.1c0.1,0,0.2,0,0.3,0c0.1,0,0.3-0.1,0.5-0.1c0.3-0.2,0.7-0.7,1-1.2
				c0.1-0.2,0.2-0.3,0.2-0.4c0.1-0.1,0.1-0.3,0.2-0.4c0.1-0.3,0.3-0.6,0.5-0.8c0.3-0.5,0.8-0.9,1.4-1.6c0,0,1.2-1.5,1.9-1.9
				c0.1-0.1,0.2-0.1,0.3-0.1c0,0,0.1-0.1,0.2-0.1c-0.3,0-0.7,0.1-1.2,0.5C86.3,25.5,86.2,25.5,86.2,25.5z"/>
			<g>
				<path class="st0" d="M83.3,23.8c0-0.2,0-0.7,0-1c0-0.3,0.1-0.7,0.1-1.1c0-0.5,0.1-0.7,0.2-1.1c0-0.2,0.2-0.5,0.3-0.7
					c-0.1,0,0-0.1-0.1-0.1c-0.2-0.1-0.4-0.3-0.4-0.2c-0.1,0.3-0.4,0.8-0.4,1.1c-0.1,0.5,0,0.9,0,1.3c0,0.4-0.2,1.6-0.2,1.8
					c0,0.1,0.1,0.4,0.1,0.5c0.2,0.9,0.4,0.8,0.5,0.8c0.2-0.1,0.2-0.3,0.2-0.3c0,0,0,0,0.1,0c0-0.1-0.1-0.3-0.1-0.4
					C83.4,24.2,83.3,23.9,83.3,23.8z"/>
			</g>
		</g>
		<path class="st1" d="M120.9,22.1c-0.1-0.2-0.1-0.5-0.2-0.6c-0.3-0.8-0.7-1.5-1-2.3c-0.3-0.6-0.8-0.8-1.4-1.8
			c-0.3-0.6-0.6-0.9-0.7-1.1c-0.2-0.4-0.4-1.1-0.8-1.6c-0.2-0.2-0.4-0.5-0.5-0.6l0,0c-0.1,0-0.9-1-1.2-1.3c-0.6-0.7-1.5-1.4-1.9-1.8
			c-0.4-0.4-1.5-1.2-2.5-1.6c-0.4-0.2-0.8-0.4-1.2-0.4c-0.9-0.2-2-0.5-2.8-0.6c-0.2,0-0.5-0.1-0.7-0.1c-0.3,0-0.6,0-0.8,0.3
			c-0.1,0.2-0.2,0.4-0.4,0.7c0,0.1-0.1,0.2-0.1,0.4c0,0.1-0.1,0.2-0.1,0.3c-0.1,0.4-0.2,0.9-0.2,1.3c0,0,0,0.5-0.1,1c0,0.5,0,1,0,1
			c0,0.3,0,0.7,0,1c0,0.2,0,0.3,0,0.5c0,0.2,0,0.5,0,0.7c0.1,1.2,0.2,2.4,0.9,2.8c0.2,0.1,0.4,0,0.5-0.1c0.1-0.1,0.2-0.2,0.3-0.3
			c0.1-0.1,0.2-0.2,0.3-0.4c0.1-0.2,0.2-0.3,0.2-0.4c0.1-0.1,0.3-0.4,0.5-0.8c0.1-0.2,0.2-0.4,0.3-0.6c0.1-0.2,0.2-0.3,0.2-0.5
			c0.4-0.9,0.9-1.4,1.4-2.2c0.2-0.4,0.5-0.7,0.9-1c0.4-0.2,0.6-0.2,1.1,0.1c0.6,0.5,0.9,0.9,1.2,1.5c0.2,0.3,0.3,0.6,0.5,1
			c0.4,0.9,0.6,1.3,0.8,2.2c0.1,0.5,0.2,0.8,0.5,1.3c0,0.1,0.1,0.2,0.1,0.3c0.1,0.4,0.3,1,0.4,1.6c0,0.3,0,0.6,0,0.8l-0.2,0
			c-0.4,0-0.8,0-1.1,0c-2.2,0-3.4-0.5-6.3-0.5c-0.9,0-3,0-4.8,0c-2.4,0-3.8,0.1-6,0.1c0-0.2,0-0.4,0-0.5c0-0.2,0-0.5,0.1-0.7
			c0.2-1.1-0.2-0.7-0.1-1.7c0-0.4,0-1.4,0-2.1c0-0.4,0-0.6,0-0.8c0-0.3,0.2-0.7,0.2-1.1c0,0,0,0,0,0l0.1,0c0.6,0,0.9-0.1,0.9-0.7
			c0-0.1,0-0.2,0-0.3c-0.1-0.2-0.2-0.2-0.4-0.2c-0.1,0-0.6,0-1,0c-0.1,0-2.2-0.1-2.5-0.1c-0.2,0-0.6-0.1-0.8-0.1
			c-0.1,0-0.5,0.1-0.7,0.1c-0.2,0-0.2,0.8-0.1,0.9c0.2,0.1,0.7,0.2,1.1,0.3c0,0.1-0.1,0.2-0.1,0.3c0,0.1,0.3,1.2,0.3,2.1
			c0,0.1,0,0.2,0,0.3c0,0.3,0,0.8,0,1.2c0,0.3-0.1,1.7-0.1,2.3c0,0.2-0.1,0.6-0.2,0.9c-0.3,0-0.6,0-0.9,0l-3,0c-0.7,0-1.4,0-2,0
			c-0.1-0.1-0.2-0.2-0.4-0.3c-0.2-0.2-0.5-0.3-0.7-0.4c-0.4-0.3-0.7-0.5-1-0.7c-0.2-0.1-0.3-0.3-0.4-0.4c-0.6-0.8-1.1-1.4-1.6-2.1
			c-0.2-0.3-1.3-1.3-1.4-1.4c-0.1-0.2-0.1-0.7-0.4-1c-0.1-0.2-0.3-0.3-0.5-0.5c-0.1-0.1-0.2-0.1-0.4-0.1c0,0-0.1,0-0.1,0
			c-0.1,0-0.3,0-0.5,0.1c0,0-0.1,0-0.2,0.1c0,0,0,0-0.1,0.1c-0.4,0.4-0.7,1.2-1,1.6c-0.3,0.5-0.3,1-0.3,1.5
			c-0.1,0.5-0.3,1.3-0.3,1.8c0,0.5,0,1.5-0.1,2.2c-0.1,0.7,0.1,4.2,0.2,4.7c0,0,0,0,0,0c-0.1,0.3,0,0.7,0,1.2c0,0.3,0.2,0.6,0.3,1
			c0,0.1,0,0.2,0,0.3c0,0.6,0,1.3,0.2,1.8c0.1,0.5,0.4,0.9,0.6,1.3c0.1,0.2,0.2,0.3,0.3,0.5c0.1,0.1,0.2,0.2,0.4,0.3
			c0.2,0.1,0.3,0.1,0.5,0.1c0.1,0,0.3-0.1,0.5-0.1c0.3-0.2,0.7-0.7,1-1.2c0.1-0.2,0.2-0.3,0.2-0.4c0.1-0.1,0.1-0.3,0.2-0.4
			c0.1-0.3,0.3-0.6,0.5-0.8c0.3-0.5,0.8-0.9,1.4-1.6c0,0,1.2-1.5,1.9-1.9c0.1-0.1,0.2-0.1,0.3-0.1c0.2-0.1,0.4-0.4,0.6-0.6
			c0.4,0.1,0.8,0.1,1,0c1.7,0,2.2,0.2,4.6,0.2c0.1,0,0.3,0,0.4,0c0,0.1,0,0.1,0,0.2c0,0.2,0,0.5-0.1,0.7c-0.2,1.1,0.1,3.1,0.1,3.8
			c0,0.4,0,0.6,0,0.8c0,0.3-0.2,0.7-0.2,1.1c0,0,0,0,0,0l-0.1,0c-0.6,0-0.9,0.1-0.9,0.7c0,0.1,0,0.2,0,0.3c0.1,0.2,0.2,0.2,0.4,0.2
			c0.1,0,0.6,0,1,0c0.1,0,0.3-0.1,0.3-0.1c0.2,0,1,0.2,1.2,0.2c0.3,0,0.6-0.1,0.9-0.1c0.2,0,0.6,0.1,0.8,0.1c0.1,0,0.5-0.1,0.7-0.1
			c0.2,0,0.2-0.8,0.1-0.9c-0.6-0.3-0.8-0.1-1-0.1c-0.1,0-0.2,0-0.3-0.1c0.1-0.6,0-1.8,0-2.4c0-0.1,0-0.2,0-0.3c0-0.3,0-0.8,0-1.2
			c0-0.3,0.1-2.3,0.1-2.9c0,0,0-0.1,0-0.1c0.7,0,1.5,0,2.5,0c1.3,0,2.6,0.1,3.6,0.1c2.7,0,3.8,0.2,5.6,0.2c1.3,0,2.9-0.1,4.2-0.1
			c0.6,0,1.2,0,1.8,0.1c0.3,0,0.6,0.1,0.9,0.1c0.1,0,0.1,0,0.2,0c0,0.6-0.1,1.2-0.2,1.9c-0.2,0.8-0.7,1.9-1,2.6c0,0,0,0,0,0
			c-0.3,0.4-0.6,1.1-1,1.8c-0.2,0.4-0.4,1-0.8,1.5c-0.1,0.1-0.2,0.2-0.3,0.2c-0.3,0.3-0.7,0.5-1,0.5c-0.3,0.1-0.5-0.1-0.8-0.3
			c-0.3-0.2-0.7-0.5-1-0.9c-0.3-0.4-0.5-0.8-0.6-1.3c-0.1-0.4-0.3-0.8-0.4-1.2c0-0.1-0.3-0.7-0.5-1.1c-0.2-0.5-0.4-0.9-0.7-1.3
			c-0.2-0.4-0.6-0.6-0.9-0.6c-0.1,0-0.2,0-0.3,0c-0.1,0-0.3,0-0.3,0.1c-0.2,0.1-0.3,0.2-0.4,0.4c-0.1,0.2-0.2,0.3-0.2,0.5
			c-0.1,0.2-0.1,0.4-0.2,0.6c-0.1,0.5-0.1,0.9-0.1,1.2c0,0.2,0,0.4,0,0.6c0,0.1,0,0.2,0,0.4c0,0.5,0,1,0,1.9l0,0.9
			c0,0.2,0,0.3,0,0.5c-0.1,0.3-0.2,0.7-0.1,1.1c0,0.1,0,0.2,0.1,0.4c0,0.1,0.1,0.3,0.1,0.4c0,0.2,0.2,0.5,0.3,0.7
			c0.2,0.5,0.9,0.7,1.5,0.6c0.2,0,0.3,0,0.4-0.1l0.3-0.1c0.2,0,0.4-0.1,0.6-0.1c0.2,0,0.4-0.1,0.6-0.1c0.5-0.1,1.3-0.6,1.8-0.8
			c0.5-0.2,1-0.2,1.6-0.6c0.9-0.5,1.7-1.2,2.5-1.8c0.2-0.2,0.5-0.4,1-0.8c0.4-0.4,1-1,1.6-1.8c0.7-1,1.1-1.2,1.7-2.1
			c0.3-0.5,0.6-0.9,0.7-1.2c0.5-0.8,0.8-1.4,1.1-2c0.2-0.4,0.4-0.7,0.6-1c0.2-0.4,0.5-0.8,0.6-1.4C121,22.7,120.9,22.3,120.9,22.1z
			 M106.1,15.3c-0.1,0-0.1,0-0.1,0.1c0,0,0,0.1-0.1,0.1c0,0-0.3,0.2-0.2,0.1c0,0,0-0.8,0-1c0-0.1,0-0.2,0-0.4c0-0.3,0-0.5,0.1-0.8
			c0-0.5,0.1-1,0.1-1.5c0-0.4-0.1-1-0.1-1.5c0-0.2,0.1-0.5,0.1-0.7c0-0.2,0.1-0.2,0.1-0.2l0,0c0.1,0,0.1,0,0.2,0.1c0,0,0,0,0,0
			l0.3,0.1c0.4,0.1,0.8,0.3,1.3,0.4c0,0-0.1,0-0.1,0l-0.5-0.1c-0.6,0-0.9,0-0.9,0.6c0,0.1,0,0.2,0,0.2c0.1,0.2,0.2,0.2,0.4,0.2
			c0.1,0,0.6,0,1,0c0.1,0,0.3,0,0.3,0c0.1,0,0.3,0,0.5,0c-0.1,0.1-0.2,0.3-0.3,0.4c-0.1,0-0.1,0-0.2,0c-0.1,0-0.3,0-0.4,0l-0.5-0.1
			c-0.6,0-0.9,0-0.9,0.6c0,0.1,0,0.2,0,0.2c0.1,0.2,0.2,0.2,0.4,0.2c0.1,0,0.6,0,1,0c0,0,0,0,0,0c-0.1,0.1-0.2,0.3-0.2,0.4l-0.3-0.1
			c-0.6,0-0.9,0-0.9,0.6c0,0.1,0,0.2,0,0.2c0.1,0.2,0.2,0.2,0.4,0.2c0,0,0.1,0,0.3,0c-0.1,0.1-0.2,0.3-0.2,0.4c-0.1,0-0.2,0-0.3,0
			c-0.2,0-0.2,0.7-0.1,0.7c0,0,0,0,0,0C106.2,15.1,106.2,15.2,106.1,15.3L106.1,15.3z M80.6,28.8c0,0.1-0.1,0.3-0.1,0.4
			c-0.1,0.2,0,0.2-0.1,0.3c0,0.1-0.1,0.3-0.2,0.4c0,0.1-0.1,0-0.1,0.1c0,0-0.1,0-0.1-0.1c0-0.1-0.1-0.2-0.1-0.3c0-0.2,0-0.3,0-0.4
			c0,0,0-0.1-0.1-0.3c-0.1-0.2-0.1-0.5-0.1-0.5c-0.1-0.4-0.1-0.7-0.2-1.1c-0.1-0.4-0.1-0.8-0.2-1.3c-0.1-0.4-0.1-1.4-0.2-1.8
			c-0.1-0.6,0.1-1,0.1-1.5c-0.1-0.5,0-1.2,0.1-2c0.1-0.8,0.1-0.9,0.2-1.7c0.1-0.8,0.4-2.1,0.2-2.7c0-0.4,0.3-0.9,0.5-1.2
			c0,0,0.1-0.1,0.2-0.2c0,0,0.1,0.1,0.1,0.1c0.2,0.4,0.5,0.6,0.8,1l-0.2,0c-0.6,0-0.9,0-0.9,0.6c0,0.1,0,0.2,0,0.2
			c0.1,0.2,0.2,0.2,0.4,0.2c0.1,0,0.6,0,1,0c0.1,0,0.2,0,0.3,0c0,0.1,0.1,0.1,0.1,0.2c-0.1,0.1-0.1,0.1-0.1,0.2
			c0,0.1-0.1,0.1-0.1,0.2c-0.1,0-0.1,0-0.2,0c-0.2,0-0.6-0.1-0.8-0.1c-0.1,0-0.5,0.1-0.7,0.1c-0.2,0-0.2,0.7-0.1,0.7
			c0.6,0.2,0.8,0.1,1,0.1c0.1,0,0.3,0,0.4,0.1c0,0.1,0,0.2-0.1,0.3c0,0.1-0.1,0.1-0.1,0.2c0,0-0.1,0-0.1,0l-0.5-0.1
			c-0.6,0-0.9,0-0.9,0.6c0,0.1,0,0.2,0,0.2c0.1,0.2,0.2,0.2,0.4,0.2c0.1,0,0.4,0,0.8,0c0,0.2-0.1,0.3-0.1,0.5l-0.4-0.1
			c-0.6,0-0.9,0-0.9,0.6c0,0.1,0,0.2,0,0.2c0.1,0.2,0.2,0.2,0.4,0.2c0.1,0,0.4,0,0.7,0c0,0.2,0,0.3,0,0.5l-0.4-0.1
			c-0.6,0-0.9,0-0.9,0.6c0,0.1,0,0.2,0,0.2c0.1,0.2,0.2,0.2,0.4,0.2c0.1,0,0.5,0,0.9,0c0,0.2,0,0.3,0.1,0.4c0,0,0,0,0,0l-0.3-0.1
			c-0.6,0-0.9,0-0.9,0.6c0,0.1,0,0.2,0,0.2c0.1,0.2,0.2,0.2,0.4,0.2c0.1,0,0.4,0,0.8,0c0,0.1,0,0.2,0,0.3c0,0,0,0.1,0,0.1l-0.1,0
			c-0.6,0-0.9,0-0.9,0.6c0,0.1,0,0.2,0,0.2c0.1,0.2,0.2,0.2,0.4,0.2c0.1,0,0.4,0,0.8,0c0,0.1,0,0.2,0,0.3c0,0.1,0,0.1,0,0.2
			c-0.1,0-0.2,0-0.3,0c-0.1,0-0.5,0.1-0.7,0.1c-0.2,0-0.2,0.7-0.1,0.7c0.6,0.2,0.8,0.1,1,0.1c0.1,0,0.2,0,0.3,0.1
			c0,0.1,0.1,0.2,0.2,0.3c-0.1,0.1-0.1,0.1-0.2,0.2l-0.4-0.1c-0.6,0-0.9,0-0.9,0.6c0,0.1,0,0.2,0,0.2c0.1,0.2,0.2,0.2,0.4,0.2
			c0,0,0.1,0,0.2,0C80.7,28.5,80.6,28.7,80.6,28.8z M85.4,24c-0.1,0.1-0.3,0.2-0.5,0.3c0,0-0.2,0.1-0.4,0.3
			c-0.2,0.1-0.4,0.3-0.4,0.3c-0.3,0.2-0.7,0.5-0.8,0.6c0,0-0.2,0.2-0.4,0.4C83,26,82.9,26,82.8,26.1c-0.1-0.3-0.2-0.8-0.3-1.2
			c0-0.1-0.2-0.5-0.2-0.6c0-0.3-0.1-0.9-0.1-1.3c0-0.4,0.2-0.6,0.2-1.1c0-0.6,0-1.2,0.1-1.8c0.1-0.4,0.4-1.1,0.5-1.4
			c0-0.1,0-0.2,0.1-0.3c0.1,0.2,0.2,0.4,0.4,0.5c0.3,0.3,0.8,0.6,1.1,0.8c0.4,0.3,0.6,0.7,1.1,1.1c0.4,0.3,0.4,0.2,0.8,0.4
			c0.6,0.6,0.5,1.5,0,2C86.3,23.4,85.9,23.7,85.4,24z M114.3,23.6c-1.8,0-3,0-4.1,0c-0.7,0-1.4-0.1-2-0.1c-3.3-0.2-6-0.2-9-0.3
			c-1.2,0-2,0.1-4,0.1c-0.5,0-0.5,0.8-0.5,1.1c0,0,0,0.1,0,0.1l0,0l0,0c-0.1,0.6-0.1,1.1,0,1.3c0.4,0.9,0,1.5,0,2.8
			c0,0.2,0,0.4,0,0.6l0,1c0,0.4,0,0.7,0.1,1c-0.2,0-0.4,0-0.6,0c0-0.3-0.1-0.7-0.1-1.1c0-0.6-0.2-1.1-0.2-2c0-0.4,0-0.3,0-0.6
			c0-0.9,0.2-1.3,0.2-1.9c0-0.4-0.1-0.8-0.1-1.2l0-0.3c0-1.2-0.1-0.8-1.4-0.8c-0.8,0-1.8,0-2.9,0c-0.1,0-0.2,0-0.3,0
			c-0.1-0.1-0.2-0.2-0.2-0.4c0-0.1-0.2-0.3-0.2-0.5c0.1-0.3,0.3-0.7,0.6-0.9c0.3,0,0.5,0,0.8,0c-0.1,0.1-0.2,0.1-0.2,0.2
			c-0.1,0.1-0.3,0.4-0.4,0.5c-0.2,0.2,0.3,0.7,0.4,0.6c0.6-0.3,0.6-0.5,0.8-0.6c0.2-0.1,0.6-0.4,0.9-0.7c0.2,0,0.3,0,0.5,0
			c-0.1,0.1-0.2,0.2-0.3,0.2c-0.1,0.1-0.3,0.4-0.4,0.5c-0.2,0.2,0.3,0.7,0.4,0.6c0.6-0.3,0.6-0.5,0.8-0.6c0.3-0.2,0.5-0.4,0.9-0.7
			c0.1,0,0.3-0.2,0.4-0.6l0,0c0,0,0-0.1,0-0.1c0,0,0,0,0,0c0.1-0.8,0.1-1.6,0-2c-0.1-1,0.2-1.6,0.2-2.9c0-0.2,0-0.4,0-0.6l0-1
			c0-0.4,0-0.7-0.1-1c0.2,0,0.5,0,0.6,0c0,0.3,0.1,0.7,0.1,1.1c0,0.6,0.2,1.1,0.2,2c0,0.4,0,0.3,0,0.6c0,0.9-0.1,1.4-0.1,2
			c0,0.4,0,0.8,0,1.3c0,0,0,0,0,0c0,0,0,0,0,0l0,0.1c0,0.2,0,0.3,0,0.6l0,0c0,0.2,0.1,0.4,0.8,0.4c-0.2,0.1-0.4,0.3-0.5,0.4
			c-0.1,0.1-0.3,0.4-0.4,0.5c-0.2,0.2,0.3,0.7,0.4,0.6c0.6-0.3,0.6-0.5,0.8-0.6c0.2-0.2,0.7-0.5,1.1-0.9c0,0,0,0,0,0
			c0.2,0,0.5,0,0.7,0c-0.2,0.1-0.4,0.3-0.5,0.4c-0.1,0.1-0.3,0.4-0.4,0.5c-0.2,0.2,0.3,0.7,0.4,0.6c0.6-0.3,0.6-0.5,0.8-0.6
			c0.2-0.1,0.6-0.4,1-0.7c0.2,0,0.3,0,0.5,0c-0.1,0.1-0.2,0.2-0.3,0.2c-0.1,0.1-0.3,0.4-0.4,0.5c-0.2,0.2,0.3,0.7,0.4,0.6
			c0.6-0.3,0.6-0.5,0.8-0.6c0.2-0.1,0.6-0.4,0.9-0.7c0.2,0,0.4,0,0.6,0c0,0.1-0.1,0.1-0.2,0.2l-0.3,0.2c-0.3,0.3-0.4,0.5,0,0.9
			c0.1,0.1,0.1,0.1,0.2,0.1c0.2,0.1,0.2,0,0.3-0.1c0,0,0.3-0.3,0.5-0.5c0,0,0.1-0.2,0.1-0.2c0.1-0.1,0.3-0.2,0.4-0.3
			c0.1-0.1,0.3-0.1,0.4-0.2c0.1-0.1,0.1-0.1,0.1-0.2c0.2,0,0.4,0,0.6,0c-0.1,0.1-0.3,0.2-0.4,0.3c-0.1,0.1-0.3,0.4-0.4,0.5
			c-0.2,0.2,0.3,0.7,0.4,0.6c0.6-0.3,0.6-0.5,0.8-0.6c0.2-0.1,0.7-0.5,1.1-0.8c0.2,0,0.3,0,0.5,0c0,0,0.1,0,0.1,0
			c0,0.1-0.1,0.2-0.2,0.2c-0.1,0.1-0.2,0.2-0.2,0.3c-0.1,0.1-0.3,0.1-0.5,0.2c-0.1,0.1,0.1,0.6,0.1,0.7c0.5,0.5,0.6,0.1,0.9-0.2
			c0.2-0.2,0.2-0.5,0.5-0.8c0.1-0.1,0.1-0.1,0.2-0.2c0.1-0.1,0.1-0.1,0.2-0.2c0.2,0,0.5,0,0.8,0c0,0,0,0,0,0l-0.4,0.3
			c-0.4,0.4-0.6,0.7-0.2,1.1c0.1,0.1,0.1,0.1,0.2,0.1c0.2,0.1,0.3,0,0.4-0.2c0,0,0.4-0.4,0.7-0.7c0,0,0.2-0.2,0.2-0.3
			c0.1-0.1,0.2-0.2,0.3-0.3c0.2,0,0.5,0,0.7,0c-0.1,0.1-0.3,0.2-0.4,0.3c-0.1,0.1-0.3,0.4-0.4,0.5c-0.2,0.2,0.3,0.7,0.4,0.6
			c0.6-0.3,0.6-0.5,0.8-0.6c0.2-0.1,0.6-0.4,1-0.8c0.2,0,0.4,0,0.6,0c-0.1,0.1-0.3,0.2-0.4,0.3c-0.1,0.1-0.3,0.4-0.4,0.5
			c-0.2,0.2,0.3,0.7,0.4,0.6c0.6-0.3,0.6-0.5,0.8-0.6c0.2-0.1,0.6-0.4,1-0.7c0.2,0,0.4,0,0.5,0c-0.1,0.1-0.3,0.2-0.3,0.3
			c-0.1,0.1-0.3,0.4-0.4,0.5c-0.2,0.2,0.3,0.7,0.4,0.6c0.6-0.3,0.6-0.5,0.8-0.6c0.1-0.1,0.3-0.2,0.5-0.4c-0.1,0.8-0.1,0.8-0.1,1.7
			C114.6,23.6,114.6,23.6,114.3,23.6z M107.3,35.6c-0.2,0.1-0.6,0.1-0.9,0.2c0,0-0.5,0.1-0.5,0.1c-0.1,0-0.2,0-0.2-0.1
			c0-0.1,0-0.1,0-0.1c0-0.1-0.1-0.7-0.2-1.1c0.1,0,0.1-0.6,0-1c0-0.8,0-1.9,0.1-2.4c0-0.1,0-0.3,0.1-0.5c0-0.1,0-0.2,0-0.3
			c0-0.1,0-0.1,0-0.1c0-0.1,0-0.2,0.1-0.3l0,0c0-0.1,0-0.1,0-0.2c0-0.1,0.1-0.1,0.1-0.1c0.1-0.1,0.2-0.1,0.3,0.1
			c0.1,0.1,0.1,0.2,0.2,0.3l0,0.1l0.1,0.1c0,0,0,0.1,0,0.1c-0.2,0.1-0.3,0.2-0.3,0.5c0,0.1,0,0.2,0,0.2c0.1,0.2,0.2,0.2,0.4,0.2
			c0,0,0.1,0,0.3,0c0,0.1,0.1,0.2,0.1,0.4c-0.5,0-0.9,0-0.9,0.6c0,0.1,0,0.2,0,0.2c0.1,0.2,0.2,0.2,0.4,0.2c0.1,0,0.5,0,0.9,0
			c0.1,0.1,0.1,0.3,0.2,0.4c-0.1,0-0.1,0-0.2,0l-0.5-0.1c-0.6,0-0.9,0-0.9,0.6c0,0.1,0,0.2,0,0.2c0.1,0.2,0.2,0.2,0.4,0.2
			c0.1,0,0.6,0,1,0c0.1,0,0.3,0,0.3,0c0.1,0,0.3,0,0.4,0c0.1,0.1,0.3,0.3,0.5,0.5c-0.1,0-0.1,0-0.2,0c-0.3,0-0.6,0.1-0.9,0.1
			c-0.2,0-0.6-0.1-0.8-0.1c-0.1,0-0.5,0.1-0.7,0.1c-0.2,0-0.2,0.7-0.1,0.7c0.6,0.2,0.8,0.1,1,0.1c0.2,0,0.4,0.1,0.7,0.1
			C107.6,35.5,107.5,35.5,107.3,35.6z M114.5,31c-0.2,0.1-0.3,0.2-0.5,0.4c0.3-0.6,0.4-1,0.5-1.3c0.2-0.3,0.5-0.8,0.7-1.5
			c0.2-1,0.7-1.7,0.8-2.7c0.1-0.9,0.4-2.3,0.4-3.8c0-1.1-0.1-1.6-0.2-2.4c0-0.4-0.1-0.8-0.2-1.2c-0.3-1.1-0.5-1.3-0.7-2.2
			c-0.1-0.5-0.2-1-0.6-1.6c0-0.1-0.1-0.2-0.1-0.3c0-0.1-0.1-0.1-0.1-0.2c0.3,0.3,0.6,0.5,0.9,0.7c0,0.1,0,0.2,0.1,0.3
			c-0.1,0.2-0.1,0.6,0,0.6c0.1,0,0.2,0.1,0.3,0.1c0.1,0.2,0.2,0.4,0.4,0.6c-0.1,0-0.1,0-0.2,0c-0.2,0-0.2,0.7-0.1,0.7
			c0.5,0.2,0.7,0.1,0.9,0.1c0.1,0.2,0.3,0.3,0.4,0.5c-0.2,0-0.4,0.1-0.6,0.1c-0.2,0-0.2,0.7-0.1,0.7c0.6,0.2,0.8,0.1,1,0.1
			c0.1,0,0.2,0,0.3,0.1c0.1,0.2,0.2,0.4,0.4,0.6c-0.2,0-0.5-0.1-0.6-0.1c-0.1,0-0.5,0.1-0.7,0.1c-0.2,0-0.2,0.7-0.1,0.7
			c0.6,0.2,0.8,0.1,1,0.1c0.2,0,0.5,0.1,0.9,0.1c0.1,0.1,0.1,0.2,0.2,0.3c-0.1,0-0.2,0-0.3,0c-0.2,0-0.6-0.1-0.8-0.1
			c-0.1,0-0.5,0.1-0.7,0.1c-0.2,0-0.2,0.7-0.1,0.7c0.6,0.2,0.8,0.1,1,0.1c0.3,0,0.8,0.1,1.4,0.2c0.1,0.2,0.1,0.4,0.2,0.6
			c-0.2,0-0.5,0-0.9,0c-0.1,0-0.3,0-0.4,0l-0.5-0.1c-0.6,0-0.9,0-0.9,0.6c0,0.1,0,0.2,0,0.2c0.1,0.2,0.2,0.2,0.4,0.2
			c0.1,0,0.6,0,1,0c0.1,0,0.3,0,0.3,0c0.2,0,0.5,0,0.7,0c0,0,0.1,0,0.1,0c-0.1,0.1-0.1,0.3-0.2,0.5c0,0,0,0,0,0c-0.3,0-0.5,0-0.8,0
			c-0.2,0-0.6-0.1-0.8-0.1c-0.1,0-0.5,0.1-0.7,0.1c-0.2,0-0.2,0.7-0.1,0.7c0.6,0.2,0.8,0.1,1,0.1c0.2,0,0.5,0.1,0.9,0.1
			c-0.1,0.2-0.2,0.3-0.2,0.5c-0.1,0-0.2,0-0.2,0c-0.2,0-0.6-0.1-0.8-0.1c-0.1,0-0.5,0.1-0.7,0.1c-0.2,0-0.2,0.7-0.1,0.7
			c0.6,0.2,0.8,0.1,1,0.1c0.1,0,0.2,0,0.3,0.1c-0.1,0.2-0.3,0.4-0.4,0.6c-0.2,0-0.5-0.1-0.6-0.1c-0.1,0-0.5,0.1-0.7,0.1
			c-0.2,0-0.2,0.7-0.1,0.7c0.4,0.2,0.6,0.1,0.8,0.1c-0.1,0.1-0.1,0.2-0.2,0.3c0,0-0.1,0.1-0.1,0.1c-0.1,0-0.1,0-0.2,0
			c-0.1,0-0.5,0.1-0.7,0.1c-0.2,0-0.2,0.7-0.1,0.7c0.2,0.1,0.3,0.1,0.5,0.1c-0.1,0.2-0.2,0.4-0.3,0.5c0,0-0.1,0-0.1,0
			c-0.1,0-0.5,0.1-0.7,0.1c-0.2,0-0.2,0.7-0.1,0.7c0.1,0.1,0.3,0.1,0.4,0.1C115.1,30.4,114.8,30.7,114.5,31z"/>
		<g>
			<path class="st0" d="M36.8,87.1L36.8,87.1c0-0.1,0-0.1,0-0.1l-0.2-0.5l-0.1-0.1c0,0-0.1-0.1-0.1-0.1c0-0.1-0.1-0.1-0.2-0.2
				c-0.3-0.2-0.6-0.3-0.9-0.4c0,0-0.1,0-0.1,0c-0.1,0-0.1,0-0.1,0l-1.4,0c-0.5,0-1,0-1.5,0c-0.1,0-0.2,0-0.2,0c-0.1,0-0.5,0-0.6,0
				l-0.1,0C31.1,85.8,31,86,31,86.2c0.1,0.4,0.4,0.5,0.6,0.5c0.1,0,0.2,0,0.2,0l0.1,0.1v1l0,0.1l0,0.1c0,0.2,0,0.5,0,0.8
				c0,0.1,0,0.3,0,0.5c0,0.1,0,0.2,0,0.3c0,0,0,0.1,0,0.1l0,0.6c0,0,0,0,0,0.1c0,0,0,0,0,0h-0.5l-0.3,0.1c-0.2,0-0.4,0.3-0.4,0.5
				c0,0.3,0.2,0.5,0.5,0.6h0.6c0,0,0.1,0,0.2,0c0.1,0,0.1,0,0.2,0l0.1,0c0,0,0.1,0,0.1,0c0.1,0,0.3,0,0.4,0c0.2,0,0.5,0,0.7,0
				c0,0,0.2,0,0.2,0l0.1,0c0.1,0,0.2,0,0.2-0.1c0.2-0.1,0.2-0.4,0.2-0.6c0-0.2-0.1-0.4-0.3-0.4c-0.1,0-0.6,0-0.8,0c0,0-0.1,0-0.1,0
				c0-0.2,0-0.3,0-0.5l0-0.2c0,0,0-0.1,0-0.1c0-0.2,0-0.3,0-0.3h0.5c0.2,0.1,0.5,0.1,0.8,0.1l0.7,0l0.1,0c0.4,0,0.5-0.1,0.9-0.3
				l0.1-0.1c0.1-0.1,0.1-0.1,0.2-0.1c0.1-0.1,0.1-0.1,0.2-0.2c0-0.1,0-0.1,0.1-0.1l0.1-0.1l0.1-0.4l0-0.1c0-0.1,0-0.2,0-0.3
				c0-0.1,0-0.1,0-0.1c0,0,0-0.1,0-0.2L36.8,87.1z M33.1,87.6c0-0.1,0-0.2,0-0.3c0,0,0-0.1,0-0.2c0-0.1,0-0.1,0-0.2l0-0.1
				c0,0,0-0.1,0-0.1c0,0,0,0,0,0c0.2,0,0.3,0,0.3,0l1.1,0c0.1,0,0.1,0,0.3,0l0.1,0c0.1,0,0.3,0,0.4,0.1l0.1,0.1
				c0.2,0.1,0.2,0.2,0.3,0.3v0.3c0,0,0,0.1,0,0.1c0,0,0,0-0.1,0.1c0,0-0.1,0.1-0.1,0.1c0,0-0.1,0.1-0.1,0.1c0,0,0,0,0,0.1
				c-0.1,0.1-0.3,0.1-0.5,0.1c-0.1,0-0.1,0-0.2,0c-0.1,0-0.3,0-0.4,0.1h-0.4l-0.1,0l-0.1,0.1c0,0-0.1,0-0.1,0c-0.1,0-0.2,0-0.3,0
				c-0.2,0-0.2,0-0.3,0C33.1,88,33.1,87.8,33.1,87.6z"/>
			<path class="st0" d="M44.7,89.3c-0.2,0-0.4,0.1-0.5,0.5l-0.2,0.4c-0.1,0.1-0.2,0.2-0.2,0.3h-1.8l-0.1,0l0,0c0,0-0.1,0-0.2,0
				c0,0-0.1,0-0.1,0c0,0-0.1,0-0.1,0v-0.2c0-0.1,0-0.1,0-0.1l0-0.1c0-0.2,0-0.3,0-0.5c0-0.1,0-0.2,0-0.3l0-0.1c0,0,0-0.1,0-0.1
				c0.1,0,0.1,0,0.2,0c0.1,0,0.1,0,0.2,0l0.1,0c0.1,0,0.2,0,0.3,0h0c0,0,0,0,0,0.1c0,0.1,0,0.2,0,0.3c0.1,0.2,0.4,0.4,0.7,0.3l0.1,0
				c0.2-0.2,0.2-0.4,0.2-0.6c0,0,0-0.1,0-0.1v-0.5c0-0.1,0-0.1,0-0.2c0-0.2,0.1-0.5-0.1-0.7c-0.1-0.1-0.3-0.2-0.6-0.1
				c-0.1,0-0.3,0.1-0.3,0.3L42,88.1h-0.3c-0.1,0-0.2,0-0.3,0c0,0,0,0-0.1,0c0-0.1,0-0.1,0-0.1c0-0.1,0-0.2,0-0.3l0-0.2l0,0
				c0-0.1,0-0.2,0-0.3c0-0.1,0-0.2,0-0.3c0,0,0.1,0,0.1,0h0.5c0.1,0,0.2,0,0.3,0c0,0,0.1,0,0.1,0c0.1,0,0.2,0,0.2,0l0.1,0l0.4-0.1
				l0.1,0c0.1,0,0.2,0,0.3,0c0,0,0.2,0,0.2,0c0,0,0.1,0.1,0.1,0.1c0,0,0.1,0.1,0.1,0.1l0.1,0.1c0,0.1,0.1,0.2,0.1,0.2
				c0.1,0.1,0.2,0.3,0.4,0.4c0.3,0,0.4-0.1,0.5-0.2c0.1-0.2,0-0.4,0-0.5L44.9,87c0-0.1-0.1-0.1-0.1-0.1c0-0.1-0.1-0.2-0.1-0.3
				c0-0.3-0.1-0.6-0.7-0.7l-0.1,0c-0.1,0-0.2,0-0.3,0l0,0c-0.1,0-0.2,0-0.4,0c-0.3,0-0.6,0-0.8,0l-0.1,0l-0.1,0c-0.1,0-0.3,0-0.7,0
				c-0.3,0-0.4,0-0.5,0l-0.7,0c-0.1,0-0.2,0-0.2,0c-0.2,0-0.4-0.1-0.5,0c-0.2,0-0.4,0.2-0.4,0.5c0,0.3,0.1,0.5,0.3,0.6l0,0l0,0
				c0.1,0,0.3,0,0.4,0c0,0,0,0,0,0.1c0,0,0,0.1,0,0.2c0,0.1,0,0.2,0,0.2c0,0.6,0,1.1,0,1.5c0,0,0,0.1,0,0.1c0,0.1,0,0.1,0,0.2
				c0,0,0,0.1,0,0.1c0,0.1,0,0.4,0,0.4c0,0.1,0,0.2,0,0.2c0,0,0,0.1,0,0.1c0,0.2,0,0.3,0,0.5c0,0,0,0,0,0c0,0-0.1,0-0.1,0h-0.5
				c-0.1,0-0.3,0-0.4,0.3c0,0-0.2,0.5,0.1,0.6c0.1,0.1,0.2,0.1,0.3,0.1c0,0,0,0,0.1,0c0.2,0,0.3,0,0.5,0c0.3,0,0.7,0,1.1-0.1
				c0,0,0,0,0.1,0c0.1,0,0.2,0,0.2,0l1.1,0c0.2,0,0.4,0,0.6,0.1l0.2,0c0,0,0.1,0,0.1,0c0,0,0,0,0.1,0l0.1,0c0.1,0,0.4,0,0.5,0l0.2,0
				c0.1,0,0.2,0,0.3,0c0.2,0,0.3-0.2,0.3-0.4l0.1-0.8c0.1-0.2,0.1-0.3,0.1-0.5c0-0.1,0-0.3-0.1-0.4C44.9,89.3,44.8,89.3,44.7,89.3z"
				/>
			<path class="st0" d="M51.9,89.3c0-0.1-0.1-0.4-0.1-0.4c0-0.1-0.2-0.4-0.3-0.5c-0.1-0.1-0.2-0.2-0.3-0.2C51,88.2,50.8,88,50.6,88
				c-0.1,0-0.3-0.1-0.3,0c-0.2,0-0.3-0.1-0.5-0.1c-0.1,0-0.2-0.1-0.4-0.1l-0.1,0c-0.1,0-0.1-0.1-0.2-0.1c-0.1-0.1-0.1-0.1-0.2-0.3
				l0,0c0,0,0-0.1,0-0.1L49,87c0,0,0,0,0.1-0.1c0,0,0.1-0.1,0.1-0.1c0,0,0.2-0.1,0.2-0.1l0.1,0c0.1,0,0.1,0,0.1,0c0,0,0.1,0,0.1,0
				c0,0,0,0,0.1,0c0.1,0,0.2,0,0.2,0h0c0,0,0.1,0,0.2,0c0.2,0,0.5,0.2,0.6,0.4c0,0.2,0.1,0.5,0.5,0.5l0.1,0c0.1,0,0.2,0,0.3-0.1
				l0-0.1c0-0.1,0-0.4,0-0.4c0-0.1,0-0.2,0-0.2c0-0.1,0-0.1,0-0.1l0-0.5c0-0.2-0.2-0.4-0.4-0.4c-0.1,0-0.2,0-0.2,0
				c-0.1,0-0.2,0.1-0.2,0.2c-0.1,0-0.1-0.1-0.2-0.1c-0.1-0.1-0.2-0.1-0.3-0.1c-0.5-0.2-0.9-0.2-1.4,0l-0.1,0c-0.2,0-0.3,0.1-0.5,0.2
				c0,0-0.1,0.1-0.2,0.2c0,0-0.1,0.1-0.1,0.1L48,86.5c0,0,0,0,0,0l-0.1,0.1c-0.2,0.5-0.2,0.8,0,1.3c0.3,0.8,1,1,1.7,1.1
				c0.1,0,0.2,0,0.2,0l0.1,0l0.1,0c0.1,0,0.1,0,0.1,0l0,0l0.1,0l0,0c0.1,0.1,0.2,0.1,0.3,0.1l0.1,0c0,0,0,0,0,0c0,0,0.1,0,0.1,0.1
				c0,0,0,0.1,0,0.1c0,0,0,0.1,0,0.1l0,0.1c0,0.1,0,0.1,0,0.1l0,0l0,0c0,0,0,0,0,0c0,0,0,0,0,0L51,90l0,0l-0.2-0.1
				c-0.2,0.3-0.4,0.4-0.7,0.6c-0.2,0.1-0.5,0-0.8,0l-0.1,0c-0.1,0-0.2,0-0.3-0.1c0,0-0.1-0.1-0.1-0.1l0,0h0c0,0,0,0-0.1-0.1
				c-0.1-0.1-0.1-0.4-0.2-0.6c0-0.1,0-0.1,0-0.2c0-0.2-0.2-0.3-0.4-0.3c-0.2,0-0.3,0-0.4,0.1c-0.1,0.1-0.1,0.3-0.1,0.5v0.2
				c0,0,0,0.1,0,0.1c0,0,0,0.1,0,0.1c0,0,0,0.1,0,0.1h0c0,0.3,0.1,0.7,0,1l0,0.1l0.1,0.1c0.1,0.1,0.2,0.2,0.4,0.2
				c0.2,0,0.3-0.1,0.3-0.2c0,0,0.1-0.1,0.1-0.1c0.1,0.1,0.3,0.1,0.4,0.1l0.1,0c0.1,0,0.2,0.1,0.3,0.1l0.1,0c0.2,0,0.3,0,0.5,0
				c0.5,0,1-0.2,1.4-0.6C51.6,90.7,52.1,90.1,51.9,89.3L51.9,89.3z M51,89.8L51,89.8L51,89.8L51,89.8z"/>
			<path class="st0" d="M59.6,89.9C59.6,89.9,59.6,89.9,59.6,89.9c0-0.3,0.1-0.5,0-0.6c-0.1-0.1-0.2-0.2-0.4-0.2l-0.1,0
				c-0.2,0-0.3,0-0.4,0.2c-0.1,0.1-0.1,0.3-0.1,0.4c0,0.1-0.1,0.2-0.1,0.3c-0.2,0.2-0.5,0.3-0.8,0.4c-0.4,0.1-0.8,0-1.1-0.2
				c-0.1-0.1-0.2-0.2-0.3-0.3c0-0.1-0.1-0.1-0.1-0.1c0-0.1-0.1-0.1-0.1-0.1c0,0,0-0.1,0-0.1l0,0l0-0.1l-0.1-0.1c0,0,0,0-0.1-0.1
				l0-0.1c-0.2-0.2-0.2-0.6-0.2-0.9c0-0.1,0-0.1,0-0.2c0-0.1,0-0.1,0-0.2c0-0.1,0-0.2,0-0.3c0,0,0,0,0-0.1c0-0.1,0.1-0.1,0.1-0.2
				c0-0.1,0.1-0.1,0.1-0.2l0.1-0.1c0.1-0.1,0.2-0.2,0.2-0.2c0.2-0.2,0.5-0.3,0.7-0.3h0c0,0,0.1,0,0.1,0h0.7c0.1,0,0.2,0.1,0.3,0.1
				c0.1,0.1,0.2,0.1,0.3,0.2l0.4,0.4c0.1,0.1,0.2,0.1,0.3,0.1c0.1,0,0.1,0,0.2,0c0.1,0,0.2-0.1,0.2-0.1l0.1-0.1l0-0.1
				c0.1-0.4,0.1-1-0.1-1.2c-0.1-0.1-0.2-0.1-0.2-0.1h-0.4c-0.1,0-0.2,0-0.3,0.1l-0.2-0.1c-0.3-0.1-0.5-0.2-0.8-0.2
				c-0.1,0-0.3,0-0.5,0c0,0-0.1,0-0.1,0c-0.1,0-0.4,0.1-0.4,0.1l-0.1,0c-0.2,0.1-0.5,0.1-0.7,0.3c0,0-0.2,0.1-0.3,0.2l-0.6,0.6
				l0,0.1c0,0-0.1,0.1-0.1,0.1c0,0.1-0.1,0.1-0.1,0.2c-0.1,0.1-0.1,0.2-0.1,0.3c0,0.1-0.1,0.2-0.1,0.3l0,0.1c0,0.3-0.1,0.6,0,0.9
				l0,0.1c0.1,0.4,0.1,0.8,0.4,1.3c0.5,0.8,1.1,1.3,1.8,1.4c0.1,0,0.2,0,0.5,0.1l0.2,0c0.1,0,0.3,0,0.4-0.1c0.1,0,0.1,0,0.2,0
				c0.1,0,0.1,0,0.2-0.1l0.1,0c0.1,0,0.1,0,0.2,0l0.3-0.1c0,0,0.1-0.1,0.1-0.1c0,0,0.1,0,0.1,0c0,0,0,0,0.1,0c0.1,0,0.2-0.1,0.3-0.2
				l0.3-0.2c0.1-0.1,0.2-0.2,0.2-0.4l0.1,0L59.6,89.9L59.6,89.9z M59.2,89.3C59.2,89.3,59.2,89.3,59.2,89.3L59.2,89.3L59.2,89.3z"/>
			<path class="st0" d="M68.5,90.7L68.5,90.7L68.5,90.7l0-0.1c-0.1-0.2-0.3-0.2-0.5-0.2c0,0-0.1,0-0.1,0l0,0l0,0c0,0,0-0.1-0.1-0.1
				l0-0.1l0-0.1c0,0-0.1-0.2-0.1-0.3c0-0.1-0.1-0.2-0.1-0.2c0-0.1-0.1-0.1-0.1-0.2c-0.1-0.1-0.1-0.2-0.2-0.3c0,0,0-0.1,0-0.2
				c0-0.1-0.1-0.1-0.1-0.2c-0.1-0.1-0.1-0.2-0.1-0.4c0-0.1,0-0.1-0.1-0.2c0-0.1-0.1-0.1-0.1-0.2c0,0,0,0,0,0c0,0,0-0.1-0.1-0.2
				c0-0.2-0.1-0.2-0.1-0.3c0,0,0,0,0-0.1l0-0.1c0-0.1-0.1-0.3-0.2-0.4c-0.1-0.3-0.2-0.5-0.3-0.7c0-0.2-0.1-0.3-0.2-0.5l-0.1-0.1
				c0,0-0.2-0.1-0.3-0.1c-0.1,0-0.1,0-0.2,0c-0.5,0-0.7,0.5-0.8,0.8l-0.1,0.2c-0.1,0.2-0.1,0.3-0.2,0.5l-0.5,1.3c0,0,0,0.1-0.1,0.1
				c0,0,0,0.1-0.1,0.2c0,0.1,0,0.1-0.1,0.1l-0.1,0.2c-0.2,0.3-0.3,0.7-0.5,1c0,0.1-0.1,0.1-0.1,0.2c0,0.1-0.1,0.2-0.1,0.3
				c0,0-0.1,0-0.1,0l-0.4,0c-0.2,0-0.3,0.2-0.4,0.4c-0.1,0.2,0,0.6,0.3,0.7l0.1,0.1h0.1c0.2,0,0.4,0,0.5,0l0.3,0v0
				c0.1,0,0.3,0,0.4,0l0.1,0l0.1,0c0,0,0.1,0,0.2,0c0.1,0,0.2,0.1,0.3,0.1c0.3,0,0.5-0.2,0.6-0.4c0-0.1,0-0.3-0.1-0.4l-0.1-0.1l0,0
				c-0.1-0.1-0.3-0.1-0.5-0.1c0-0.1,0.1-0.2,0.2-0.4l0.1-0.1c0.1-0.2,0.2-0.3,0.3-0.3H66c0,0,0.1,0,0.1,0h0.1c0,0,0,0.1,0.1,0.1
				c0,0,0,0.1,0.1,0.1l0,0.1l0,0c0,0,0,0.1,0.1,0.2l0.1,0.2c0,0,0,0,0,0c0,0-0.1,0-0.1,0c-0.1,0-0.2,0-0.3,0l-0.1,0
				c-0.2,0.1-0.3,0.3-0.3,0.5c0,0.1,0,0.6,0.5,0.6c0.1,0,0.1,0,0.2,0c0.1,0,0.2,0,0.3,0c0.3,0,0.5,0,0.8,0c0.2,0,0.4,0,0.6,0l0.1,0
				l0.1,0C68.6,91.3,68.5,90.9,68.5,90.7C68.5,90.8,68.5,90.7,68.5,90.7z M65.8,88.8c-0.1,0-0.2,0-0.4,0H65c-0.1,0-0.1,0-0.2,0
				c0,0-0.1,0-0.1,0c0-0.1,0.1-0.1,0.1-0.2c0-0.1,0.1-0.2,0.1-0.3c0-0.1,0.1-0.3,0.1-0.4c0,0,0.1-0.3,0.2-0.4c0-0.1,0-0.1,0.1-0.2
				c0,0,0,0,0,0c0,0.1,0,0.1,0.1,0.2c0,0.1,0.1,0.3,0.1,0.4c0,0,0,0.1,0.1,0.2c0,0,0.1,0.1,0.1,0.1c0,0,0,0.1,0,0.1
				c0,0.1,0.1,0.2,0.1,0.2C65.7,88.6,65.8,88.6,65.8,88.8C65.8,88.7,65.8,88.7,65.8,88.8z"/>
			<path class="st0" d="M76.2,86.7c0-0.1,0-0.4,0-0.8l0-0.1c0-0.1-0.1-0.3-0.4-0.4c-0.5,0-1.1,0-1.6,0c-0.5,0-1,0.1-1.6,0l-0.1,0
				l0,0c-0.2,0-0.4,0-0.7,0c-0.1,0-0.3,0-0.4,0l-0.2,0c-0.4,0.1-0.4,0.6-0.3,0.8l0,0.1c0,0.1,0,0.1,0,0.2c0,0.1,0,0.1,0,0.1
				c0,0,0,0.1,0,0.1c0,0.1-0.1,0.2,0,0.4c0,0.1,0.1,0.2,0.1,0.2l0,0l0.1,0c0.4,0.1,0.7-0.1,0.8-0.5l0-0.5l0.1-0.1h0
				c0.1,0,0.1,0,0.2,0l0.2,0c0.1,0,0.1,0,0.2,0c0,0,0.2,0,0.3,0c0,0,0.1,0,0.1,0c0,0.1,0,0.1,0,0.1v1c-0.1,0.2-0.1,0.4,0,0.6l0,0.1
				c0,0.1,0,0.2,0,0.3c0,0.2,0,0.4,0,0.6l0,0c0,0,0,0.1,0,0.2c0,0.1,0,0.3,0,0.4c0,0,0,0,0,0c0,0,0,0,0,0.1c0,0.1,0,0.1,0,0.2
				c0,0,0,0,0,0c-0.1,0-0.2,0-0.2,0h-0.3c-0.4,0-0.4,0.4-0.5,0.5c0,0.2,0.1,0.4,0.3,0.5c0.1,0,0.2,0,0.3,0c0.1,0,0.1,0,0.2,0
				c0,0,0.1,0,0.1,0c0.4,0,0.8-0.1,1,0l0.3,0c0.2,0,0.5,0,0.5,0l0.1,0c0.2,0,0.4-0.1,0.5-0.2c0.1-0.1,0.1-0.3,0.1-0.5
				c0-0.1,0-0.2-0.1-0.3c-0.2-0.2-0.4-0.2-0.5-0.2c-0.1,0-0.2,0-0.3,0c-0.1,0-0.2,0-0.2,0c0-0.1,0-0.2,0-0.4c0-0.2,0-0.4,0-0.6
				c0,0,0-0.1,0-0.1c0,0,0-0.1,0-0.1c0.1-0.4,0-0.8,0-1.2l0-0.4c0,0,0-0.1,0-0.1c0-0.1,0-0.1,0-0.2c0,0,0-0.1,0-0.1c0,0,0-0.2,0-0.3
				v0c0,0,0,0,0-0.1h0.6c0.1,0,0.1,0,0.2,0c0.2,0,0.3,0,0.4,0l0,0c0,0.1,0,0.2,0,0.3c0,0.2,0,0.3,0.1,0.5l0,0.1
				c0.1,0.1,0.2,0.2,0.4,0.2c0,0,0.1,0,0.2,0l0.1,0C76.4,87.3,76.3,87,76.2,86.7C76.2,86.8,76.2,86.7,76.2,86.7z"/>
			<path class="st0" d="M84,86.9c-0.1-0.1-0.2-0.2-0.3-0.3c0,0-0.1-0.1-0.1-0.1c0,0-0.3-0.2-0.3-0.3c0,0-0.1-0.1-0.1-0.1
				c-0.3-0.1-0.5-0.2-0.8-0.3c-0.2-0.1-0.5-0.1-0.7-0.1c-0.1,0-0.3,0-0.4,0l-0.1,0c-0.2,0-0.4,0.1-0.6,0.2l-0.1,0
				c-0.1,0-0.1,0-0.2,0c-0.1,0-0.3,0.1-0.5,0.2c-0.3,0.2-0.5,0.5-0.7,0.8c-0.3,0.4-0.5,0.9-0.4,1.4c-0.1,0.2-0.1,0.4-0.1,0.6
				c0.1,1.2,0.8,2.1,1.8,2.5c0,0,0.1,0,0.1,0.1c0.1,0,0.2,0.1,0.3,0.1c0,0,0.4,0.1,0.5,0.1c0.1,0,0.1,0,0.2,0c0.1,0,0.1,0,0.2,0
				c0.1,0,0.1,0,0.2,0l0,0l0.6-0.2l0.1,0c0.1,0,0.1-0.1,0.2-0.1c0.3-0.1,0.5-0.3,0.8-0.5c0.4-0.4,0.6-0.8,0.8-1.3c0,0,0-0.1,0.1-0.5
				c0-0.1,0-0.1,0-0.2l0,0l0-0.1c0-0.5-0.1-1.1-0.4-1.7C84.1,87.1,84,86.9,84,86.9z M79.8,88.6c0,0,0-0.1,0-0.1
				c0-0.1,0.1-0.5,0.1-0.6c0-0.1,0.1-0.3,0.2-0.4c0,0,0-0.1,0.1-0.1c0.1-0.1,0.1-0.2,0.2-0.2c0-0.1,0.1-0.1,0.1-0.1
				c0.4-0.2,0.7-0.3,1.1-0.3l0.2,0c0.1,0,0.2,0,0.3,0c0.3,0.1,0.5,0.2,0.7,0.4l0.1,0h0c0,0,0,0,0,0.1l0.1,0.2
				c0.1,0.2,0.3,0.4,0.4,0.6c0,0,0,0,0,0.1c0,0,0,0.1,0,0.1c0,0.3,0,0.5,0,0.8c0,0.1,0,0.2-0.1,0.3l-0.1,0.1
				c-0.2,0.4-0.4,0.7-0.7,0.9c-0.2,0.1-0.3,0.2-0.5,0.2c-0.1,0-0.2,0-0.3,0.1h-0.6l-0.2-0.1c-0.2-0.1-0.4-0.2-0.6-0.3
				c0,0-0.1-0.1-0.1-0.1c-0.1-0.1-0.1-0.1-0.2-0.2c0-0.1-0.1-0.2-0.1-0.2c0,0,0,0-0.1-0.1c0,0,0,0,0,0l0-0.1c0-0.1-0.1-0.2-0.1-0.3
				c0,0,0-0.1,0-0.1c0,0,0-0.1,0-0.2C79.9,88.9,79.9,88.7,79.8,88.6z"/>
			<path class="st0" d="M92.7,90.4c0,0-0.1,0-0.1,0l-0.1,0l-0.1,0c-0.2,0-0.4,0-0.4-0.1c-0.2-0.2-0.3-0.4-0.4-0.6l-0.1-0.1
				c-0.2-0.4-0.5-0.7-0.7-1c0.1-0.1,0.2-0.1,0.3-0.1l0.1,0c0.1,0,0.3-0.2,0.3-0.3c0.4-0.4,0.4-0.8,0.4-1.3c0-0.1,0-0.1-0.1-0.2
				c0-0.1-0.2-0.3-0.2-0.4l-0.1-0.1c0,0,0,0-0.1-0.1c0-0.1-0.1-0.1-0.2-0.2c-0.4-0.3-0.7-0.4-1.2-0.5c0,0,0,0-0.1,0
				c-0.1,0-0.2,0-0.3,0l-1.1,0l0,0l-0.1,0c0,0-0.2,0-0.4,0c-0.2,0-0.3,0-0.5,0c-0.5,0-0.6,0.3-0.6,0.4c0,0.1,0,0.4,0.2,0.5
				c0.1,0.1,0.3,0.1,0.4,0.1c0,0,0.1,0,0.1,0c0,0,0,0,0.1,0c0,0,0,0,0,0l0,0.2c0,0.1,0,0.3,0,0.3c0,0.1,0,0.3,0,0.4v0.3
				c0,0,0,0.1,0,0.2c0,0.1,0,0.2,0,0.2c0,0.2,0,0.3,0,0.4l0,0.1c0,0.3,0,0.6-0.1,0.9c0,0.1,0,0.3,0,0.4c0,0.1,0,0.1,0,0.1
				c-0.1,0-0.2,0-0.3,0c-0.2,0-0.3,0-0.4,0.1c-0.2,0.1-0.2,0.4-0.2,0.6c0.1,0.2,0.3,0.3,0.5,0.3h0.7c0.1,0,0.2,0,0.3,0
				c0,0,0.1,0,0.1,0c0,0,0.3,0.1,0.3,0.1h0.5c0.2,0,0.3-0.1,0.4-0.2c0.1-0.1,0.1-0.3,0.1-0.4c0-0.1-0.1-0.3-0.2-0.4l-0.1,0
				c-0.2,0-0.5,0-0.7,0l0,0c0-0.1,0-0.3,0-0.3v-1c0,0,0.1,0,0.1,0c0.2,0,0.3,0,0.5,0h0c0,0,0.1,0,0.2,0c0.1,0.1,0.2,0.1,0.3,0.1
				c0,0,0.1,0,0.1,0l0,0c0,0,0,0.1,0.1,0.1c0,0,0,0.1,0,0.1l0.4,0.7c0,0.2,0.1,0.3,0.3,0.5c0.1,0.1,0.2,0.2,0.2,0.3l0,0.1l0,0.1
				c0.1,0.2,0.4,0.4,0.7,0.5c0.1,0,0.2,0,0.4,0c0.2,0,0.4,0,0.7-0.2c0.3-0.1,0.3-0.4,0.2-0.5C93,90.7,92.9,90.5,92.7,90.4z
				 M88.9,87.2c0-0.1,0-0.3,0-0.5c0,0,0.1,0,0.2,0l0.1,0c0.1,0,0.1,0,0.2,0c0.3,0,0.6,0,0.8,0.1c0.5,0.2,0.6,0.5,0.5,0.7
				c0,0,0,0.1,0,0.2c-0.1,0.1-0.3,0.3-0.3,0.3c-0.1,0-0.2,0-0.3,0.1c-0.1,0-0.2,0-0.3,0l-0.3,0c-0.2,0-0.3,0-0.5,0c0,0,0,0,0,0
				L88.9,87.2L88.9,87.2z"/>
			<path class="st0" d="M98,90.5h-0.5c0,0,0,0,0,0c0-0.1,0-0.1,0-0.2l0-0.1l0,0c0-0.1,0-0.1,0-0.1l0-0.8c0.1-0.2,0-0.3,0-0.5v-0.6
				l0-0.1c0,0,0-0.1,0-0.2c0,0,0-0.1,0-0.1c0-0.1,0-0.1,0-0.2l-0.2,0l0,0l0.2-0.1l0-0.1l0,0c0-0.1,0-0.1,0-0.2c0-0.1,0-0.2,0-0.3
				l0,0c0.1,0,0.1,0,0.2,0c0.2,0,0.4,0,0.5-0.1l0.1,0l0-0.1c0.1-0.1,0.2-0.4,0.1-0.7c0-0.1-0.1-0.2-0.4-0.2l0,0l0,0c0,0-0.2,0-0.3,0
				l-1.2,0c0,0-0.1,0-0.1,0l0,0l-0.2,0c-0.1,0-0.2,0-0.2,0c-0.1,0-0.3,0-0.4,0.2c-0.1,0.2-0.1,0.4-0.1,0.5c0,0.2,0.1,0.3,0.3,0.3
				c0.2,0.1,0.3,0.1,0.5,0.1c0,0,0.1,0,0.1,0l0.1,0c0,0,0,0,0,0c0,0,0,0,0,0l0,0.6l0,0l0,0.8c0,0.2,0,0.5,0,0.7c0,0,0,0,0,0l0,0.2
				c0,0.1,0,0.1,0,0.2c0,0,0,0.1,0,0.1l0,1.1c0,0-0.1,0-0.1,0h-0.1c-0.1,0-0.6,0-0.6,0.4l0,0.3c0,0.2,0.1,0.3,0.3,0.4
				c0.1,0,0.2,0,0.2,0c0.1,0,0.2,0,0.3-0.1c0.4,0,0.8,0.1,1.1,0c0.1,0,0.3,0,0.4,0c0.3,0,0.4-0.2,0.4-0.5
				C98.4,90.8,98.3,90.5,98,90.5z"/>
			<path class="st0" d="M108.4,90.5h-0.5c0,0,0,0,0,0c0-0.1,0-0.1,0-0.2l0-0.1l0,0c0-0.1,0-0.1,0-0.1l0-0.8c0.1-0.2,0-0.3,0-0.5
				v-0.6l0-0.1c0,0,0-0.1,0-0.2c0,0,0-0.1,0-0.1c0-0.1,0-0.1,0-0.2l-0.2,0l0,0l0.2-0.1l0-0.1l0,0c0-0.1,0-0.1,0-0.2
				c0-0.1,0-0.2,0-0.3l0,0c0.1,0,0.1,0,0.2,0c0.2,0,0.4,0,0.5-0.1l0.1,0l0-0.1c0.1-0.1,0.2-0.4,0.1-0.7c0-0.1-0.1-0.2-0.4-0.2l0,0
				l0,0c0,0-0.2,0-0.3,0l-1.2,0c0,0-0.1,0-0.1,0l0,0l-0.2,0c-0.1,0-0.2,0-0.2,0c-0.1,0-0.3,0-0.4,0.2c-0.1,0.2-0.1,0.4-0.1,0.5
				c0,0.2,0.1,0.3,0.3,0.3c0.2,0.1,0.3,0.1,0.5,0.1c0,0,0.1,0,0.1,0l0.1,0c0,0,0,0,0,0c0,0,0,0,0,0l0,0.6l0,0l0,0.8
				c0,0.2,0,0.5,0,0.7c0,0,0,0,0,0l0,0.2c0,0.1,0,0.1,0,0.2c0,0,0,0.1,0,0.1l0,1.1c0,0-0.1,0-0.1,0h-0.1c-0.1,0-0.6,0-0.6,0.4l0,0.3
				c0,0.2,0.1,0.3,0.3,0.4c0.1,0,0.2,0,0.2,0c0.1,0,0.2,0,0.3-0.1c0.4,0,0.8,0.1,1.1,0c0.1,0,0.3,0,0.4,0c0.3,0,0.4-0.2,0.4-0.5
				C108.8,90.8,108.6,90.5,108.4,90.5z"/>
			<path class="st0" d="M117,85.7h-0.3c0,0-0.1,0-0.2,0l-0.6,0c0,0-0.1,0-0.1,0l-0.6,0c-0.1,0-0.3,0.1-0.3,0.3c0,0.2,0,0.6,0.2,0.7
				c0.1,0,0.1,0,0.2,0l0,0.1l0.1,0c0,0,0.1,0,0.2,0c0,0,0.1,0,0.1,0c0,0,0,0,0,0c0,0,0,0,0,0l0,0c0,0.2,0,0.3,0,0.5c0,0,0,0.1,0,0.2
				c0,0.1,0,0.3,0,0.4l0,0.1l0,0.1c0,0.1,0,0.4,0,0.4l0,0.1c0,0,0,0.1,0,0.1c0,0,0,0.1,0,0.1l0,0.2c0,0.1,0,0.1,0,0.2v0.3l0,0l0,0
				l0,0.1c0,0,0,0,0-0.1c0-0.1-0.1-0.1-0.1-0.1c-0.1-0.1-0.1-0.2-0.2-0.3c-0.1-0.1-0.2-0.2-0.2-0.3c0-0.1,0-0.2-0.1-0.2
				c0,0-0.1,0-0.1-0.1c0,0-0.2-0.2-0.2-0.2l-0.5-0.9c0-0.1-0.1-0.2-0.2-0.2c0,0,0,0,0-0.1c0-0.1-0.1-0.1-0.1-0.1
				c0,0-0.1-0.1-0.1-0.1c0-0.1,0-0.1-0.1-0.1l-0.4-0.6c-0.1-0.2-0.2-0.4-0.5-0.4c-0.1,0-0.3,0-0.4,0c-0.1,0-0.1,0-0.2,0
				c-0.1,0-0.2,0-0.4,0c-0.1,0-0.3,0-0.4,0c-0.1,0-0.2,0.1-0.3,0.1c-0.1,0.1-0.1,0.3-0.1,0.5l0,0.1c0.1,0.3,0.5,0.3,0.7,0.3
				c0,0,0.1,0,0.1,0c0,0,0,0,0,0.1l0,1.3c0,0,0,0.2,0,0.2l0,0.1c0,0.1,0,0.2,0,0.2c0,0.1,0,0.1,0,0.1l0,0.1l0,0.1c0,0.1,0,0.3,0,0.4
				l0,0.3c0,0,0,0,0,0.1c0,0.1-0.1,0.2,0,0.3c0,0.1,0,0.3,0,0.4c0,0.1,0,0.1,0,0.1h-0.5c-0.2,0-0.3,0.2-0.3,0.4
				c0,0.3,0.1,0.5,0.4,0.6c0.2,0,0.3,0,0.5,0c0.1,0,0.2,0,0.3,0c0,0,0.5,0,0.7,0c0,0,0,0,0,0l0,0l0.3,0c0.1,0,0.2-0.1,0.3-0.2
				c0.1-0.2,0-0.5,0-0.6c-0.1-0.2-0.4-0.2-0.5-0.2c0,0-0.1,0-0.1,0h-0.1c0-0.1,0-0.3,0-0.4l0-0.1l0-0.2c0,0,0-0.1,0-0.1
				c0-0.1,0-0.1,0-0.2l0-0.1v0c0-0.1,0-0.1,0-0.2v-0.2c0-0.1,0-0.3,0-0.6c0-0.1,0-0.2,0-0.2c0,0,0.1-0.2,0-0.3c0-0.1,0-0.1,0-0.1
				l0-0.4l0,0.1c0,0.1,0.1,0.2,0.1,0.3c0,0,0,0,0,0c0,0.1,0.1,0.1,0.1,0.2l0,0.2h0.1c0,0,0.1,0.1,0.2,0.2c0.1,0.1,0.2,0.3,0.3,0.4
				l0,0l0.3,0.4c0.1,0.2,0.3,0.5,0.4,0.6l0.1,0.1c0.1,0.2,0.3,0.5,0.4,0.7c0,0.1,0.1,0.1,0.1,0.2c0.1,0.1,0.1,0.1,0.1,0.2
				c0.2,0.3,0.3,0.5,0.5,0.7c0,0,0,0,0.1,0l0,0l0.1,0c0.1,0,0.1,0,0.2,0c0.1,0,0.1,0,0.2,0l0.1,0c0.2-0.2,0.2-0.7,0.2-1.3
				c0-0.1,0-0.2,0-0.3c0-0.1,0-0.4,0-0.6c0-0.3,0-0.6,0-0.7l0-0.9c0-0.1,0-0.1,0-0.2c0,0,0,0,0,0c0-0.1,0-0.2,0-0.3v-0.4
				c0,0,0.1,0,0.1,0c0.2,0,0.5,0,0.6-0.4c0-0.2,0.1-0.4,0-0.6C117.3,85.8,117.2,85.7,117,85.7z"/>
			<path class="st0" d="M130.3,89.9C130.3,89.9,130.3,89.9,130.3,89.9c0-0.3,0.1-0.5,0-0.6c-0.1-0.1-0.2-0.2-0.4-0.2l-0.1,0
				c-0.2,0-0.3,0-0.4,0.2c-0.1,0.1-0.1,0.3-0.1,0.4c0,0.1-0.1,0.2-0.1,0.3c-0.2,0.2-0.5,0.3-0.8,0.4c-0.4,0.1-0.8,0-1.1-0.2
				c-0.1-0.1-0.2-0.2-0.3-0.3c0-0.1-0.1-0.1-0.1-0.1c0-0.1-0.1-0.1-0.1-0.1c0,0,0-0.1,0-0.1l0,0l0-0.1l-0.1-0.1c0,0,0,0-0.1-0.1
				l0-0.1c-0.2-0.2-0.2-0.6-0.2-0.9c0-0.1,0-0.1,0-0.2c0-0.1,0-0.1,0-0.2c0-0.1,0-0.2,0-0.3c0,0,0,0,0-0.1c0-0.1,0.1-0.1,0.1-0.2
				c0-0.1,0.1-0.1,0.1-0.2l0.1-0.1c0.1-0.1,0.2-0.2,0.2-0.2c0.2-0.2,0.5-0.3,0.7-0.3h0c0,0,0.1,0,0.1,0h0.7c0.1,0,0.2,0.1,0.3,0.1
				c0.1,0.1,0.2,0.1,0.3,0.2l0.4,0.4c0.1,0.1,0.2,0.1,0.3,0.1c0.1,0,0.1,0,0.2,0c0.1,0,0.2-0.1,0.2-0.1l0.1-0.1l0-0.1
				c0.1-0.4,0.1-1-0.1-1.2c-0.1-0.1-0.2-0.1-0.2-0.1h-0.4c-0.1,0-0.2,0-0.3,0.1l-0.2-0.1c-0.3-0.1-0.5-0.2-0.8-0.2
				c-0.1,0-0.3,0-0.5,0c0,0-0.1,0-0.1,0c-0.1,0-0.4,0.1-0.4,0.1l-0.1,0c-0.2,0.1-0.5,0.1-0.7,0.3c0,0-0.2,0.1-0.3,0.2l-0.6,0.6
				l0,0.1c0,0-0.1,0.1-0.1,0.1c0,0.1-0.1,0.1-0.1,0.2c-0.1,0.1-0.1,0.2-0.1,0.3c0,0.1-0.1,0.2-0.1,0.3l0,0.1c0,0.3-0.1,0.6,0,0.9
				l0,0.1c0.1,0.4,0.1,0.8,0.4,1.3c0.5,0.8,1.1,1.3,1.8,1.4c0.1,0,0.2,0,0.5,0.1l0.2,0c0.1,0,0.3,0,0.4-0.1c0.1,0,0.1,0,0.2,0
				c0.1,0,0.1,0,0.2-0.1l0.1,0c0.1,0,0.1,0,0.2,0l0.3-0.1c0,0,0.1-0.1,0.1-0.1c0,0,0.1,0,0.1,0c0,0,0,0,0.1,0c0.1,0,0.2-0.1,0.3-0.2
				l0.3-0.2c0.1-0.1,0.2-0.2,0.2-0.4l0.1,0L130.3,89.9L130.3,89.9z M129.8,89.3C129.8,89.3,129.8,89.3,129.8,89.3L129.8,89.3
				L129.8,89.3z"/>
			<path class="st0" d="M138.3,85.8L138.3,85.8c-0.1,0-0.2-0.1-0.2-0.1l-0.1,0c-0.1,0-0.1,0-0.1,0h-0.3c0,0-0.1,0-0.2,0
				c-0.1,0-0.2,0-0.2,0l-0.4,0c0,0-0.1,0-0.1,0c-0.1,0-0.1,0-0.1,0c-0.1,0-0.3,0-0.3,0c-0.3,0-0.4,0.2-0.4,0.3v0.3
				c0,0.3,0.4,0.4,0.5,0.4c0,0,0,0,0,0c0,0,0.1,0,0.1,0c0,0,0.2,0,0.2,0c0,0.1,0,0.1,0,0.2c0,0.1,0,0.1,0,0.2c0,0,0,0,0,0.1
				c0,0.1,0,0.2,0,0.3c0,0.2,0,0.4,0,0.6c-0.1,0.2,0,0.4,0,0.5c0,0.1,0,0.2,0,0.3c0,0,0,0.1,0,0.1c0,0,0,0.1,0,0.1c0,0,0,0.1,0,0.1
				c0,0.2,0,0.6-0.1,0.8c-0.1,0.1-0.1,0.1-0.1,0.1c-0.3,0.4-0.6,0.5-1.2,0.5c-0.1,0-0.1-0.1-0.2-0.1c-0.1,0-0.2-0.1-0.2-0.1
				l-0.1-0.1c-0.2-0.2-0.4-0.4-0.5-0.6c0,0,0-0.1,0-0.1c0-0.1,0-0.2,0-0.3l0-0.1c0-0.1,0-0.2,0-0.3l0-0.8l0,0l0-0.5c0,0,0-0.1,0-0.1
				c0-0.1,0-0.1,0-0.1c0-0.3,0-0.3,0-0.3c0,0,0-0.1,0-0.2c0,0,0,0,0-0.1c0.1-0.1,0.4-0.1,0.5-0.1l0.1,0c0.3-0.1,0.3-0.4,0.3-0.5
				c0-0.2,0-0.3-0.1-0.3c0,0-0.1-0.1-0.1-0.1v0h-1.5c0,0-0.1,0-0.2,0c-0.1,0-0.1,0-0.2,0l-0.3,0c-0.2,0-0.4,0.2-0.4,0.4v0.3
				c0,0.2,0.2,0.4,0.3,0.4c0.1,0,0.3,0,0.4,0.1c0,0,0,0.1,0,0.1c0,0,0,0,0,0.1c0,0.1,0,0.2,0,0.3l0,0.2c0,0.3,0,0.6,0,0.9l0,0.2
				c0,0,0,0.1,0,0.1l0,0l0,1.2c0,0.2,0.2,0.7,0.4,0.9l0.7,0.6l0.1,0c0,0,0.1,0,0.1,0c0,0,0.1,0,0.1,0.1l0.1,0c0,0,0.1,0,0.1,0
				l0.1,0.1h0c0.1,0,0.2,0.1,0.2,0.1c0.1,0,0.3,0,0.4,0c0.3,0,0.6-0.1,0.8-0.2c0.1,0,0.1-0.1,0.2-0.1c0.1-0.1,0.2-0.1,0.2-0.1l0.1,0
				l0.4-0.4c0,0,0-0.1,0.1-0.1l0,0c0,0,0.1-0.1,0.1-0.2l0-0.1c0,0,0.1-0.1,0.1-0.2c0-0.1,0-0.1,0-0.2l0,0l0-0.1
				c0.1-0.4,0.1-1.1,0-1.4l0-0.1c0-0.3,0.1-0.7,0-1c0,0,0-0.1,0-0.1v-0.4c0-0.1,0-0.1,0-0.2c0,0,0,0,0,0c0,0,0.1,0,0.1,0
				c0.3,0,0.6-0.1,0.6-0.4V86C138.5,85.9,138.3,85.8,138.3,85.8z"/>
			<path class="st0" d="M146.2,89.9C146.2,89.9,146.2,89.9,146.2,89.9c0-0.3,0.1-0.5,0-0.6c-0.1-0.1-0.2-0.2-0.4-0.2l-0.1,0
				c-0.2,0-0.3,0-0.4,0.2c-0.1,0.1-0.1,0.3-0.1,0.4c0,0.1-0.1,0.2-0.1,0.3c-0.2,0.2-0.5,0.3-0.8,0.4c-0.4,0.1-0.8,0-1.1-0.2
				c-0.1-0.1-0.2-0.2-0.3-0.3c0-0.1-0.1-0.1-0.1-0.1c0-0.1-0.1-0.1-0.1-0.1c0,0,0-0.1,0-0.1l0,0l0-0.1l-0.1-0.1c0,0,0,0-0.1-0.1
				l0-0.1c-0.2-0.2-0.2-0.6-0.2-0.9c0-0.1,0-0.1,0-0.2c0-0.1,0-0.1,0-0.2c0-0.1,0-0.2,0-0.3c0,0,0,0,0-0.1c0-0.1,0.1-0.1,0.1-0.2
				c0-0.1,0.1-0.1,0.1-0.2l0.1-0.1c0.1-0.1,0.2-0.2,0.2-0.2c0.2-0.2,0.5-0.3,0.7-0.3h0c0,0,0.1,0,0.1,0h0.7c0.1,0,0.2,0.1,0.3,0.1
				c0.1,0.1,0.2,0.1,0.3,0.2l0.4,0.4c0.1,0.1,0.2,0.1,0.3,0.1c0.1,0,0.1,0,0.2,0c0.1,0,0.2-0.1,0.2-0.1l0.1-0.1l0-0.1
				c0.1-0.4,0.1-1-0.1-1.2c-0.1-0.1-0.2-0.1-0.2-0.1h-0.4c-0.1,0-0.2,0-0.3,0.1l-0.2-0.1c-0.3-0.1-0.5-0.2-0.8-0.2
				c-0.1,0-0.3,0-0.5,0c0,0-0.1,0-0.1,0c-0.1,0-0.4,0.1-0.4,0.1l-0.1,0c-0.2,0.1-0.5,0.1-0.7,0.3c0,0-0.2,0.1-0.3,0.2l-0.6,0.6
				l0,0.1c0,0-0.1,0.1-0.1,0.1c0,0.1-0.1,0.1-0.1,0.2c-0.1,0.1-0.1,0.2-0.1,0.3c0,0.1-0.1,0.2-0.1,0.3l0,0.1c0,0.3-0.1,0.6,0,0.9
				l0,0.1c0.1,0.4,0.1,0.8,0.4,1.3c0.5,0.8,1.1,1.3,1.8,1.4c0.1,0,0.2,0,0.5,0.1l0.2,0c0.1,0,0.3,0,0.4-0.1c0.1,0,0.1,0,0.2,0
				c0.1,0,0.1,0,0.2-0.1l0.1,0c0.1,0,0.1,0,0.2,0l0.3-0.1c0,0,0.1-0.1,0.1-0.1c0,0,0.1,0,0.1,0c0,0,0,0,0.1,0c0.1,0,0.2-0.1,0.3-0.2
				l0.3-0.2c0.1-0.1,0.2-0.2,0.2-0.4l0.1,0L146.2,89.9L146.2,89.9z M145.8,89.3C145.8,89.3,145.8,89.3,145.8,89.3L145.8,89.3
				L145.8,89.3z"/>
			<path class="st0" d="M151.2,90.5h-0.5c0,0,0,0,0,0c0-0.1,0-0.1,0-0.2l0-0.1l0,0c0-0.1,0-0.1,0-0.1l0-0.8c0.1-0.2,0-0.3,0-0.5
				v-0.6l0-0.1c0,0,0-0.1,0-0.2c0,0,0-0.1,0-0.1c0-0.1,0-0.1,0-0.2l-0.2,0l0,0l0.2-0.1l0-0.1l0,0c0-0.1,0-0.1,0-0.2
				c0-0.1,0-0.2,0-0.3l0,0c0.1,0,0.1,0,0.2,0c0.2,0,0.4,0,0.5-0.1l0.1,0l0-0.1c0.1-0.1,0.2-0.4,0.1-0.7c0-0.1-0.1-0.2-0.4-0.2l0,0
				l0,0c0,0-0.2,0-0.3,0l-1.2,0c0,0-0.1,0-0.1,0l0,0l-0.2,0c-0.1,0-0.2,0-0.2,0c-0.1,0-0.3,0-0.4,0.2c-0.1,0.2-0.1,0.4-0.1,0.5
				c0,0.2,0.1,0.3,0.3,0.3c0.2,0.1,0.3,0.1,0.5,0.1c0,0,0.1,0,0.1,0l0.1,0c0,0,0,0,0,0c0,0,0,0,0,0l0,0.6l0,0l0,0.8
				c0,0.2,0,0.5,0,0.7c0,0,0,0,0,0l0,0.2c0,0.1,0,0.1,0,0.2c0,0,0,0.1,0,0.1l0,1.1c0,0-0.1,0-0.1,0h-0.1c-0.1,0-0.6,0-0.6,0.4l0,0.3
				c0,0.2,0.1,0.3,0.3,0.4c0.1,0,0.2,0,0.2,0c0.1,0,0.2,0,0.3-0.1c0.4,0,0.8,0.1,1.1,0c0.1,0,0.3,0,0.4,0c0.3,0,0.4-0.2,0.4-0.5
				C151.6,90.8,151.4,90.5,151.2,90.5z"/>
			<path class="st0" d="M159.9,85.7h-0.3c0,0-0.1,0-0.2,0l-0.6,0c0,0-0.1,0-0.1,0l-0.6,0c-0.1,0-0.3,0.1-0.3,0.3
				c0,0.2,0,0.6,0.2,0.7c0.1,0,0.1,0,0.2,0l0,0.1l0.1,0c0,0,0.1,0,0.2,0c0,0,0.1,0,0.1,0c0,0,0,0,0,0c0,0,0,0,0,0l0,0
				c0,0.2,0,0.3,0,0.5c0,0,0,0.1,0,0.2c0,0.1,0,0.3,0,0.4l0,0.1l0,0.1c0,0.1,0,0.4,0,0.4l0,0.1c0,0,0,0.1,0,0.1c0,0,0,0.1,0,0.1
				l0,0.2c0,0.1,0,0.1,0,0.2v0.3l0,0l0,0l0,0.1c0,0,0,0,0-0.1c0-0.1-0.1-0.1-0.1-0.1c-0.1-0.1-0.1-0.2-0.2-0.3
				c-0.1-0.1-0.2-0.2-0.2-0.3c0-0.1,0-0.2-0.1-0.2c0,0-0.1,0-0.1-0.1c0,0-0.2-0.2-0.2-0.2l-0.5-0.9c0-0.1-0.1-0.2-0.2-0.2
				c0,0,0,0,0-0.1c0-0.1-0.1-0.1-0.1-0.1c0,0-0.1-0.1-0.1-0.1c0-0.1,0-0.1-0.1-0.1l-0.4-0.6c-0.1-0.2-0.2-0.4-0.5-0.4
				c-0.1,0-0.3,0-0.4,0c-0.1,0-0.1,0-0.2,0c-0.1,0-0.2,0-0.4,0c-0.1,0-0.3,0-0.4,0c-0.1,0-0.2,0.1-0.3,0.1c-0.1,0.1-0.1,0.3-0.1,0.5
				l0,0.1c0.1,0.3,0.5,0.3,0.7,0.3c0,0,0.1,0,0.1,0c0,0,0,0,0,0.1l0,1.3c0,0,0,0.2,0,0.2l0,0.1c0,0.1,0,0.2,0,0.2c0,0.1,0,0.1,0,0.1
				l0,0.1l0,0.1c0,0.1,0,0.3,0,0.4l0,0.3c0,0,0,0,0,0.1c0,0.1-0.1,0.2,0,0.3c0,0.1,0,0.3,0,0.4c0,0.1,0,0.1,0,0.1h-0.5
				c-0.2,0-0.3,0.2-0.3,0.4c0,0.3,0.1,0.5,0.4,0.6c0.2,0,0.3,0,0.5,0c0.1,0,0.2,0,0.3,0c0.1,0,0.5,0,0.7,0c0,0,0,0,0,0l0,0l0.3,0
				c0.1,0,0.2-0.1,0.3-0.2c0.1-0.2,0-0.5,0-0.6c-0.1-0.2-0.4-0.2-0.5-0.2c0,0-0.1,0-0.1,0h-0.1c0-0.1,0-0.3,0-0.4l0-0.1l0-0.2
				c0,0,0-0.1,0-0.1c0-0.1,0-0.1,0-0.2l0-0.1v0c0-0.1,0-0.1,0-0.2v-0.2c0-0.1,0-0.3,0-0.6c0-0.1,0-0.2,0-0.2c0,0,0.1-0.2,0-0.3
				c0-0.1,0-0.1,0-0.1l0-0.4l0,0.1c0,0.1,0.1,0.2,0.1,0.3c0,0,0,0,0,0c0,0.1,0.1,0.1,0.1,0.2l0,0.2h0.1c0,0,0.1,0.1,0.2,0.2
				c0.1,0.1,0.2,0.3,0.3,0.4l0,0l0.3,0.4c0.1,0.2,0.3,0.5,0.4,0.6l0.1,0.1c0.1,0.2,0.3,0.5,0.4,0.7c0,0.1,0.1,0.1,0.1,0.2
				c0.1,0.1,0.1,0.1,0.1,0.2c0.2,0.3,0.3,0.5,0.5,0.7c0,0,0,0,0.1,0l0,0l0.1,0c0.1,0,0.1,0,0.2,0c0.1,0,0.1,0,0.2,0l0.1,0
				c0.2-0.2,0.2-0.7,0.2-1.3c0-0.1,0-0.2,0-0.3c0-0.1,0-0.4,0-0.6c0-0.3,0-0.6,0-0.7l0-0.9c0-0.1,0-0.1,0-0.2c0,0,0,0,0,0
				c0-0.1,0-0.2,0-0.3v-0.4c0,0,0.1,0,0.1,0c0.2,0,0.5,0,0.6-0.4c0-0.2,0.1-0.4,0-0.6C160.1,85.8,160.1,85.7,159.9,85.7z"/>
			<path class="st0" d="M169.2,90.8C169.2,90.8,169.2,90.7,169.2,90.8L169.2,90.8l0-0.1l0-0.1c-0.1-0.2-0.3-0.2-0.5-0.2
				c0,0-0.1,0-0.1,0l0,0l0,0c0,0,0-0.1-0.1-0.1l0-0.1l0-0.1c0,0-0.1-0.2-0.1-0.3c0-0.1-0.1-0.2-0.1-0.3c0-0.1-0.1-0.1-0.1-0.2
				c-0.1-0.1-0.1-0.2-0.2-0.3c0,0,0-0.1,0-0.2c0-0.1-0.1-0.1-0.1-0.2c-0.1-0.1-0.1-0.2-0.1-0.4c0-0.1,0-0.1-0.1-0.2
				c0-0.1-0.1-0.1-0.1-0.2c0,0,0,0,0,0c0,0,0-0.1-0.1-0.2c0-0.2-0.1-0.2-0.1-0.3c0,0,0,0,0-0.1l0-0.1c0-0.1-0.1-0.3-0.2-0.4
				c-0.1-0.3-0.2-0.5-0.3-0.7c0-0.2-0.1-0.3-0.2-0.5l-0.1-0.1c0,0-0.2-0.1-0.3-0.1c-0.1,0-0.1,0-0.2,0c-0.5,0-0.7,0.5-0.8,0.8
				l-0.1,0.2c-0.1,0.2-0.1,0.3-0.2,0.5l-0.5,1.3c0,0,0,0.1-0.1,0.1c0,0,0,0.1-0.1,0.2c0,0.1,0,0.1-0.1,0.1l-0.1,0.2
				c-0.2,0.3-0.3,0.7-0.5,1c0,0.1-0.1,0.1-0.1,0.2c0,0.1-0.1,0.2-0.1,0.3c0,0-0.1,0-0.1,0l-0.4,0c-0.2,0-0.3,0.2-0.4,0.4
				c-0.1,0.2,0,0.6,0.3,0.7l0.1,0.1h0.1c0.2,0,0.4,0,0.5,0l0.3,0v0c0.1,0,0.3,0,0.4,0l0.1,0l0.1,0c0,0,0.1,0,0.2,0
				c0.1,0,0.2,0.1,0.3,0.1c0.3,0,0.5-0.2,0.6-0.4c0-0.1,0-0.3-0.1-0.4l-0.1-0.1l0,0c-0.1-0.1-0.3-0.1-0.5-0.1c0,0,0,0,0,0
				c0-0.1,0.1-0.2,0.2-0.4l0.1-0.1c0.1-0.2,0.2-0.3,0.3-0.3h1.5c0,0,0.1,0,0.1,0h0.1c0,0,0,0.1,0.1,0.1c0,0,0,0.1,0.1,0.1l0,0.1l0,0
				c0,0,0,0.1,0.1,0.2l0.1,0.2c0,0,0,0,0,0c0,0-0.1,0-0.1,0c-0.1,0-0.2,0-0.3,0l-0.1,0c-0.2,0.1-0.3,0.3-0.3,0.5
				c0,0.1,0,0.6,0.5,0.6c0.1,0,0.1,0,0.2,0c0.1,0,0.2,0,0.3,0c0.3,0,0.5,0,0.8,0c0.2,0,0.4,0,0.6,0l0.1,0l0.1,0
				C169.3,91.3,169.2,90.9,169.2,90.8z M166.5,88.8c-0.1,0-0.2,0-0.4,0h-0.5c-0.1,0-0.1,0-0.2,0c0,0-0.1,0-0.1,0
				c0-0.1,0.1-0.1,0.1-0.2c0-0.1,0.1-0.2,0.1-0.3c0-0.1,0.1-0.3,0.1-0.4c0,0,0.2-0.3,0.2-0.4c0-0.1,0-0.1,0.1-0.2c0,0,0,0,0,0
				c0,0.1,0,0.1,0.1,0.2c0,0.1,0.1,0.3,0.1,0.4c0,0,0,0.1,0.1,0.2c0,0,0.1,0.1,0.1,0.1c0,0,0,0.1,0,0.1c0,0.1,0.1,0.2,0.1,0.2
				C166.4,88.6,166.4,88.6,166.5,88.8C166.5,88.7,166.5,88.7,166.5,88.8z"/>
		</g>
		<g>
			<path class="st1" d="M5.6,88c0.3-0.4,0.8-0.8,0.9-1.1c0.1-0.3,0.7-1,2.1-1.2c0.5-0.1,1-0.1,1.3-0.1c0.7,0,1.1,0.1,1.5,0.2
				c0.5,0.2,1.2,0.4,1.6,0.8c0.5,0.4,0.8,0.5,1.1,0.6c0.3,0.1,0.2,0.5,1,0.7c0.7,0.2,1.2,1,2,1c0.1,0,0.2,0,0.3,0c0.9-0.3,1-1,1-1.3
				c0-0.3,0.3-1,0.6-1.1c0.1,0,0.2-0.1,0.3-0.1c0.4,0,1,0.2,1.1,0.9v0.2c0,0.5-0.3,1.4-0.7,1.8c-0.4,0.5-0.7,1.4-2,2.1
				c-0.5,0.3-1.1,0.3-1.7,0.3c-0.3,0-0.6,0-0.8-0.1c-0.8-0.1-2.1-0.9-2.7-1.4c-0.7-0.5-1.6-0.9-2.1-1.2c-0.5-0.2-0.9-0.4-1.3-0.4
				c-0.2,0-0.3,0-0.5,0.1c-0.1,0.1-0.2,0.1-0.3,0.1c-0.2,0-0.4-0.1-0.6-0.1c-0.1,0-0.3,0-0.4,0.1c-0.4,0.4-0.8,0.7-0.9,1
				c-0.1,0.4-0.1,0.9-0.7,1.2C5.7,91,5.6,91,5.5,91c-0.5,0-1-0.5-1-1C4.5,89,5.3,88.4,5.6,88z M7.3,89.7c0,0.6-0.4,1-1.4,1.3
				c0.6-0.3,0.7-0.9,0.8-1.3c0.1-0.4,0.4-0.6,0.8-1c0.1-0.1,0.6,0.1,0.7,0.1C7.9,89.1,7.3,89.4,7.3,89.7z M7,87.9
				c0,0,0.8-0.1,1.2-0.2c0.2-0.1,0.4-0.1,0.6-0.1c0.3,0,0.7,0,1,0.1c0.7,0.1,1.4,0.5,1.8,0.7c0.4,0.2,0.7,0.4,1.2,0.8
				c0.5,0.4,0.8,0.5,1,0.8c0.2,0.3,1.4,0.5,1.7,0.8c0.1,0.1,0.4,0.1,0.7,0.1c0.5,0,1.1-0.1,1.3-0.2c0.2-0.1,1.2-1.2,1.1-1.3h-0.3
				C18.1,89.7,18,90,17.9,90c-0.1,0.1-0.5,0.3-0.5,0.1c0-0.1,0.1-0.4,0.2-0.6c-0.1,0-0.3,0.1-0.4,0.1c-0.2,0.3-0.6,0.8-0.7,0.8
				c-0.2,0.1-0.5-0.1-0.5-0.5c0-0.2,0.2-0.3,0.4-0.5c-0.2,0-0.3,0-0.5,0c-0.3,0.3-0.6,0.5-0.8,0.5c-0.3,0-0.4-0.2-0.3-0.3
				c0-0.1,0.3-0.3,0.5-0.4c-0.1-0.1-0.3-0.2-0.4-0.3l-0.9,0.6c-0.1,0.1-0.2,0-0.4-0.1c-0.1-0.1-0.2-0.2,0-0.4
				c0.1-0.1,0.4-0.3,0.7-0.5l-0.5-0.3c-0.3,0.2-0.7,0.5-0.9,0.6c-0.2,0.1-0.4-0.1-0.5-0.1c-0.1-0.1-0.1-0.2,0.1-0.4l0.7-0.4
				l-0.5-0.3C12.5,87.6,12,88,11.9,88c-0.2,0.1-0.3-0.1-0.3-0.2c-0.1-0.1,0.1-0.3,0.3-0.3l0.4-0.2L11.6,87l-0.8,0.5
				c-0.1,0.1-0.4,0.1-0.5,0.1c-0.1-0.1-0.1-0.4,0-0.5c0-0.1,0.3-0.2,0.6-0.4v0c-0.1-0.1-0.4-0.1-0.7-0.2l-0.1,0L9,87.2
				c-0.1,0.1-0.4,0.1-0.5,0.1c-0.1-0.1-0.1-0.4,0-0.6c0-0.1,0.3-0.2,0.7-0.4H9c-0.2,0-0.4,0-0.6,0.1c-0.3,0.1-1.2,1.2-1.2,1.2
				L7,87.9z M19.8,86.2c0.5,0,1.4,0.1,1.6,1v0.2c0,0.5-0.3,1.4-0.7,1.8c-0.4,0.5-0.7,1.4-2,2.1c-0.4,0.2-1.4,0.5-2.1,0.5
				c0.6,0,1.2-0.3,1.6-0.5c1.3-0.8,1.6-1.7,2-2.1c0.4-0.4,0.7-1.2,0.7-1.8v-0.2C20.7,86.5,20.2,86.2,19.8,86.2z"/>
			<g>
				<path class="st1" d="M181.1,91.4c0.5,0.3,1.1,0.3,1.7,0.3c0.3,0,0.6,0,0.8-0.1c0.8-0.1,2.1-0.9,2.7-1.4c0.7-0.5,1.6-0.9,2.1-1.2
					c0.5-0.2,0.9-0.4,1.3-0.4c0.2,0,0.3,0,0.5,0.1c0.1,0.1,0.2,0.1,0.3,0.1c0.2,0,0.4-0.1,0.6-0.1c0.1,0,0.3,0,0.4,0.1
					c0.4,0.4,0.8,0.7,0.9,1c0.1,0.4,0.1,0.9,0.7,1.2c0.1,0.1,0.2,0.1,0.3,0.1c0.5,0,1-0.5,1-1c0-1-0.8-1.6-1.1-2.1
					c-0.3-0.4-0.8-0.8-0.9-1.1c-0.1-0.3-0.7-1-2.1-1.2c-0.5-0.1-1-0.1-1.3-0.1c-0.7,0-1.1,0.1-1.5,0.2c-0.5,0.2-1.2,0.4-1.6,0.8
					c-0.5,0.4-0.8,0.5-1.1,0.6c-0.3,0.1-0.2,0.5-1,0.6c-0.7,0.2-1.2,1-2,1c-0.1,0-0.2,0-0.3,0c-0.9-0.3-1-1-1-1.3
					c0-0.3-0.3-1-0.6-1.1c-0.1,0-0.2-0.1-0.3-0.1c-0.4,0-1,0.2-1.1,0.9v0.2c0,0.5,0.3,1.4,0.7,1.8C179.5,89.7,179.8,90.6,181.1,91.4
					z M180.4,89.5h0.3c0.1,0.3,0.3,0.6,0.3,0.7c0.1,0.1,0.5,0.3,0.5,0.1c0-0.1-0.1-0.4-0.2-0.6c0.1,0,0.3,0.1,0.4,0.1
					c0.2,0.3,0.6,0.8,0.7,0.8c0.2,0.1,0.5-0.1,0.5-0.5c0-0.2-0.2-0.3-0.4-0.5c0.2,0,0.3,0,0.5,0c0.3,0.3,0.6,0.5,0.8,0.5
					c0.3,0,0.4-0.2,0.3-0.3c0-0.1-0.3-0.3-0.5-0.4c0.1-0.1,0.3-0.2,0.4-0.3l0.9,0.6c0.1,0.1,0.2,0,0.4-0.1c0.1-0.1,0.2-0.2,0-0.4
					c-0.1-0.1-0.4-0.3-0.7-0.5l0.5-0.3c0.3,0.2,0.7,0.5,0.9,0.6c0.2,0.1,0.4-0.1,0.5-0.1c0.1-0.1,0.1-0.2-0.1-0.4l-0.7-0.4l0.5-0.3
					c0.3,0.1,0.8,0.5,0.9,0.5c0.2,0.1,0.3-0.1,0.3-0.2c0.1-0.1-0.1-0.3-0.3-0.3l-0.4-0.2l0.6-0.3l0.8,0.5c0.1,0.1,0.4,0.1,0.5,0.1
					c0.1-0.1,0.1-0.4,0-0.5c0-0.1-0.3-0.2-0.6-0.4v0c0.1-0.1,0.4-0.1,0.7-0.2l0.1,0l1.2,0.8c0.1,0.1,0.4,0.1,0.5,0.1
					c0.1-0.1,0.1-0.4,0-0.6c0-0.1-0.3-0.2-0.6-0.4h0.2c0.2,0,0.4,0,0.6,0.1c0.3,0.1,1.2,1.2,1.2,1.2l0.2,0.3c0,0-0.8-0.1-1.2-0.2
					c-0.2-0.1-0.4-0.1-0.6-0.1c-0.3,0-0.7,0-1,0.1c-0.7,0.1-1.4,0.5-1.8,0.6c-0.4,0.2-0.7,0.4-1.2,0.8c-0.5,0.4-0.8,0.5-1,0.8
					c-0.2,0.3-1.4,0.5-1.7,0.8c-0.1,0.1-0.4,0.1-0.7,0.1c-0.5,0-1.1-0.1-1.3-0.2C181.3,90.7,180.2,89.6,180.4,89.5z"/>
				<path class="st1" d="M181.4,88.5c-0.4-0.4-0.7-0.7-0.7-1c0-0.4-0.2-1-0.7-1.3c1,0.3,1.3,0.8,1.3,1.4c0,0.4,0.5,0.7,0.9,1
					C182,88.5,181.5,88.6,181.4,88.5z"/>
				<path class="st1" d="M194,91.1c0.4-0.1,0.9-0.5,0.9-1.2l0-0.2c-0.1-0.5-1-1.8-1.4-2.2c-0.4-0.5-0.5-1.1-1.9-1.7
					c-0.4-0.2-1.1-0.4-1.6-0.4c0.6,0,1.7,0.1,2.1,0.3c1.4,0.7,1.5,1.3,1.9,1.7c0.4,0.4,1.3,1.6,1.4,2.2l0,0.2
					C195.4,90.8,194.5,91,194,91.1z"/>
			</g>
		</g>
		<g>
			<path class="st1" d="M2.9,50.2c0.5,0,0.9,0,2,0h1.3c0.6,0,1.2-0.2,1.8-0.2c0.7-0.1,1.4-0.1,2.2-0.1h2.5c1.3,0,3,0.2,4,0.6
				c1.1,0.4,2.3,1.1,3,2.2c0.6,1,1.2,2.4,1.2,3.7c0,0.1,0,0.3-0.1,0.5c-0.1,1.3-0.6,2.7-1.2,3.3c-0.5,0.6-1.2,1.1-2.1,2.1
				c-0.9,1-2.2,1-2.8,1.3c-0.6,0.3-2,0.5-3,0.5c-0.4,0-0.7,0-1,0c-0.5,0-0.9,0-1.2-0.1c-0.3,0-0.4,0.6-0.6,1.6c0,0.2,0,0.5,0,0.8
				c0,1.1,0.1,2.4,0.1,2.4v2.6c0,0.4,0.6,0.4,1.2,0.6c0.4,0.1,0.4,0.3,0.4,0.5c0,0.2-0.1,0.4-0.1,0.6c-0.1,0.3-0.6,0.4-1.1,0.4
				c-0.3,0-0.6,0-0.9-0.1c-0.2,0-0.5,0-0.7,0c-0.6,0-1.4,0-1.7,0.1c-0.5,0-2.1,0.1-2.7,0.2c-0.1,0-0.2,0-0.2,0
				c-0.3,0-0.5-0.3-0.5-0.7c0-0.1,0.1-0.3,0.1-0.4c0-0.2,0.2-0.4,0.5-0.4c0.2,0,0.4,0.1,0.5,0.1c0.4,0,0.4-0.6,0.4-1.1
				c0-0.6,0-2-0.1-2.8c0-0.2,0-0.5,0-0.7c0-0.5,0-1,0-2.1c0-0.6-0.1-1.3-0.1-2.3c0-0.4,0-0.7,0-1.1c0-0.5,0-1.1,0-1.6
				c0-1,0-1.9,0-2.7c0-1.1,0-2.7,0.1-3.9c0-0.2,0-0.4,0-0.6c0-0.9-0.1-1.3-0.4-1.5c-0.2-0.2-0.7,0-1.1-0.1c-0.3-0.1-0.5-0.9-0.5-1.3
				c0-0.1,0-0.2,0-0.3C2.5,50.3,2.6,50.2,2.9,50.2z M5.3,53.4c0,0.4,0,0.9,0,1.4c0.1,1.2,0.1,1.8,0.1,3.5v1c0,0.8,0,1.1-0.1,2.7
				c-0.1,0.5-0.1,1-0.1,1.3c0,1.1,0.2,1.6,0.2,2.5c0,1.2,0,1.6,0.1,2.7c0,0.1,0,0.3,0,0.4c0,0.8-0.2,1.6-0.2,2.4
				c0.1,0.6,0.7,0.8,1.4,0.9c0,0,0,0,0,0c-0.1-0.1-0.4-0.4-0.2-0.5c0.2-0.1,0.8-0.1,1.1-0.1c0-0.1,0-0.2,0-0.3H7.5
				c-0.2,0-1.1,0-1.2-0.1c-0.1-0.1-0.1-0.4,0.1-0.5c0.2-0.1,1.1-0.1,1.5,0c0-0.2,0-0.4,0.1-0.6H7.6c-0.1,0-1,0.1-1.2,0.1
				c-0.2,0-0.2-0.4-0.2-0.5c0-0.1,0.7-0.2,1.2-0.2c0.1,0,0.3,0,0.5,0c0-0.2,0-0.4,0-0.5c-0.4,0-1.1,0-1.3,0c-0.3,0-0.4-0.4-0.4-0.5
				c0-0.1,0.4-0.2,0.7-0.2c0.2,0,0.7,0,1.1,0v-0.7c-0.2,0-0.4,0.1-0.5,0.1c-0.3,0-1-0.1-1.1,0c-0.1,0.1-0.1-0.4-0.2-0.6
				c0-0.2,0.3-0.2,0.5-0.3c0.2-0.1,0.9,0,1.3,0v-0.7c-0.3,0-1,0-1.2,0c-0.1,0-0.6,0-0.7,0c-0.1,0-0.1-0.4,0-0.6
				c0.1-0.2,0.5-0.1,0.9-0.1c0.2,0,0.5,0,0.9,0c0-0.3,0-0.6,0-0.9c-0.3,0-1,0.1-1.2,0.1c-0.2,0-0.5,0.1-0.7,0
				c-0.2-0.1,0.1-0.6,0.3-0.6c0.1,0,1.1-0.1,1.6-0.1V63c-0.4,0-0.8,0-0.9,0c-0.2,0-0.5,0.1-0.7,0.1C6,63,6,62.7,6,62.5
				c0-0.1,0.3-0.2,0.5-0.3c0.2,0,1.1,0,1.5,0V62v-0.4c-0.3,0-1,0-1.1,0s-0.5-0.1-0.7-0.2C6,61.2,6.2,61,6.4,60.9
				c0.2,0,0.5-0.1,0.8-0.1c0.1,0,0.5,0,0.8,0c0-0.1-0.1-0.3-0.1-0.6c-0.2,0.1-1.2,0.1-1.4,0.1S6.3,60.2,6.1,60
				C6,59.8,6,59.7,6.4,59.5c0.4-0.1,1-0.1,1.3-0.2h0c0-0.2,0-0.4,0-0.6v0c-0.4,0-0.9,0.1-1.2,0.1c-0.3,0-0.4-0.3-0.5-0.4
				s0-0.3,0.4-0.4c0.3-0.1,1.2,0,1.3-0.2v-0.5H7.6c-0.2,0-1.1,0-1.3,0C6,57.3,6,57,6,56.8c0-0.1,0.4-0.2,0.6-0.2
				c0.1,0,0.8-0.1,1.2-0.1c0-0.2,0-0.5,0-0.8l-1.1,0.1c-0.2,0-0.5-0.1-0.6-0.2C6,55.5,6.3,55.2,6.4,55c0.2-0.1,0.9,0,1.3-0.1
				c-0.1-0.5-0.1-0.5-0.1-0.6c-0.2-0.1-1.2,0.1-1.3,0.1c-0.1,0-0.1-0.4,0-0.6c0.2-0.4,1.1-0.1,1.5-0.1l0.1-0.6l-1.2,0.1
				c-0.2,0-0.5-0.1-0.6-0.2c-0.1-0.1,0.2-0.5,0.3-0.6c0.4-0.2,1.1-0.1,1.6-0.1v-0.1c0-0.2-0.1-0.4-0.2-0.5c-0.3-0.1-1.4-0.2-1.7-0.2
				c-0.3,0-0.5,0.1-0.6,0.4C5.3,52.2,5.3,52.8,5.3,53.4z M8.6,53.2c0,1.3,0.3,2.4,0.3,3.7c0,0.2,0,0.4,0,0.6c0,0.7-0.1,1.5-0.1,2.1
				c0,0.6,0,1.2,0.1,1.6c0.1,0.7,0.8,1.3,1.3,1.3c0.3,0,1.2,0.1,1.8,0.1c0.3,0,0.5,0,0.7-0.1c0.6-0.1,1.3-0.9,1.7-1.3
				c0.4-0.5,0.9-0.9,1-1.8c0.1-0.7,0.3-1.7,0.3-2.5c0-0.2,0-0.4,0-0.6C15.6,55.7,15,54,15,53.7c-0.3-0.7-0.7-1.4-1.3-1.9
				c-0.6-0.5-0.6-0.4-1.8-0.6c-0.4,0-0.6,0-0.9,0c-0.8,0-1.6,0.1-1.8,0.2C8.9,51.6,8.6,52.1,8.6,53.2z M15.5,51.7
				c0,0.4,0.5,1.4,0.8,2.4c0.2,0.7,0.5,1.2,0.5,2.1c0,0.2,0,0.5,0,0.7c-0.2,1.2-0.1,1.8-0.4,2.6c-0.2,0.7-0.5,1.2-0.5,1.7
				c0,0.1,0,0.1,0.1,0.1c0.2,0,1.4-0.5,2-1h-0.7c-0.1,0-0.2-0.1-0.4-0.3c-0.1-0.1-0.1-0.3,0.2-0.5c0.4-0.1,1.1-0.1,1.4-0.2
				c0,0,0.1,0,0.1,0l0.3-0.6c-0.3,0-1,0.1-1.3,0.1c-0.3,0-0.4-0.3-0.5-0.4s0-0.3,0.4-0.4c0.3-0.1,1.1-0.1,1.4-0.1h0.4l0.1-0.2
				c0-0.1,0-0.2,0.1-0.4h-0.4c-0.2,0-1.2,0-1.5,0c-0.2,0-0.2-0.3-0.2-0.5c0-0.1,0.4-0.2,0.6-0.2c0.2,0,1.3-0.1,1.6-0.1
				c0-0.4,0-0.6,0-0.8l-1.7,0.1c-0.2,0-0.5-0.1-0.6-0.2c-0.1-0.1,0.2-0.5,0.3-0.6c0.2-0.1,1,0,1.3-0.1c0.4-0.1,0.5,0.2,0.2-0.5
				c-0.3,0-1.2,0.1-1.4,0c-0.2-0.1-0.6,0.1-0.7,0.1c-0.1,0-0.1-0.4,0-0.6c0.1-0.2,0.2-0.2,0.6-0.1c0.2,0,0.7,0.1,1.1,0l-0.2-0.4
				c0-0.1-0.1-0.1-0.1-0.2L17,53.2c-0.2,0-0.5-0.1-0.6-0.2c-0.1-0.1,0.2-0.5,0.3-0.6c0.1-0.1,0.5,0,0.9,0c-0.7-0.5-1.7-0.9-2-0.8
				C15.5,51.6,15.5,51.6,15.5,51.7z"/>
			<path class="st1" d="M30.7,59.6c0-0.3-0.1-0.6-0.1-1.1c0-0.2,0-0.4,0-0.5c0.1-0.7,0.1-1.9,0.1-2.8c0-1-0.4-3-0.5-3.3
				c0-0.1-0.1-0.1-0.3-0.1c-0.6,0-0.9,0-1.1-0.1c-0.2-0.1-0.3-0.3-0.3-0.6c0-0.4,0.1-1.2,0.6-1.2c1,0,1.1,0.2,2.1,0.2
				c0.2,0,0.4,0,0.7,0c0.7,0,1.1-0.1,1.5-0.1c0.2,0,0.6,0,1,0.1c0.6,0,1.2,0,1.8,0c2.4,0,3.6-0.1,4.3-0.1c0.4,0,0.7,0,1,0
				c0.7,0,1.3-0.5,2.1-0.5c0.4,0,0.7,0.4,0.7,0.8c0,0.4-0.2,1.5-0.2,2.6c0,0.5,0,1,0,1.5c0,0.3,0.1,0.5,0.1,1c0,0.6-0.2,1.2-0.5,1.2
				c-0.2,0-0.5-0.2-0.7-0.6c-0.1-0.4-0.4-0.4-0.7-1c-0.3-0.6-1.2-0.7-1.5-1.1c-0.3-0.4-1.5-1.4-2.1-1.5c-0.5,0-2.1-0.5-3.2-0.6
				c-0.4,0-0.4,0.1-0.4,0.4c0,0.3-0.1,0.2-0.1,0.8c0,0.6,0,1.1,0.1,1.9c0,0.5,0.1,1,0.1,1.3c0,0.6-0.1,1.2-0.1,2
				c0,0.6,0.1,1.6,0.2,2c0,0.3,0.3,0.3,0.5,0.3c0.2,0,0.5,0,0.8-0.1c0.6-0.2,1-0.5,1.4-0.6c0.4-0.1,1.4-0.6,1.6-1.1
				c0.2-0.4,1.1-1.2,1.5-1.2c0.4,0,0.4,0.6,0.4,1c0,0.4-0.3,1.3-0.3,2.8c0,0.7,0.2,1.4,0.2,2.3c0,0.5-0.1,1-0.3,1
				c-0.5,0-1-0.2-1.3-0.6c-0.4-0.4-0.6-0.7-1.1-1c-1.3-0.7-1.4-1-1.8-1c-0.4,0-0.9-0.1-1.2-0.1c-0.3,0-0.6,0.1-0.6,0.6
				c0,0.5,0.2,1.1,0.2,1.9c0,0.7,0,1.3,0.1,2.1c0.1,0.8,0.2,1.9,0.2,3.1c0,0.7,0,1.2,1.8,1.2c0.2,0,1.1-0.3,1.7-0.3
				c0.6,0,1.1-0.7,1.5-0.9c0.2-0.2,0.8-0.6,1.1-0.9c0.4-0.5,0.8-1.2,1.2-1.6c0.4-0.5,0.9-1.1,1.2-1.5c0.1-0.1,0.2-0.2,0.3-0.2
				c0.2,0,0.5,0.2,0.5,0.5c0,0.1,0,0.2,0,0.4c0,0.5-0.1,1.1-0.2,1.7c-0.1,0.7-0.2,1.9-0.3,2.7c-0.1,0.9-0.2,2.1-0.4,2.3
				c-0.1,0-0.3,0.1-0.5,0.1c-0.4,0-1-0.1-1.2-0.1c-0.3,0-1.2-0.2-1.8-0.2c-0.6,0-1.2-0.1-2.2-0.1c-0.2,0-0.7,0-1,0
				c-1,0-2.4,0.1-3.2,0.1c-0.8,0-1.8,0.2-2.6,0.2c-0.8,0-1.8,0.3-2.4,0.3c-0.6,0-1.2-0.4-1.2-1c0-0.5,1-0.4,1.6-0.7
				c0.6-0.3,0.6-1.1,0.7-1.6c0.1-0.2,0.1-0.5,0.1-0.8c0-0.2,0-0.6,0-1.2c0-1.2,0-1.6,0.1-1.9c0-0.3,0.1-0.5,0.1-0.8
				c0-0.4,0-0.5-0.1-0.6c-0.2-0.5-0.4-2.3-0.2-3.3C30.6,61.8,30.6,60,30.7,59.6z M34.2,52.2c-0.1-0.2-0.2-0.4-0.4-0.4
				c-1.3,0-2.3,0-2.3,0.4c0,0.5,0.3,1.5,0.3,2.7c0,1.5-0.2,2.4-0.2,3.3c0,0.2,0,0.4,0,0.6c0,0.2,0,0.5,0,0.8c0,0.6,0,1.2,0,1.6
				c0,0.3,0,0.5,0.1,0.6c0,0,0,0.1,0,0.2c0,0.3-0.1,0.8-0.1,1.3c0,0.5,0,1,0.1,1.5c0,0.5,0.1,1,0.1,1.4c0,0.6,0,1.2,0,2.3
				c0,0.9,0.3,1.3,0.3,1.8c0,0.4-0.2,0.8-0.2,1.3c0,0.2,0.1,0.5,0.4,0.5c0.5,0,2-0.4,2.3-0.5c0,0,0.1-0.1,0.1-0.2
				c-0.2,0-0.4,0-0.5,0c-0.2,0-0.6,0-0.7-0.1c-0.1-0.1-0.1-0.4,0.1-0.5c0.3-0.2,0.8-0.1,1.2,0c0-0.2,0-0.4,0-0.6
				c-0.6,0-1.2,0.1-1.4,0.1c-0.2,0-0.2-0.4-0.2-0.5c0-0.1,0.5-0.2,1-0.2c0.2,0,0.4,0,0.6,0c0-0.2,0-0.4,0-0.6c-0.1,0-0.2,0-0.3,0
				c-0.4,0-0.8,0-1.1,0c-0.3,0-0.4-0.4-0.4-0.5s0.4-0.2,0.7-0.2c0.4-0.1,0.7,0,1.1,0c0-0.3,0-0.5,0-0.8c-0.4,0.1-0.8,0.1-0.9,0.1
				c-0.3,0-0.7-0.1-0.9,0c-0.1,0.1-0.1-0.4-0.2-0.6c0-0.2,0.3-0.2,0.5-0.3c0.2-0.1,0.7,0,1.1,0c0.1,0,0.3,0,0.5,0v-0.7
				c-0.4,0-1.2,0-1.3,0c-0.1,0-0.6,0-0.7,0c-0.1,0-0.1-0.4,0-0.6c0.1-0.2,0.5-0.1,0.9-0.1c0.2,0.1,0.6-0.1,1-0.2v-0.5v-0.3
				c-0.2,0-0.4,0-0.5,0c-0.3,0-0.6,0.1-0.8,0.1c-0.2,0-0.5,0.1-0.7,0c-0.2-0.1,0.1-0.6,0.3-0.6c0.2,0,0.9-0.1,1.3-0.1
				c0.2,0,0.4,0,0.5-0.1c0-0.2,0-0.4,0-0.7c-0.1,0-0.2,0-0.2,0.1c-0.1,0.1-0.7,0-0.9,0c-0.2,0-0.5,0.1-0.7,0.1
				c-0.2,0-0.2-0.4-0.3-0.5c0-0.1,0.3-0.2,0.5-0.3c0.2,0,0.9,0,1.1,0c0.1,0,0.4-0.1,0.6-0.2v-0.2v-0.2c-0.2,0-0.4,0.1-0.5,0.1
				c-0.1,0.1-0.9,0.1-1.1,0.1c-0.2,0-0.5-0.1-0.7-0.2c-0.1-0.2,0.1-0.4,0.2-0.5c0.2,0,0.5-0.1,0.8-0.1c0.2,0,1.1-0.1,1.1-0.1l0,0
				c0-0.2,0-0.4,0-0.6c-0.2,0-0.5,0-0.6,0.1c-0.2,0.1-1,0.1-1.1,0.1c-0.1,0-0.2-0.1-0.4-0.3c-0.1-0.1-0.1-0.3,0.2-0.5
				c0.4-0.1,0.8-0.1,1.1-0.2c0.2,0,0.5,0,0.7-0.1v-0.7c-0.2,0-0.5,0.1-0.7,0.1c-0.3,0-0.8,0.1-1.1,0.1c-0.3,0-0.4-0.3-0.5-0.4
				c-0.1-0.1,0-0.3,0.4-0.4c0.3-0.1,0.8-0.1,1.1-0.1c0.2,0,0.5,0,0.8,0v-0.1v-0.5h-1c-0.2,0-0.8,0-1,0c-0.2,0-0.2-0.3-0.2-0.5
				c0-0.1,0.4-0.2,0.6-0.2c0.2,0,0.9-0.1,1.1-0.1c0.1,0,0.4,0,0.6-0.1c0-0.2-0.1-0.5-0.1-0.7H34l-1,0.1c-0.2,0-0.5-0.1-0.6-0.2
				c-0.1-0.1,0.2-0.5,0.3-0.6c0.2-0.1,0.5,0,0.9-0.1c0.2,0,0.5,0,0.7,0.1v-0.7c-0.4,0.1-0.8,0.1-0.9,0c-0.2-0.1-0.6,0.1-0.7,0.1
				c-0.1,0-0.1-0.4,0-0.6c0.1-0.2,0.2-0.2,0.6-0.1c0.2,0,0.7,0.1,1,0c0-0.3,0-0.4,0-0.6h-1.7c-0.2,0-0.2-0.5-0.2-0.6
				C32.6,52.2,33.7,52.2,34.2,52.2z M40.7,60.5c0-0.2-0.1-0.3-0.1-0.3c-0.2,0.1-2.5,0.9-2.5,1.3c0,0.4,1,0.9,1.3,1
				c0.4,0.2,1.3,0.8,1.3,0.8s0-0.1,0-0.4c-0.4,0-0.7-0.4-0.6-0.5c0.1-0.1,0.4-0.1,0.6-0.1V62h-0.8c-0.2,0-0.5-0.5-0.4-0.6
				c0.2-0.2,0.9-0.1,1.3,0c0-0.1,0-0.1,0-0.2h-0.3c-0.2,0-0.5-0.3-0.4-0.4C40.1,60.7,40.5,60.5,40.7,60.5z M43.1,70.3h0.6l0.1-0.4
				c-0.1,0-0.2-0.1-0.3-0.2c-0.1-0.1,0-0.4,0.2-0.4c0,0,0.1-0.1,0.3,0c0-0.1,0.2-0.6,0-0.6c-0.3,0-1,1.3-1.8,2
				c-0.9,0.8-1.7,0.7-1.7,1.1c0,0.2,0.7,0.3,1.4,0.3c0.5,0,1.1,0.1,1.3,0.1c0.1,0,0.1-0.2,0.2-0.3c-0.4,0-1.1,0.1-1.2-0.2
				c-0.1-0.1-0.1-0.5,0.2-0.5c0.2,0,0.9,0,1.2,0l0.1-0.4c-0.3,0-0.5,0-0.6-0.2C42.8,70.7,42.8,70.3,43.1,70.3z M43.3,51.5
				c0-0.1,0-0.1,0-0.2c0-0.1-0.1-0.1-0.3-0.1c-0.6,0-1.1,0.1-1.9,0.1c-0.3,0-0.6,0.1-0.6,0.2c0,0.2,0.4,0.6,0.8,1.1
				c0.4,0.4,0.7,0.8,1,1.1c0.4,0.3,1.1,1.5,1.2,1.5c0.1,0-0.1-0.7,0-0.9c-0.2,0-0.7-0.4-0.5-0.6c0-0.1,0.4,0,0.5,0
				c0-0.1,0-0.2,0-0.4h-0.8c-0.2,0-0.2-0.4-0.2-0.5c0.1-0.1,0.7-0.1,1-0.1v-0.4c-0.4,0-1.1,0-1.2,0c-0.2,0-0.2-0.4-0.2-0.5
				C42.1,51.5,43,51.5,43.3,51.5z"/>
			<path class="st1" d="M56.3,73c-0.7-0.2-2.6-0.4-3-0.6c-0.1-0.1-0.1-0.3-0.1-0.6c0-0.5,0.1-1,0.1-1.5c0-0.8-0.1-3.3-0.1-4.2
				c0-0.9,0.3-1.3,0.6-1.3c0.4,0,1,0.4,1.3,1.4c0.2,0.8,0.6,1.3,1.2,2c0.6,0.7,1,1.8,1.5,2.1c0.6,0.4,1.1,1.3,2.2,1.3
				c0.9,0,1.6-0.4,2.1-1.5c0.2-0.5,0.4-0.9,0.4-1.3c0-0.2,0-0.5-0.1-0.8c-0.2-1-0.5-1.7-1.1-2.7c-0.7-1-1-1.2-1.9-1.8
				c-0.9-0.6-1.4-1.2-1.9-1.8c-0.6-0.6-1.1-1.2-1.7-1.7c-0.7-0.5-1.9-1.7-2.1-2.3c-0.1-0.5-0.4-1.1-0.4-1.8c0-0.2,0-0.3,0-0.5
				c0.2-1.1,0.7-1.7,1.3-2.6c0.6-0.8,1.4-1.6,2.2-2.1c1-0.6,2-1.1,3.3-1.1c0.5,0.1,1.6,0.1,2.1,0.1c0.5,0,1.3,0.4,1.6,0.4
				c0.4-0.1,1.3-0.1,1.8-0.1c0.3,0,0.4,0.3,0.4,0.8c0,0.7-0.3,2.7-0.3,3c0,0.3,0.1,1.2,0.1,2c0,0.3,0,0.6-0.1,0.8
				c-0.1,0.4,0,0.7-0.5,0.7c-0.4,0-1.2-0.8-1.5-1.3c-0.3-0.5-0.9-1.6-1.2-1.9c-1.2-0.9-1.7-2.8-2.4-2.8c-0.7,0-1.6,0.9-1.6,1.6
				c0,1,0,2.3,0.7,3.1c0.5,0.5,1.6,1.7,2.3,2c0.7,0.4,1.9,1.7,2.4,2c0.5,0.2,0.9,0.9,1.5,1.5c0.7,0.6,1.3,1.4,1.5,2.6
				c0,0.1,0,0.4,0,0.6c0,1.2-0.5,2.3-0.5,3.4c0,0.7-0.8,2-1.4,2.5c-0.7,0.5-1.1,0.8-1.6,1.3c-0.5,0.4-2.1,1.3-4.1,1.3
				C58.1,73.2,56.7,73.2,56.3,73z M57.4,71.5c-0.2,0-0.5,0-0.5,0c-0.1,0-1.9,0-2.1,0c-0.2,0-0.1-0.4,0-0.5c0-0.1,1.5-0.1,2-0.1h0.3
				l-0.3-0.3c-0.2,0-0.4,0-0.4,0c-0.1,0-1.5,0.1-1.7,0.1c-0.2,0-0.2-0.4-0.2-0.5c0-0.1,1.3-0.2,1.8-0.2c-0.1-0.1-0.2-0.3-0.2-0.5
				c-0.4,0-1.3,0.1-1.5,0.1c-0.2,0-0.2-0.4-0.2-0.5c0-0.1,0.8-0.2,1.3-0.2l-0.3-0.5c-0.3,0-0.6,0-0.8,0c-0.3,0-0.4-0.4-0.4-0.5
				c0-0.1,0.4-0.1,0.6-0.2c-0.1-0.1-0.2-0.2-0.4-0.2c-0.7,0-0.6,0.5-0.6,0.7c0,0.3,0,1.1,0.1,1.7c0.1,0.4,0.1,1.7,0.2,1.7
				c0.2,0.1,1.6,0.3,2.3,0.3C56.7,71.8,57.5,72,57.4,71.5z M54.6,54.7c-0.2,0.3-0.2,0.7-0.2,1.2c0,0.5,0.1,0.9,0.3,1.2
				c0.3,0.6,1.6,2.2,2.2,2.5c0.6,0.2,1,0.6,1.6,1.3c0.6,0.7,0.8,1.1,1.2,1.2c0.4,0.2,1,0.7,1.2,1.2c0.2,0.4,1.4,1.2,1.6,1.9
				c0.3,0.9,0.9,1,0.9,2.8c0,0.7-0.4,2.1-0.2,2.1c0,0,0.1-0.1,0.3-0.2c-0.1-0.1-0.1-0.3,0-0.4c0-0.1,0.3-0.2,0.6-0.2l0.5-0.5h-0.2
				c-0.3,0-0.4-0.4-0.4-0.5c0-0.1,0.4-0.2,0.7-0.2c0.1,0,0.4,0,0.6,0c0.2-0.2,0.3-0.4,0.4-0.6c-0.3,0-1.3-0.1-1.5,0
				c-0.1,0.1-0.1-0.4-0.2-0.6c0-0.2,0.3-0.2,0.5-0.3c0.2,0,0.9,0,1.4,0v-0.7c-0.6,0-1.6,0-1.8,0c-0.1,0-0.6,0-0.7,0
				c-0.1,0-0.1-0.4,0-0.6c0.1-0.2,0.5-0.1,0.9-0.1c0.2,0,0.8,0,1.4-0.1l-0.1-0.8h-0.2c-0.3,0-1.8,0.1-2.1,0.1c-0.2,0-0.5,0.1-0.7,0
				c-0.2-0.1,0.1-0.6,0.3-0.6c0.2,0,1.9-0.1,2.4-0.1c-0.1-0.2-0.2-0.7-0.4-0.7c-0.1,0.1-2.1,0-2.3,0c-0.2,0-0.5,0.1-0.7,0.1
				c-0.2,0-0.2-0.4-0.3-0.5c0-0.1,0.3-0.2,0.5-0.3c0.2,0,2.3,0,2.6,0h0l-0.5-0.8c-0.7,0.3-1.6,0.2-2.9,0.2c-0.2,0-0.5-0.1-0.7-0.2
				c-0.1-0.2,0.1-0.4,0.2-0.5c0.2,0,0.5-0.1,0.8-0.1c0.1,0,1.1,0,1.8-0.1l-1-0.6c-0.2,0-0.6,0-0.8,0.1c-0.2,0.1-2.6,0.1-2.8,0.1
				c-0.1,0-0.2-0.1-0.4-0.3c-0.1-0.1-0.1-0.3,0.2-0.5c0.4-0.1,2.1-0.1,2.6-0.1l-1-0.7c-0.1,0-0.3,0.1-0.5,0.1
				c-0.3,0-2.4,0.1-2.8,0.1c-0.3,0-0.4-0.3-0.5-0.4c-0.1-0.1,0-0.3,0.4-0.4c0.2,0,1.6-0.1,2.3-0.1c-0.3-0.2-0.5-0.4-0.7-0.7
				c-0.1,0-1.5,0-1.7,0c-0.2,0-0.8,0-1,0c-0.2,0-0.2-0.3-0.2-0.5c0-0.1,0.4-0.2,0.6-0.2c0.3,0,1.9-0.1,1.9-0.2l-0.3-0.6l-2,0.1
				c-0.2,0-0.5-0.1-0.6-0.2c-0.1-0.1,0.2-0.5,0.3-0.6c0.2-0.1,1.2,0,1.6-0.1c0.1,0,0.2,0,0.3,0c-0.1-0.3-0.2-0.5-0.2-0.7
				c-0.3,0-0.6,0.1-0.7,0c-0.2-0.1-0.6,0.1-0.7,0.1c-0.1,0-0.1-0.4,0-0.6c0.1-0.2,0.2-0.2,0.6-0.1c0.2,0,0.6,0.1,0.9,0l0.2-0.5
				l-0.3,0c-0.2,0.1-0.5-0.1-0.6-0.2c-0.1-0.1,0.2-0.5,0.3-0.6c0.1-0.1,0.5,0,0.7,0c0.1-0.2,0.1-0.5,0.1-0.6c0-0.1,0-0.1,0-0.1
				C57.7,51.6,55.5,52.4,54.6,54.7z M61.5,51.1c-0.2,0.2,0.1,0.9,0.4,1.1c0.4,0.4,1.2,1.4,1.3,1.6c0.1,0.2,0.9,1.5,1.3,1.8
				c0,0,0.4,0.4,0.4,0.3c0-0.1,0-0.2,0-0.4c-0.2,0-0.4-0.1-0.4-0.2c-0.1-0.1-0.2-0.5,0-0.6c0.1-0.1,0.2,0,0.4,0c0-0.1,0-0.2,0-0.4
				c-0.2,0-0.7,0.1-0.8,0.1c-0.1,0-0.3-0.5-0.2-0.7c0.1-0.2,0.6-0.2,1-0.1c0-0.2,0-0.4,0-0.5l-1,0.1c-0.2,0.1-0.5-0.1-0.6-0.2
				c-0.1-0.1,0.2-0.5,0.3-0.6c0.1-0.1,0.8,0,1.2,0c0-0.1,0-0.2,0-0.4c-0.5,0-1.3,0-1.4,0c-0.2-0.1-0.6,0.1-0.7,0
				c-0.1,0-0.1-0.4,0-0.5c0.1-0.2,0.2-0.2,0.6-0.1c0.2,0,1,0.1,1.6,0v-0.2c0,0,0,0-0.1,0c-0.2,0-0.8-0.1-1.1-0.2
				c-0.4-0.2-0.8-0.2-1.3-0.2C62,50.7,61.7,50.8,61.5,51.1z"/>
			<path class="st1" d="M91.2,71.3c0.7-0.4,1.7-1,2-1.7c0.3-0.7,0.7-0.6,0.9-1.3c0.1-0.4,0.2-0.6,0.5-0.6c0.2,0,0.4,0.1,0.6,0.4
				c0.4,0.5,0.7,0.7,0.7,1.1c0,0.1,0,0.2-0.1,0.4c-0.2,0.6-1.1,1.5-1.5,1.9s-1.9,1.1-2.4,1.5c-0.5,0.4-2.3,0.7-3.1,0.7
				s-1.7-0.2-2.6-0.2c-1,0-1.4-0.4-2.4-0.6c-0.9-0.1-1.5-0.5-2.4-0.9c-0.8-0.4-2.1-1-3.1-2.7c-1.1-1.8-1.6-2.5-1.9-3.8
				c-0.4-1.3-0.2-2.7-0.3-3.7c0-0.3,0-0.6,0-0.9c0-0.6,0.1-1.2,0.4-2.1c0.4-1.3,0.8-1.6,1.1-2.7c0.2-1.1,0.6-1.7,1.5-2.5
				c0.9-0.8,2-1.8,2.9-2.4c0.9-0.6,2.5-1.1,3.5-1.3c0.6-0.1,2.2-0.3,3-0.3c0.6,0,1.1,0.1,1.5,0.2c0.5,0.1,1.6,0.2,2,0.2
				c0.5,0,1.6,0.5,1.6,0.5c0.4-0.1,1.3-0.1,1.7-0.1c0.3,0,0.4,0.4,0.4,1.2c0,0.5-0.1,2.7-0.1,3c0,1.2,0,2.3-0.2,3
				c-0.1,0.5-0.1,1.1-0.5,1.1c-0.4,0-1.1-1.2-1.4-1.8c-0.3-0.6-0.9-1.9-1.2-2.2c-0.4-0.2-1-1.3-1.5-1.9c-0.4-0.5-1.6-1.2-2.3-1.2
				c-0.1,0-0.7-0.1-1.3-0.1c-0.7,0-1.5,0.1-1.9,0.4c-0.4,0.3-0.6,0.4-1,1.2c-0.5,0.8-1.3,2.4-1.6,2.7c-0.3,0.3-0.4,1.3-0.7,2.7
				c-0.1,1.3-0.2,2.6-0.2,4.4c0,1.7,0.2,3.2,0.4,4.2c0.2,1,0.8,1.8,1.4,2.5c0.6,0.7,1.5,1.5,2.4,1.8c0.9,0.3,1.5,0.7,2.5,0.7
				C89.8,71.9,90.5,71.7,91.2,71.3z M79.8,53.9c-0.4,0.1-0.6,0.9-1,1.6c-0.4,0.7-0.5,1.6-0.9,2.3c-0.3,0.8-0.7,1.5-0.8,2.5
				c0,0.5-0.1,1-0.1,1.6c0,0.6,0.1,1.3,0.3,2.1c0.5,1.6,0.4,2.3,1,3.1c1.7,2.2,2.9,3.4,3.4,3.4c0,0,1.2,0.3,1.2,0.2
				c0-0.1-0.5-0.8-0.5-1.1h-0.3c-0.1,0-0.7,0.1-0.9,0.1c-0.2,0-0.2-0.4-0.2-0.5c0-0.1,0.5-0.2,1-0.2h0.3l-0.5-0.6
				c-0.4,0.1-0.8,0.1-1.3,0.1c-0.3,0-0.4-0.4-0.4-0.5s0.9-0.2,1.2-0.2c0.3,0,0.2-0.1,0.5,0l-0.4-0.7c-0.4,0-0.9,0.1-1.1,0.1
				c-0.3,0-0.7-0.1-0.9,0c-0.1,0.1-0.1-0.4-0.2-0.6c0-0.2,0.3-0.2,0.5-0.3c0.2-0.1,0.7,0,1.1,0h0.2c-0.1-0.2-0.1-0.5-0.1-0.7v0
				c-0.1,0-0.4,0.1-0.5,0.1c-0.1,0-0.9,0-1.1,0c-0.1,0-0.6,0-0.7,0c-0.1,0-0.1-0.4,0-0.6c0.1-0.2,0.5-0.1,0.9-0.1
				c0.3,0.1,1-0.1,1.2-0.2l-0.1-0.7c-0.3,0-0.9,0-1.1,0c-0.3,0-0.6,0.1-0.8,0.1c-0.2,0-0.5,0.1-0.7,0c-0.2-0.1,0.1-0.6,0.3-0.6
				c0.2,0,0.9-0.1,1.3-0.1c0.2,0,0.6-0.1,0.9-0.1c0-0.2,0-0.4,0-0.6c-0.3,0-0.6,0-0.7,0c-0.1,0.1-0.7,0-0.9,0
				c-0.2,0-0.5,0.1-0.7,0.1c-0.2,0-0.2-0.4-0.3-0.5c0-0.1,0.3-0.2,0.5-0.3c0.2,0,0.9,0,1.1,0c0.2,0,0.7-0.1,1-0.2c0-0.1,0-0.3,0-0.5
				c-0.4,0-0.8,0.1-0.9,0.1c-0.1,0.1-0.9,0.1-1.1,0.1c-0.2,0-0.5-0.1-0.7-0.2c-0.1-0.2,0.1-0.4,0.2-0.5c0.2,0,0.5-0.1,0.8-0.1
				c0.2,0,1.5-0.1,1.8-0.2l0.1-0.5c-0.3,0-0.8,0-0.9,0.1c-0.2,0.1-1,0.1-1.1,0.1c-0.1,0-0.2-0.1-0.4-0.3c-0.1-0.1-0.1-0.3,0.2-0.5
				c0.4-0.1,0.8-0.1,1.1-0.2c0.2-0.1,1-0.1,1.2-0.1v0c0-0.2,0-0.4,0.1-0.6c-0.2,0-0.5,0.1-0.7,0.1c-0.3,0-0.8,0.1-1.1,0.1
				c-0.3,0-0.5-0.2-0.5-0.5c0-0.2,0-0.4,0.4-0.5c0.3-0.1,0.9,0,1.2,0c0.2,0,0.7,0,0.9,0l0.1-0.6h-0.7c-0.2,0-0.8,0-1,0
				c-0.2,0-0.4-0.2-0.4-0.4c0-0.1,0.3-0.5,0.5-0.5c0.2,0,1.1,0.1,1.3,0.1c0.1,0,0.3,0,0.5-0.1l0.1-0.4l0.1-0.4h-0.1l-1.4,0.1
				c-0.2,0-0.5-0.1-0.6-0.2c-0.1-0.1,0.2-0.5,0.3-0.6c0.2-0.1,0.5,0,0.9-0.1c0.2,0,0.9,0,1.2,0.1c0.1-0.2,0.2-0.5,0.4-0.7
				c-0.2,0-0.5,0.1-0.6,0.1c-0.2-0.1-0.5,0-0.6,0c-0.1,0-0.3-0.2-0.2-0.5c0.1-0.2,0.5-0.5,0.9-0.4c0.2,0,0.6,0,0.9,0
				c0.1-0.1,0.6-0.8,0.6-0.9c0-0.1-0.6,0-0.7,0c-0.1,0-1.3,0.2-1.7,0.6C80.7,53.3,80.1,53.8,79.8,53.9z M94.6,52.4
				c0-0.2,0-0.4-0.1-0.4c-0.2,0-1,0-1.1-0.1c-0.4-0.2-0.9-0.2-1.4-0.2c-0.1,0-0.2,0.1-0.2,0.2c0,0.2,0.1,0.4,0.4,0.7
				c0.3,0.2,1.1,1.5,1.2,1.7c0.3,0.4,1,1.4,1.3,1.4c0.1,0,0.1-0.2,0.1-0.5c-0.2,0-0.4,0.1-0.4,0c-0.1,0-0.2-0.4-0.1-0.5
				c0.1-0.1,0.3-0.2,0.5-0.1v-0.4h-0.6c-0.2,0-0.2-0.4-0.2-0.5c0.1-0.1,0.5-0.2,0.8-0.1v-0.4h-1.4c-0.2,0-0.3-0.5-0.2-0.6
				C93.3,52.3,94.2,52.4,94.6,52.4z"/>
			<path class="st1" d="M106.1,65.2c0.1-0.4,0.2-0.6,0.9-0.8c0.6-0.2,0.8-1.4,1.2-2.1c0.4-0.7,0.7-2.1,1-2.9c0.3-0.7,0.8-2,1-2.7
				c0.2-0.7,0.3-1.9,0.7-2.8c0.4-0.9,0.7-1.3,0.7-2.1c0-0.7,0.9-2.1,1.5-2.1c0.5,0,0.9,0.1,1.1,0.7c0.2,0.6,0.5,1,0.8,1.8
				c0.1,0.9,0.8,1.9,1.2,2.9c0.4,1,1.4,3.3,1.7,4.2c0.2,0.9,1.1,1.9,1.3,2.8c0.2,0.9,1,1.8,1.4,3.2c0.5,1.4,0.4,1,0.6,1.6
				c0.3,0.7,0.4,1.2,0.7,1.9c0.3,0.8,0.7,1.4,0.9,1.8c0.1,0.4,0.5,0.7,0.9,0.7c0.4,0.1,1.7,0,1.8,0.4c0.1,0.2,0.1,0.4,0.1,0.6
				c0,0.2,0,0.4-0.1,0.5c0,0.2-0.6,0.2-0.9,0.2c-0.3,0-0.6-0.1-1-0.1c-0.3,0-0.6,0.2-0.9,0.2c-0.6,0.1-0.9,0.1-1.2,0.1
				c-0.5,0-1-0.2-1.7-0.2c-0.6,0-1.2,0.1-1.8,0.1c-0.5,0-0.9-0.1-1.3-0.1c-0.1,0-0.2-0.2-0.2-0.6c0-0.5,0-0.5,0.6-0.5
				c0.3,0,1-0.2,1.1-0.6c0-0.1,0.1-0.2,0.1-0.4c0-0.2-0.1-0.5-0.4-0.8c-0.5-0.4-0.6-1.4-0.9-1.8c-0.3-0.5-0.9-2.1-1.1-2.2
				c-0.3-0.1-1.3-0.1-2.2-0.1c-0.8,0-1.7,0.1-2.7,0.2c-0.2,0-0.9,0.2-1.1,0.2c-0.9,0-1,0.9-1,1.7c0,0.5,0.1,1,0.1,1.3
				c0,1,0.5,2.1,0.8,2.3c0.2,0.2,0.6,0.4,0.6,1c0,0.3-0.2,0.4-0.6,0.4c-0.2,0-0.5,0-0.9,0c-0.6,0-3,0.2-4.3,0.2
				c-1.3,0-1.9-0.1-1.9-0.5c0-0.7,0.9-1.1,1.2-1.9c0.3-0.6,1-1.2,1.3-1.9c0.4-0.7,1.3-2.3,1.3-2.7C106.5,66,106.1,65.7,106.1,65.2z
				 M108.4,70.4c-0.3,0-0.6,0-1,0.1c-0.1,0-0.6-0.1-0.6-0.1c-0.1,0-0.1-0.4,0-0.6c0.1-0.2,0.5-0.1,0.9-0.1c0.2,0,0.4,0,0.5,0
				l-0.1-0.6l-0.7,0c-0.2,0-0.1-0.6,0.1-0.8c0,0,0.2,0,0.5,0c-0.1-0.5-0.2-1-0.3-1c-0.1,0-1.1,1.9-1.7,2.8c-0.5,0.8-1.3,1.9-1.3,2.1
				c0,0.2,0.9,0.3,1.3,0.3h1.7c0.4,0,1.1,0,1.1-0.2c0,0-0.1-0.3-0.1-0.5c-0.1,0-0.3,0.1-0.5,0.1c-0.1,0-1.2,0.1-1.5,0.1
				c-0.2,0-0.6,0-0.7-0.1c-0.1-0.1-0.1-0.4,0.1-0.5c0.2-0.2,1.5-0.1,1.8,0c0.3,0,0.4-0.2,0.6-0.1C108.5,70.9,108.4,70.7,108.4,70.4z
				 M110.8,58.6c-0.1,0.6-0.7,1.9-0.9,2.6c-0.3,0.6-0.4,1.2-0.6,1.8c-0.1,0.2-0.5,1-0.5,1.2c0,0.1,0,0.1,0.1,0.1
				c0.2-0.1,0.6-0.1,1.1-0.1c0.5,0,1.1,0.1,1.4,0.2c0.2,0.1,0.5,0.1,0.9,0.1c0.6,0,1.3,0,1.7-0.1c0.6-0.1,1.6-0.2,1.6-0.3
				c0-0.1-0.6-0.1-0.7-0.8c-0.2-0.7-0.7-1.4-1-2.1c-0.2-0.8-0.9-1.3-1.1-2.2c-0.2-0.9-0.6-1.6-0.7-2.2c-0.1-0.4-0.2-0.6-0.4-0.6
				c0,0-0.1,0.1-0.1,0.2C111.5,56.8,111,57.9,110.8,58.6z M113.5,52.1c-0.2-0.5-0.2-0.9-0.2-0.9c-0.2,0-1.2,1.8-1.3,2.5
				c0,0.6-0.1,1.3,0,1.7c0.2,0.4,0.7,1.4,1,2.4c0.5,1.1,0.7,1.8,1.2,2.6c0.2,0.9,0.5,0.8,1,1.9c0.6,1.2,1,1.7,1.1,2.6
				c0.2,0.9,0.7,1.7,1.1,2.7c0.4,1.2,0.7,2,1.1,2.4c0.3,0.5,0.4,1.1,1,1.7c0.4,0.5,1.2,0.1,1.8,0.1c0.2,0,1,0.1,1-0.1
				c0-0.2-0.4-0.2-0.5-0.5c-0.2,0-0.4,0.1-0.4,0.1c-0.1,0-0.4,0-0.7,0c-0.2,0-0.6,0-0.7-0.1c-0.1-0.1-0.1-0.4,0.1-0.5
				c0.2-0.2,0.5-0.1,0.8,0c0.2,0,0.5,0,0.6,0l-0.3-0.6c-0.4,0-0.6,0-0.6,0c-0.1,0-0.7,0.1-0.9,0.1c-0.2,0-0.2-0.4-0.2-0.5
				c0-0.1,0.5-0.2,1-0.2c0.2,0,0.2,0,0.5-0.1c-0.1-0.2-0.2-0.4-0.2-0.6c-0.3,0.1-0.4,0.2-0.6,0.2c-0.4,0-0.8,0-1.1,0
				c-0.3,0-0.4-0.4-0.4-0.5c0-0.1,0.4-0.2,0.7-0.2c0.3,0,0.4-0.1,0.7,0c0.2,0.1,0.4,0,0.6-0.1c0-0.3-0.1-0.5-0.2-0.7
				c-0.4,0.1-0.9,0.2-1.2,0.2c-0.3,0-0.7-0.1-0.9,0c-0.1,0.1-0.1-0.4-0.2-0.6c0-0.2,0.3-0.2,0.5-0.3c0.2-0.1,0.4,0,0.8,0
				c0.2,0,0.4,0,0.6,0l-0.3-0.7c-0.2,0-0.5,0-0.6,0c-0.1,0-0.6,0-0.8,0c-0.1,0-0.6,0-0.7,0c-0.1,0-0.1-0.4,0-0.6
				c0.1-0.2,0.5-0.1,0.9-0.1c0.3,0.1,0.6,0,0.9-0.1l-0.4-0.8c-0.3,0-0.4,0.1-0.6,0.1c-0.3,0-0.6,0.1-0.8,0.1c-0.2,0-0.5,0.1-0.7,0
				c-0.2-0.1,0.1-0.6,0.3-0.6c0.2,0,0.6-0.1,1-0.1c0.2,0,0.4,0,0.5-0.1l-0.3-0.7c-0.2,0-0.4,0.1-0.5,0.1c-0.1,0.1-0.4,0-0.6,0
				c-0.2,0-0.5,0.1-0.7,0.1c-0.2,0-0.2-0.4-0.3-0.5c0-0.1,0.3-0.2,0.5-0.3c0.2,0,0.6,0,0.9,0c0.1,0,0.3-0.1,0.5-0.2
				c-0.1-0.2-0.2-0.4-0.4-0.6c-0.3,0-0.7,0.1-0.8,0.1c-0.1,0.1-0.6,0.1-0.8,0.1c-0.2,0-0.5-0.1-0.7-0.2c-0.1-0.2,0.1-0.4,0.2-0.5
				c0.2,0,0.5-0.1,0.8-0.1c0.1,0,0.4,0,0.7-0.1c-0.1-0.1-0.2-0.4-0.3-0.6c-0.3,0-0.5,0-0.6,0.1c-0.2,0.1-1,0.1-1.1,0.1
				s-0.2-0.1-0.4-0.3c-0.1-0.1-0.1-0.3,0.2-0.5c0.4-0.1,0.8-0.1,1.1-0.2c0.1,0,0.1,0,0.4-0.1l-0.4-0.7c-0.2,0-0.3,0.1-0.5,0.1
				c-0.3,0-0.8,0.1-1.1,0.1c-0.3,0-0.4-0.3-0.5-0.4s0-0.3,0.4-0.4c0.3-0.1,0.8-0.1,1.1-0.1h0.4c-0.1-0.2-0.2-0.4-0.3-0.6h-1
				c-0.2,0-0.8,0-1,0c-0.2,0-0.2-0.3-0.2-0.5c0-0.1,0.4-0.2,0.6-0.2c0.2,0,0.6-0.1,0.8-0.1c0.1,0,0.3,0,0.5-0.1c0,0,0-0.1-0.3-0.7
				h-0.4l-1,0.1c-0.2,0-0.5-0.1-0.6-0.2c-0.1-0.1,0.2-0.5,0.3-0.6c0.2-0.1,0.5,0,0.9-0.1c0.2,0,0.2,0,0.5,0.1
				c-0.1-0.2-0.2-0.5-0.2-0.8c-0.4,0.1-0.7,0.1-0.8,0.1c-0.2-0.1-0.6,0.1-0.7,0.1c-0.1,0-0.1-0.4,0-0.6c0.1-0.2,0.2-0.2,0.6-0.1
				c0.2,0.1,0.4,0.1,0.7,0c-0.1-0.2-0.2-0.5-0.4-0.7c-0.3,0-0.4,0-0.5,0c-0.2,0-0.2-0.5-0.2-0.6C113.4,52.1,113.3,52.1,113.5,52.1z"
				/>
			<path class="st1" d="M132.7,49.6c0.9,0,2.1,0.3,2.9,0.4c0.3,0,0.5,0,0.9,0c0.9,0,2.1-0.1,3.2-0.2c0.2,0,0.5,0,0.7,0
				c1,0,1.7,0.2,2.6,0.2h0.5c1.2,0,2.9,0.5,3.6,0.7c0.7,0.3,1.5,1.5,1.8,2.1c0.4,0.6,0.4,2.5,0.4,3.3c0,0.8-0.5,2.3-0.9,3.2
				c-0.4,0.7-1.3,1.4-1.8,1.7c-0.5,0.3-1.4,0.7-1.5,0.7c0.1,0,0.6,0.4,1.3,0.6c0.7,0.2,0.7,0.7,1.3,1c0.6,0.2,0.5,1,0.9,1.4
				c0.2,0.4,0.3,0.8,0.6,1.7c0.3,0.7,0.6,2.1,0.7,2.8c0.1,0.7,0.6,1.9,1,2.3c0.4,0.3,0.8,0.2,1.5,0.4c0.4,0.1,0.5,0.4,0.5,0.7
				c0,0.2-0.1,0.5-0.1,0.6c-0.2,0.5-0.7,0.2-1.8,0.4c-0.2,0-0.4,0-0.6,0c-0.6,0-0.8-0.1-1.5-0.1c-0.9,0-2.4-0.1-2.8-0.4
				c-0.5-0.2-1.2-1.1-1.3-1.6c-0.1-0.6-0.3-2.3-0.4-2.8c-0.1-0.5-0.9-2.6-1.1-3.5c-0.2-0.9-0.9-1.3-1.8-1.9
				c-0.4-0.2-0.6-0.2-0.9-0.2c-0.3,0-0.6,0.1-1.2,0.1c-0.5,0-0.9,0.2-1.1,0.9c-0.1,0.2-0.1,0.3-0.1,0.5c0,0.4,0.2,1,0.2,1.8
				c0.1,1.2,0.1,1.6,0.1,2.7c0,1.2,0,2,0.2,2.5c0.2,0.4,1.3,0.4,1.4,0.8c0,0.6-0.1,1-0.5,1.1c-0.4,0.1-2.8,0.2-3.4,0.2
				c-0.1,0-0.3,0.1-0.5,0.1c-1,0-2.8-0.1-3.2-0.2c-0.4-0.1-0.5-0.6-0.6-0.9c0-0.4,1.2-0.5,1.4-0.6c0.1-0.1,0.3-0.3,0.3-0.8
				c0-0.1,0-0.2,0-0.6c0-0.7-0.2-1.8-0.1-3.5c0-1.5,0.1-3.3,0.1-4.1c0-0.5,0-0.8,0-1.1c0-0.7-0.1-1.5-0.1-2.4c0-0.5,0-1,0-1.3
				c0-0.8,0-1.4,0.1-2c0-0.2,0-0.4,0-0.6c0-1-0.2-2.5-0.3-3.2c0-0.1,0-0.1,0-0.1c0-0.3-0.1-0.4-0.3-0.4c-0.1,0-0.3,0.1-0.5,0.1
				c-0.1,0-0.1,0-0.2,0c-0.4-0.1-0.5-0.6-0.5-1.1c0-0.2,0-0.4,0.1-0.5C131.9,49.8,132.2,49.6,132.7,49.6z M134.2,51.6
				c0,0.5,0.2,1.8,0.4,2.9c0.1,1,0.2,1.9,0.2,2.8c0,0.3,0,0.7,0,1c0,0.2,0,0.4,0,0.6c0,0.8,0.1,1.6,0.1,2.6c0,0.3,0,0.5,0,0.8
				c-0.1,0.8-0.1,1.4-0.1,1.9c0,0.5,0,1-0.1,1.5c-0.1,0.4-0.1,0.9-0.1,1.4c0,0.6,0,1.2,0,1.6c0,0.4,0,1,0,1.6c0,0.6,0,1.1,0.1,1.3
				c0.2,0.3,1.7,0.5,2.1,0.5c0.4,0,0.5-0.3,0.6-0.7c-0.5,0-1.2,0-1.4,0c-0.2,0-0.6,0-0.7-0.1c-0.1-0.1-0.1-0.4,0.1-0.5
				c0.2-0.2,1.8-0.1,2.1,0h0v-0.6h-0.3c-0.1,0-1.6,0.1-1.8,0.1c-0.2,0-0.2-0.4-0.2-0.5c0-0.1,0.5-0.2,1-0.2c0.3,0,0.9,0,1.3-0.1
				v-0.5c-0.5,0-1.6,0-1.8,0c-0.3,0-0.4-0.4-0.4-0.5c0-0.1,0.4-0.2,0.7-0.2c0.2,0,1.1-0.1,1.6,0v-0.7c-0.4,0-0.9,0.1-1.1,0.1
				c-0.3,0-0.7-0.1-0.9,0c-0.1,0.1-0.1-0.4-0.2-0.6c0-0.2,0.3-0.2,0.5-0.3c0.2-0.1,1.2,0,1.6,0c0-0.2,0-0.5,0-0.7
				c-0.4,0-1.3,0-1.4,0c-0.1,0-0.6,0-0.7,0s-0.1-0.4,0-0.6c0.1-0.2,0.5-0.1,0.9-0.1c0.2,0,0.7,0,1.1-0.1c0-0.3,0-0.6,0-0.8
				c-0.4,0-1.1,0.1-1.2,0.1c-0.2,0-0.5,0.1-0.7,0c-0.2-0.1,0.1-0.6,0.3-0.6c0.1,0,1-0.1,1.6-0.1c0-0.2,0-0.4,0-0.7
				c-0.4,0-0.7,0-0.9,0c-0.2,0-0.5,0.1-0.7,0.1c-0.2,0-0.2-0.4-0.3-0.5c0-0.1,0.3-0.2,0.5-0.3c0.2,0,1,0,1.4,0v-0.1
				c0-0.2,0-0.3,0-0.5H136c-0.2,0-0.5-0.1-0.7-0.2c-0.1-0.2,0.1-0.4,0.2-0.5c0.2,0,0.5-0.1,0.8-0.1c0.1,0,0.6,0,1.1,0v-0.3
				c0-0.1,0-0.1,0-0.2c-0.2,0.1-1.7,0.1-1.8,0.1s-0.2-0.1-0.4-0.3c-0.1-0.1-0.1-0.3,0.2-0.5c0.4-0.1,1.5-0.1,1.8-0.2
				c0-0.2,0-0.4,0-0.6c-0.4,0-1.1,0.1-1.4,0.1c-0.3,0-0.4-0.3-0.5-0.4c-0.1-0.1,0-0.3,0.4-0.4c0.3-0.1,1.1-0.1,1.5-0.1v-0.2v-0.5
				h-0.1c-0.2,0-1.3,0-1.6,0c-0.2,0-0.2-0.3-0.2-0.5c0-0.1,0.3-0.2,0.5-0.2c0.1,0,1-0.1,1.4-0.1c0-0.2,0-0.4,0-0.5l-1.3,0.1
				c-0.2,0-0.5-0.1-0.6-0.2c-0.1-0.1,0.2-0.5,0.3-0.6c0.2-0.1,1.2,0,1.6-0.1c0-0.1,0-0.2,0-0.4c-0.5,0-1.6,0.1-1.9,0
				c-0.1,0-0.1-0.4,0-0.6c0.1-0.2,0.2-0.2,0.6-0.1c0.2,0,0.8,0.1,1.3,0v-0.6l-1.6,0.1c-0.2,0-0.6-0.1-0.7-0.2
				c-0.1-0.1,0.2-0.5,0.3-0.6c0.2-0.1,1.5,0,1.9-0.1v-0.4l-2,0.1c-0.2,0-0.5-0.1-0.6-0.2c-0.1-0.1,0.2-0.5,0.3-0.6
				c0.1-0.1,1.6,0,2.1-0.1c-0.2-0.2-0.6-0.2-0.7-0.2c-0.1,0-1.2,0-1.3,0c-0.4,0-0.7,0-0.8,0.2C134.2,51.4,134.2,51.5,134.2,51.6z
				 M138.2,52.7c0,0.3,0,0.6,0,1c0.1,1.1,0.3,3,0.3,4.1c0,0.2,0,0.4,0,0.5c-0.1,0.7-0.1,1.9-0.1,2.6v0.6c0,0.1,0.2,0.1,0.4,0.1
				c0.5,0,1.3-0.2,1.7-0.3c0.6-0.1,1.9,0,2.5-0.6c0.5-0.6,0.7-1.7,0.9-2.7l0.1-0.3c0.1-0.6,0.2-1.2,0.2-1.7c0-0.5-0.1-1-0.2-1.5
				c-0.2-1.2-0.5-2.4-1.3-2.9c-0.8-0.5-1.2-0.7-2.1-0.7c-0.9,0-2.1,0-2.2,0.3L138.2,52.7z M144.7,65.5c0.2,0.8,0.7,2.1,0.9,2.6
				c0.1,0.6,0.5,2.1,0.7,2.5c0.1,0.5,1.3,1.2,2,1.4c0.3,0.1,0.6,0.1,0.8,0.1c0.2,0,0.5,0,0.6,0c0,0-0.2-0.4-0.5-0.8
				c-0.3,0-0.8,0-1,0c-0.2,0-0.6,0-0.7-0.1c-0.1-0.1-0.1-0.4,0.1-0.5c0.2-0.1,1-0.1,1.3,0c-0.1-0.4-0.1-0.5-0.2-0.6
				c-0.2,0-0.6,0-0.6,0c-0.1,0-0.7,0.1-0.9,0.1c-0.2,0-0.2-0.4-0.2-0.5c0-0.1,0.5-0.2,1-0.2c0.2,0,0.4,0,0.6,0
				c0-0.2-0.1-0.4-0.1-0.5c-0.4,0-1.1,0-1.4,0c-0.3,0-0.4-0.4-0.4-0.5c0-0.1,0.4-0.2,0.7-0.2c0.2,0,0.7,0,1,0l-0.1-0.7
				c-0.3,0.1-0.7,0.1-0.9,0.1c-0.3,0-0.7-0.1-0.9,0c-0.1,0.1-0.1-0.4-0.2-0.6c0-0.2,0.3-0.2,0.5-0.3c0.2-0.1,0.9,0,1.3,0
				c-0.1-0.2-0.2-0.4-0.2-0.7c-0.3,0-1.1,0-1.3,0c-0.1,0-0.6,0-0.7,0c-0.1,0-0.1-0.4,0-0.6c0.1-0.2,0.5-0.1,0.9-0.1
				c0.2,0,0.5,0,0.8-0.1c-0.1-0.3-0.2-0.6-0.4-0.8c-0.3,0-1,0.1-1.3,0.1c-0.2,0-0.5,0.1-0.7,0c-0.2-0.1,0.1-0.6,0.3-0.6
				c0.1,0,0.5,0,0.9-0.1l-0.5-0.4c-0.3,0-0.6,0.1-0.7,0.1c-0.2,0-0.5,0.1-0.7,0c-0.1-0.1,0-0.3,0.1-0.5c-0.2,0-0.4-0.1-0.5-0.1
				c-0.1,0-0.2,0-0.2,0.1c0,0,0,0.1,0,0.1C143.8,63.5,144.5,64.6,144.7,65.5z M144.8,53.3c0.2,0.6,0.4,2.1,0.4,3
				c0,0.8-0.1,2.2-0.2,3.1c0,0.2-0.5,1.4-0.5,1.4c0,0,1.4-0.5,1.5-0.5c0,0-0.3-0.1-0.3-0.1c-0.1-0.1-0.1-0.6,0.3-0.7
				c0.2-0.1,0.5-0.1,0.7-0.1c0.2-0.2,0.1-0.3,0.3-0.5h-0.6c-0.3,0-0.4-0.3-0.5-0.4c-0.1-0.1,0-0.3,0.4-0.4l1.2-0.1l0.2-0.6
				c-0.4,0-1.1,0-1.3,0c-0.2,0-0.2-0.3-0.2-0.5c0-0.1,0.4-0.2,0.6-0.2c0.1,0,0.7-0.1,1.1-0.1l0.1-0.8l-1,0.1c-0.2,0-0.5-0.1-0.6-0.2
				c-0.1-0.1,0.2-0.5,0.3-0.6c0.2-0.1,0.9,0,1.2-0.1c0-0.2-0.1-0.4-0.1-0.6c-0.3,0.1-0.7,0.1-0.8,0c-0.2-0.1-0.6,0.1-0.7,0.1
				c-0.1,0-0.1-0.4,0-0.6c0.1-0.2,0.2-0.2,0.6-0.1c0.1,0,0.4,0,0.7,0c-0.1-0.2-0.1-0.4-0.2-0.5l-1,0.1c-0.2,0-0.5-0.1-0.6-0.2
				c-0.1-0.1,0.2-0.5,0.3-0.6c0.1-0.1,0.4,0,0.6,0c-0.1-0.4-0.2-0.4-0.2-0.4l-0.7,0.1c-0.2,0-0.5-0.1-0.6-0.2
				c-0.1-0.1,0-0.3,0.1-0.4c-0.2-0.1-0.4-0.2-0.5-0.2c-0.1,0-0.6-0.1-0.6,0C144.3,51.8,144.6,52.7,144.8,53.3z"/>
			<path class="st1" d="M160.9,49.8c0.1,0,0.1,0,0.2,0c0.1,0,1.1-0.2,1.3-0.2c1.1,0,2.2,0.2,3.5,0.2c0.8,0,1.6,0.2,1.7,0.5
				c0,0.1,0,0.1,0,0.2c0,0.3-0.2,0.6-0.3,0.8c-0.2,0.3-1.1,0.1-1.5,0.3c-0.1,0-0.2,0.2-0.2,0.5c0,0.4,0.1,1.1,0.3,1.6
				c0,0.3,0,0.7,0,1.1c0,0.8,0,1.8,0,2.4c0,0.9,0.2,2.3,0.2,3.1c0,0.5-0.1,1-0.1,2.2c0,1.5,0.1,3.1,0.2,4.4c0,0.6,0.1,2.6,0.1,3.4
				c0,0.3,0,0.6,0,0.7c0,0.4,0.1,0.4,0.1,0.6c0,0.3,0.4,0.3,1.5,0.3c0.4,0,0.5,0.1,0.5,0.4c0,0.1-0.1,0.6-0.1,0.7
				c0,0.4-0.7,0.2-1.2,0.4c-0.2,0.1-0.4,0.1-0.7,0.1c-0.2,0-0.5,0-1-0.1c-0.4-0.1-0.9-0.1-1.3-0.1c-0.8,0-1.6,0.1-2.3,0.1
				c-0.6,0-1.2,0.1-1.9,0.1c-0.4,0-0.5-0.4-0.5-1c0-0.4,0.6-0.6,1.2-0.6c0.5,0,0.9-0.2,0.9-0.7c-0.1-0.1-0.1-0.3-0.1-1.7
				c0-0.3,0-0.8,0-1.2v-1.8c0-0.5-0.1-1.2-0.1-1.9c0-0.3,0-0.6,0.1-0.8c0.2-2.6,0.2-4.3,0.2-5.5c0-1.1,0-1.7,0-2.2
				c0-1.1,0-3.4,0-4.2c0-0.7-1.2-0.6-1.6-0.7c-0.2,0-0.3-0.4-0.3-0.7C159.5,50,160,49.9,160.9,49.8z M164.9,51.7
				c0-0.1-0.1-0.2-0.1-0.2c-0.1-0.1-0.3-0.1-0.5-0.1c-0.2,0-1.3,0-1.4,0c-0.1,0-0.2,0-0.3,0.2c-0.1,0.4-0.1,1.2-0.1,1.9
				c0,0.5,0.2,1.1,0.2,1.7c0,0.1,0,0.2-0.1,0.4c-0.1,0.9-0.2,2-0.2,2.9c0,0.4,0.2,0.9,0.2,1.4c0,0.5,0,0.9-0.1,1.4
				c-0.2,0.8-0.3,1.7-0.3,2.7c0,0.6,0.2,1.9,0.2,2.9s0.2,1.3,0.2,3v0.8c0,1,0,1.4,0.2,1.4c0.4,0,2.3,0,2.3-0.3c0,0,0-0.2,0-0.5
				c-0.5,0-1.6,0-1.7-0.1c-0.1-0.1-0.1-0.4,0.1-0.5c0.2-0.1,1.2-0.1,1.6-0.1v-0.6c-0.1,0-1.4,0.1-1.6,0.1c-0.2,0-0.2-0.4-0.2-0.5
				c0-0.1,1.2-0.2,1.8-0.2c0-0.2,0-0.4,0-0.5c-0.5,0-1.3,0-1.5,0c-0.3,0-0.4-0.4-0.4-0.5c0-0.1,0.4-0.2,0.7-0.2c0.2,0,0.9,0,1.3,0
				c0-0.2,0-0.4,0-0.6c-0.1,0-0.2,0-0.3,0c-0.3,0-1.4-0.1-1.6,0c-0.1,0.1-0.1-0.4-0.2-0.6c0-0.2,0.3-0.2,0.5-0.3
				c0.2-0.1,1.1,0,1.6,0v-0.7c-0.3,0-0.6,0-0.7,0c-0.1,0-1.3,0-1.4,0c-0.1,0-0.1-0.4,0-0.6c0.1-0.2,1.2-0.1,1.6-0.1
				c0.1,0,0.2,0,0.4,0l-0.1-0.4l-0.1-0.5c-0.4,0-1.1,0.1-1.2,0.1c-0.2,0-0.5,0.1-0.7,0c-0.2-0.1,0.1-0.6,0.3-0.6
				c0.1,0,1-0.1,1.5-0.1c0-0.2-0.1-0.5-0.1-0.7c-0.1,0-0.1,0-0.2,0c-0.2,0-1.2,0.1-1.5,0.1c-0.2,0-0.2-0.4-0.3-0.5
				c0-0.1,0.3-0.2,0.5-0.3c0.2,0,0.9,0,1.4,0c0-0.2,0-0.3,0-0.6h-1c-0.2,0-0.5-0.1-0.7-0.2c-0.1-0.2,0.1-0.4,0.2-0.5
				c0.2,0,0.5-0.1,0.8-0.1c0.1,0,0.5,0,0.9,0c0-0.2,0.1-0.4,0.1-0.5c-0.4,0.1-1.4,0.1-1.5,0.1c-0.1,0-0.2-0.1-0.4-0.3
				c-0.1-0.1-0.1-0.3,0.2-0.5c0.4-0.1,1.3-0.1,1.7-0.2v-0.6c-0.4,0-1.4,0.1-1.7,0.1c-0.3,0-0.4-0.3-0.5-0.4c-0.1-0.1,0-0.3,0.4-0.4
				c0.3-0.1,1.3-0.1,1.8-0.1v-0.6H165c-0.2,0-1.5,0-1.7,0c-0.2,0-0.2-0.3-0.2-0.5c0-0.1,0.4-0.2,0.6-0.2c0.1,0,1.1-0.1,1.5-0.1
				c0-0.2,0-0.4,0-0.6l-1.4,0.1c-0.2,0-0.5-0.1-0.6-0.2c-0.1-0.1,0.2-0.5,0.3-0.6c0.2-0.1,1,0,1.4-0.1c0.1,0,0.1,0,0.2,0v-0.5
				c-0.5,0.1-1,0.1-1.2,0.1c-0.2,0-0.6,0.1-0.7,0.1c-0.1,0-0.1-0.4,0-0.6c0.1-0.2,0.2-0.2,0.6-0.1c0.2,0.1,0.8,0.1,1.3,0v-0.6
				c-0.4,0-1.6,0-1.7,0c-0.2,0-0.2-0.5-0.2-0.6c0.2-0.3,1.4-0.2,1.9-0.1c0-0.2,0-0.3,0-0.4c-0.4,0-1.5,0-1.7,0
				c-0.2,0-0.3-0.6-0.2-0.6C163.6,51.7,164.6,51.3,164.9,51.7z"/>
			<path class="st1" d="M178,65.2c0.1-0.4,0.2-0.6,0.9-0.8c0.6-0.2,0.8-1.4,1.2-2.1c0.4-0.7,0.7-2.1,1-2.9c0.3-0.7,0.8-2,1-2.7
				c0.2-0.7,0.3-1.9,0.7-2.8c0.4-0.9,0.7-1.3,0.7-2.1c0-0.7,0.9-2.1,1.5-2.1c0.5,0,0.9,0.1,1.1,0.7c0.2,0.6,0.5,1,0.8,1.8
				c0.1,0.9,0.8,1.9,1.2,2.9c0.4,1,1.4,3.3,1.7,4.2c0.2,0.9,1.1,1.9,1.3,2.8c0.2,0.9,1,1.8,1.4,3.2c0.5,1.4,0.4,1,0.6,1.6
				c0.3,0.7,0.4,1.2,0.7,1.9c0.3,0.8,0.7,1.4,0.9,1.8c0.1,0.4,0.5,0.7,0.9,0.7c0.4,0.1,1.7,0,1.8,0.4c0.1,0.2,0.1,0.4,0.1,0.6
				c0,0.2,0,0.4-0.1,0.5c0,0.2-0.6,0.2-0.9,0.2c-0.3,0-0.6-0.1-1-0.1c-0.3,0-0.6,0.2-0.9,0.2c-0.6,0.1-0.9,0.1-1.2,0.1
				c-0.5,0-1-0.2-1.7-0.2c-0.6,0-1.2,0.1-1.8,0.1c-0.5,0-0.9-0.1-1.3-0.1c-0.1,0-0.2-0.2-0.2-0.6c0-0.5,0-0.5,0.6-0.5
				c0.3,0,1-0.2,1.1-0.6c0-0.1,0.1-0.2,0.1-0.4c0-0.2-0.1-0.5-0.4-0.8c-0.5-0.4-0.6-1.4-0.9-1.8c-0.3-0.5-0.9-2.1-1.1-2.2
				c-0.3-0.1-1.3-0.1-2.2-0.1c-0.8,0-1.7,0.1-2.7,0.2c-0.2,0-0.9,0.2-1.1,0.2c-0.9,0-1,0.9-1,1.7c0,0.5,0.1,1,0.1,1.3
				c0,1,0.5,2.1,0.8,2.3c0.2,0.2,0.6,0.4,0.6,1c0,0.3-0.2,0.4-0.6,0.4c-0.2,0-0.5,0-0.9,0c-0.6,0-3,0.2-4.3,0.2
				c-1.3,0-1.9-0.1-1.9-0.5c0-0.7,0.9-1.1,1.2-1.9c0.3-0.6,1-1.2,1.3-1.9c0.4-0.7,1.3-2.3,1.3-2.7C178.3,66,178,65.7,178,65.2z
				 M180.2,70.4c-0.3,0-0.6,0-1,0.1c-0.1,0-0.6-0.1-0.6-0.1c-0.1,0-0.1-0.4,0-0.6c0.1-0.2,0.5-0.1,0.9-0.1c0.2,0,0.4,0,0.5,0
				l-0.1-0.6l-0.7,0c-0.2,0-0.1-0.6,0.1-0.8c0,0,0.2,0,0.5,0c-0.1-0.5-0.2-1-0.3-1c-0.1,0-1.1,1.9-1.7,2.8c-0.5,0.8-1.3,1.9-1.3,2.1
				c0,0.2,0.9,0.3,1.3,0.3h1.7c0.4,0,1.1,0,1.1-0.2c0,0-0.1-0.3-0.1-0.5c-0.1,0-0.3,0.1-0.5,0.1s-1.2,0.1-1.5,0.1
				c-0.2,0-0.6,0-0.7-0.1c-0.1-0.1-0.1-0.4,0.1-0.5c0.2-0.2,1.5-0.1,1.8,0c0.3,0,0.4-0.2,0.6-0.1C180.3,70.9,180.2,70.7,180.2,70.4z
				 M182.6,58.6c-0.1,0.6-0.7,1.9-0.9,2.6c-0.3,0.6-0.4,1.2-0.6,1.8c-0.1,0.2-0.5,1-0.5,1.2c0,0.1,0,0.1,0.1,0.1
				c0.2-0.1,0.6-0.1,1.1-0.1c0.5,0,1.1,0.1,1.4,0.2c0.2,0.1,0.5,0.1,0.9,0.1c0.6,0,1.3,0,1.7-0.1c0.6-0.1,1.6-0.2,1.6-0.3
				c0-0.1-0.6-0.1-0.7-0.8c-0.2-0.7-0.7-1.4-1-2.1c-0.2-0.8-0.9-1.3-1.1-2.2c-0.2-0.9-0.6-1.6-0.7-2.2c-0.1-0.4-0.2-0.6-0.4-0.6
				c0,0-0.1,0.1-0.1,0.2C183.3,56.8,182.8,57.9,182.6,58.6z M185.4,52.1c-0.2-0.5-0.2-0.9-0.2-0.9c-0.2,0-1.2,1.8-1.3,2.5
				c0,0.6-0.1,1.3,0,1.7c0.2,0.4,0.7,1.4,1,2.4c0.5,1.1,0.7,1.8,1.2,2.6c0.2,0.9,0.5,0.8,1,1.9c0.6,1.2,1,1.7,1.1,2.6
				c0.2,0.9,0.7,1.7,1.1,2.7c0.4,1.2,0.7,2,1.1,2.4c0.3,0.5,0.4,1.1,1,1.7c0.4,0.5,1.2,0.1,1.8,0.1c0.2,0,1,0.1,1-0.1
				c0-0.2-0.4-0.2-0.5-0.5c-0.2,0-0.4,0.1-0.4,0.1c-0.1,0-0.4,0-0.7,0c-0.2,0-0.6,0-0.7-0.1c-0.1-0.1-0.1-0.4,0.1-0.5
				c0.2-0.2,0.5-0.1,0.8,0c0.2,0,0.5,0,0.6,0l-0.3-0.6c-0.4,0-0.6,0-0.6,0c-0.1,0-0.7,0.1-0.9,0.1c-0.2,0-0.2-0.4-0.2-0.5
				c0-0.1,0.5-0.2,1-0.2c0.2,0,0.2,0,0.5-0.1c-0.1-0.2-0.2-0.4-0.2-0.6c-0.3,0.1-0.4,0.2-0.6,0.2c-0.4,0-0.8,0-1.1,0
				c-0.3,0-0.4-0.4-0.4-0.5c0-0.1,0.4-0.2,0.7-0.2c0.3,0,0.4-0.1,0.7,0c0.2,0.1,0.4,0,0.6-0.1c0-0.3-0.1-0.5-0.2-0.7
				c-0.4,0.1-0.9,0.2-1.2,0.2c-0.3,0-0.7-0.1-0.9,0c-0.1,0.1-0.1-0.4-0.2-0.6c0-0.2,0.3-0.2,0.5-0.3c0.2-0.1,0.4,0,0.8,0
				c0.2,0,0.4,0,0.6,0l-0.3-0.7c-0.2,0-0.5,0-0.6,0c-0.1,0-0.6,0-0.8,0c-0.1,0-0.6,0-0.7,0c-0.1,0-0.1-0.4,0-0.6
				c0.1-0.2,0.5-0.1,0.9-0.1c0.3,0.1,0.6,0,0.9-0.1l-0.4-0.8c-0.3,0-0.4,0.1-0.6,0.1c-0.3,0-0.6,0.1-0.8,0.1c-0.2,0-0.5,0.1-0.7,0
				c-0.2-0.1,0.1-0.6,0.3-0.6c0.2,0,0.6-0.1,1-0.1c0.2,0,0.4,0,0.5-0.1l-0.3-0.7c-0.2,0-0.4,0.1-0.5,0.1c-0.1,0.1-0.4,0-0.6,0
				c-0.2,0-0.5,0.1-0.7,0.1c-0.2,0-0.2-0.4-0.3-0.5c0-0.1,0.3-0.2,0.5-0.3c0.2,0,0.6,0,0.9,0c0.1,0,0.3-0.1,0.5-0.2
				c-0.1-0.2-0.2-0.4-0.4-0.6c-0.3,0-0.7,0.1-0.8,0.1c-0.1,0.1-0.6,0.1-0.8,0.1c-0.2,0-0.5-0.1-0.7-0.2c-0.1-0.2,0.1-0.4,0.2-0.5
				c0.2,0,0.5-0.1,0.8-0.1c0.1,0,0.4,0,0.7-0.1c-0.1-0.1-0.2-0.4-0.3-0.6c-0.3,0-0.5,0-0.6,0.1c-0.2,0.1-1,0.1-1.1,0.1
				c-0.1,0-0.2-0.1-0.4-0.3c-0.1-0.1-0.1-0.3,0.2-0.5c0.4-0.1,0.8-0.1,1.1-0.2c0.1,0,0.1,0,0.4-0.1l-0.4-0.7c-0.2,0-0.3,0.1-0.5,0.1
				c-0.3,0-0.8,0.1-1.1,0.1c-0.3,0-0.4-0.3-0.5-0.4c-0.1-0.1,0-0.3,0.4-0.4c0.3-0.1,0.8-0.1,1.1-0.1h0.4c-0.1-0.2-0.2-0.4-0.3-0.6
				h-1c-0.2,0-0.8,0-1,0c-0.2,0-0.2-0.3-0.2-0.5c0-0.1,0.4-0.2,0.6-0.2c0.2,0,0.6-0.1,0.8-0.1c0.1,0,0.3,0,0.5-0.1
				c0,0,0-0.1-0.3-0.7h-0.4l-1,0.1c-0.2,0-0.5-0.1-0.6-0.2c-0.1-0.1,0.2-0.5,0.3-0.6c0.2-0.1,0.5,0,0.9-0.1c0.2,0,0.2,0,0.5,0.1
				c-0.1-0.2-0.2-0.5-0.2-0.8c-0.4,0.1-0.7,0.1-0.8,0.1c-0.2-0.1-0.6,0.1-0.7,0.1c-0.1,0-0.1-0.4,0-0.6c0.1-0.2,0.2-0.2,0.6-0.1
				c0.2,0.1,0.4,0.1,0.7,0c-0.1-0.2-0.2-0.5-0.4-0.7c-0.3,0-0.4,0-0.5,0c-0.2,0-0.2-0.5-0.2-0.6C185.2,52.1,185.2,52.1,185.4,52.1z"
				/>
		</g>
		<g>
			<path class="st0" d="M10.6,62.3c-0.5-0.1-0.5-0.4-0.6-1.1c-0.1-0.4-0.1-1-0.1-1.6c0-0.6,0-1.4,0.1-2.1c0-0.2,0-0.4,0-0.6
				c0-1.3-0.3-2.4-0.3-3.7c0-1.1,0.3-1.6,0.5-1.8c0,0-0.5,0-0.7,0.1S9,52.1,9,53.2c0,1.3,0.3,2.4,0.3,3.7c0,0.2,0,0.4,0,0.6
				c0,0.7-0.1,1.5-0.1,2.1c0,0.6,0,1.2,0.1,1.6C9.4,61.9,10.1,62.3,10.6,62.3z"/>
			<path class="st0" d="M10.2,68.8c0,0-0.1-1.3-0.1-2.4c0-0.2,0-0.6,0-0.8c0.1-0.9,0.2-1.2,0.4-1.2c-0.8,0-0.9,0.2-1.1,1.2
				c0,0.2,0,0.5,0,0.8c0,1.1,0.1,2.4,0.2,4.5c0,0.4,0.5,0.7,1.1,1c0,0-0.5-0.6-0.5-1V68.8z"/>
			<path class="st0" d="M17,50.5c1.1,0.4,2.3,1.1,3,2.2c0.6,1,1.2,2.4,1.2,3.7c0,1.3-0.5,2.9-1.2,3.8c-0.5,0.6-1.2,1.1-2.1,2.1
				c-0.9,1-1.8,1.4-2.5,1.5c-0.5,0.1-0.6,0.4-1.5,0.5c1,0,1.2,0.2,2.4-0.2c1.1-0.4,1.5-0.6,2.4-1.6c0.9-1,1-0.9,1.5-1.5
				c1.3-1.5,1.6-3.3,1.6-4.5c0-1.2-0.6-2.7-1.2-3.7C20.1,51.6,18.2,50.5,17,50.5z"/>
			<path class="st0" d="M35.9,60.4c0,0,0.3,0.1,0.3,0.1l0.6-0.2c0,0-0.3-1.4-0.4-1.7c-0.1-0.3,0-2,0-2l0.1-1.4l-0.1-1v-1l0.3-0.5
				l-0.2-0.3h-0.7c0,0.3-0.1,0.2-0.1,0.8c0,0.6,0,1.1,0.1,1.9c0,0.5,0.1,1,0.1,1.3c0,0.6-0.1,1.2-0.1,2C35.7,59,35.9,60.4,35.9,60.4
				z"/>
			<path class="st0" d="M37.4,70.3c-0.2-0.2-0.4-0.8-0.4-1c-0.1-0.8-0.2-2.3-0.2-2.3l-0.1-2.1l-0.1-1.1l0.2-0.6c0,0,0.3-0.4-0.3-0.5
				c-0.6-0.1-0.6,0.3-0.6,0.3c0,0.5,0.2,1.1,0.2,1.9c0,0.7,0,1.3,0.1,2.1c0.1,0.8,0.2,1.9,0.2,3.1c0,0.7,0.7,0.7,0.9,0.7
				C37.7,70.7,37.4,70.3,37.4,70.3z"/>
			<path class="st0" d="M43,58.9L42.8,58c0,0-0.7-0.4-0.7-0.4c0.1,0.1,0.2,0.7,0.2,1.1c0,0.4-0.3,1.3-0.3,2.8c0,0.9,0.2,1.6,0.2,2.3
				c0,0.5-0.1,0.8-0.2,1c0.1,0,0.7-0.4,0.7-0.4l0.1-0.7L42.5,62v-1.3L43,58.9z"/>
			<path class="st0" d="M45.2,56.6c0.3-1.1,0.3-1.4,0.3-1.5v-0.5l0-1.6l0.1-2.8l-0.5-0.5l-0.7-0.1c0.2,0.2,0.6,0.4,0.6,0.8
				c0,0.4-0.2,1.5-0.2,2.6c0,0.5,0,1,0,1.5c0,0.3,0.1,0.5,0.1,1c0,0.5-0.3,1.1-0.4,1.2C44.5,56.7,45.2,56.6,45.2,56.6z"/>
			<path class="st0" d="M45,65.7c0.2,0.1,0.5,0.4,0.6,0.6c0,0.1,0,0.2,0,0.4c0,0.5-0.1,1.1-0.2,1.7c-0.1,0.7-0.2,1.9-0.3,2.7
				c-0.1,0.8-0.2,2-0.3,2.2c0.1,0,0.8-0.1,0.8-0.1l0.2-2l0.2-2.5l0.2-1.6v-0.9l-0.5-0.5C45.9,65.7,45.2,65.7,45,65.7z"/>
			<path class="st0" d="M58.8,70.3c-0.6-0.2-0.9-1.5-1.5-2.1c-0.6-0.7-1-1.2-1.2-2c-0.3-1-1.5-1.6-2-1.4c0.4,0,1,0.4,1.3,1.4
				c0.2,0.8,0.6,1.3,1.2,2c0.6,0.7,1,1.8,1.5,2.1c0.6,0.4,1.1,1.1,2.1,1.1C60.2,71.4,60.1,70.8,58.8,70.3z"/>
			<path class="st0" d="M65,60c-0.6-0.3-1.9-1.6-2.7-1.9c-0.7-0.4-1.8-1.5-2.3-2c-0.7-0.8-0.7-2.1-0.7-3.1c0-0.2,0.3-0.9,0.8-1
				c0,0-0.1-0.1-0.3-0.4c-0.5,0-1.3,0.7-1.3,1.4c0,1.5,0.3,2.7,0.7,3.1c0.5,0.5,1.6,1.7,2.3,2c0.7,0.4,1.9,1.7,2.4,2
				c0.5,0.2,0.9,0.9,1.5,1.5c0.7,0.6,1.3,1.4,1.5,2.6c0,0.1,0,0.4,0,0.6c0,1.2-0.2,2.3-0.5,3.4c-0.1,0.7-0.7,2.1-1.4,2.5
				c-0.6,0.4-0.5,0.6-1.5,1.3c-0.3,0.2-0.5,0.8-2.8,1.3c2,0,3.4-1.1,3.9-1.6c0.5-0.5,0.3-0.5,1-1c0.6-0.5,1.2-1.8,1.4-2.5
				c0.3-1.2,0.5-2.2,0.5-3.4c0,0-0.2-2.1-1.5-3.3C65.7,60.8,65.6,60.2,65,60z"/>
			<path class="st0" d="M66.6,56.6c0.1-0.2,0.1-0.5,0.1-0.8c0-0.8-0.1-1.7-0.1-2c0-0.4,0.3-2.3,0.3-3c0-0.4-0.7-0.7-1-0.8
				c0.2,0,0.3,0.4,0.3,0.8c0,0.7-0.3,2.7-0.3,3c0,0.3,0.1,1.2,0.1,2c0,0.3,0,0.6-0.1,0.8c-0.1,0.4-0.1,0.6-0.4,0.7
				C65.9,57.2,66.5,56.9,66.6,56.6z"/>
			<path class="st0" d="M85,70l-0.7-0.9l-1.1-1.7L82.8,66c0,0-0.2-2.4-0.2-2.5c0,0-0.1-1.8-0.1-1.8c0.2-1.5,0.3-2.9,0.7-4.3l0.4-1.5
				l0.7-1.3l0.7-1.2l0.6-0.9l0.7-0.8c0,0-0.4,0-0.7,0.2c-0.2,0.1-0.6,0.4-1,1.2c-0.5,0.8-1.2,2.1-1.5,2.7c-0.2,0.4-0.5,1.4-0.8,2.7
				c-0.1,1.3-0.2,2.6-0.2,4.4c0,1.7,0.2,3.2,0.4,4.2c0.2,1,0.8,1.8,1.4,2.5c0.6,0.7,1.5,1.5,2.4,1.8c0.1,0-0.2-0.7-0.2-0.7L85,70z"
				/>
			<path class="st0" d="M95.9,69.9c-0.2,0.6-1,1.4-1.4,1.8s-2.4,1.5-2.4,1.5l-1,0.3l1.6-0.1l2.2-1l1.3-1.8l0.2-0.5
				c0,0-0.3-0.4-0.4-0.5L95.9,69.9z"/>
			<path class="st0" d="M95.5,50.4c0.2,0.1,0.4,0.4,0.4,0.9c0,0.8-0.1,2.9-0.1,3.9c0,0.7-0.1,1.6-0.2,2.4c0,0.4-0.4,1.2-0.7,1.2
				c0,0,0.6,0,0.7,0c0.8,0,0.7-2.7,0.7-2.7s0.1-1.1,0.1-1.1c0,0-0.1-2,0-2.8c0.1-0.9-0.2-1.7-0.2-1.7C96.2,50.4,95.4,50.3,95.5,50.4
				z"/>
			<path class="st0" d="M110.1,63.9c0,0,0.1-0.5,0.2-0.7c0.7-1.6,0.8-2,1.3-3.5c0.1-0.4,0.1-0.9,0.2-1.1c0.1-0.3-0.2-1.2-0.2-1.2
				s-0.5,1.2-0.6,1.8c-0.1,0.6-0.4,1.5-0.6,1.7c-0.2,0.3-0.5,1-0.5,1.3c-0.1,0.3-0.3,1.2-0.4,1.5C109.3,64,110.1,63.9,110.1,63.9z"
				/>
			<path class="st0" d="M111.1,71.4c-0.2-0.4-0.8-0.8-0.8-1.3c0-0.5-0.2-1-0.2-1.5c0-0.5,0.2-0.8,0.2-1.1c0.1-0.8-0.6-0.7-0.7-0.5
				c-0.1,0.2-0.2,0.6-0.2,1.2c0,0.5,0.2,1,0.2,1.7c0.1,0.7,0.3,1.3,0.5,1.6c0.2,0.3,0.5,0.6,0.7,1c0.2,0.4,0.1,0.6,0.4,0.7
				c0.2,0.1,0.7,0.1,0.7-0.2c0-0.3,0-0.3-0.3-0.7C111.5,72,111.4,71.8,111.1,71.4z"/>
			<path class="st0" d="M123.4,69.2c-0.2-0.2-0.2-0.7-0.3-1.1c-0.1-0.3-0.2-0.6-0.4-0.9c-0.1-0.4-0.1-0.7-0.3-1
				c-0.2-0.3-0.2-0.4-0.5-1c-0.3-0.7-0.7-1.2-0.8-1.7c-0.2-0.5-0.4-1.1-0.5-1.5c-0.4-0.7-0.6-1.4-1-2.1c-0.3-0.5-0.4-0.9-0.6-1.3
				c-0.2-0.4-0.4-0.8-0.5-1.1c-0.2-0.3-0.2-0.6-0.4-1.1c-0.3-0.5-0.4-0.8-0.6-1.1c-0.2-0.3-0.4-1.2-0.6-1.5c-0.1-0.2-0.3-0.5-0.5-1
				c-0.2-0.5-0.2-0.4-0.4-1.2c-0.2-0.8-0.6-1.2-0.9-1.4c-0.3-0.1-0.5-0.3-0.7-0.3l0.9,2.2c0,0,0.4,1.3,0.5,1.6
				c0.1,0.2,0.4,0.9,0.5,1.3c0.1,0.4,0.2,0.6,0.4,0.9c0.1,0.3,0.5,0.8,0.5,1.1c0,0.3,0.4,0.9,0.6,1.2c0.2,0.2,0.2,0.9,0.5,1.4
				c0.2,0.5,0.5,1,0.7,1.5c0.1,0.4,0.5,1,0.7,1.4c0.1,0.4,0.4,1.1,0.6,1.5c0.2,0.4,0.5,1.3,0.7,1.7c0.3,0.4,0.7,1.7,0.8,2.1
				c0.1,0.4,0.2,0.9,0.5,1.3c0.2,0.4,0.3,0.9,0.5,1.2c0.2,0.3,0.6,0.7,0.7,0.9c0.1,0.1,1.2,0.3,1.2,0.3s-0.6-0.6-0.7-0.9
				C124,70.2,123.6,69.4,123.4,69.2z"/>
			<path class="st0" d="M139.5,68.9c0-1.1,0-1.5-0.1-2.7c0-0.9-0.2-1.4-0.2-1.8c0-0.2,0.1-0.6,0.1-0.5c0,0,0.7-0.6,0.3-0.6
				s-0.7,0-1,0.6c-0.1,0.2-0.1,0.3-0.1,0.5c0,0.4,0.2,1,0.2,1.8c0.1,1.2,0.1,1.6,0.1,2.7c0,1.2,0,2,0.2,2.5c0.2,0.4,1,0.2,1.1,0.6
				c-0.1-0.4-0.3-0.4-0.5-0.7C139.4,70.7,139.5,70.1,139.5,68.9z"/>
			<path class="st0" d="M138.9,57.8c0,0.2,0,0.4,0,0.5c-0.1,0.7-0.1,1.9-0.1,3c0.1,0.1,0.7-0.1,0.7-0.1v-0.3c0-0.7,0-1.9,0.1-2.6
				c0-0.1,0-0.3,0-0.5c0-1.1-0.2-2.9-0.3-4.1c0-0.4,0-0.7,0-1l0.1-1.4c0-0.2-0.7,0-0.7,0l-0.1,1.4c0,0.3,0,0.6,0,1
				C138.7,54.9,138.9,56.7,138.9,57.8z"/>
			<path class="st0" d="M151.5,70.6c-0.3-0.5-0.5-0.9-0.6-1.6c-0.1-0.7-0.5-2.1-0.7-2.8c-0.2-0.8-0.4-1.3-0.6-1.7
				c-0.5-1.1-0.9-2.1-2.1-2.4c-0.7-0.2-1.1-0.5-1.1-0.6c0.1,0,0.8-0.3,1.3-0.6c0.6-0.4,1.5-1,1.8-1.7c0.4-0.8,0.9-2.3,0.9-3.2
				c-0.1-0.8,0-2.7-0.4-3.3c-0.4-0.6-1.1-1.8-1.8-2.1c-0.6-0.2-2.2-0.6-3.4-0.7c1.1,0.1,2,0.5,2.7,0.7c0.7,0.3,1.5,1.5,1.8,2.1
				c0.4,0.6,0.4,2.5,0.4,3.3c0,0.8-0.5,2.3-0.9,3.2c-0.4,0.7-1.3,1.4-1.8,1.7c-0.5,0.3-1.4,0.7-1.5,0.7c0.1,0,0.6,0.4,1.3,0.6
				c0.7,0.2,0.7,0.7,1.3,1c0.6,0.2,0.5,1,0.9,1.4c0.2,0.4,0.3,0.8,0.6,1.7c0.3,0.7,0.6,2.1,0.7,2.8c0.1,0.7,0.6,1.7,1,2
				c0.4,0.3,0.5,0.2,1.1,0.3C151.8,71,151.7,70.9,151.5,70.6z"/>
			<path class="st0" d="M167.2,60.4c0-0.7-0.2-2.2-0.2-3.1c0-0.6,0-1.6,0-2.4c0-0.4,0-0.8,0-1.1c-0.1-0.6-0.2-1-0.3-1.4
				c0-0.2-0.3-0.4-0.2-0.7c-0.4,0-0.5,0.2-0.5,0.4c0,0.4,0.1,1.1,0.3,1.6c0,0.3,0,0.7,0,1.1c0,0.8,0,1.8,0,2.4
				c0,1.2,0.1,2.3,0.1,3.4c-0.1,0.7-0.1,0.8-0.1,1.9c0,1.5,0.5,3.1,0.5,4.4c0,0.5-0.2,1-0.2,1.4c0,1.1-0.1,2-0.1,2.8
				c0,0.5,0.2,1,0.8,0.7c0,0-0.1-0.2-0.1-0.6c0-0.1,0-0.4,0-0.7c0.1-0.8,0.1-1.4,0.1-2.1c0-0.4,0.2-0.9,0.2-1.4
				c-0.1-1.3-0.5-2.9-0.5-4.4C167.1,61.4,167.2,60.9,167.2,60.4z"/>
			<path class="st0" d="M182,63.9c0,0,0.1-0.5,0.2-0.7c0.7-1.6,0.8-2,1.3-3.5c0.1-0.4,0.1-0.9,0.2-1.1c0.1-0.3-0.2-1.2-0.2-1.2
				s-0.5,1.2-0.6,1.8c-0.1,0.6-0.4,1.5-0.6,1.7c-0.2,0.3-0.5,1-0.5,1.3c-0.1,0.3-0.3,1.2-0.4,1.5C181.2,64,182,63.9,182,63.9z"/>
			<path class="st0" d="M183,71.4c-0.2-0.4-0.8-0.8-0.8-1.3c0-0.5-0.2-1-0.2-1.5c0-0.5,0.2-0.8,0.2-1.1c0.1-0.8-0.6-0.7-0.7-0.5
				c-0.1,0.2-0.2,0.6-0.2,1.2c0,0.5,0.2,1,0.2,1.7c0.1,0.7,0.3,1.3,0.5,1.6c0.2,0.3,0.5,0.6,0.7,1c0.2,0.4,0.1,0.6,0.4,0.7
				c0.2,0.1,0.7,0.1,0.7-0.2c0-0.3,0-0.3-0.3-0.7C183.4,72,183.2,71.8,183,71.4z"/>
			<path class="st0" d="M196,70.4c-0.1-0.2-0.6-1.1-0.8-1.3c-0.2-0.2-0.2-0.7-0.3-1.1c-0.1-0.3-0.2-0.6-0.4-0.9
				c-0.1-0.4-0.1-0.7-0.3-1c-0.2-0.3-0.2-0.4-0.5-1c-0.3-0.7-0.7-1.2-0.8-1.7c-0.2-0.5-0.4-1.1-0.5-1.5c-0.4-0.7-0.6-1.4-1-2.1
				c-0.3-0.5-0.4-0.9-0.6-1.3c-0.2-0.4-0.4-0.8-0.5-1.1c-0.2-0.3-0.2-0.6-0.4-1.1c-0.3-0.5-0.4-0.8-0.6-1.1
				c-0.2-0.3-0.4-1.2-0.6-1.5c-0.1-0.2-0.3-0.5-0.5-1c-0.2-0.5-0.2-0.4-0.4-1.2c-0.2-0.8-0.6-1.2-0.9-1.4c-0.3-0.1-0.5-0.3-0.7-0.3
				l0.9,2.2c0,0,0.4,1.3,0.5,1.6c0.1,0.2,0.4,0.9,0.5,1.3c0.1,0.4,0.2,0.6,0.4,0.9c0.1,0.3,0.5,0.8,0.5,1.1c0,0.3,0.4,0.9,0.6,1.2
				c0.2,0.2,0.2,0.9,0.5,1.4c0.2,0.5,0.5,1,0.7,1.5c0.1,0.4,0.5,1,0.7,1.4c0.1,0.4,0.4,1.1,0.6,1.5c0.2,0.4,0.5,1.3,0.7,1.7
				c0.3,0.4,0.7,1.7,0.8,2.1c0.1,0.4,0.2,0.9,0.5,1.3c0.2,0.4,0.3,0.9,0.5,1.2c0.2,0.3,0.6,0.7,0.7,0.9c0.1,0.1,1.2,0.3,1.2,0.3
				S196.1,70.7,196,70.4z"/>
		</g>
	</g>
</g>
</svg>
