<?xml version="1.0" encoding="utf-8"?>
<!-- Generator: Adobe Illustrator 23.0.0, SVG Export Plug-In . SVG Version: 6.00 Build 0)  -->
<svg version="1.1" id="Livello_1" xmlns="http://www.w3.org/2000/svg" xmlns:xlink="http://www.w3.org/1999/xlink" x="0px" y="0px"
	 viewBox="0 0 200 100" style="enable-background:new 0 0 200 100;" xml:space="preserve">
<style type="text/css">
	.st0{fill:#F15F4D;}
	.st1{fill:#008CC8;}
	.st2{fill-rule:evenodd;clip-rule:evenodd;fill:#0C94D2;}
	.st3{fill:#AD1F2A;}
	.st4{fill:#010101;}
	.st5{fill-rule:evenodd;clip-rule:evenodd;}
	.st6{fill-rule:evenodd;clip-rule:evenodd;fill:#FFFFFF;}
	.st7{fill-rule:evenodd;clip-rule:evenodd;fill:#ED1C24;}
	.st8{fill-rule:evenodd;clip-rule:evenodd;fill:#BB9A31;}
	.st9{fill:#E82946;}
	.st10{fill:#FFFFFF;}
	.st11{fill:#BB2826;}
	.st12{fill:#005596;}
	.st13{fill:#0096D6;}
	.st14{fill:#2F3382;}
	.st15{fill:#25275E;}
	.st16{fill:#7F6D62;}
	.st17{fill:#F68A3E;}
	.st18{fill:#005566;}
	.st19{fill:#FCB648;}
</style>
<g id="Piquadro_1_2_">
	<path class="st2" d="M129.3,46.6l-9,0h-0.2c-0.5,0-0.9,0.4-0.9,0.9v4.9c0,0.5,0.4,0.9,0.9,0.9h0.4h8.4h0.3c6.4,0,10.5-2,10.5-3.4
		C139.9,48.6,135.8,46.6,129.3,46.6z M23.8,48.8c0,0.2-3.2,2.1-9.8,2.1c0,0-6.4,0.2-9.9-1v-1.2c0.1-0.5,3-2.2,9.9-2.2
		C20.5,46.6,23.8,48.3,23.8,48.8z M185.4,55.2c-6,0-12.4-1.8-12.4-5.2c0-3.4,6.4-5.2,12.4-5.2c6,0,12.4,1.8,12.4,5.2
		C197.8,53.4,191.4,55.2,185.4,55.2z M167.8,53.3c-2.6,0-4.8-0.3-6.5-0.8c2.6-0.3,5.7-0.9,7.1-2.3c0.4-0.4,0.6-0.9,0.6-1.4
		c0-3.5-8.9-4-11.7-4c-6.8,0-11.8,1.7-11.8,4v5.5c0,0.5,0.4,0.9,0.9,0.9c0.5,0,0.9-0.4,0.9-0.9v-2.4c3.2,1,8.7,1,9.7,0.9
		c2.3,1.6,6.5,2.4,10.6,2.4c0.5,0,0.9-0.4,0.9-0.9C168.7,53.8,168.3,53.3,167.8,53.3z M157.4,51c0,0-0.7,0-1.8,0
		c-2.2,0-5.8-0.2-8.1-1l0-1.2c0.1-0.5,3-2.2,9.9-2.2c6.6,0,9.9,1.6,9.9,2.2c0,0.2-3.1,2.1-9.4,2.1C157.7,51,157.6,51,157.4,51z
		 M128.9,55.2l-9.3,0h-0.2c-1.1,0-2-0.9-2-2v-6.4c0-1.1,0.9-2,2-2h0.2h9.6c6.1,0,12.5,1.8,12.5,5.2c0,3.4-6.4,5.2-12.4,5.2H128.9z
		 M185.4,46.6c-6.4,0-10.5,2-10.5,3.4c0,1.4,4.1,3.4,10.5,3.4c6.4,0,10.5-2,10.5-3.4C195.9,48.6,191.8,46.6,185.4,46.6z M57.4,52.6
		c1-0.7,1.6-1.6,1.6-2.6c0-3.4-6.4-5.2-12.4-5.2c-6,0-12.4,1.8-12.4,5.2c0,3.4,6.4,5.2,12.4,5.2c3.3,0,6.6-0.5,9-1.6l1.8,1.4
		c0.4,0.3,1,0.3,1.3-0.1c0.3-0.4,0.3-1-0.1-1.3L57.4,52.6z M46.6,53.4c-6.4,0-10.5-2-10.5-3.4c0-1.4,4.1-3.4,10.5-3.4
		c6.4,0,10.5,2,10.5,3.4c0,0.5-0.4,1-1.3,1.5l-1.7-1.3c-0.4-0.3-1-0.3-1.3,0.1c-0.3,0.4-0.3,1,0.1,1.3l0.9,0.7
		C52.1,52.9,49.6,53.4,46.6,53.4z M100.1,44.8c-5,0-10.9,5.6-13.6,8.9c-0.1,0.2-0.3,0.5-0.2,0.7c0,0.2,0.1,0.5,0.3,0.6
		c0.2,0.1,0.4,0.2,0.6,0.2c0.3,0,0.6-0.1,0.7-0.3c1-1.3,2.1-2.4,3.4-3.6c1.2,0.8,4,2.1,8.7,2.1c4.8,0,7.7-1.4,8.8-2.1
		c1.7,1.5,2.9,2.9,3.4,3.6c0.2,0.3,0.5,0.4,0.8,0.4c0.2,0,0.4-0.1,0.5-0.2c0.2-0.1,0.3-0.3,0.4-0.6c0-0.2,0-0.5-0.1-0.7
		C112.7,52.3,105.6,44.8,100.1,44.8z M100.1,46.6c2.3,0,5.2,1.8,7.2,3.4c-1.1,0.6-3.6,1.5-7.2,1.5c-3.7,0-6.1-0.9-7.3-1.5
		C94.8,48.5,97.7,46.6,100.1,46.6L100.1,46.6z M83.5,44.8c-0.5,0-0.9,0.4-0.9,0.9v4.4c0,1-2.3,3.2-9,3.2c-6.8,0-8.9-2.5-9.1-3v-4.6
		c0-0.5-0.4-0.9-0.9-0.9c-0.5,0-0.9,0.4-0.9,0.9v4.6c0,1.3,2.6,4.8,10.9,4.8c8.6,0,10.9-3.3,10.9-5l0-4.4
		C84.4,45.2,84,44.8,83.5,44.8z M30,44.8c-0.5,0-0.9,0.4-0.9,0.9v8.6c0,0.5,0.4,0.9,0.9,0.9c0.5,0,0.9-0.4,0.9-0.9v-8.6
		C30.9,45.2,30.5,44.8,30,44.8z M14,44.8c-6.8,0-11.8,1.7-11.8,4v5.5c0,0.5,0.4,0.9,0.9,0.9c0.5,0,0.9-0.4,0.9-0.9v-2.4
		C7.7,53,14,52.8,14,52.8c0.1,0,8.4,0,11-2.5c0.4-0.4,0.6-0.9,0.6-1.4C25.7,45.3,16.8,44.8,14,44.8z"/>
</g>
</svg>
