<?xml version="1.0" encoding="utf-8"?>
<!-- Generator: Adobe Illustrator 23.0.0, SVG Export Plug-In . SVG Version: 6.00 Build 0)  -->
<svg version="1.1" id="Livello_1" xmlns="http://www.w3.org/2000/svg" xmlns:xlink="http://www.w3.org/1999/xlink" x="0px" y="0px"
	 viewBox="0 0 200 100" style="enable-background:new 0 0 200 100;" xml:space="preserve">
<style type="text/css">
	.st0{fill:#F15F4D;}
	.st1{fill:#008CC8;}
	.st2{fill-rule:evenodd;clip-rule:evenodd;fill:#0C94D2;}
	.st3{fill:#AD1F2A;}
	.st4{fill:#010101;}
	.st5{fill-rule:evenodd;clip-rule:evenodd;}
	.st6{fill-rule:evenodd;clip-rule:evenodd;fill:#FFFFFF;}
	.st7{fill-rule:evenodd;clip-rule:evenodd;fill:#ED1C24;}
	.st8{fill-rule:evenodd;clip-rule:evenodd;fill:#BB9A31;}
	.st9{fill:#E82946;}
	.st10{fill:#FFFFFF;}
	.st11{fill:#BB2826;}
	.st12{fill:#005596;}
	.st13{fill:#0096D6;}
	.st14{fill:#2F3382;}
	.st15{fill:#25275E;}
	.st16{fill:#7F6D62;}
	.st17{fill:#F68A3E;}
	.st18{fill:#005566;}
	.st19{fill:#FCB648;}
</style>
<g id="Roboze_x5F_3_2_">
	<g>
		<polygon class="st14" points="21.3,6.1 41.1,95 78.9,64.1 		"/>
		<polygon class="st15" points="58.6,43.7 78.9,6.3 78.9,64.1 		"/>
		<rect x="10.1" y="84" class="st15" width="11.7" height="11.7"/>
	</g>
	<g>
		<path class="st15" d="M94.7,43.4c2.9,0,5.2,0.5,6.8,1.6c1.6,1.1,2.3,2.7,2.3,5c0,2.8-1.4,4.7-4.1,5.6c0.4,0.5,0.8,1,1.3,1.7
			c0.5,0.7,1,1.4,1.4,2.1c0.5,0.8,1,1.5,1.4,2.3c0.5,0.8,0.9,1.6,1.2,2.3h-4.2c-0.4-0.7-0.8-1.4-1.2-2.1c-0.4-0.7-0.9-1.4-1.3-2.1
			c-0.4-0.7-0.9-1.3-1.3-1.9c-0.4-0.6-0.8-1.1-1.2-1.6c-0.3,0-0.5,0-0.7,0h-0.6h-1.8v7.7h-3.7V43.9c0.9-0.2,1.9-0.3,2.9-0.4
			C93,43.5,93.9,43.4,94.7,43.4 M95,46.7c-0.8,0-1.5,0-2.2,0.1v6.6h1.6c0.9,0,1.7,0,2.4-0.1c0.7-0.1,1.3-0.3,1.7-0.5
			c0.5-0.3,0.8-0.6,1-1c0.2-0.4,0.4-1,0.4-1.7c0-0.6-0.1-1.2-0.4-1.6c-0.2-0.4-0.6-0.8-1-1c-0.4-0.3-1-0.4-1.6-0.5
			C96.4,46.7,95.7,46.7,95,46.7"/>
		<path class="st15" d="M121.7,56.4c0,1.2-0.2,2.3-0.5,3.3c-0.4,1-0.9,1.9-1.5,2.6c-0.6,0.7-1.4,1.3-2.3,1.7c-0.9,0.4-1.9,0.6-3,0.6
			c-1.1,0-2.1-0.2-3-0.6c-0.9-0.4-1.7-0.9-2.3-1.7c-0.6-0.7-1.2-1.6-1.5-2.6c-0.4-1-0.5-2.1-0.5-3.3c0-1.2,0.2-2.3,0.5-3.3
			c0.4-1,0.9-1.8,1.5-2.6c0.7-0.7,1.4-1.3,2.3-1.6c0.9-0.4,1.9-0.6,3-0.6c1.1,0,2.1,0.2,3,0.6c0.9,0.4,1.7,0.9,2.3,1.6
			c0.6,0.7,1.2,1.6,1.5,2.6C121.5,54,121.7,55.1,121.7,56.4 M118.1,56.4c0-1.5-0.3-2.7-1-3.6c-0.7-0.9-1.6-1.3-2.8-1.3
			c-1.2,0-2.1,0.4-2.8,1.3c-0.7,0.9-1,2.1-1,3.6c0,1.6,0.3,2.8,1,3.7c0.7,0.9,1.6,1.4,2.8,1.4c1.2,0,2.1-0.5,2.8-1.4
			C117.7,59.2,118.1,57.9,118.1,56.4"/>
		<path class="st15" d="M139.3,56.4c0,1.2-0.2,2.4-0.5,3.3c-0.4,1-0.9,1.8-1.6,2.6c-0.7,0.7-1.5,1.2-2.5,1.6c-1,0.4-2.1,0.6-3.3,0.6
			c-1.2,0-2.3-0.1-3.4-0.3c-1.1-0.2-2-0.4-2.7-0.6V41.8l3.6-0.6v8c0.4-0.2,0.9-0.4,1.5-0.6c0.6-0.2,1.3-0.3,2-0.3
			c1.1,0,2,0.2,2.9,0.6c0.9,0.4,1.6,0.9,2.1,1.6c0.6,0.7,1,1.6,1.3,2.6C139.2,54.1,139.3,55.2,139.3,56.4 M135.6,56.3
			c0-1.5-0.3-2.7-0.9-3.6c-0.6-0.9-1.5-1.3-2.8-1.3c-0.6,0-1.1,0.1-1.7,0.3c-0.5,0.2-0.9,0.4-1.3,0.6v8.9c0.3,0.1,0.6,0.1,1,0.2
			c0.4,0,0.9,0.1,1.5,0.1c1.3,0,2.3-0.4,3.1-1.3C135.3,59.1,135.6,57.9,135.6,56.3"/>
		<path class="st15" d="M157,56.4c0,1.2-0.2,2.3-0.5,3.3c-0.4,1-0.9,1.9-1.5,2.6c-0.6,0.7-1.4,1.3-2.3,1.7c-0.9,0.4-1.9,0.6-3,0.6
			c-1.1,0-2.1-0.2-3-0.6c-0.9-0.4-1.7-0.9-2.3-1.7c-0.6-0.7-1.2-1.6-1.5-2.6c-0.4-1-0.5-2.1-0.5-3.3c0-1.2,0.2-2.3,0.5-3.3
			c0.4-1,0.9-1.8,1.5-2.6c0.7-0.7,1.4-1.3,2.3-1.6c0.9-0.4,1.9-0.6,3-0.6c1.1,0,2.1,0.2,3,0.6c0.9,0.4,1.7,0.9,2.3,1.6
			c0.6,0.7,1.2,1.6,1.5,2.6C156.8,54,157,55.1,157,56.4 M153.3,56.4c0-1.5-0.3-2.7-1-3.6c-0.7-0.9-1.6-1.3-2.8-1.3
			c-1.2,0-2.1,0.4-2.8,1.3c-0.7,0.9-1,2.1-1,3.6c0,1.6,0.3,2.8,1,3.7c0.7,0.9,1.6,1.4,2.8,1.4c1.2,0,2.1-0.5,2.8-1.4
			C153,59.2,153.3,57.9,153.3,56.4"/>
		<path class="st15" d="M170.9,51.2c-0.4,0.4-0.9,1-1.5,1.7c-0.6,0.7-1.3,1.6-2.1,2.5c-0.7,0.9-1.5,1.9-2.2,2.9
			c-0.7,1-1.4,1.9-2,2.8h8v3h-12.3v-2.2c0.4-0.8,1-1.6,1.6-2.6c0.6-0.9,1.3-1.9,2-2.8c0.7-0.9,1.4-1.8,2.1-2.7
			c0.7-0.8,1.3-1.6,1.8-2.2h-7.1v-3h11.7V51.2z"/>
		<path class="st15" d="M173,56.5c0-1.4,0.2-2.5,0.6-3.6c0.4-1,0.9-1.9,1.6-2.6c0.7-0.7,1.4-1.2,2.3-1.5c0.9-0.3,1.8-0.5,2.7-0.5
			c2.1,0,3.8,0.7,5,2c1.2,1.3,1.8,3.3,1.8,5.9c0,0.2,0,0.4,0,0.7c0,0.2,0,0.5,0,0.7h-10.2c0.1,1.2,0.5,2.2,1.3,2.9
			c0.8,0.7,1.9,1,3.4,1c0.9,0,1.7-0.1,2.4-0.2c0.7-0.2,1.3-0.3,1.7-0.5l0.5,2.9c-0.2,0.1-0.5,0.2-0.8,0.3c-0.3,0.1-0.7,0.2-1.2,0.3
			c-0.4,0.1-0.9,0.2-1.4,0.2c-0.5,0.1-1,0.1-1.6,0.1c-1.4,0-2.5-0.2-3.5-0.6c-1-0.4-1.8-1-2.5-1.7c-0.6-0.7-1.1-1.6-1.4-2.5
			C173.2,58.7,173,57.6,173,56.5 M183.4,54.9c0-0.5-0.1-1-0.2-1.4c-0.1-0.4-0.3-0.8-0.6-1.2c-0.3-0.3-0.6-0.6-1-0.8
			c-0.4-0.2-0.8-0.3-1.4-0.3c-0.5,0-1,0.1-1.4,0.3c-0.4,0.2-0.8,0.5-1,0.8c-0.3,0.3-0.5,0.7-0.7,1.2c-0.2,0.4-0.3,0.9-0.3,1.3H183.4
			z"/>
	</g>
</g>
</svg>
