<?xml version="1.0" encoding="utf-8"?>
<!-- Generator: Adobe Illustrator 25.0.1, SVG Export Plug-In . SVG Version: 6.00 Build 0)  -->
<svg version="1.1" id="CARTOUCHE" xmlns="http://www.w3.org/2000/svg" xmlns:xlink="http://www.w3.org/1999/xlink" x="0px" y="0px"
	 viewBox="0 0 300 150" style="enable-background:new 0 0 300 150;" xml:space="preserve">
<style type="text/css">
	.st0{fill:#8B4B54;}
</style>
<g>
	<path class="st0" d="M50.8,95c1.3,0,2.5,0.6,3.5,1.7l0.1,0.1l1.7-1.6L56.1,95c-0.7-0.8-1.5-1.4-2.4-1.8c-0.9-0.4-1.9-0.6-2.9-0.6
		c-1.2,0-2.3,0.3-3.3,0.8c-1,0.6-1.8,1.3-2.3,2.2c-0.5,0.9-0.8,2-0.8,3.2c0,1.8,0.6,3.4,1.8,4.6c1.2,1.2,2.7,1.8,4.6,1.8
		c1,0,1.9-0.2,2.7-0.5c0.8-0.3,1.6-0.9,2.5-1.8l0.1-0.1l-1.7-1.8l-0.1,0.1c-0.6,0.6-1.2,1.1-1.7,1.3c-0.5,0.2-1.1,0.4-1.7,0.4
		c-0.7,0-1.4-0.2-2-0.5c-0.6-0.3-1.1-0.8-1.4-1.4c-0.3-0.6-0.5-1.3-0.5-2c0-1.1,0.4-2,1.1-2.8C48.8,95.4,49.7,95,50.8,95"/>
	<path class="st0" d="M65.6,100.1h-2.8l1.4-3.6L65.6,100.1z M63,92.9l-4.6,12h2.6l1-2.4h4.7l0.9,2.4l0,0.1h2.6l-4.6-12H63z"/>
	<polygon class="st0" points="80.3,100.4 75.4,93 75.4,92.9 73,92.9 73,104.9 75.5,104.9 75.5,97.5 80.4,104.9 80.4,104.9 
		82.7,104.9 82.7,92.9 80.3,92.9 	"/>
	<polygon class="st0" points="85.6,95.4 87.7,95.4 87.7,104.9 90.2,104.9 90.2,95.4 92.4,95.4 92.4,92.9 85.6,92.9 	"/>
	<rect x="95.2" y="92.9" class="st0" width="2.5" height="12"/>
	<polygon class="st0" points="109,100.4 104.2,93 104.1,92.9 101.8,92.9 101.8,104.9 104.3,104.9 104.3,97.5 109.1,104.9 
		109.2,104.9 111.5,104.9 111.5,92.9 109,92.9 	"/>
	<path class="st0" d="M121.8,100.1h-2.8l1.4-3.6L121.8,100.1z M119.1,92.9l-4.6,12h2.6l1-2.4h4.7l0.9,2.4l0,0.1h2.6l-4.6-12H119.1z"
		/>
	<path class="st0" d="M141.3,95c1.3,0,2.5,0.6,3.5,1.7l0.1,0.1l1.7-1.6l-0.1-0.1c-0.7-0.8-1.5-1.4-2.4-1.8c-0.9-0.4-1.9-0.6-2.9-0.6
		c-1.2,0-2.3,0.3-3.3,0.8c-1,0.6-1.8,1.3-2.3,2.2c-0.5,0.9-0.8,2-0.8,3.2c0,1.8,0.6,3.4,1.8,4.6c1.2,1.2,2.7,1.8,4.6,1.8
		c1,0,1.9-0.2,2.7-0.5c0.8-0.3,1.6-0.9,2.5-1.8l0.1-0.1l-1.7-1.8l-0.1,0.1c-0.6,0.6-1.2,1.1-1.7,1.3c-0.5,0.2-1.1,0.4-1.7,0.4
		c-0.7,0-1.4-0.2-2-0.5c-0.6-0.3-1.1-0.8-1.4-1.4c-0.3-0.6-0.5-1.3-0.5-2c0-1.1,0.4-2,1.1-2.8C139.3,95.4,140.2,95,141.3,95"/>
	<path class="st0" d="M159.1,98.9c0,1.1-0.4,2-1.1,2.8c-0.7,0.7-1.6,1.1-2.6,1.1c-0.9,0-1.7-0.3-2.4-0.9c-0.9-0.7-1.4-1.7-1.4-3
		c0-1.1,0.4-2.1,1.1-2.8c0.7-0.7,1.6-1.1,2.7-1.1c1,0,1.9,0.4,2.7,1.1C158.7,96.9,159.1,97.9,159.1,98.9 M155.3,92.6
		c-1.1,0-2.2,0.3-3.1,0.8c-1,0.6-1.7,1.3-2.3,2.3c-0.6,1-0.8,2-0.8,3.2c0,1.7,0.6,3.2,1.8,4.4c1.2,1.2,2.7,1.9,4.5,1.9
		c1.7,0,3.2-0.6,4.4-1.8c1.2-1.2,1.8-2.7,1.8-4.5c0-1.8-0.6-3.3-1.8-4.5C158.5,93.2,157,92.6,155.3,92.6"/>
	<polygon class="st0" points="172.3,100.4 167.5,93 167.4,92.9 165.1,92.9 165.1,104.9 167.6,104.9 167.6,97.5 172.4,104.9 
		172.5,104.9 174.8,104.9 174.8,92.9 172.3,92.9 	"/>
	<path class="st0" d="M190.9,95c1.3,0,2.5,0.6,3.5,1.7l0.1,0.1l1.7-1.6l-0.1-0.1c-0.7-0.8-1.5-1.4-2.4-1.8c-0.9-0.4-1.9-0.6-2.9-0.6
		c-1.2,0-2.3,0.3-3.3,0.8c-1,0.6-1.8,1.3-2.3,2.2c-0.5,0.9-0.8,2-0.8,3.2c0,1.8,0.6,3.4,1.8,4.6c1.2,1.2,2.7,1.8,4.6,1.8
		c1,0,1.9-0.2,2.7-0.5c0.8-0.3,1.6-0.9,2.5-1.8l0.1-0.1l-1.7-1.8l-0.1,0.1c-0.6,0.6-1.2,1.1-1.7,1.3c-0.5,0.2-1.1,0.4-1.7,0.4
		c-0.7,0-1.4-0.2-2-0.5c-0.6-0.3-1.1-0.8-1.4-1.4c-0.3-0.6-0.5-1.3-0.5-2c0-1.1,0.4-2,1.1-2.8C188.9,95.4,189.9,95,190.9,95"/>
	<path class="st0" d="M205.1,100.4c0,0.8-0.1,1.3-0.2,1.6c-0.1,0.3-0.3,0.5-0.5,0.6c-0.3,0.2-0.6,0.3-1,0.3c-0.4,0-0.7-0.1-0.9-0.2
		c-0.2-0.2-0.4-0.4-0.5-0.6c-0.1-0.3-0.2-0.7-0.2-1.4v-7.7h-2.5v7.2c0,1.4,0.1,2.4,0.4,3c0.3,0.6,0.8,1.1,1.4,1.5
		c0.6,0.4,1.4,0.6,2.3,0.6c0.7,0,1.3-0.1,1.8-0.3c0.5-0.2,1-0.5,1.3-1c0.4-0.4,0.7-0.9,0.8-1.4c0.1-0.5,0.2-1.3,0.2-2.5v-7.2h-2.5
		V100.4z"/>
	<path class="st0" d="M217.4,95c1.3,0,2.5,0.6,3.5,1.7l0.1,0.1l1.7-1.6l-0.1-0.1c-0.7-0.8-1.5-1.4-2.4-1.8c-0.9-0.4-1.9-0.6-2.9-0.6
		c-1.2,0-2.3,0.3-3.3,0.8c-1,0.6-1.8,1.3-2.3,2.2c-0.5,0.9-0.8,2-0.8,3.2c0,1.8,0.6,3.4,1.8,4.6c1.2,1.2,2.7,1.8,4.6,1.8
		c1,0,1.9-0.2,2.7-0.5c0.8-0.3,1.6-0.9,2.5-1.8l0.1-0.1l-1.7-1.8l-0.1,0.1c-0.6,0.6-1.2,1.1-1.7,1.3c-0.5,0.2-1.1,0.4-1.7,0.4
		c-0.7,0-1.4-0.2-2-0.5c-0.6-0.3-1.1-0.8-1.4-1.4c-0.3-0.6-0.5-1.3-0.5-2c0-1.1,0.4-2,1.1-2.8C215.4,95.4,216.3,95,217.4,95"/>
	<rect x="225.9" y="92.9" class="st0" width="2.5" height="12"/>
	<polygon class="st0" points="239.7,100.4 234.9,93 234.8,92.9 232.5,92.9 232.5,104.9 235,104.9 235,97.5 239.8,104.9 239.8,104.9 
		242.2,104.9 242.2,92.9 239.7,92.9 	"/>
	<path class="st0" d="M252.4,100.1h-2.8l1.4-3.6L252.4,100.1z M252.2,92.9h-2.4l-4.6,12h2.6l1-2.4h4.7l0.9,2.4l0,0.1h2.6L252.2,92.9
		z"/>
	<path class="st0" d="M13.9,60.1c-3.1-2.3-3.9-2.9-4.1-3.1c-0.7-0.7-1.1-1.3-1.3-1.8c-0.2-0.5-0.3-1-0.3-1.5c0-0.8,0.3-1.4,0.8-2
		c0.6-0.6,1.3-0.8,2.3-0.8c0.8,0,1.5,0.2,2.1,0.6c0.5,0.3,1.4,1,2.8,2.9c0.2,0.3,0.5,0.5,0.9,0.5c0.4,0.1,0.7,0,1-0.3l2.7-2
		c0.6-0.4,0.7-1.3,0.3-1.9c-1.6-2.2-3.2-3.7-4.7-4.6c-1.5-0.9-3.2-1.3-5-1.3c-1.7,0-3.3,0.4-4.7,1.2c-1.5,0.8-2.6,1.9-3.4,3.3
		c-0.8,1.4-1.2,2.9-1.2,4.6c0,2.1,0.7,4.1,2,5.8c0.8,1.1,2.5,2.6,5.4,4.8c2.6,2,4.4,3.6,5.3,5c0.6,0.8,0.9,1.6,0.9,2.4
		c0,0.7-0.2,1.4-0.6,2.1c-0.4,0.6-0.9,1.2-1.7,1.5c-0.8,0.4-1.6,0.6-2.5,0.6c-2,0-3.9-1.6-5.6-4.7c-0.2-0.3-0.5-0.6-0.8-0.7
		c-0.4-0.1-0.7,0-1.1,0.1l-2.8,1.7c-0.6,0.4-0.8,1.2-0.5,1.8c1.5,2.7,3.1,4.6,4.9,5.8c1.8,1.2,3.9,1.8,6.2,1.8c2.9,0,5.5-1,7.5-3
		c2.1-2,3.1-4.4,3.1-7.2c0-1.9-0.6-3.8-1.8-5.7C19,64.3,16.9,62.3,13.9,60.1"/>
	<path class="st0" d="M31.7,45.6h-3.3c-0.8,0-1.4,0.6-1.4,1.4v32.8c0,0.8,0.6,1.4,1.4,1.4h3.3c0.8,0,1.4-0.6,1.4-1.4V46.9
		C33.1,46.2,32.4,45.6,31.7,45.6"/>
	<path class="st0" d="M74.4,62.7H60.3c-0.8,0-1.4,0.6-1.4,1.4v3.2c0,0.8,0.6,1.4,1.4,1.4h8.8c-0.6,2-1.7,3.6-3.3,5
		c-2.1,1.7-4.6,2.5-7.7,2.5c-2.5,0-4.9-0.6-7-1.7c-2.1-1.1-3.8-2.7-5-4.7c-1.2-2-1.8-4.1-1.8-6.3c0-2.1,0.6-4.2,1.7-6.2
		c1.1-1.9,2.8-3.5,4.9-4.6c3.8-2.1,8-2.4,12.5-0.4c2,0.9,3.9,2.1,5.6,3.8c0.5,0.5,1.4,0.5,1.9,0l2.5-2.4c0.3-0.3,0.4-0.6,0.4-1
		c0-0.4-0.2-0.7-0.4-1c-2.4-2.3-5-4-7.6-5.1c-2.6-1.1-5.4-1.6-8.4-1.6c-3.6,0-7,0.8-9.9,2.4c-2.9,1.6-5.3,3.9-6.9,6.8
		c-1.7,2.9-2.5,6-2.5,9.4c0,4.5,1.5,8.5,4.4,11.9c3.8,4.4,9,6.7,15.4,6.7c5.3,0,9.7-1.6,12.9-4.9c3.2-3.2,4.9-7.6,4.9-13
		c0-0.4-0.1-0.7-0.4-1C75.2,62.8,74.8,62.7,74.4,62.7"/>
	<path class="st0" d="M107.8,45.6h-3.2c-0.8,0-1.4,0.6-1.4,1.4v21.5L83.8,46c-0.3-0.3-0.6-0.5-1-0.5H82c-0.8,0-1.4,0.6-1.4,1.4v32.8
		c0,0.8,0.6,1.4,1.4,1.4h3.4c0.8,0,1.4-0.6,1.4-1.4V58.5L106,80.6c0.3,0.3,0.6,0.5,1,0.5h0.7c0.8,0,1.4-0.6,1.4-1.4V46.9
		C109.2,46.2,108.6,45.6,107.8,45.6"/>
	<path class="st0" d="M145.5,63.3c0,2.4-0.6,4.5-1.6,6.5c-1.1,1.9-2.6,3.4-4.6,4.6c-1.9,1.1-4.1,1.7-6.4,1.7c-3.5,0-6.3-1.2-8.8-3.6
		c-2.5-2.4-3.6-5.4-3.6-8.9c0-2.4,0.6-4.6,1.7-6.5c1.1-1.9,2.6-3.5,4.6-4.6c2-1.1,4-1.7,6.2-1.7c2.2,0,4.3,0.6,6.3,1.7
		c2,1.1,3.5,2.7,4.6,4.6C145,58.8,145.5,61,145.5,63.3 M132.8,44.8c-3.3,0-6.4,0.8-9.2,2.5c-2.8,1.6-5.1,3.9-6.7,6.8
		c-1.6,2.9-2.5,6.1-2.5,9.4c0,5.1,1.8,9.5,5.4,13c3.6,3.6,8.1,5.4,13.3,5.4c5.2,0,9.6-1.8,13.2-5.4c3.6-3.6,5.4-8,5.4-13.2
		c0-5.2-1.8-9.6-5.4-13.2C142.6,46.6,138.1,44.8,132.8,44.8"/>
	<path class="st0" d="M167.4,60l-4.3,0v-8.4h4.4c2.6,0,3.8,0.3,4.3,0.5c0.7,0.3,1.3,0.7,1.7,1.4c0.4,0.7,0.7,1.4,0.7,2.2
		c0,0.9-0.2,1.6-0.7,2.3c-0.4,0.7-1,1.2-1.8,1.5C171.1,59.7,169.9,60,167.4,60 M170.3,65.7c1.7-0.2,3.2-0.5,4.3-1
		c1.8-0.8,3.2-2,4.2-3.6c1-1.6,1.5-3.4,1.5-5.4c0-2.5-0.7-4.6-2.1-6.3c-1.4-1.7-3.3-2.8-5.5-3.3c-1.4-0.3-3.9-0.5-7.7-0.5h-6.5
		c-0.8,0-1.4,0.6-1.4,1.4v32.8c0,0.8,0.6,1.4,1.4,1.4h3.3c0.8,0,1.4-0.6,1.4-1.4V66.1l11.2,14.5c0.3,0.3,0.7,0.5,1.1,0.5h4.1
		c0.5,0,1-0.3,1.2-0.8c0.2-0.5,0.2-1-0.1-1.4L170.3,65.7z"/>
	<path class="st0" d="M212.7,45.6h-3.6c-0.5,0-1,0.3-1.2,0.8l-9.8,22.4l-9.6-22.4c-0.2-0.5-0.7-0.8-1.3-0.8h-3.6
		c-0.5,0-0.9,0.2-1.1,0.6c-0.3,0.4-0.3,0.9-0.1,1.3l14.1,32.8c0.2,0.5,0.7,0.8,1.2,0.8h0.7c0.5,0,1-0.3,1.2-0.8l14.3-32.8
		c0.2-0.4,0.1-0.9-0.1-1.3C213.6,45.8,213.1,45.6,212.7,45.6"/>
	<path class="st0" d="M222.2,45.6h-3.3c-0.8,0-1.4,0.6-1.4,1.4v32.8c0,0.8,0.6,1.4,1.4,1.4h3.3c0.8,0,1.4-0.6,1.4-1.4V46.9
		C223.6,46.2,222.9,45.6,222.2,45.6"/>
	<path class="st0" d="M257.4,45.6h-3.2c-0.8,0-1.4,0.6-1.4,1.4v21.5L233.4,46c-0.3-0.3-0.6-0.5-1-0.5h-0.7c-0.8,0-1.4,0.6-1.4,1.4
		v32.8c0,0.8,0.6,1.4,1.4,1.4h3.4c0.8,0,1.4-0.6,1.4-1.4V58.5l19.3,22.1c0.3,0.3,0.6,0.5,1,0.5h0.7c0.8,0,1.4-0.6,1.4-1.4V46.9
		C258.8,46.2,258.2,45.6,257.4,45.6"/>
	<path class="st0" d="M293.9,63.3c0,2.4-0.6,4.5-1.6,6.5c-1.1,1.9-2.6,3.4-4.6,4.6c-1.9,1.1-4.1,1.7-6.4,1.7c-3.5,0-6.3-1.2-8.8-3.6
		c-2.5-2.4-3.6-5.4-3.6-8.9c0-2.4,0.6-4.6,1.7-6.5c1.1-1.9,2.6-3.5,4.6-4.6c2-1.1,4-1.7,6.2-1.7c2.2,0,4.3,0.6,6.3,1.7
		c2,1.1,3.5,2.7,4.6,4.6C293.3,58.8,293.9,61,293.9,63.3 M294.6,50.1c-3.6-3.6-8.1-5.4-13.4-5.4c-3.3,0-6.4,0.8-9.2,2.5
		c-2.8,1.6-5.1,3.9-6.7,6.8c-1.6,2.9-2.5,6.1-2.5,9.4c0,5.1,1.8,9.5,5.4,13c3.6,3.6,8.1,5.4,13.3,5.4c5.2,0,9.6-1.8,13.2-5.4
		c3.6-3.6,5.4-8,5.4-13.2C300,58.1,298.2,53.7,294.6,50.1"/>
</g>
</svg>
