<?xml version="1.0" encoding="utf-8"?>
<!-- Generator: Adobe Illustrator 25.2.3, SVG Export Plug-In . SVG Version: 6.00 Build 0)  -->
<svg version="1.1" id="Livello_1" xmlns="http://www.w3.org/2000/svg" xmlns:xlink="http://www.w3.org/1999/xlink" x="0px" y="0px"
	 viewBox="0 0 200 100" style="enable-background:new 0 0 200 100;" xml:space="preserve">
<style type="text/css">
	.st0{fill:#95BF47;}
	.st1{fill:#5E8E3E;}
	.st2{fill:#FFFFFF;}
</style>
<g>
	<path class="st0" d="M43.5,32.4c0-0.3-0.3-0.4-0.5-0.5c-0.2,0-4.2-0.1-4.2-0.1s-3.3-3.2-3.7-3.6c-0.3-0.3-1-0.2-1.2-0.2
		c0,0-0.6,0.2-1.7,0.5c-0.2-0.6-0.4-1.3-0.8-2c-1.2-2.3-2.9-3.5-5-3.5c0,0,0,0,0,0c-0.1,0-0.3,0-0.4,0c-0.1-0.1-0.1-0.1-0.2-0.2
		c-0.9-1-2.1-1.5-3.5-1.4c-2.7,0.1-5.4,2-7.6,5.5c-1.5,2.4-2.7,5.5-3,7.9c-3.1,1-5.3,1.6-5.3,1.7c-1.6,0.5-1.6,0.5-1.8,2
		c-0.2,1.1-4.3,32.8-4.3,32.8l34.4,5.9l14.9-3.7C49.6,73.8,43.5,32.6,43.5,32.4z M30.6,29.2c-0.8,0.2-1.7,0.5-2.7,0.8
		c0-1.4-0.2-3.3-0.8-4.9C29.1,25.5,30.1,27.8,30.6,29.2z M26.1,30.5c-1.8,0.6-3.8,1.2-5.7,1.8c0.6-2.1,1.6-4.2,2.9-5.6
		c0.5-0.5,1.2-1.1,1.9-1.4C26,26.8,26.1,29.1,26.1,30.5z M22.4,23.4c0.6,0,1.2,0.1,1.6,0.4c-0.7,0.4-1.4,0.9-2.1,1.6
		c-1.7,1.8-3,4.7-3.6,7.5c-1.6,0.5-3.2,1-4.7,1.5C14.6,30.1,18.2,23.5,22.4,23.4z"/>
	<path class="st1" d="M43,31.9c-0.2,0-4.2-0.1-4.2-0.1s-3.3-3.2-3.7-3.6c-0.1-0.1-0.3-0.2-0.5-0.2l0,49.4l14.9-3.7
		c0,0-6.1-41.1-6.1-41.4C43.5,32.1,43.2,31.9,43,31.9z"/>
	<path class="st2" d="M26.5,39.6L24.7,46c0,0-1.9-0.9-4.2-0.7c-3.4,0.2-3.4,2.3-3.4,2.9c0.2,2.9,7.8,3.5,8.2,10.3
		c0.3,5.3-2.8,9-7.4,9.3c-5.5,0.3-8.5-2.9-8.5-2.9l1.2-4.9c0,0,3,2.3,5.5,2.1c1.6-0.1,2.2-1.4,2.1-2.3C18,56,11.8,56.2,11.4,50
		C11,44.8,14.5,39.5,22,39C25,38.8,26.5,39.6,26.5,39.6z"/>
	<path d="M69.2,53.1c-1.7-0.9-2.6-1.7-2.6-2.8c0-1.4,1.2-2.3,3.1-2.3C72,48.1,74,49,74,49l1.6-4.8c0,0-1.4-1.1-5.7-1.1
		c-5.9,0-10,3.4-10,8.1c0,2.7,1.9,4.7,4.5,6.2c2.1,1.2,2.8,2,2.8,3.2c0,1.3-1,2.3-2.9,2.3c-2.8,0-5.5-1.5-5.5-1.5L57,66.3
		c0,0,2.5,1.7,6.7,1.7c6.1,0,10.4-3,10.4-8.4C74.1,56.7,71.9,54.6,69.2,53.1z"/>
	<path d="M93.4,43c-3,0-5.3,1.4-7.1,3.6l-0.1,0L88.8,33H82l-6.6,34.5h6.8l2.3-11.8c0.9-4.5,3.2-7.2,5.3-7.2c1.5,0,2.1,1,2.1,2.5
		c0,0.9-0.1,2.1-0.3,3l-2.5,13.5h6.8l2.6-14c0.3-1.5,0.5-3.2,0.5-4.4C99,45.3,97,43,93.4,43z"/>
	<path d="M114.2,43c-8.1,0-13.5,7.3-13.5,15.5c0,5.2,3.2,9.4,9.3,9.4c8,0,13.4-7.1,13.4-15.5C123.4,47.6,120.6,43,114.2,43z
		 M110.9,62.8c-2.3,0-3.3-2-3.3-4.4c0-3.9,2-10.2,5.7-10.2c2.4,0,3.2,2.1,3.2,4.1C116.5,56.5,114.5,62.8,110.9,62.8z"/>
	<path d="M140.7,43c-4.6,0-7.1,4-7.1,4h-0.1l0.4-3.6h-6c-0.3,2.4-0.8,6.2-1.4,9l-4.7,24.7h6.8l1.9-10h0.1c0,0,1.4,0.9,4,0.9
		c7.9,0,13.1-8.1,13.1-16.4C147.6,47.1,145.6,43,140.7,43z M134.2,62.9c-1.8,0-2.8-1-2.8-1l1.1-6.3c0.8-4.2,3-7,5.3-7
		c2.1,0,2.7,1.9,2.7,3.7C140.6,56.7,138,62.9,134.2,62.9z"/>
	<path d="M157.3,33.4c-2.2,0-3.9,1.7-3.9,3.9c0,2,1.3,3.4,3.2,3.4h0.1c2.1,0,3.9-1.4,4-3.9C160.7,34.8,159.3,33.4,157.3,33.4z"/>
	<path d="M147.8,67.5h6.8l4.6-23.9h-6.8L147.8,67.5z"/>
	<path d="M176.4,43.5h-4.7l0.2-1.1c0.4-2.3,1.8-4.4,4-4.4c1.2,0,2.2,0.3,2.2,0.3l1.3-5.3c0,0-1.2-0.6-3.7-0.6
		c-2.4,0-4.8,0.7-6.6,2.3c-2.3,2-3.4,4.8-3.9,7.6l-0.2,1.1h-3.1l-1,5.1h3.1l-3.6,18.9h6.8l3.6-18.9h4.7L176.4,43.5z"/>
	<path d="M192.6,43.6c0,0-4.2,10.6-6.1,16.4h-0.1c-0.1-1.9-1.7-16.4-1.7-16.4h-7.1l4.1,22c0.1,0.5,0,0.8-0.1,1.1
		c-0.8,1.5-2.1,3-3.7,4.1c-1.3,0.9-2.7,1.5-3.8,1.9l1.9,5.7c1.4-0.3,4.2-1.4,6.6-3.7c3.1-2.9,5.9-7.3,8.9-13.4l8.3-17.7L192.6,43.6
		L192.6,43.6z"/>
</g>
</svg>
