<?xml version="1.0" encoding="utf-8"?>
<!-- Generator: Adobe Illustrator 26.0.3, SVG Export Plug-In . SVG Version: 6.00 Build 0)  -->
<svg version="1.1" id="Livello_1" xmlns="http://www.w3.org/2000/svg" xmlns:xlink="http://www.w3.org/1999/xlink" x="0px" y="0px"
	 viewBox="0 0 200 100" style="enable-background:new 0 0 200 100;" xml:space="preserve">
<style type="text/css">
	.st0{fill:#FFFFFF;}
	
		.st1{clip-path:url(#SVGID_00000065034734841837991450000001086061022302847668_);fill:none;stroke:#5F6368;stroke-width:0.7906;stroke-miterlimit:10;}
	.st2{clip-path:url(#SVGID_00000065034734841837991450000001086061022302847668_);fill:#FFFFFF;}
	.st3{clip-path:url(#SVGID_00000065034734841837991450000001086061022302847668_);fill:#5F6368;}
	.st4{fill:#4284F4;}
	.st5{fill:#34A853;}
	.st6{fill:#FBBC04;}
	.st7{fill:#EA4335;}
	
		.st8{clip-path:url(#SVGID_00000178177700042010911600000010223826636392444557_);fill:none;stroke:#5F6368;stroke-width:0.7896;stroke-miterlimit:10;}
	.st9{fill:#5F6368;}
</style>
<g>
	<path class="st0" d="M149.6,99.7H51c-1.3,0-2.3-1-2.3-2.3V3.6c0-1.3,1-2.3,2.3-2.3h98.5c1.3,0,2.3,1,2.3,2.3v93.9
		C151.9,98.7,150.8,99.7,149.6,99.7L149.6,99.7z"/>
	<g>
		<defs>
			<rect id="SVGID_1_" x="48.4" y="1" width="103.8" height="99"/>
		</defs>
		<clipPath id="SVGID_00000026163801623471227050000013725104186584959126_">
			<use xlink:href="#SVGID_1_"  style="overflow:visible;"/>
		</clipPath>
		
			<path style="clip-path:url(#SVGID_00000026163801623471227050000013725104186584959126_);fill:none;stroke:#5F6368;stroke-width:0.7906;stroke-miterlimit:10;" d="
			M149.6,99.7H51c-1.3,0-2.3-1-2.3-2.3V3.6c0-1.3,1-2.3,2.3-2.3h98.5c1.3,0,2.3,1,2.3,2.3v93.9C151.9,98.7,150.8,99.7,149.6,99.7
			L149.6,99.7z"/>
		<path style="clip-path:url(#SVGID_00000026163801623471227050000013725104186584959126_);fill:#FFFFFF;" d="M149.6,99.7H51
			c-1.3,0-2.3-1-2.3-2.3V3.6c0-1.3,1-2.3,2.3-2.3h98.6c1.3,0,2.3,1,2.3,2.3v93.9C151.9,98.7,150.9,99.7,149.6,99.7L149.6,99.7z"/>
		<path style="clip-path:url(#SVGID_00000026163801623471227050000013725104186584959126_);fill:#5F6368;" d="M48.7,79.6v16.6
			c0,2.5,0.9,3.5,3.5,3.5h96.1c2.8,0,4.1,0,3.5-3.5V79.6H48.7L48.7,79.6z"/>
	</g>
	<path class="st4" d="M115.6,32.6c0-1.1-0.2-2.2-0.4-3.2h-14.6v6h8.2c-0.4,2-1.3,3.6-2.9,4.7v3.9h5.1
		C113.9,41.4,115.6,37.4,115.6,32.6L115.6,32.6z"/>
	<path class="st5" d="M100.6,47.9c4.2,0,7.8-1.4,10.3-3.8l-5.1-3.9c-1.4,0.9-3.2,1.5-5.3,1.5c-4.1,0-7.5-2.7-8.7-6.4h-5.2v4
		C89.2,44.4,94.5,47.9,100.6,47.9L100.6,47.9z"/>
	<path class="st6" d="M91.9,35.3c-0.3-0.9-0.5-1.9-0.5-3c0-1,0.2-2,0.5-3v-4h-5.2c-1.1,2.1-1.7,4.5-1.7,7c0,2.5,0.6,4.9,1.7,7
		L91.9,35.3L91.9,35.3z"/>
	<path class="st7" d="M100.6,22.9c2.3,0,4.3,0.8,6,2.3l4.5-4.5c-2.7-2.5-6.2-4.1-10.4-4.1c-6.1,0-11.4,3.5-13.9,8.6l5.2,4
		C93.1,25.6,96.5,22.9,100.6,22.9L100.6,22.9z"/>
	<g>
		<defs>
			<rect id="SVGID_00000055692240621678734740000006625647108918783418_" x="48.4" y="1" width="103.8" height="99"/>
		</defs>
		<clipPath id="SVGID_00000078762509261963027720000013747582341006865807_">
			<use xlink:href="#SVGID_00000055692240621678734740000006625647108918783418_"  style="overflow:visible;"/>
		</clipPath>
		
			<path style="clip-path:url(#SVGID_00000078762509261963027720000013747582341006865807_);fill:none;stroke:#5F6368;stroke-width:0.7896;stroke-miterlimit:10;" d="
			M149.6,99.7H51c-1.3,0-2.3-1-2.3-2.3V3.6c0-1.3,1-2.3,2.3-2.3h98.6c1.3,0,2.3,1,2.3,2.3v93.9C151.9,98.7,150.9,99.7,149.6,99.7
			L149.6,99.7z"/>
	</g>
</g>
<g>
	<g>
		<path class="st9" d="M67.2,64.1c-0.6-0.3-1.1-0.8-1.4-1.4c-0.3-0.6-0.5-1.2-0.5-2s0.2-1.4,0.5-2c0.3-0.6,0.8-1.1,1.4-1.4
			c0.6-0.3,1.2-0.5,1.9-0.5c0.5,0,1.1,0.1,1.5,0.3c0.5,0.2,0.9,0.5,1.2,0.8l-0.6,0.6c-0.2-0.3-0.5-0.5-0.9-0.7
			c-0.4-0.2-0.8-0.2-1.2-0.2c-0.5,0-1,0.1-1.5,0.4c-0.5,0.3-0.8,0.6-1.1,1.1c-0.3,0.5-0.4,1-0.4,1.6c0,0.6,0.1,1.1,0.4,1.6
			c0.3,0.5,0.6,0.8,1.1,1.1c0.5,0.3,0.9,0.4,1.5,0.4c0.5,0,0.9-0.1,1.2-0.2c0.3-0.2,0.6-0.4,0.9-0.6c0.2-0.2,0.3-0.4,0.4-0.7
			c0.1-0.3,0.2-0.6,0.2-0.9h-2.7v-0.8h3.6c0,0.2,0.1,0.4,0.1,0.5c0,0.5-0.1,0.9-0.2,1.3c-0.1,0.4-0.4,0.8-0.7,1.1
			c-0.7,0.7-1.6,1.1-2.7,1.1C68.4,64.6,67.8,64.4,67.2,64.1z"/>
		<path class="st9" d="M69.1,64.7c-0.7,0-1.4-0.2-2-0.5l0,0c-0.6-0.3-1.1-0.8-1.4-1.4c-0.4-0.6-0.5-1.3-0.5-2c0-0.7,0.2-1.4,0.5-2
			c0.4-0.6,0.8-1.1,1.4-1.4c0.6-0.3,1.3-0.5,2-0.5c0.6,0,1.1,0.1,1.6,0.3c0.5,0.2,0.9,0.5,1.2,0.8l0.1,0.1l-0.8,0.8l-0.1-0.1
			c-0.2-0.3-0.5-0.5-0.9-0.6c-0.4-0.1-0.7-0.2-1.1-0.2c-0.5,0-1,0.1-1.4,0.4c-0.4,0.2-0.8,0.6-1.1,1c-0.3,0.4-0.4,1-0.4,1.5
			c0,0.6,0.1,1.1,0.4,1.5c0.3,0.4,0.6,0.8,1.1,1c0.4,0.2,0.9,0.4,1.4,0.4c0.5,0,0.9-0.1,1.2-0.2c0.3-0.1,0.6-0.4,0.8-0.6
			c0.2-0.2,0.3-0.4,0.4-0.7c0.1-0.2,0.2-0.5,0.2-0.8H69v-1h3.7l0,0.1c0,0.2,0.1,0.4,0.1,0.6c0,0.5-0.1,0.9-0.2,1.4
			c-0.1,0.4-0.4,0.8-0.7,1.2C71.2,64.3,70.3,64.7,69.1,64.7z M69.1,57c-0.7,0-1.3,0.2-1.9,0.5c-0.6,0.3-1,0.8-1.4,1.4
			c-0.3,0.6-0.5,1.2-0.5,1.9c0,0.7,0.2,1.3,0.5,1.9c0.3,0.6,0.8,1,1.4,1.4l0,0c0.6,0.3,1.2,0.5,1.9,0.5c1.1,0,2-0.4,2.7-1.1
			c0.3-0.3,0.5-0.7,0.7-1.1c0.1-0.4,0.2-0.9,0.2-1.3c0-0.1,0-0.3,0-0.4h-3.4v0.6H72l0,0.1c0,0.3-0.1,0.7-0.2,0.9
			c-0.1,0.3-0.3,0.5-0.5,0.7c-0.2,0.3-0.5,0.5-0.9,0.6c-0.3,0.2-0.8,0.2-1.3,0.2c-0.5,0-1-0.1-1.5-0.4c-0.5-0.3-0.8-0.6-1.1-1.1
			c-0.3-0.5-0.4-1-0.4-1.6c0-0.6,0.1-1.2,0.4-1.6c0.3-0.5,0.7-0.8,1.1-1.1c0.5-0.3,1-0.4,1.5-0.4c0.4,0,0.8,0.1,1.2,0.2
			c0.3,0.1,0.6,0.4,0.9,0.6l0.5-0.5c-0.3-0.3-0.7-0.6-1.1-0.7C70.1,57.1,69.6,57,69.1,57z"/>
	</g>
	<g>
		<path class="st9" d="M74.9,64.2c-0.4-0.2-0.7-0.6-1-1c-0.2-0.4-0.3-0.9-0.3-1.4c0-0.5,0.1-1,0.3-1.4c0.2-0.4,0.6-0.8,1-1
			c0.4-0.2,0.9-0.4,1.4-0.4s1,0.1,1.4,0.4c0.4,0.2,0.7,0.6,1,1c0.2,0.4,0.3,0.9,0.3,1.4c0,0.5-0.1,1-0.3,1.4c-0.2,0.4-0.6,0.8-1,1
			c-0.4,0.2-0.9,0.4-1.4,0.4S75.3,64.5,74.9,64.2z M77.2,63.6c0.3-0.2,0.5-0.4,0.7-0.7c0.2-0.3,0.3-0.7,0.3-1.1s-0.1-0.8-0.3-1.1
			c-0.2-0.3-0.4-0.5-0.7-0.7c-0.3-0.2-0.6-0.2-0.9-0.2c-0.3,0-0.6,0.1-0.9,0.2c-0.3,0.2-0.5,0.4-0.7,0.7c-0.2,0.3-0.3,0.7-0.3,1.1
			s0.1,0.8,0.3,1.1c0.2,0.3,0.4,0.5,0.7,0.7c0.3,0.2,0.6,0.2,0.9,0.2C76.6,63.8,76.9,63.7,77.2,63.6z"/>
		<path class="st9" d="M76.3,64.7c-0.5,0-1-0.1-1.4-0.4c-0.4-0.3-0.8-0.6-1-1c-0.2-0.4-0.4-0.9-0.4-1.5c0-0.5,0.1-1,0.4-1.5
			s0.6-0.8,1-1c0.4-0.3,0.9-0.4,1.4-0.4s1,0.1,1.4,0.4c0.4,0.3,0.8,0.6,1,1c0.2,0.4,0.4,0.9,0.4,1.5c0,0.5-0.1,1-0.4,1.5
			c-0.2,0.4-0.6,0.8-1,1C77.3,64.6,76.8,64.7,76.3,64.7z M76.3,59.1c-0.5,0-1,0.1-1.4,0.4c-0.4,0.2-0.7,0.6-0.9,1
			c-0.2,0.4-0.3,0.9-0.3,1.4c0,0.5,0.1,1,0.3,1.4c0.2,0.4,0.5,0.7,0.9,1l0,0c0.4,0.2,0.9,0.4,1.4,0.4c0.5,0,1-0.1,1.4-0.4
			c0.4-0.2,0.7-0.6,0.9-1c0.2-0.4,0.3-0.9,0.3-1.4c0-0.5-0.1-1-0.3-1.4c-0.2-0.4-0.5-0.7-0.9-1C77.3,59.2,76.8,59.1,76.3,59.1z
			 M76.3,63.9c-0.3,0-0.7-0.1-1-0.3c-0.3-0.2-0.5-0.4-0.7-0.7c-0.2-0.3-0.3-0.7-0.3-1.1c0-0.4,0.1-0.8,0.3-1.1
			c0.2-0.3,0.4-0.6,0.7-0.7c0.6-0.3,1.3-0.3,1.9,0c0.3,0.2,0.5,0.4,0.7,0.7c0.2,0.3,0.3,0.7,0.3,1.1c0,0.4-0.1,0.8-0.3,1.1
			c-0.2,0.3-0.4,0.6-0.7,0.7h0C77,63.8,76.6,63.9,76.3,63.9z M76.3,59.9c-0.3,0-0.6,0.1-0.9,0.2c-0.3,0.2-0.5,0.4-0.6,0.7
			c-0.2,0.3-0.2,0.6-0.2,1c0,0.4,0.1,0.7,0.2,1c0.2,0.3,0.4,0.5,0.6,0.7c0.5,0.3,1.2,0.3,1.7,0l0,0c0.3-0.2,0.5-0.4,0.6-0.7
			c0.2-0.3,0.2-0.6,0.2-1c0-0.4-0.1-0.7-0.2-1c-0.2-0.3-0.4-0.5-0.6-0.7C76.9,60,76.6,59.9,76.3,59.9z"/>
	</g>
	<g>
		<path class="st9" d="M81.1,64.2c-0.4-0.2-0.7-0.6-1-1c-0.2-0.4-0.3-0.9-0.3-1.4c0-0.5,0.1-1,0.3-1.4c0.2-0.4,0.6-0.8,1-1
			c0.4-0.2,0.9-0.4,1.4-0.4c0.5,0,1,0.1,1.4,0.4c0.4,0.2,0.7,0.6,1,1c0.2,0.4,0.3,0.9,0.3,1.4c0,0.5-0.1,1-0.3,1.4
			c-0.2,0.4-0.6,0.8-1,1c-0.4,0.2-0.9,0.4-1.4,0.4C82,64.6,81.5,64.5,81.1,64.2z M83.4,63.6c0.3-0.2,0.5-0.4,0.7-0.7
			c0.2-0.3,0.3-0.7,0.3-1.1S84.2,61,84,60.7c-0.2-0.3-0.4-0.5-0.7-0.7c-0.3-0.2-0.6-0.2-0.9-0.2c-0.3,0-0.6,0.1-0.9,0.2
			c-0.3,0.2-0.5,0.4-0.7,0.7c-0.2,0.3-0.3,0.7-0.3,1.1s0.1,0.8,0.3,1.1c0.2,0.3,0.4,0.5,0.7,0.7c0.3,0.2,0.6,0.2,0.9,0.2
			C82.8,63.8,83.1,63.7,83.4,63.6z"/>
		<path class="st9" d="M82.5,64.7c-0.5,0-1-0.1-1.4-0.4c-0.4-0.3-0.8-0.6-1-1c-0.2-0.4-0.4-0.9-0.4-1.5c0-0.5,0.1-1,0.4-1.5
			s0.6-0.8,1-1c0.4-0.3,0.9-0.4,1.4-0.4c0.5,0,1,0.1,1.4,0.4c0.4,0.3,0.8,0.6,1,1c0.2,0.4,0.4,0.9,0.4,1.5c0,0.5-0.1,1-0.4,1.5
			c-0.2,0.4-0.6,0.8-1,1C83.5,64.6,83,64.7,82.5,64.7z M82.5,59.1c-0.5,0-1,0.1-1.4,0.4s-0.7,0.6-0.9,1c-0.2,0.4-0.3,0.9-0.3,1.4
			c0,0.5,0.1,1,0.3,1.4c0.2,0.4,0.5,0.7,0.9,1l0,0c0.4,0.2,0.9,0.4,1.4,0.4c0.5,0,1-0.1,1.4-0.4c0.4-0.2,0.7-0.6,0.9-1
			c0.2-0.4,0.3-0.9,0.3-1.4c0-0.5-0.1-1-0.3-1.4c-0.2-0.4-0.5-0.7-0.9-1C83.4,59.2,83,59.1,82.5,59.1z M82.5,63.9
			c-0.3,0-0.7-0.1-1-0.3c-0.3-0.2-0.5-0.4-0.7-0.7c-0.2-0.3-0.3-0.7-0.3-1.1c0-0.4,0.1-0.8,0.3-1.1c0.2-0.3,0.4-0.6,0.7-0.7
			c0.6-0.3,1.3-0.3,1.9,0c0.3,0.2,0.5,0.4,0.7,0.7c0.2,0.3,0.3,0.7,0.3,1.1c0,0.4-0.1,0.8-0.3,1.1c-0.2,0.3-0.4,0.6-0.7,0.7h0
			C83.1,63.8,82.8,63.9,82.5,63.9z M82.5,59.9c-0.3,0-0.6,0.1-0.9,0.2c-0.3,0.2-0.5,0.4-0.6,0.7c-0.2,0.3-0.2,0.6-0.2,1
			c0,0.4,0.1,0.7,0.2,1c0.2,0.3,0.4,0.5,0.6,0.7c0.5,0.3,1.2,0.3,1.7,0l0,0c0.3-0.2,0.5-0.4,0.6-0.7c0.2-0.3,0.2-0.6,0.2-1
			c0-0.4-0.1-0.7-0.2-1c-0.2-0.3-0.4-0.5-0.6-0.7C83.1,60,82.8,59.9,82.5,59.9z"/>
	</g>
	<g>
		<path class="st9" d="M87,66.4c-0.4-0.3-0.7-0.6-0.8-1L87,65c0.1,0.3,0.3,0.6,0.6,0.7c0.3,0.2,0.6,0.3,1,0.3c0.5,0,1-0.2,1.3-0.5
			c0.3-0.3,0.5-0.7,0.5-1.3v-0.6h0c-0.2,0.3-0.4,0.5-0.7,0.7c-0.3,0.2-0.7,0.3-1.1,0.3c-0.5,0-0.9-0.1-1.2-0.4
			c-0.4-0.2-0.7-0.6-0.9-1c-0.2-0.4-0.3-0.9-0.3-1.5c0-0.5,0.1-1,0.3-1.4s0.5-0.8,0.9-1c0.4-0.2,0.8-0.4,1.2-0.4
			c0.4,0,0.8,0.1,1.1,0.3c0.3,0.2,0.6,0.4,0.7,0.7h0v-0.8h0.8v5.1c0,0.8-0.2,1.5-0.7,1.9c-0.5,0.4-1.1,0.7-1.9,0.7
			C87.9,66.9,87.4,66.7,87,66.4z M89.4,63.6c0.3-0.2,0.5-0.4,0.6-0.7c0.2-0.3,0.2-0.7,0.2-1.1c0-0.4-0.1-0.8-0.2-1.1
			c-0.2-0.3-0.4-0.5-0.6-0.7s-0.5-0.2-0.9-0.2c-0.3,0-0.6,0.1-0.9,0.2s-0.5,0.4-0.6,0.7c-0.2,0.3-0.2,0.7-0.2,1.1
			c0,0.4,0.1,0.8,0.2,1.1c0.2,0.3,0.4,0.5,0.6,0.7c0.3,0.2,0.6,0.2,0.9,0.2C88.8,63.8,89.1,63.7,89.4,63.6z"/>
		<path class="st9" d="M88.5,66.9c-0.6,0-1.2-0.2-1.6-0.5c-0.4-0.3-0.7-0.7-0.8-1.1l0-0.1l1-0.4l0,0.1c0.1,0.3,0.3,0.5,0.6,0.7
			c0.3,0.2,0.6,0.3,0.9,0.3c0.5,0,0.9-0.1,1.2-0.4c0.3-0.3,0.4-0.7,0.4-1.2v-0.4c-0.2,0.2-0.4,0.4-0.6,0.5c-0.3,0.2-0.7,0.3-1.1,0.3
			c-0.5,0-0.9-0.1-1.3-0.4c-0.4-0.2-0.7-0.6-0.9-1c-0.2-0.4-0.3-0.9-0.3-1.5c0-0.5,0.1-1.1,0.3-1.5c0.2-0.4,0.5-0.8,0.9-1
			c0.4-0.2,0.8-0.4,1.3-0.4c0.4,0,0.8,0.1,1.1,0.3c0.3,0.1,0.5,0.3,0.6,0.5v-0.6h1v5.2c0,0.9-0.2,1.5-0.7,2
			C89.9,66.7,89.3,66.9,88.5,66.9z M86.3,65.4c0.1,0.4,0.4,0.7,0.8,0.9c0.4,0.3,0.9,0.4,1.5,0.4c0.7,0,1.3-0.2,1.8-0.6
			c0.4-0.4,0.7-1.1,0.7-1.9v-5h-0.7V60h-0.2l0,0c-0.2-0.3-0.4-0.5-0.7-0.6c-0.3-0.2-0.6-0.2-1-0.2c-0.4,0-0.8,0.1-1.2,0.3
			c-0.4,0.2-0.7,0.6-0.9,1c-0.2,0.4-0.3,0.9-0.3,1.4c0,0.5,0.1,1,0.3,1.4c0.2,0.4,0.5,0.7,0.9,1c0.4,0.2,0.8,0.3,1.2,0.3
			c0.4,0,0.7-0.1,1-0.2s0.5-0.4,0.7-0.6l0,0h0.2v0.7c0,0.6-0.2,1-0.5,1.4c-0.3,0.3-0.8,0.5-1.3,0.5c-0.4,0-0.7-0.1-1-0.3
			c-0.3-0.2-0.5-0.4-0.6-0.7L86.3,65.4z M88.5,63.9c-0.3,0-0.6-0.1-0.9-0.2c-0.3-0.2-0.5-0.4-0.7-0.7c-0.2-0.3-0.2-0.7-0.2-1.1
			s0.1-0.8,0.2-1.1c0.2-0.3,0.4-0.6,0.7-0.7c0.3-0.2,0.6-0.3,0.9-0.3c0.3,0,0.6,0.1,0.9,0.2c0.3,0.2,0.5,0.4,0.7,0.7
			c0.2,0.3,0.2,0.7,0.2,1.1c0,0.4-0.1,0.8-0.2,1.1c-0.2,0.3-0.4,0.6-0.7,0.7C89.2,63.8,88.9,63.9,88.5,63.9z M88.5,59.9
			c-0.3,0-0.6,0.1-0.8,0.2c-0.2,0.2-0.4,0.4-0.6,0.7c-0.1,0.3-0.2,0.6-0.2,1s0.1,0.7,0.2,1c0.1,0.3,0.3,0.5,0.6,0.7
			c0.2,0.1,0.5,0.2,0.8,0.2c0.3,0,0.6-0.1,0.8-0.2c0.2-0.2,0.4-0.4,0.6-0.7c0.1-0.3,0.2-0.6,0.2-1c0-0.4-0.1-0.8-0.2-1
			c-0.1-0.3-0.3-0.5-0.6-0.7C89.1,60,88.8,59.9,88.5,59.9z"/>
	</g>
	<g>
		<path class="st9" d="M92.4,57h0.9v7.4h-0.9V57z"/>
		<path class="st9" d="M93.3,64.5h-1.1v-7.6h1.1V64.5z M92.5,64.4h0.7v-7.2h-0.7V64.4z"/>
	</g>
	<g>
		<path class="st9" d="M95.5,64.3c-0.4-0.2-0.7-0.6-0.9-1c-0.2-0.4-0.3-0.9-0.3-1.4c0-0.5,0.1-1,0.3-1.4c0.2-0.4,0.5-0.8,0.9-1
			c0.4-0.3,0.8-0.4,1.3-0.4c0.5,0,1,0.1,1.3,0.3c0.4,0.2,0.7,0.6,0.9,1c0.2,0.4,0.3,0.9,0.3,1.4c0,0.1,0,0.2,0,0.3h-4.2
			c0,0.4,0.1,0.7,0.3,1c0.2,0.3,0.4,0.5,0.7,0.6c0.3,0.1,0.5,0.2,0.8,0.2c0.7,0,1.2-0.3,1.6-1l0.7,0.4c-0.2,0.4-0.5,0.8-0.9,1
			c-0.4,0.2-0.9,0.4-1.4,0.4C96.4,64.6,95.9,64.5,95.5,64.3z M98.4,61.3c0-0.2-0.1-0.4-0.2-0.7c-0.1-0.2-0.3-0.4-0.5-0.6
			c-0.2-0.2-0.5-0.2-0.9-0.2c-0.4,0-0.8,0.1-1.1,0.4c-0.3,0.3-0.5,0.6-0.6,1.1H98.4z"/>
		<path class="st9" d="M96.9,64.7c-0.5,0-1-0.1-1.4-0.4l0,0c-0.4-0.2-0.7-0.6-1-1c-0.2-0.4-0.3-0.9-0.3-1.5c0-0.5,0.1-1,0.3-1.4
			c0.2-0.4,0.5-0.8,0.9-1.1c0.4-0.3,0.9-0.4,1.4-0.4c0.5,0,1,0.1,1.4,0.4c0.4,0.2,0.7,0.6,0.9,1c0.2,0.4,0.3,0.9,0.3,1.4
			c0,0.1,0,0.2,0,0.3l0,0.1h-4.1c0,0.3,0.1,0.6,0.3,0.9c0.2,0.3,0.4,0.5,0.6,0.6c0.3,0.1,0.5,0.2,0.8,0.2c0.6,0,1.1-0.3,1.5-0.9
			l0-0.1l0.9,0.4l0,0.1c-0.2,0.4-0.6,0.8-1,1C98,64.6,97.5,64.7,96.9,64.7z M95.6,64.2c0.4,0.2,0.8,0.3,1.3,0.3c0.5,0,1-0.1,1.4-0.4
			c0.4-0.2,0.6-0.5,0.9-0.9L98.5,63c-0.4,0.6-0.9,0.9-1.6,0.9c-0.3,0-0.6-0.1-0.9-0.2c-0.3-0.1-0.5-0.4-0.7-0.7
			c-0.2-0.3-0.3-0.6-0.3-1.1l0-0.1h4.2c0-0.1,0-0.1,0-0.2c0-0.5-0.1-1-0.3-1.4c-0.2-0.4-0.5-0.7-0.8-0.9c-0.4-0.2-0.8-0.3-1.3-0.3
			c-0.5,0-0.9,0.1-1.3,0.4c-0.4,0.2-0.7,0.6-0.9,1c-0.2,0.4-0.3,0.9-0.3,1.4c0,0.5,0.1,1,0.3,1.4C94.9,63.6,95.2,63.9,95.6,64.2
			L95.6,64.2z M98.5,61.3h-3.4l0-0.1c0.1-0.5,0.3-0.8,0.6-1.1c0.3-0.3,0.7-0.4,1.1-0.4c0.4,0,0.7,0.1,0.9,0.2
			c0.3,0.2,0.4,0.4,0.6,0.6C98.4,60.8,98.5,61,98.5,61.3L98.5,61.3z M95.3,61.2h3c0-0.2-0.1-0.4-0.2-0.5c-0.1-0.2-0.3-0.4-0.5-0.5
			c-0.2-0.1-0.5-0.2-0.8-0.2c-0.4,0-0.7,0.1-1,0.4C95.6,60.5,95.4,60.8,95.3,61.2z"/>
	</g>
	<g>
		<path class="st9" d="M102.5,57h2.5c0.4,0,0.8,0.1,1.1,0.3c0.4,0.2,0.6,0.4,0.8,0.8c0.2,0.3,0.3,0.7,0.3,1.1c0,0.4-0.1,0.8-0.3,1.1
			c-0.2,0.3-0.5,0.6-0.8,0.8c-0.4,0.2-0.7,0.3-1.1,0.3h-1.6v3h-0.9V57z M105.1,60.6c0.3,0,0.5-0.1,0.7-0.2c0.2-0.1,0.4-0.3,0.5-0.5
			s0.2-0.4,0.2-0.7c0-0.2-0.1-0.4-0.2-0.7c-0.1-0.2-0.3-0.4-0.5-0.5c-0.2-0.1-0.5-0.2-0.7-0.2h-1.6v2.7H105.1z"/>
		<path class="st9" d="M103.5,64.5h-1.1v-7.6h2.6c0.4,0,0.8,0.1,1.2,0.3c0.4,0.2,0.7,0.5,0.9,0.8c0.2,0.3,0.3,0.7,0.3,1.2
			s-0.1,0.8-0.3,1.2c-0.2,0.3-0.5,0.6-0.9,0.8c-0.4,0.2-0.8,0.3-1.2,0.3h-1.5V64.5z M102.6,64.4h0.7v-3h1.7c0.4,0,0.8-0.1,1.1-0.3
			c0.3-0.2,0.6-0.4,0.8-0.7c0.2-0.3,0.3-0.7,0.3-1.1s-0.1-0.8-0.3-1.1c-0.2-0.3-0.5-0.6-0.8-0.8c-0.3-0.2-0.7-0.3-1.1-0.3h-2.4V64.4
			z M105.1,60.7h-1.7v-2.9h1.7c0.3,0,0.6,0.1,0.8,0.2c0.2,0.1,0.4,0.3,0.5,0.5c0.1,0.2,0.2,0.5,0.2,0.7s-0.1,0.5-0.2,0.7
			c-0.1,0.2-0.3,0.4-0.5,0.5C105.6,60.6,105.4,60.7,105.1,60.7z M103.5,60.5h1.6c0.3,0,0.5-0.1,0.7-0.2c0.2-0.1,0.4-0.3,0.5-0.5
			c0.1-0.2,0.2-0.4,0.2-0.6c0-0.2-0.1-0.4-0.2-0.6c-0.1-0.2-0.3-0.4-0.5-0.5c-0.2-0.1-0.4-0.2-0.7-0.2h-1.6V60.5z"/>
	</g>
	<g>
		<path class="st9" d="M109.1,64.4c-0.3-0.2-0.5-0.4-0.7-0.6c-0.2-0.3-0.2-0.6-0.2-0.9c0-0.6,0.2-1,0.6-1.3c0.4-0.3,1-0.5,1.6-0.5
			c0.3,0,0.6,0,0.9,0.1c0.3,0.1,0.5,0.1,0.6,0.2v-0.3c0-0.4-0.1-0.7-0.4-0.9c-0.3-0.2-0.6-0.4-1-0.4c-0.3,0-0.6,0.1-0.8,0.2
			c-0.2,0.1-0.4,0.3-0.6,0.5l-0.7-0.5c0.2-0.3,0.5-0.6,0.9-0.7c0.4-0.2,0.8-0.3,1.2-0.3c0.7,0,1.3,0.2,1.7,0.6
			c0.4,0.4,0.6,0.9,0.6,1.5v3.3h-0.8v-0.8h0c-0.2,0.3-0.4,0.5-0.7,0.7c-0.3,0.2-0.6,0.3-1,0.3C109.8,64.6,109.4,64.5,109.1,64.4z
			 M111.1,63.6c0.3-0.2,0.5-0.4,0.6-0.6c0.2-0.3,0.2-0.5,0.2-0.8c-0.2-0.1-0.4-0.2-0.6-0.3c-0.2-0.1-0.5-0.1-0.8-0.1
			c-0.5,0-0.8,0.1-1.1,0.3c-0.2,0.2-0.4,0.5-0.4,0.8c0,0.3,0.1,0.5,0.3,0.7c0.2,0.2,0.5,0.3,0.8,0.3
			C110.5,63.8,110.8,63.8,111.1,63.6z"/>
		<path class="st9" d="M110.2,64.7c-0.4,0-0.8-0.1-1.1-0.2l0,0c-0.3-0.2-0.6-0.4-0.7-0.7c-0.2-0.3-0.3-0.6-0.3-1
			c0-0.6,0.2-1.1,0.7-1.4c0.4-0.3,1-0.5,1.6-0.5c0.3,0,0.6,0,0.9,0.1c0.2,0.1,0.4,0.1,0.5,0.2v-0.2c0-0.4-0.1-0.7-0.4-0.9
			c-0.3-0.2-0.6-0.3-1-0.3c-0.3,0-0.5,0.1-0.8,0.2c-0.2,0.1-0.4,0.3-0.6,0.5l-0.1,0.1l-0.8-0.6l0-0.1c0.2-0.3,0.5-0.6,0.9-0.8
			c0.4-0.2,0.8-0.3,1.2-0.3c0.7,0,1.3,0.2,1.8,0.6c0.4,0.4,0.6,0.9,0.6,1.6v3.4h-1v-0.6c-0.2,0.2-0.3,0.4-0.6,0.5
			C110.9,64.6,110.6,64.7,110.2,64.7z M110.4,61.2c-0.6,0-1.1,0.2-1.5,0.5c-0.4,0.3-0.6,0.7-0.6,1.2c0,0.3,0.1,0.6,0.2,0.9
			c0.2,0.3,0.4,0.5,0.7,0.6v0c0.3,0.1,0.6,0.2,1,0.2c0.4,0,0.7-0.1,1-0.3c0.3-0.2,0.5-0.4,0.7-0.6l0,0h0.2v0.8h0.7v-3.3
			c0-0.6-0.2-1.1-0.6-1.5c-0.4-0.4-0.9-0.5-1.6-0.5c-0.4,0-0.8,0.1-1.2,0.3c-0.3,0.2-0.6,0.4-0.8,0.6l0.5,0.4
			c0.1-0.2,0.3-0.4,0.6-0.5c0.3-0.1,0.5-0.2,0.9-0.2c0.4,0,0.8,0.1,1.1,0.4c0.3,0.3,0.4,0.6,0.4,1v0.5l-0.1-0.1
			c-0.1-0.1-0.3-0.2-0.6-0.2C111,61.2,110.7,61.2,110.4,61.2z M110.2,63.9c-0.4,0-0.7-0.1-0.9-0.3c-0.2-0.2-0.4-0.5-0.4-0.8
			c0-0.3,0.1-0.6,0.4-0.8c0.3-0.2,0.6-0.3,1.1-0.3c0.3,0,0.5,0,0.8,0.1c0.3,0.1,0.5,0.2,0.6,0.3l0,0v0c0,0.3-0.1,0.6-0.2,0.9
			c-0.2,0.3-0.4,0.5-0.6,0.6l0,0C110.8,63.9,110.6,63.9,110.2,63.9z M110.5,61.9c-0.5,0-0.8,0.1-1,0.3c-0.2,0.2-0.3,0.4-0.3,0.7
			c0,0.3,0.1,0.5,0.3,0.6c0.2,0.2,0.5,0.2,0.8,0.2c0.3,0,0.5-0.1,0.8-0.2c0.2-0.1,0.4-0.3,0.6-0.6c0.1-0.2,0.2-0.5,0.2-0.7
			c-0.1-0.1-0.3-0.2-0.5-0.2C111,61.9,110.8,61.9,110.5,61.9z"/>
	</g>
	<g>
		<path class="st9" d="M113.8,59.3h0.8v0.8h0c0.1-0.3,0.3-0.6,0.6-0.7c0.3-0.2,0.6-0.3,1-0.3c0.2,0,0.3,0,0.4,0V60
			c-0.1,0-0.3,0-0.5,0c-0.4,0-0.8,0.1-1.1,0.4c-0.3,0.3-0.4,0.7-0.4,1.2v2.9h-0.9V59.3z M119.2,64.5c-0.2-0.1-0.3-0.2-0.5-0.3
			c-0.1-0.1-0.2-0.3-0.3-0.5c-0.1-0.2-0.1-0.4-0.1-0.6V60h-0.9v-0.8h0.9v-1.5h0.9v1.5h1.3V60h-1.3v2.9c0,0.3,0.1,0.5,0.2,0.7
			c0.1,0.2,0.3,0.2,0.6,0.2c0.2,0,0.4-0.1,0.6-0.2v0.9c-0.1,0-0.2,0.1-0.3,0.1c-0.1,0-0.2,0-0.4,0C119.6,64.6,119.4,64.6,119.2,64.5
			z"/>
		<path class="st9" d="M119.8,64.7c-0.2,0-0.4,0-0.6-0.1c-0.2-0.1-0.4-0.2-0.5-0.3c-0.1-0.1-0.3-0.3-0.3-0.5
			c-0.1-0.2-0.1-0.4-0.1-0.7v-3.1h-0.9v-1h0.9v-1.5h1.1v1.5h1.3v1h-1.3v2.9c0,0.3,0,0.5,0.1,0.6c0.1,0.1,0.3,0.2,0.5,0.2
			c0.2,0,0.4-0.1,0.5-0.2l0.1-0.1v1.1l-0.1,0c-0.1,0.1-0.2,0.1-0.3,0.1C120.1,64.7,120,64.7,119.8,64.7z M117.5,59.9h0.9v3.2
			c0,0.2,0,0.4,0.1,0.6c0.1,0.2,0.2,0.3,0.3,0.4c0.1,0.1,0.3,0.2,0.4,0.3c0.2,0.1,0.4,0.1,0.6,0.1c0.2,0,0.3,0,0.4,0
			c0.1,0,0.2,0,0.2-0.1v-0.6c-0.2,0.1-0.3,0.1-0.5,0.1c-0.3,0-0.5-0.1-0.6-0.3c-0.1-0.2-0.2-0.4-0.2-0.7v-3h1.3v-0.6h-1.3v-1.5h-0.7
			v1.5h-0.9V59.9z M114.8,64.6h-1.1v-5.5h1v0.6c0.1-0.2,0.3-0.4,0.5-0.5c0.3-0.2,0.7-0.3,1-0.3c0.2,0,0.3,0,0.4,0l0.1,0v1.1l-0.1,0
			c-0.1,0-0.3,0-0.5,0c-0.4,0-0.8,0.1-1,0.4c-0.3,0.3-0.4,0.6-0.4,1.1V64.6z M113.9,64.4h0.7v-2.8c0-0.5,0.1-0.9,0.4-1.2
			c0.3-0.3,0.7-0.5,1.2-0.5c0.2,0,0.3,0,0.4,0v-0.7c-0.1,0-0.2,0-0.3,0c-0.3,0-0.6,0.1-0.9,0.2c-0.3,0.2-0.5,0.4-0.6,0.7l0,0.1h-0.2
			v-0.8h-0.7V64.4z"/>
	</g>
	<g>
		<path class="st9" d="M121.5,59.2h0.8v0.8h0c0.1-0.3,0.4-0.5,0.7-0.7c0.3-0.2,0.7-0.3,1-0.3c0.6,0,1.1,0.2,1.5,0.6
			c0.3,0.4,0.5,0.9,0.5,1.5v3.4h-0.9v-3.3c0-0.5-0.1-0.8-0.4-1.1c-0.2-0.2-0.6-0.3-1-0.3c-0.3,0-0.5,0.1-0.8,0.2
			c-0.2,0.2-0.4,0.4-0.5,0.6c-0.1,0.3-0.2,0.5-0.2,0.8v3h-0.9V59.2z"/>
		<path class="st9" d="M126.1,64.5h-1.1v-3.3c0-0.5-0.1-0.8-0.3-1c-0.2-0.2-0.5-0.3-0.9-0.3c-0.3,0-0.5,0.1-0.7,0.2
			c-0.2,0.1-0.4,0.3-0.5,0.6c-0.1,0.2-0.2,0.5-0.2,0.8v3.1h-1.1v-5.5h1v0.6c0.1-0.2,0.3-0.4,0.6-0.5c0.3-0.2,0.7-0.3,1.1-0.3
			c0.7,0,1.2,0.2,1.5,0.6c0.3,0.4,0.5,0.9,0.5,1.6V64.5z M125.2,64.4h0.7v-3.3c0-0.6-0.2-1.1-0.5-1.4c-0.3-0.3-0.8-0.5-1.4-0.5
			c-0.3,0-0.7,0.1-1,0.3c-0.3,0.2-0.5,0.4-0.7,0.6l0,0h-0.2v-0.8h-0.7v5.1h0.7v-2.9c0-0.3,0.1-0.6,0.2-0.9c0.1-0.3,0.3-0.5,0.6-0.7
			c0.2-0.2,0.5-0.3,0.8-0.3c0.4,0,0.8,0.1,1,0.4c0.3,0.2,0.4,0.6,0.4,1.1V64.4z"/>
	</g>
	<g>
		<path class="st9" d="M128.3,64.3c-0.4-0.2-0.7-0.6-0.9-1c-0.2-0.4-0.3-0.9-0.3-1.4c0-0.5,0.1-1,0.3-1.4c0.2-0.4,0.5-0.8,0.9-1
			s0.8-0.4,1.3-0.4c0.5,0,1,0.1,1.3,0.3c0.4,0.2,0.7,0.6,0.9,1c0.2,0.4,0.3,0.9,0.3,1.4c0,0.1,0,0.2,0,0.3h-4.2c0,0.4,0.1,0.7,0.3,1
			c0.2,0.3,0.4,0.5,0.7,0.6c0.3,0.1,0.5,0.2,0.8,0.2c0.7,0,1.2-0.3,1.6-1l0.7,0.4c-0.2,0.4-0.5,0.8-0.9,1c-0.4,0.2-0.9,0.4-1.4,0.4
			C129.1,64.6,128.7,64.5,128.3,64.3z M131.2,61.3c0-0.2-0.1-0.4-0.2-0.7c-0.1-0.2-0.3-0.4-0.5-0.6c-0.2-0.2-0.5-0.2-0.9-0.2
			c-0.4,0-0.8,0.1-1.1,0.4c-0.3,0.3-0.5,0.6-0.6,1.1H131.2z"/>
		<path class="st9" d="M129.6,64.7c-0.5,0-1-0.1-1.4-0.4l0,0c-0.4-0.2-0.7-0.6-1-1c-0.2-0.4-0.3-0.9-0.3-1.5c0-0.5,0.1-1,0.3-1.4
			c0.2-0.4,0.5-0.8,0.9-1.1c0.4-0.3,0.9-0.4,1.4-0.4c0.5,0,1,0.1,1.4,0.4c0.4,0.2,0.7,0.6,0.9,1c0.2,0.4,0.3,0.9,0.3,1.4
			c0,0.1,0,0.2,0,0.3l0,0.1H128c0,0.3,0.1,0.6,0.3,0.9c0.2,0.3,0.4,0.5,0.6,0.6c0.3,0.1,0.5,0.2,0.8,0.2c0.6,0,1.1-0.3,1.5-0.9
			l0-0.1l0.9,0.4l0,0.1c-0.2,0.4-0.6,0.8-1,1C130.7,64.6,130.2,64.7,129.6,64.7z M128.3,64.2c0.4,0.2,0.8,0.3,1.3,0.3
			c0.5,0,1-0.1,1.4-0.4c0.3-0.2,0.6-0.5,0.9-0.9l-0.6-0.3c-0.4,0.6-0.9,0.9-1.6,0.9c-0.3,0-0.6-0.1-0.9-0.2
			c-0.3-0.1-0.5-0.4-0.7-0.7c-0.2-0.3-0.3-0.6-0.3-1.1l0-0.1h4.2c0-0.1,0-0.1,0-0.2c0-0.5-0.1-1-0.3-1.4c-0.2-0.4-0.5-0.7-0.8-0.9
			c-0.4-0.2-0.8-0.3-1.3-0.3c-0.5,0-0.9,0.1-1.3,0.4c-0.4,0.2-0.7,0.6-0.9,1c-0.2,0.4-0.3,0.9-0.3,1.4c0,0.5,0.1,1,0.3,1.4
			C127.6,63.6,127.9,63.9,128.3,64.2L128.3,64.2z M131.3,61.3h-3.4l0-0.1c0.1-0.5,0.3-0.8,0.6-1.1c0.3-0.3,0.7-0.4,1.1-0.4
			c0.4,0,0.7,0.1,0.9,0.2c0.3,0.2,0.4,0.4,0.6,0.6C131.2,60.8,131.2,61,131.3,61.3L131.3,61.3z M128.1,61.2h3c0-0.2-0.1-0.4-0.2-0.5
			c-0.1-0.2-0.3-0.4-0.5-0.5c-0.2-0.1-0.5-0.2-0.8-0.2c-0.4,0-0.7,0.1-1,0.4C128.3,60.5,128.1,60.8,128.1,61.2z"/>
	</g>
	<g>
		<path class="st9" d="M133.1,59.2h0.8V60h0c0.1-0.3,0.3-0.5,0.6-0.7c0.3-0.2,0.6-0.3,0.9-0.3c0.2,0,0.4,0,0.6,0.1v0.9
			c-0.2-0.1-0.5-0.2-0.7-0.2c-0.3,0-0.5,0.1-0.7,0.2c-0.2,0.1-0.4,0.3-0.5,0.6c-0.1,0.2-0.2,0.5-0.2,0.8v3h-0.9V59.2z"/>
		<path class="st9" d="M134.1,64.5H133v-5.5h1v0.6c0.1-0.2,0.3-0.4,0.5-0.5c0.3-0.2,0.6-0.3,1-0.3c0.3,0,0.5,0,0.7,0.1l0.1,0v1.1
			l-0.1-0.1c-0.2-0.1-0.4-0.2-0.7-0.2c-0.2,0-0.5,0.1-0.7,0.2c-0.2,0.1-0.4,0.3-0.5,0.6c-0.1,0.2-0.2,0.5-0.2,0.8V64.5z M133.2,64.4
			h0.7v-2.9c0-0.3,0.1-0.6,0.2-0.8c0.1-0.3,0.3-0.5,0.5-0.6c0.2-0.2,0.5-0.2,0.8-0.2c0.2,0,0.5,0,0.7,0.1v-0.7
			c-0.1-0.1-0.3-0.1-0.5-0.1c-0.3,0-0.6,0.1-0.9,0.3c-0.3,0.2-0.5,0.4-0.6,0.7l0,0.1h-0.2v-0.8h-0.7V64.4z"/>
	</g>
</g>
<g>
	<path class="st0" d="M74.1,86.4h2.1c0.3,0,0.7,0.1,1,0.2c0.3,0.2,0.5,0.4,0.7,0.6c0.2,0.3,0.3,0.6,0.3,0.9c0,0.4-0.1,0.7-0.3,0.9
		c-0.2,0.3-0.4,0.5-0.7,0.6c-0.3,0.2-0.6,0.2-1,0.2H75v2.3h-0.9V86.4z M76.2,89.2c0.2,0,0.4,0,0.5-0.1c0.1-0.1,0.3-0.2,0.3-0.4
		c0.1-0.1,0.1-0.3,0.1-0.4c0-0.2,0-0.3-0.1-0.4c-0.1-0.1-0.2-0.3-0.3-0.3c-0.1-0.1-0.3-0.1-0.5-0.1H75v1.9H76.2z"/>
	<path class="st0" d="M78.9,86.4H81c0.4,0,0.7,0.1,1,0.2c0.3,0.2,0.5,0.4,0.7,0.6c0.2,0.3,0.3,0.6,0.3,0.9c0,0.4-0.1,0.8-0.4,1.1
		c-0.3,0.3-0.6,0.5-1,0.6l0,0l1.6,2.4v0.1h-1.1L80.5,90h-0.7v2.3h-0.9V86.4z M81,89.2c0.3,0,0.5-0.1,0.7-0.3
		c0.2-0.2,0.3-0.4,0.3-0.7c0-0.2,0-0.3-0.1-0.4c-0.1-0.1-0.2-0.3-0.3-0.4c-0.1-0.1-0.3-0.1-0.5-0.1h-1.2v1.9H81z"/>
	<path class="st0" d="M83.8,86.4h3.6v0.9h-2.7v1.6h2.4v0.9h-2.4v1.6h2.7v0.9h-3.6V86.4z"/>
	<path class="st0" d="M88.4,86.4h1.3l1.7,4.5h0l1.7-4.5h1.3v6h-0.9V89l0-1.1h0l-1.7,4.4h-0.7l-1.7-4.4h-0.1l0.1,1.1v3.3h-0.9V86.4z"
		/>
	<path class="st0" d="M95.6,86.4h0.9v6h-0.9V86.4z"/>
	<path class="st0" d="M97.8,86.4h3.6v0.9h-2.7v1.6h2.4v0.9h-2.4v1.6h2.7v0.9h-3.6V86.4z"/>
	<path class="st0" d="M102.4,86.4h2.1c0.4,0,0.7,0.1,1,0.2c0.3,0.2,0.5,0.4,0.7,0.6c0.2,0.3,0.3,0.6,0.3,0.9c0,0.4-0.1,0.8-0.4,1.1
		c-0.3,0.3-0.6,0.5-1,0.6l0,0l1.6,2.4v0.1h-1.1L104,90h-0.7v2.3h-0.9V86.4z M104.4,89.2c0.3,0,0.5-0.1,0.7-0.3
		c0.2-0.2,0.3-0.4,0.3-0.7c0-0.2,0-0.3-0.1-0.4c-0.1-0.1-0.2-0.3-0.3-0.4c-0.1-0.1-0.3-0.1-0.5-0.1h-1.2v1.9H104.4z"/>
	<path class="st0" d="M108.8,91.5c0.2-0.2,0.5-0.5,1-1.1c0.5-0.5,0.9-0.9,1-1.1c0.2-0.2,0.4-0.5,0.5-0.6c0.1-0.2,0.1-0.3,0.1-0.6
		c0-0.2-0.1-0.4-0.3-0.6c-0.2-0.2-0.4-0.2-0.7-0.2c-0.3,0-0.5,0.1-0.6,0.2c-0.2,0.2-0.3,0.3-0.3,0.5l-0.8-0.3
		c0.1-0.2,0.2-0.4,0.3-0.6c0.2-0.2,0.4-0.4,0.6-0.5c0.3-0.1,0.5-0.2,0.9-0.2c0.4,0,0.7,0.1,1,0.2c0.3,0.1,0.5,0.3,0.6,0.6
		c0.2,0.3,0.2,0.5,0.2,0.8c0,0.3-0.1,0.6-0.3,0.9c-0.2,0.3-0.4,0.6-0.6,0.8c-0.1,0.1-0.4,0.4-0.8,0.8l-0.7,0.7l0,0h2.5v0.8h-3.7
		V91.5z"/>
	<path class="st0" d="M114.3,92.1c-0.4-0.3-0.6-0.6-0.8-1.1s-0.3-1-0.3-1.5c0-0.6,0.1-1.1,0.3-1.5c0.2-0.5,0.5-0.8,0.8-1.1
		c0.4-0.3,0.8-0.4,1.2-0.4c0.5,0,0.9,0.1,1.2,0.4c0.4,0.3,0.6,0.6,0.8,1.1c0.2,0.5,0.3,1,0.3,1.5c0,0.6-0.1,1.1-0.3,1.5
		s-0.5,0.8-0.8,1.1c-0.4,0.3-0.8,0.4-1.2,0.4C115,92.5,114.6,92.4,114.3,92.1z M116.3,91.3c0.2-0.2,0.4-0.4,0.5-0.8
		c0.1-0.3,0.2-0.7,0.2-1.1c0-0.4-0.1-0.8-0.2-1.1c-0.1-0.3-0.3-0.6-0.5-0.8c-0.2-0.2-0.5-0.3-0.7-0.3c-0.3,0-0.5,0.1-0.7,0.3
		c-0.2,0.2-0.4,0.4-0.5,0.8c-0.1,0.3-0.2,0.7-0.2,1.1c0,0.4,0.1,0.8,0.2,1.1c0.1,0.3,0.3,0.6,0.5,0.8c0.2,0.2,0.5,0.3,0.7,0.3
		C115.8,91.6,116,91.5,116.3,91.3z"/>
	<path class="st0" d="M118.4,91.5c0.2-0.2,0.5-0.5,1-1.1c0.5-0.5,0.9-0.9,1-1.1c0.2-0.2,0.4-0.5,0.5-0.6c0.1-0.2,0.1-0.3,0.1-0.6
		c0-0.2-0.1-0.4-0.3-0.6c-0.2-0.2-0.4-0.2-0.7-0.2c-0.3,0-0.5,0.1-0.6,0.2c-0.2,0.2-0.3,0.3-0.3,0.5l-0.8-0.3
		c0.1-0.2,0.2-0.4,0.3-0.6c0.2-0.2,0.4-0.4,0.6-0.5c0.3-0.1,0.5-0.2,0.9-0.2c0.4,0,0.7,0.1,1,0.2c0.3,0.1,0.5,0.3,0.6,0.6
		c0.2,0.3,0.2,0.5,0.2,0.8c0,0.3-0.1,0.6-0.3,0.9c-0.2,0.3-0.4,0.6-0.6,0.8c-0.1,0.1-0.4,0.4-0.8,0.8l-0.7,0.7l0,0h2.5v0.8h-3.7
		V91.5z"/>
	<path class="st0" d="M122.8,91.5c0.2-0.2,0.5-0.5,1-1.1c0.5-0.5,0.9-0.9,1-1.1c0.2-0.2,0.4-0.5,0.5-0.6c0.1-0.2,0.1-0.3,0.1-0.6
		c0-0.2-0.1-0.4-0.3-0.6c-0.2-0.2-0.4-0.2-0.7-0.2c-0.3,0-0.5,0.1-0.6,0.2c-0.2,0.2-0.3,0.3-0.3,0.5l-0.8-0.3
		c0.1-0.2,0.2-0.4,0.3-0.6c0.2-0.2,0.4-0.4,0.6-0.5c0.3-0.1,0.5-0.2,0.9-0.2c0.4,0,0.7,0.1,1,0.2c0.3,0.1,0.5,0.3,0.6,0.6
		c0.2,0.3,0.2,0.5,0.2,0.8c0,0.3-0.1,0.6-0.3,0.9c-0.2,0.3-0.4,0.6-0.6,0.8c-0.1,0.1-0.4,0.4-0.8,0.8l-0.7,0.7l0,0h2.5v0.8h-3.7
		V91.5z"/>
</g>
</svg>
