<?xml version="1.0" encoding="utf-8"?>
<!-- Generator: Adobe Illustrator 25.2.3, SVG Export Plug-In . SVG Version: 6.00 Build 0)  -->
<svg version="1.1" id="Livello_1" xmlns="http://www.w3.org/2000/svg" xmlns:xlink="http://www.w3.org/1999/xlink" x="0px" y="0px"
	 viewBox="0 0 200 100" style="enable-background:new 0 0 200 100;" xml:space="preserve">
<style type="text/css">
	.st0{fill:#032E61;}
	.st1{fill:#00A1E0;}
	.st2{fill:#FFFFFF;}
	.st3{fill-rule:evenodd;clip-rule:evenodd;fill:#FFFFFF;}
</style>
<g>
	<g>
		<path class="st0" d="M192,79.4H8c-4.4,0-8.1-3.6-8.1-8.1V28.7c0-4.4,3.6-8.1,8.1-8.1H192c4.4,0,8.1,3.6,8.1,8.1v42.7
			C200,75.8,196.4,79.4,192,79.4z"/>
	</g>
	<g>
		<g>
			<g>
				<path class="st1" d="M36.8,32.4c2.1-2.2,5-3.5,8.2-3.5c4.3,0,8,2.4,9.9,5.9c1.7-0.8,3.6-1.2,5.6-1.2c7.7,0,13.9,6.3,13.9,14
					s-6.2,14-13.9,14c-0.9,0-1.9-0.1-2.7-0.3c-1.7,3.1-5.1,5.2-8.9,5.2c-1.6,0-3.1-0.4-4.4-1c-1.8,4.2-5.9,7.1-10.7,7.1
					c-5,0-9.2-3.2-10.9-7.6c-0.7,0.2-1.5,0.2-2.2,0.2c-5.9,0-10.8-4.9-10.8-10.9c0-4,2.2-7.5,5.4-9.4c-0.7-1.5-1-3.2-1-5
					c0-6.9,5.6-12.5,12.5-12.5C30.9,27.4,34.5,29.4,36.8,32.4z"/>
			</g>
			<g>
				<g>
					<path class="st2" d="M19.3,50.8c0,0.1,0,0.1,0,0.1c0.1,0.1,0.2,0.2,0.4,0.2c0.7,0.3,1.3,0.5,1.9,0.5c1.3,0,2.1-0.7,2.1-1.8v0
						c0-1-0.9-1.4-1.8-1.7l-0.1,0c-0.7-0.2-1.2-0.4-1.2-0.8v0c0-0.4,0.3-0.6,0.8-0.6c0.6,0,1.2,0.2,1.7,0.4c0,0,0.1,0.1,0.2,0
						c0-0.1,0.2-0.7,0.3-0.7c0-0.1,0-0.1-0.1-0.1c-0.5-0.3-1.2-0.5-1.9-0.5l-0.1,0c-1.2,0-2.1,0.7-2.1,1.8v0c0,1.1,0.9,1.5,1.8,1.7
						l0.1,0c0.6,0.2,1.2,0.4,1.2,0.8v0c0,0.4-0.4,0.7-0.9,0.7c-0.2,0-0.9,0-1.7-0.5c-0.1-0.1-0.1-0.1-0.2-0.1c0,0-0.1-0.1-0.2,0.1
						L19.3,50.8z"/>
					<path class="st2" d="M38.7,50.8c0,0.1,0,0.1,0,0.1c0.1,0.1,0.2,0.2,0.4,0.2c0.7,0.3,1.3,0.5,1.9,0.5c1.3,0,2.1-0.7,2.1-1.8v0
						c0-1-0.9-1.4-1.8-1.7l-0.1,0c-0.7-0.2-1.2-0.4-1.2-0.8v0c0-0.4,0.3-0.6,0.8-0.6c0.6,0,1.2,0.2,1.7,0.4c0,0,0.1,0.1,0.2,0
						c0-0.1,0.2-0.7,0.3-0.7c0-0.1,0-0.1-0.1-0.1c-0.5-0.3-1.2-0.5-1.9-0.5l-0.1,0c-1.2,0-2.1,0.7-2.1,1.8v0c0,1.1,0.9,1.5,1.8,1.7
						l0.1,0c0.6,0.2,1.2,0.4,1.2,0.8v0c0,0.4-0.4,0.7-0.9,0.7c-0.2,0-0.9,0-1.7-0.5c-0.1-0.1-0.1-0.1-0.2-0.1c0,0-0.1-0.1-0.2,0.1
						L38.7,50.8z"/>
					<path class="st2" d="M53,47.4c-0.1-0.4-0.3-0.7-0.5-1c-0.2-0.3-0.5-0.5-0.8-0.6c-0.3-0.2-0.7-0.2-1.2-0.2
						c-0.4,0-0.8,0.1-1.2,0.2c-0.3,0.2-0.6,0.4-0.8,0.6c-0.2,0.3-0.4,0.6-0.5,1c-0.1,0.4-0.2,0.8-0.2,1.2c0,0.4,0.1,0.8,0.2,1.2
						c0.1,0.4,0.3,0.7,0.5,1c0.2,0.3,0.5,0.5,0.8,0.6c0.3,0.2,0.7,0.2,1.2,0.2c0.4,0,0.8-0.1,1.2-0.2c0.3-0.2,0.6-0.4,0.8-0.6
						c0.2-0.3,0.4-0.6,0.5-1c0.1-0.4,0.2-0.8,0.2-1.2C53.2,48.2,53.1,47.8,53,47.4 M51.9,48.6c0,0.6-0.1,1.1-0.4,1.5
						c-0.2,0.4-0.6,0.5-1.1,0.5c-0.5,0-0.8-0.2-1.1-0.5c-0.2-0.4-0.3-0.9-0.3-1.5c0-0.6,0.1-1.1,0.3-1.5c0.2-0.3,0.6-0.5,1.1-0.5
						c0.5,0,0.8,0.2,1.1,0.5C51.8,47.5,51.9,48,51.9,48.6"/>
					<path class="st3" d="M62.1,50.5c0-0.1-0.1-0.1-0.1-0.1c-0.2,0.1-0.3,0.1-0.5,0.1c-0.2,0-0.4,0-0.6,0c-0.5,0-1-0.2-1.3-0.5
						c-0.3-0.3-0.5-0.8-0.5-1.5c0-0.6,0.2-1.1,0.4-1.5c0.3-0.4,0.7-0.5,1.2-0.5c0.5,0,0.8,0.1,1.2,0.2c0,0,0.1,0,0.1-0.1
						c0.1-0.3,0.2-0.5,0.3-0.8c0-0.1,0-0.1-0.1-0.1c-0.1-0.1-0.5-0.1-0.7-0.2c-0.2,0-0.5-0.1-0.8-0.1c-0.5,0-0.9,0.1-1.2,0.2
						c-0.4,0.2-0.7,0.4-0.9,0.6c-0.2,0.3-0.4,0.6-0.5,1c-0.1,0.4-0.2,0.8-0.2,1.2c0,0.9,0.2,1.7,0.7,2.2c0.5,0.5,1.2,0.8,2.2,0.8
						c0.6,0,1.1-0.1,1.6-0.3c0,0,0.1,0,0-0.1L62.1,50.5z"/>
					<path class="st3" d="M67.7,47.2c-0.1-0.4-0.3-0.7-0.5-0.9c-0.2-0.3-0.5-0.4-0.7-0.5c-0.3-0.1-0.7-0.2-1.1-0.2
						c-0.5,0-0.9,0.1-1.2,0.2c-0.3,0.2-0.6,0.4-0.9,0.7c-0.2,0.3-0.4,0.6-0.5,1c-0.1,0.4-0.2,0.8-0.2,1.2c0,0.4,0.1,0.8,0.2,1.2
						c0.1,0.4,0.3,0.7,0.5,0.9c0.2,0.3,0.6,0.5,0.9,0.6c0.4,0.1,0.8,0.2,1.4,0.2c1.1,0,1.6-0.2,1.9-0.4c0,0,0.1-0.1,0-0.2l-0.2-0.7
						c0-0.1-0.1-0.1-0.1-0.1c-0.3,0.1-0.6,0.3-1.5,0.3c-0.6,0-1-0.2-1.3-0.4c-0.3-0.3-0.4-0.7-0.4-1.2l3.7,0c0,0,0.1,0,0.1-0.1
						C67.8,48.8,68,48.1,67.7,47.2z M64,48c0.1-0.4,0.2-0.7,0.3-0.9c0.2-0.3,0.6-0.5,1.1-0.5c0.5,0,0.8,0.2,1,0.5
						c0.2,0.2,0.2,0.5,0.2,0.9L64,48z"/>
					<path class="st3" d="M37.8,47.2c-0.1-0.4-0.3-0.7-0.5-0.9c-0.2-0.3-0.5-0.4-0.7-0.5c-0.3-0.1-0.7-0.2-1.1-0.2
						c-0.5,0-0.9,0.1-1.2,0.2c-0.3,0.2-0.6,0.4-0.9,0.7c-0.2,0.3-0.4,0.6-0.5,1c-0.1,0.4-0.2,0.8-0.2,1.2c0,0.4,0.1,0.8,0.2,1.2
						c0.1,0.4,0.3,0.7,0.5,0.9c0.2,0.3,0.6,0.5,0.9,0.6c0.4,0.1,0.8,0.2,1.4,0.2c1.1,0,1.6-0.2,1.9-0.4c0,0,0.1-0.1,0-0.2l-0.2-0.7
						c0-0.1-0.1-0.1-0.1-0.1c-0.3,0.1-0.6,0.3-1.5,0.3c-0.6,0-1-0.2-1.3-0.4c-0.3-0.3-0.4-0.7-0.4-1.2l3.7,0c0,0,0.1,0,0.1-0.1
						C37.9,48.8,38,48.1,37.8,47.2z M34.1,48c0.1-0.4,0.2-0.7,0.3-0.9c0.2-0.3,0.6-0.5,1.1-0.5c0.5,0,0.8,0.2,1,0.5
						c0.2,0.2,0.2,0.5,0.2,0.9L34.1,48z"/>
					<path class="st2" d="M27.5,47.8c-0.2,0-0.3,0-0.6,0c-0.3,0-0.6,0-0.9,0.1c-0.3,0.1-0.6,0.2-0.8,0.4c-0.2,0.2-0.4,0.4-0.5,0.6
						c-0.1,0.2-0.2,0.5-0.2,0.9c0,0.3,0.1,0.6,0.2,0.9c0.1,0.2,0.3,0.4,0.5,0.6c0.2,0.2,0.5,0.3,0.8,0.3c0.3,0.1,0.6,0.1,1,0.1
						c0.4,0,0.8,0,1.1-0.1c0.4-0.1,0.8-0.2,0.9-0.2c0.1,0,0.3-0.1,0.3-0.1c0.1,0,0.1-0.1,0.1-0.1l0-3.4c0-0.8-0.2-1.3-0.6-1.7
						c-0.4-0.3-1-0.5-1.7-0.5c-0.3,0-0.7,0-1,0.1c0,0-0.8,0.2-1.2,0.4c0,0-0.1,0,0,0.1l0.3,0.7c0,0.1,0.1,0.1,0.1,0.1s0,0,0.1,0
						c0.7-0.4,1.6-0.4,1.6-0.4c0.4,0,0.7,0.1,0.9,0.2c0.2,0.2,0.3,0.4,0.3,0.9v0.2C27.8,47.9,27.5,47.8,27.5,47.8z M26,50.5
						c-0.1-0.1-0.2-0.1-0.2-0.2c-0.1-0.1-0.1-0.3-0.1-0.5c0-0.3,0.1-0.6,0.3-0.7c0,0,0.3-0.3,1.1-0.3c0.5,0,1,0.1,1,0.1v1.7h0
						c0,0-0.5,0.1-1,0.1C26.3,50.7,26,50.5,26,50.5z"/>
					<path class="st3" d="M57.6,45.9c0-0.1,0-0.1-0.1-0.1c-0.1,0-0.4-0.1-0.6-0.1c-0.5,0-0.7,0.1-1,0.2c-0.2,0.1-0.5,0.3-0.6,0.5
						l0-0.5c0-0.1,0-0.1-0.1-0.1h-1c-0.1,0-0.1,0.1-0.1,0.1v5.6c0,0.1,0.1,0.1,0.1,0.1h1c0.1,0,0.1-0.1,0.1-0.1v-2.8
						c0-0.4,0-0.7,0.1-1c0.1-0.2,0.2-0.4,0.3-0.5c0.1-0.1,0.3-0.2,0.5-0.3c0.2-0.1,0.4-0.1,0.5-0.1c0.2,0,0.4,0.1,0.4,0.1
						c0.1,0,0.1,0,0.1-0.1C57.4,46.5,57.6,46,57.6,45.9z"/>
					<path class="st3" d="M48.4,43.3c-0.1,0-0.2-0.1-0.4-0.1c-0.1,0-0.3,0-0.5,0c-0.7,0-1.2,0.2-1.6,0.6c-0.4,0.4-0.6,0.9-0.8,1.7
						l0,0.3h-0.8c0,0-0.1,0-0.1,0.1L44,46.6c0,0.1,0,0.1,0.1,0.1H45l-0.8,4.7c-0.1,0.4-0.1,0.7-0.2,0.9c-0.1,0.2-0.2,0.4-0.3,0.5
						c-0.1,0.1-0.2,0.2-0.3,0.3c-0.1,0-0.3,0.1-0.4,0.1c-0.1,0-0.2,0-0.3,0c-0.1,0-0.1,0-0.2-0.1c0,0-0.1,0-0.1,0.1
						c0,0.1-0.3,0.7-0.3,0.8c0,0.1,0,0.1,0.1,0.1c0.1,0,0.2,0.1,0.3,0.1c0.2,0,0.4,0.1,0.5,0.1c0.3,0,0.7,0,0.9-0.1
						c0.3-0.1,0.5-0.3,0.7-0.5c0.2-0.2,0.4-0.5,0.5-0.8c0.1-0.3,0.2-0.8,0.3-1.3l0.8-4.8h1.2c0,0,0.1,0,0.1-0.1l0.1-0.8
						c0-0.1,0-0.1-0.1-0.1h-1.2c0,0,0.1-0.4,0.2-0.8c0.1-0.2,0.2-0.3,0.3-0.4c0.1-0.1,0.2-0.2,0.3-0.2c0.1,0,0.3-0.1,0.4-0.1
						c0.1,0,0.2,0,0.3,0c0.1,0,0.2,0,0.2,0c0.1,0,0.1,0,0.2-0.1l0.3-0.8C48.5,43.4,48.4,43.3,48.4,43.3z"/>
					<path class="st3" d="M31.7,51.4c0,0.1,0,0.1-0.1,0.1h-1c-0.1,0-0.1-0.1-0.1-0.1v-8c0-0.1,0-0.1,0.1-0.1h1
						c0.1,0,0.1,0.1,0.1,0.1V51.4z"/>
				</g>
			</g>
		</g>
		<g>
			<path class="st2" d="M98.8,53.2V39.9h4.5c1.4,0,2.5,0.2,3.2,0.5c1.4,0.7,2.3,2.2,2.3,4c0,2.5-1.4,4.6-5.2,4.6h-1.6v4.2H98.8z
				 M103.5,46c1.4,0,2.1-0.5,2.1-1.6c0-1.1-0.7-1.6-2.2-1.6h-1.3V46H103.5z"/>
			<path class="st2" d="M117.3,53.2l-0.6-1.9H112l-0.7,1.9h-3.7l5.3-13.3h2.7l5.3,13.3H117.3z M114.4,44L114.4,44l-1.4,4.5h2.8
				L114.4,44z"/>
			<path class="st2" d="M128.7,53.2l-3.1-4.3h0v4.3h-3.3V39.9h4.4c1.4,0,2.4,0.2,3.1,0.5c1.4,0.6,2.4,2.2,2.4,4.1
				c0,2.1-1.3,3.8-3.3,4.2l3.6,4.5H128.7z M126.9,46.6c1.3,0,2.2-0.6,2.2-1.9c0-1.2-0.9-1.8-2.1-1.8h-1.3v3.7H126.9z"/>
			<path class="st2" d="M135.3,53.2V42.9h-2.6v-3h8.6v3h-2.6v10.3H135.3z"/>
			<path class="st2" d="M150.9,53.2l-5.1-8.1l0.1,8.1h-3.3V39.9h2.9l5.2,8.4l-0.1-8.4h3.3v13.3H150.9z"/>
			<path class="st2" d="M156.3,53.2V39.9h7.4v3h-4.1v2.1h4v3h-4v2.3h4.1v3H156.3z"/>
			<path class="st2" d="M172.1,53.2l-3.1-4.3h0v4.3h-3.3V39.9h4.4c1.4,0,2.4,0.2,3.1,0.5c1.4,0.6,2.4,2.2,2.4,4.1
				c0,2.1-1.3,3.8-3.3,4.2l3.6,4.5H172.1z M170.3,46.6c1.3,0,2.2-0.6,2.2-1.9c0-1.2-0.9-1.8-2.1-1.8H169v3.7H170.3z"/>
		</g>
		<g>
			<path class="st2" d="M109,64.5l0.6-0.8c0.3,0.2,0.5,0.3,0.8,0.4c0.3,0.1,0.6,0.1,0.9,0.1c0.4,0,0.7-0.1,1-0.3
				c0.2-0.2,0.4-0.4,0.4-0.8c0-0.2-0.1-0.4-0.2-0.6s-0.3-0.3-0.5-0.4c-0.2-0.1-0.5-0.2-0.9-0.3c-0.6-0.2-1.1-0.4-1.4-0.7
				c-0.3-0.3-0.5-0.7-0.5-1.3c0-0.4,0.1-0.8,0.3-1.1c0.2-0.3,0.5-0.5,0.9-0.7c0.4-0.2,0.8-0.2,1.2-0.2c0.8,0,1.6,0.2,2.2,0.7
				l-0.6,0.8c-0.3-0.2-0.5-0.3-0.8-0.4c-0.3-0.1-0.5-0.1-0.8-0.1c-0.4,0-0.7,0.1-0.9,0.2c-0.2,0.1-0.3,0.4-0.3,0.6
				c0,0.3,0.1,0.5,0.3,0.7c0.2,0.1,0.6,0.3,1.1,0.4c0.7,0.2,1.2,0.4,1.6,0.8c0.4,0.3,0.5,0.8,0.5,1.4c0,0.5-0.1,0.9-0.4,1.2
				c-0.2,0.3-0.6,0.6-1,0.7c-0.4,0.2-0.8,0.2-1.3,0.2c-0.5,0-0.9-0.1-1.3-0.2S109.3,64.7,109,64.5z"/>
			<path class="st2" d="M116.9,64.1h0.8v1h-2.9v-1h0.8v-5h-0.8v-0.9h2.9v0.9h-0.8V64.1z"/>
			<path class="st2" d="M119,58.2h1.5l3.4,5.2h0l0-5.2h1.2v6.9h-1.5l-3.4-5.2h0l0,5.2H119V58.2z"/>
			<path class="st2" d="M132.1,58.9l-0.7,0.8c-0.2-0.2-0.5-0.3-0.8-0.4c-0.3-0.1-0.6-0.2-0.9-0.2c-0.8,0-1.3,0.2-1.7,0.7
				c-0.4,0.5-0.5,1.1-0.5,1.9c0,0.8,0.2,1.4,0.5,1.8c0.4,0.5,0.9,0.7,1.6,0.7c0.3,0,0.7-0.1,1-0.2c0.3-0.1,0.6-0.3,0.8-0.5l0.8,0.8
				c-0.3,0.3-0.7,0.5-1.1,0.7c-0.4,0.2-0.9,0.3-1.4,0.3c-0.7,0-1.4-0.2-1.9-0.5c-0.5-0.3-0.9-0.7-1.2-1.3c-0.3-0.6-0.4-1.2-0.4-1.9
				c0-0.7,0.1-1.4,0.4-1.9s0.7-1,1.2-1.3c0.5-0.3,1.2-0.5,1.9-0.5c0.5,0,0.9,0.1,1.4,0.2C131.4,58.4,131.8,58.6,132.1,58.9z"/>
			<path class="st2" d="M137.5,59.2h-3.1v1.9h2.6v1h-2.6v2h3.3v1h-4.5v-6.9h4.4V59.2z"/>
			<path class="st2" d="M145.7,60.1c0,0.4-0.1,0.8-0.3,1.2s-0.5,0.7-0.9,1.1c-0.4,0.4-1.1,1-2,1.7h3.4v1.1h-5v-1L141,64
				c1-0.9,1.8-1.5,2.2-1.9c0.4-0.4,0.7-0.7,0.9-1c0.2-0.3,0.3-0.6,0.3-0.9c0-0.3-0.1-0.6-0.4-0.8c-0.2-0.2-0.6-0.3-1-0.3
				c-0.3,0-0.6,0.1-0.9,0.2c-0.3,0.1-0.5,0.3-0.8,0.6l-0.8-0.7c0.3-0.4,0.7-0.7,1.1-0.9c0.4-0.2,0.9-0.3,1.4-0.3
				c0.5,0,1,0.1,1.3,0.3c0.4,0.2,0.7,0.4,0.9,0.8C145.6,59.4,145.7,59.7,145.7,60.1z"/>
			<path class="st2" d="M146.7,61.6c0-1.2,0.2-2.1,0.7-2.7c0.4-0.6,1.1-0.9,2-0.9c0.9,0,1.5,0.3,2,0.9c0.4,0.6,0.7,1.5,0.7,2.7
				s-0.2,2.1-0.7,2.7c-0.4,0.6-1.1,0.9-2,0.9c-0.9,0-1.5-0.3-2-0.9C146.9,63.7,146.7,62.8,146.7,61.6z M150.7,61.6
				c0-0.9-0.1-1.5-0.3-2c-0.2-0.4-0.6-0.6-1.1-0.6c-0.5,0-0.8,0.2-1.1,0.6c-0.2,0.4-0.3,1.1-0.3,2c0,0.9,0.1,1.5,0.3,2
				c0.2,0.4,0.6,0.6,1.1,0.6c0.5,0,0.9-0.2,1.1-0.6C150.6,63.2,150.7,62.5,150.7,61.6z"/>
			<path class="st2" d="M157.7,60.1c0,0.4-0.1,0.8-0.3,1.2s-0.5,0.7-0.9,1.1c-0.4,0.4-1.1,1-2,1.7h3.4v1.1h-5v-1L153,64
				c1-0.9,1.8-1.5,2.2-1.9c0.4-0.4,0.7-0.7,0.9-1c0.2-0.3,0.3-0.6,0.3-0.9c0-0.3-0.1-0.6-0.4-0.8c-0.2-0.2-0.6-0.3-1-0.3
				c-0.3,0-0.6,0.1-0.9,0.2c-0.3,0.1-0.5,0.3-0.8,0.6l-0.8-0.7c0.3-0.4,0.7-0.7,1.1-0.9c0.4-0.2,0.9-0.3,1.4-0.3
				c0.5,0,1,0.1,1.3,0.3c0.4,0.2,0.7,0.4,0.9,0.8C157.6,59.4,157.7,59.7,157.7,60.1z"/>
			<path class="st2" d="M158.7,61.6c0-1.2,0.2-2.1,0.7-2.7c0.4-0.6,1.1-0.9,2-0.9c0.9,0,1.5,0.3,2,0.9c0.4,0.6,0.7,1.5,0.7,2.7
				s-0.2,2.1-0.7,2.7c-0.4,0.6-1.1,0.9-2,0.9c-0.9,0-1.5-0.3-2-0.9C158.9,63.7,158.7,62.8,158.7,61.6z M162.7,61.6
				c0-0.9-0.1-1.5-0.3-2c-0.2-0.4-0.6-0.6-1.1-0.6c-0.5,0-0.8,0.2-1.1,0.6c-0.2,0.4-0.3,1.1-0.3,2c0,0.9,0.1,1.5,0.3,2
				c0.2,0.4,0.6,0.6,1.1,0.6c0.5,0,0.9-0.2,1.1-0.6C162.6,63.2,162.7,62.5,162.7,61.6z"/>
		</g>
	</g>
</g>
</svg>
