<?xml version="1.0" encoding="utf-8"?>
<!-- Generator: Adobe Illustrator 25.3.1, SVG Export Plug-In . SVG Version: 6.00 Build 0)  -->
<svg version="1.1" id="Livello_1" xmlns="http://www.w3.org/2000/svg" xmlns:xlink="http://www.w3.org/1999/xlink" x="0px" y="0px"
	 viewBox="0 0 200 100" style="enable-background:new 0 0 200 100;" xml:space="preserve">
<style type="text/css">
	.st0{fill:#FFFFFF;}
	.st1{fill:#1A171B;}
	.st2{fill:#FFCE09;}
</style>
<g>
	<g>
		<circle class="st0" cx="100" cy="50" r="49.6"/>
		<g>
			<g>
				<path class="st1" d="M67.3,37.3l-3.4-2c1.4-0.4,2.6-1.5,3.3-2.7c0.4-0.7,0.5-1.5,0-1.8c-1.4-0.8-3.8,4.3-7,2.4
					c-2.1-1.2-2.1-3.6-0.7-5.9c0.7-1.2,1.7-2.2,2.4-2.7l3.3,1.9c-1,0.3-2,1.2-2.6,2.2c-0.4,0.7-0.5,1.5,0,1.8
					c1.4,0.8,3.8-4.3,7.1-2.4c2,1.2,1.9,3.6,0.6,5.9C69.6,35.3,68.3,36.7,67.3,37.3z"/>
			</g>
			<g>
				<path class="st1" d="M69,25.6l-1.3-1.4c-1.2-1.3-2.7-2.8-3.8-3.5l3.4-3.1l3.1,1.6c0.7,0.3,1.1,0.6,1.8,1.2l0.1-0.1
					c-0.5-0.7-0.7-1.2-1-1.9L70.1,15l3.4-3.1c0.7,1.1,2,2.9,3.1,4.2l1.3,1.4c1.2,1.3,2.8,2.8,3.8,3.5L78.5,24
					c-0.6-1.1-2-2.9-3.1-4.2l-1-1.2l-0.1,0.1l2.1,5.3l-0.7,0.6L70.6,22l-0.1,0.1l1,1.2c1.2,1.3,2.8,2.8,3.8,3.5l-3.2,2.9
					C71.5,28.6,70.2,26.9,69,25.6z"/>
			</g>
			<g>
				<path class="st1" d="M80.8,16.1l-0.4-1.9c-0.4-1.7-1-3.8-1.5-5l5.6-2.4c0.5,1.2,1.6,3.1,2.6,4.5l1.1,1.6c1,1.4,2.4,3.2,3.4,4.2
					l-4,1.7c-0.3-0.8-0.9-2-1.6-3.1L86,15.5l-1.7,0.7l0.1,0.2c0.3,1.2,0.7,2.5,1.1,3.3l-4,1.7C81.4,20.1,81.1,17.8,80.8,16.1z
					 M85.1,14.2l-0.6-0.8c-0.5-0.7-0.9-1.4-1.3-2.2L83,11.3c0.3,0.9,0.5,1.5,0.7,2.4l0.1,1L85.1,14.2z"/>
			</g>
			<g>
				<path class="st1" d="M90.9,16.7l-0.4-3.9c1.1,0.9,2.8,1.2,4.1,1c0.8-0.1,1.5-0.5,1.4-1.1c-0.2-1.6-5.7-0.4-6.2-4.1
					c-0.3-2.3,1.6-3.8,4.2-4.2c1.4-0.2,2.8,0,3.6,0.3l0.5,3.8c-0.8-0.6-2.2-0.9-3.4-0.7c-0.8,0.1-1.5,0.5-1.4,1.1
					c0.2,1.7,5.7,0.4,6.2,4.2c0.3,2.3-1.7,3.7-4.3,4.1C93.9,17.2,92,17.1,90.9,16.7z"/>
			</g>
			<g>
				<path class="st1" d="M101.2,11.1l0.3-1.9c0.2-1.7,0.4-3.9,0.3-5.2l4.3,0.6c-0.5,1.2-1,3.4-1.2,5.1l0,0.1l2.2,0.3l0-0.1
					c0.2-1.7,0.4-3.9,0.3-5.2l4.3,0.6c-0.5,1.2-1,3.4-1.2,5.1l-0.3,1.9c-0.2,1.7-0.4,3.9-0.3,5.2l-4.3-0.6c0.5-1.2,1-3.4,1.2-5.1
					l0-0.2l-2.2-0.3l0,0.2c-0.2,1.7-0.4,3.9-0.3,5.2l-4.3-0.6C100.4,14.9,100.9,12.8,101.2,11.1z"/>
			</g>
			<g>
				<path class="st1" d="M118.2,15.8l1.8-3.2l-0.7-0.4c-0.7-0.4-1.4-0.6-2.1-0.6l2.4-3.1l6.9,4l-1.5,3.7c-0.3-0.5-0.8-1.1-1.6-1.5
					l-0.6-0.3l-1.8,3.2c-0.9,1.5-1.8,3.5-2.2,4.7l-3.8-2.2C116.1,19.1,117.4,17.3,118.2,15.8z"/>
			</g>
			<g>
				<path class="st1" d="M124.5,19.6l1.6-1.1c1.4-1,3.1-2.4,4-3.3l4.4,4.3c-0.9,0.9-2.2,2.7-3.2,4.1l-1.1,1.7
					c-0.9,1.5-2,3.5-2.5,4.8l-3.1-3c0.6-0.6,1.4-1.6,2.2-2.7l0.1-0.2l-1.4-1.3l-0.2,0.1c-1,0.8-2,1.6-2.6,2.3l-3.1-3
					C121.1,21.8,123.1,20.6,124.5,19.6z M128,22.9l0.5-0.9c0.5-0.8,0.9-1.4,1.5-2l-0.1-0.1c-0.7,0.6-1.2,1.1-2,1.6L127,22L128,22.9z
					"/>
			</g>
			<g>
				<path class="st1" d="M132.4,26.1c3.5-2,6.7-1.1,8.3,1.6c0.7,1.3,1,2.4,1,3.1l-3.1,1.8c0.2-0.7-0.1-1.8-0.5-2.5
					c-0.9-1.6-2.3-1.9-4-0.9c-1.8,1.1-2.1,2.3-1.5,3.3c0.2,0.3,0.4,0.6,0.6,0.7l1.9-1.1l-0.2-0.3c-0.1-0.2-0.5-0.7-0.7-0.9l1.5-0.8
					l2.4,4.1l-5,3c-1.4-0.4-2.7-1.6-3.5-3C128.1,31.4,128.8,28.2,132.4,26.1z"/>
			</g>
		</g>
		<g>
			<g>
				<path class="st1" d="M62.8,77.1c-0.5-0.6-1.1-0.8-1.3-0.9c1.2-0.6,3.1-1.9,4.4-3l1.5-1.2c1.3-1.1,2.9-2.6,3.7-3.7l1.9,2.3
					c-1.2,0.6-3,1.8-4.3,2.9l-3.9,3.2l0.7,0.9c0.4,0.5,0.8,0.8,1.2,0.9L65,80c0,0-0.4-0.1-0.7-0.5C63.6,78.7,63.6,78.1,62.8,77.1z"
					/>
			</g>
			<g>
				<path class="st1" d="M70.4,78.2l1.3-1.4c1.1-1.3,2.4-3,3.1-4.2l3.6,3.2L77,77.7c-0.1-0.3-0.4-0.7-1-1.2l-0.7-0.7l-1.7,2l0.5,0.5
					c0.6,0.5,1,0.8,1.3,1l-1.5,1.7c-0.2-0.3-0.5-0.6-1.1-1.1l-0.5-0.5l-2.3,2.6l0.9,0.8c0.6,0.5,1,0.7,1.4,0.8l-1.9,1.5l-3.6-3.2
					C67.6,81,69.2,79.5,70.4,78.2z"/>
			</g>
			<g>
				<path class="st1" d="M76.4,83.1l2.7-4.3l-0.2-0.1c-0.7-0.4-1.2-0.6-1.5-0.6l1.5-1.8l4.3,2.7l-1,2.1C82,80.8,81.7,80.4,81,80
					l-0.2-0.1l-2.7,4.3c-0.9,1.4-1.9,3.4-2.4,4.6l-2.5-1.6C74.1,86.2,75.5,84.5,76.4,83.1z"/>
			</g>
			<g>
				<path class="st1" d="M82.2,83.4c0.6-0.1,1.5-0.5,1.9-1c-0.1,0-0.2,0-0.3-0.1c-0.6-0.3-0.8-0.9-0.5-1.5c0.3-0.6,1-0.9,1.7-0.6
					c0.7,0.3,1,1.1,0.6,2.1c-0.5,1.1-1.6,1.8-2.8,2.1L82.2,83.4z"/>
			</g>
			<g>
				<path class="st1" d="M83.7,91.9l0.7-2.2c0.3,0.8,1,1.4,1.5,1.6c0.6,0.2,1.2-0.1,1.5-0.9c0.6-1.9-2.2-3.8-1.3-6.7
					c0.6-1.9,2.2-2.7,3.8-2.2c0.8,0.3,1.3,0.8,1.6,1.2l-0.7,2.2c-0.3-0.7-0.7-1.2-1.2-1.3c-0.6-0.2-1.2,0.1-1.4,0.8
					c-0.5,1.6,2.3,3.6,1.3,6.8c-0.6,1.9-2.2,2.7-3.8,2.2C84.7,93.1,84,92.6,83.7,91.9z"/>
			</g>
			<g>
				<path class="st1" d="M95.4,90.1l0.1-1.9c0.1-1.7,0-3.9-0.2-5.2l2.2,0.1c2,0.1,3.8,1,3.7,3.3c-0.1,1.7-1,2.8-2.2,2.7l-0.1,0
					l0,0.1l0.1,0c1.3,0.1,2.2,1.3,2.1,3c-0.1,2.2-1.8,3.3-4.1,3.2l-2.3-0.1C95,93.9,95.3,91.8,95.4,90.1z M97.2,93.3
					c0.9,0,1.7-0.6,1.7-1.7c0.1-1.1-0.6-1.8-1.5-1.8l0,0L97.2,93.3L97.2,93.3z M97.5,88.2c0.9,0,1.5-0.5,1.6-1.6
					c0.1-1.1-0.5-1.6-1.4-1.6l-0.1,0L97.5,88.2L97.5,88.2z"/>
			</g>
			<g>
				<path class="st1" d="M103.2,91.8l-0.5-3.5c-0.2-1.7-0.7-3.8-1.2-5.1l2.9-0.4c-0.1,1.3,0,3.5,0.3,5.2l0.5,3.7
					c0.2,1.1,0.7,1.5,1.2,1.4c0.5-0.1,0.9-0.6,0.7-1.7l-0.5-3.7c-0.2-1.7-0.7-3.8-1.2-5.1l2.9-0.4c-0.1,1.3,0,3.5,0.2,5.2l0.5,3.5
					c0.4,2.6-0.7,3.9-2.4,4.1C105,95.3,103.6,94.4,103.2,91.8z"/>
			</g>
			<g>
				<path class="st1" d="M113.4,87.9c-0.1,0-0.2,0.1-0.2,0.1l0.2,0.6c0.3,0.8,1,2.9,1.8,4.3l-2.4,0.9c-0.3-1.6-0.9-3.2-1.6-5.1
					l-0.5-1.6c-0.9-2.6-1.5-4.2-2-4.9l2.2-0.8c2-0.7,3.6-0.2,4.4,1.8c0.7,1.9-0.1,3.1-1.6,3.6l0,0l0,0.1l0.2-0.1
					c2.9-1,2.5,3.3,3.7,2.9c0.2-0.1,0.3-0.3,0.4-0.5l0.7,2.1c-0.1,0.3-0.4,0.7-0.9,0.9C115,93.3,115.1,87.3,113.4,87.9z M112.6,86.3
					c0.8-0.3,1.2-1,0.8-2.1c-0.4-1-1.1-1.2-1.9-0.9l-0.1,0L112.6,86.3L112.6,86.3z"/>
			</g>
			<g>
				<path class="st1" d="M118,85.3c-2-3.5-1.7-6.3,0.4-7.5c0.6-0.3,1.2-0.4,1.7-0.3l1.2,2c-0.6-0.3-1.1-0.3-1.6,0
					c-1.2,0.7-1.1,2.4,0.2,4.7c1.7,2.9,3,3.3,3.7,2.8c0.1,0,0.1-0.1,0.2-0.1l-1.9-3.3l-0.2,0.1c-0.3,0.1-0.5,0.4-0.7,0.6l-0.9-1.8
					l2.4-1.4l3.4,5.8c-0.1,0.9-0.7,1.6-1.4,2C122.7,89.9,120.2,89.1,118,85.3z"/>
			</g>
			<g>
				<path class="st1" d="M125.5,81.7l-1.2-1.5c-1.1-1.3-2.6-2.9-3.7-3.7l3.7-3l1.7,1.6c-0.3,0.1-0.8,0.3-1.4,0.8l-0.8,0.6l1.7,2
					l0.6-0.5c0.6-0.5,0.9-0.8,1.2-1.1l1.4,1.7c-0.3,0.2-0.7,0.4-1.3,1l-0.6,0.5l2.3,2.7l0.9-0.7c0.6-0.5,0.9-0.9,1-1.3l1.2,2.1
					l-3.7,3.1C127.9,84.8,126.6,83.1,125.5,81.7z"/>
			</g>
			<g>
				<path class="st1" d="M131.7,75.7c-0.1,0.1-0.1,0.1-0.1,0.2l0.5,0.4c0.6,0.5,2.3,2,3.7,2.8l-1.7,2c-1.1-1.2-2.4-2.3-3.9-3.6
					l-1.3-1.1c-2.1-1.8-3.4-2.8-4.2-3.3l1.5-1.8c1.4-1.6,3-2,4.7-0.6c1.6,1.3,1.5,2.7,0.5,3.9l0,0l0.1,0.1l0.2-0.2
					c2-2.3,3.8,1.5,4.6,0.6c0.2-0.2,0.1-0.4,0.1-0.6l1.7,1.4c0.1,0.3,0,0.8-0.3,1.2C135.8,79.5,132.9,74.3,131.7,75.7z M130.3,74.7
					c0.6-0.7,0.6-1.5-0.3-2.2c-0.8-0.7-1.6-0.5-2.1,0.1l0,0.1L130.3,74.7L130.3,74.7z"/>
			</g>
		</g>
	</g>
	<circle class="st2" cx="100" cy="50" r="29.3"/>
	<g>
		<g>
			<g>
				<path class="st0" d="M105.6,37.1c1.3,3.8,5.5,5,8.6,3c0.1,0.2,0.2,0.3,0.3,0.5c1,1.6,1.6,3.3,1.9,5.1c0.5,2.7,0.5,5.5-0.1,8.2
					c-0.1,0.5-0.3,0.7-0.8,0.9c-1.7,0.8-3.6,1.2-5.4,1.5c-2.8,0.4-5.5,0.3-8.3,0c-4.9-0.5-9.5-1.8-14.1-3.7
					c-2.9-1.2-5.7-2.6-8.4-4.3c0,0,0,0-0.1-0.1c0.3-0.2,0.6-0.5,0.9-0.7c0.9-0.6,1.8-1.1,2.7-1.8c0.9-0.7,1.4-1.6,1.3-2.8
					c-0.1-0.8-0.5-1.3-1.3-1.6c-0.3-0.1-0.6-0.2-0.9-0.3c0.2-0.7,0.5-1.3,0.8-1.9c1.4-2.7,3.6-4.7,6.3-6c1.8-0.9,3.8-1.4,5.8-1.6
					c0.3,0,0.7,0,1.1,0c-0.1,0.2-0.2,0.3-0.2,0.4c-0.8,1.6-1,3.2-0.4,4.8c1,3,4.4,4.4,7.3,3.1c1.2-0.5,2.1-1.3,2.7-2.4
					C105.4,37.4,105.5,37.2,105.6,37.1z"/>
			</g>
			<g>
				<path class="st0" d="M77.8,60.3c0.5-1,0.3-1.9-0.5-2.6c0.7-0.4,1.3-0.8,1.6-1.4c0.1,0,0.1,0,0.1,0c2.2,1.8,4.7,3.2,7.3,4.2
					c2.5,1,5.1,1.9,7.8,2.4c1.7,0.4,3.4,0.7,5.1,0.9c2,0.3,4.1,0.4,6.2,0.4c2.6,0,5.1-0.1,7.7-0.6c0.6-0.1,1.1-0.2,1.7-0.4
					c0.2,0.8,0.4,1.6,0,2.4c-0.1,0.1-0.1,0.2-0.2,0.3c-0.4,0.3-0.8,0.7-1.3,1c-1.4,0.7-2.8,1.1-4.4,1.3c-2.5,0.4-5,0.3-7.5,0.1
					c-4.5-0.5-8.8-1.6-13.1-3.1c-3.5-1.3-6.9-2.8-10.2-4.6C78.2,60.5,78,60.4,77.8,60.3z"/>
			</g>
			<g>
				<path class="st0" d="M75.4,56.8c0.2-0.5,0.4-0.9,0.6-1.3c0.1-0.2,0.2-0.3,0.2-0.5c0.1-0.3,0-0.6-0.3-0.7
					c-0.2-0.1-0.5-0.1-0.7,0.1c-0.1,0.1-0.1,0.2-0.2,0.2c-0.5,1-1,2-1.3,3.1c-0.1,0.5-0.2,1-0.2,1.5c0,0.2,0,0.4,0,0.5
					c0.1,0.3,0.3,0.5,0.6,0.5c0.3,0,0.5-0.2,0.6-0.5c0-0.2,0-0.3,0-0.5c0-0.3,0-0.5,0.1-0.8c0-0.1,0-0.1,0.1-0.2
					c0.5,0,1-0.1,1.4,0.3c0.4,0.3,0.5,0.6,0.3,1c-0.6,1.2-1.5,2-2.9,2.2c-0.7,0.1-1.4-0.1-1.9-0.7c-0.3-0.4-0.6-0.8-0.8-1.2
					c-0.3-0.5-0.7-0.6-1.2-0.4c-0.2,0.1-0.5,0.2-0.8,0.3c-0.6,0.1-1.2-0.1-1.7-0.5c-0.3-0.3-0.5-0.6-0.5-1.1c0-0.1,0-0.3,0-0.4
					c-0.1-0.5-0.5-0.7-0.9-0.4c-0.3,0.2-0.5,0.3-0.8,0.2c-0.2,0-0.3-0.1-0.4-0.2c-0.6-0.5-0.8-1-0.7-1.8c0.4-1.8,1.2-3.3,2.3-4.8
					c0.6-0.8,1.4-1.3,2.3-1.6c0.6-0.2,1.3-0.2,1.9,0c0.1,0,0.2,0.1,0.3,0.1c0.5,0.2,0.9,0,1-0.6c0.1-0.5,0.3-1.1,0.5-1.6
					c0.2-0.7,0.7-1.3,1.1-1.9c1.1-1.3,2.4-2.3,4-2.8c1.2-0.4,2.4-0.5,3.7-0.4c0.4,0,0.7,0.1,1.1,0.2c0.5,0.1,0.6,0.5,0.6,1
					c-0.1,0.3-0.2,0.6-0.5,0.9c-0.5-0.1-0.9-0.2-1.3-0.2c-0.8-0.1-1.5,0.1-2.2,0.4c-1.7,0.7-3.1,1.7-4.1,3.2c-0.5,0.7-0.8,1.4-1,2.2
					c-0.1,0.8,0.2,1.3,0.9,1.5c0.8,0.2,1.6,0.6,2.2,1.2c0.3,0.3,0.5,0.6,0.8,0.9c0.4,0.5,0.4,1.1,0.2,1.7c0,0.2-0.1,0.4-0.2,0.5
					C77.1,56.5,76.4,56.8,75.4,56.8z"/>
			</g>
			<g>
				<path class="st0" d="M115.5,57.9c0.2,0.7,0.3,1.4,0.2,2.2c0,0.3-0.1,0.5-0.1,0.8c-0.2,0.5-0.5,1-1.1,1.2
					c-1.1,0.4-2.3,0.5-3.5,0.7c-1.6,0.2-3.2,0.3-4.8,0.3c-1.5,0-3-0.1-4.5-0.2c-2.1-0.1-4.1-0.5-6.2-0.9c-0.1,0-0.3-0.1-0.5-0.1
					c1.3-1,2.4-2,3.4-3.2c1.2,0.2,2.3,0.5,3.4,0.6c1.1,0.1,2.2,0.2,3.3,0.2c1.3,0,2.5-0.1,3.8-0.2c1-0.1,2-0.3,3-0.4
					c1.1-0.2,2.2-0.4,3.2-0.8C115.4,57.9,115.5,57.9,115.5,57.9z"/>
			</g>
			<g>
				<path class="st0" d="M125.8,52.3c0.4,1.1,1.3,1.4,2.3,1.6c0,0.5-0.1,1,0.2,1.4c0.2,0.4,0.6,0.7,0.9,1.1
					c-0.3,0.2-0.7,0.3-1.1,0.4c-1,0.2-1.9,0.3-2.9,0c-0.7-0.2-1.1-0.6-1.4-1.3c0-0.1-0.1-0.2-0.1-0.3c-0.1-0.2-0.4-0.4-0.6-0.3
					c-0.2,0-0.4,0.2-0.5,0.5c0,0.1,0,0.2,0,0.3c0,0.1,0.1,0.2,0.1,0.4c-0.4,0.2-0.7,0.4-1.1,0.6c-0.8,0.3-1.6,0.5-2.5,0.8
					c-0.3,0.1-0.4,0.1-0.4-0.3c-0.1-0.5-0.3-1-0.1-1.5c0.2-0.7,0.6-1.2,1.2-1.5c0.7-0.4,1.4-0.8,2.2-1.2c0.1,0.1,0.3,0.3,0.4,0.4
					c0.2,0.2,0.4,0.3,0.7,0.2c0.4-0.1,0.5-0.6,0.3-1c-0.2-0.2-0.4-0.4-0.5-0.6c-0.8-0.8-1.3-1.6-1.6-2.7c-0.2-0.6-0.2-1.1-0.1-1.7
					c0.1-0.4,0.3-0.7,0.6-1c1.2-1,3.8-1.3,5.3,0.6c0.6,0.8,0.8,1.7,0.5,2.6c-0.3,0.9-1.1,1.2-2,0.9c-0.5-0.2-0.9-0.5-1.2-1
					c-0.2-0.3-0.4-0.5-0.5-0.8c-0.2-0.4-0.5-0.5-0.8-0.3c-0.3,0.2-0.4,0.5-0.2,0.9C123.2,50.7,124,51.9,125.8,52.3z"/>
			</g>
			<g>
				<path class="st2" d="M98.2,57c-0.4,0.5-0.8,1-1.2,1.4c-0.9,1-1.8,1.9-2.9,2.7c-0.3,0.2-0.6,0.4-1,0.2c-0.3-0.1-0.7-0.2-1.1-0.3
					c-0.1-0.4-0.2-0.8-0.3-1.2c-0.1-0.2-0.1-0.5-0.2-0.7c-0.3-0.7-0.6-1.4-0.8-2c-0.4-0.9-1.1-1.3-2.2-1.3c-0.6,0-1.1,0.1-1.7,0.2
					c0,0-0.1,0-0.1,0c-0.9,0.1-1.1,0-1.3-0.9c-0.1-0.7-0.2-1.4-0.3-2.3C89.3,54.7,93.6,56.1,98.2,57z"/>
			</g>
			<g>
				<path class="st0" d="M90.4,60.6c-1.1-0.4-2.2-0.8-3.2-1.2c-2.2-0.9-4.3-1.9-6.2-3.3c-0.5-0.3-0.9-0.7-1.4-1.1
					c-0.2-0.2-0.3-0.4-0.3-0.6c-0.1-0.4-0.2-0.8-0.3-1.1c-0.3-0.7-0.2-1.4,0.1-2.1c1.5,1.2,3.2,2.2,4.9,3.1c0.1,0.5,0.1,1,0.3,1.5
					c0.2,1.1,1.1,1.7,2.3,1.6c0.5-0.1,1.1-0.1,1.6-0.2c0.2,0,0.5,0,0.7,0c0.3,0,0.5,0.1,0.6,0.4c0.3,0.8,0.7,1.6,1,2.5
					C90.4,60.1,90.4,60.3,90.4,60.6z"/>
			</g>
			<g>
				<path class="st0" d="M100.7,30.9c-0.2,0.2-0.3,0.5-0.5,0.8c-0.3,0.4-0.2,0.5,0.2,0.8c0.7,0.6,1,1.5,0.7,2.3
					c-0.3,0.8-1,1.2-1.9,1.1c-0.5-0.1-0.6,0-0.6,0.5c0,0.7,0.1,1.3,0.3,2c0,0.2,0.1,0.3,0.1,0.6c-0.8-0.3-1.3-0.7-1.7-1.2
					c-0.9-1.2-1.1-2.5-0.8-3.9c0.4-1.7,1.5-2.9,3.2-3.6c0.3-0.1,0.4-0.1,0.6,0.1c0.1,0.2,0.3,0.3,0.4,0.5
					C100.6,30.8,100.7,30.9,100.7,30.9z"/>
			</g>
			<g>
				<path class="st0" d="M127.2,52.1c1-0.5,1.4-1.3,1.6-2.3c0-0.2,0.1-0.3,0.1-0.5c0-0.4,0.1-0.6,0.4-0.8c0.7-0.5,1.4-1.1,2-1.7
					c0.1-0.1,0.2-0.2,0.3-0.2c0.6-0.2,1.2-0.2,1.8-0.1c0.8,0.2,1.2,1,0.9,1.7c-0.1,0.4-0.3,0.8-0.5,1.2c-1,1.4-2.3,2.5-4.1,2.9
					c-0.6,0.2-1.2,0.2-1.9,0.1C127.5,52.4,127.4,52.3,127.2,52.1z"/>
			</g>
			<g>
				<path class="st0" d="M108.5,31.4c0.5,0.6,1,1.1,1.4,1.6c-0.1,0.1-0.1,0.3-0.2,0.6c0.2,0.1,0.3,0.1,0.5,0.2
					c0.2,0,0.4,0.1,0.6,0.1c0.5,0.2,0.9,0.6,0.9,1.2c0.1,0.9-0.8,1.8-1.7,1.8c-0.2,0-0.4,0-0.6,0c-0.3,0-0.5,0.2-0.4,0.5
					c0.1,0.5,0.3,1,0.4,1.5c0.1,0.2,0.1,0.4,0.2,0.7c-1.6-0.6-2.6-1.8-2.8-3.4C106.5,34.2,107.1,32.6,108.5,31.4z"/>
			</g>
			<g>
				<path class="st0" d="M131.2,55.5c-0.4-0.1-0.8-0.2-1.2-0.4c-0.4-0.2-0.6-0.5-0.6-1c0-0.3,0.1-0.4,0.4-0.4
					c0.7-0.1,1.3-0.3,1.9-0.6c1-0.5,1.8-1.2,2.6-2c0.3-0.3,0.5-0.4,0.9-0.2c0.1,0,0.1,0.1,0.2,0.1c0.9,0.4,1.1,1,0.6,1.8
					c-0.5,0.9-1.3,1.6-2.2,2.1C132.9,55.2,132.1,55.5,131.2,55.5z"/>
			</g>
			<g>
				<path class="st0" d="M125.6,44.9c0.7-0.9,1.5-1.4,2.4-1.8c0.6-0.2,1.2-0.3,1.8-0.2c0.1,0,0.2,0,0.3,0.1c1.2,0.5,1.3,1.1,0.8,2
					c-0.3,0.6-0.7,1.2-1.3,1.6c-0.4,0.3-0.7,0.6-1.2,0.9C128,46.2,127,45.4,125.6,44.9z"/>
			</g>
			<g>
				<path class="st0" d="M99.1,70.9c1,0.3,2,0.5,3,0.7c-0.4,0.7-1,1.3-1.7,1.7c-0.7,0.4-1.5,0.5-2.4,0.6c-0.3-0.7-0.5-1.3-0.8-2.1
					C98,71.7,98.7,71.5,99.1,70.9z"/>
			</g>
			<g>
				<path class="st1" d="M107,44.3c-0.8-0.8-1.8-1.4-2.9-1.7c-1.3-0.4-2.7-0.4-4.1-0.4c-0.9,0-1.7,0-2.5-0.3
					c-0.9-0.3-1.6-0.8-2.4-1.6c-0.4-0.4-0.8-0.8-1.3-1.3c-0.5-0.5-0.9-0.9-1.4-1.4c-0.8-0.7-1.5-1.2-2.3-1.6
					C89,35.6,88,35.7,87,36.4c-1.2,0.9-2.1,2.1-2.5,3.8c-0.1,0.3-0.1,0.7-0.1,1c0,0.8,0.2,1.6,0.5,2.5c0.5,1.4,1.5,2.7,2.8,3.9
					c3.2,2.8,7.1,4.4,11.6,4.8l0,0l1.8,0c1.3,0,2.7-0.3,4.1-0.9c0.6-0.3,1.2-0.7,1.8-1.2c0.8-0.8,1.3-1.8,1.3-3
					C108.2,46.1,107.8,45.1,107,44.3z M106.5,47.2c0,0.7-0.3,1.3-0.9,1.9c-0.9,0.8-2,1.2-3.1,1.4c-1,0.2-2.8,0.3-3.7,0.1l0,0
					c-2.4-0.2-4.6-0.9-6.8-2.1c-2-1.1-3.6-2.3-4.7-3.8c-0.7-0.9-1.1-1.9-1.3-3c-0.2-1.5,0.8-3.4,2.1-4.1c0.2-0.1,0.4-0.2,0.6-0.2
					c0.1,0,0.3,0,0.4,0.1c0.5,0.2,1,0.4,1.4,0.8c0.4,0.3,0.7,0.7,1,1c0.2,0.2,0.3,0.3,0.5,0.5c0.2,0.2,0.5,0.5,0.7,0.7
					c0.6,0.5,1.1,1.1,1.7,1.6c1.3,1.1,2.9,1.7,4.6,1.7c0,0,0,0,0.1,0c0.3,0,0.5,0,0.8-0.1l0.2,0c2.1-0.2,3.8,0.3,5.2,1.3
					c0.1,0.1,0.1,0.1,0.2,0.2C106.2,45.8,106.5,46.5,106.5,47.2z"/>
				<path class="st1" d="M102.8,46.7c-0.1,0-0.2,0-0.2,0c-0.1,0-0.1,0-0.2,0c-1.7,0.1-3.2-0.1-4.6-0.3c-1.9-0.4-3.6-1.2-5-2.3
					c-1.3-1.1-2.5-2.3-3.4-3.7l0-0.1c-0.1-0.1-0.1-0.2-0.2-0.3c-0.3-0.3-0.7-0.3-1-0.1c-0.3,0.2-0.5,0.6-0.3,1
					c0.1,0.2,0.2,0.3,0.2,0.4c0.2,0.2,0.4,0.5,0.6,0.8c0.5,0.6,1,1.2,1.5,1.8c2.6,2.8,5.9,4.3,9.6,4.5l0,0c0.2,0,0.4,0,0.7,0
					c0.2,0,0.3,0,0.5,0c0.4,0,0.8,0,1.1,0c0.4,0,0.7-0.1,1.1-0.2c0.4-0.1,0.6-0.5,0.5-0.8C103.5,47,103.2,46.7,102.8,46.7z"/>
			</g>
		</g>
		<path class="st0" d="M93.1,75.8c0.2,0.5,0.4,0.9,0.6,1.4c1.5,0.3,2.9,0.5,4.5,0.6c-1-2.6-2-5.1-3-7.7c-1.9-0.3-3.6-1-5.4-1.6
			c0.1,0.2,0.2,0.4,0.2,0.5C91.1,71.4,92.1,73.6,93.1,75.8z"/>
		<path class="st0" d="M87.9,75.2c1.1-0.1,2.2-0.2,3.4-0.3c-0.4-0.8-0.7-1.5-1-2.2c-1.1,0.1-2.2,0.2-3.3,0.3
			c-0.9,0.1-1.7,0.2-2.6,0.3C85.5,73.9,86.7,74.6,87.9,75.2z"/>
		<path class="st1" d="M136.4,49.3c-0.1,0-0.2-0.1-0.3-0.1c0.2-0.5,0.3-1.1,0.2-1.7c-0.2-1.6-1.5-2.8-3.1-3c0,0-0.1,0-0.1,0
			c0.2-1.1-0.3-2.1-1.2-2.8c-1-0.7-2.1-1-3.3-0.9c-0.2,0-0.4,0.1-0.6,0.1c-1.7-5.1-4.6-9.5-8.5-13c0.1-0.2,0.2-0.5,0.2-0.6
			c0-0.3-0.1-0.8-0.7-1.3c-0.7-0.6-1.4-1.1-2.1-1.6c-0.2-0.1-0.4-0.2-0.6-0.3c-0.1,0-0.1-0.1-0.2-0.1c-0.4-0.2-1-0.3-1.7,0.1
			c0,0-0.1,0-0.1,0.1c-4-2.3-8.6-3.6-13.5-3.8c-0.1-0.1-0.2-0.2-0.3-0.4c-0.3-0.3-0.6-0.6-0.9-0.9L99.5,19c-0.5-0.5-1.2-0.6-1.8-0.3
			c0,0,0,0-0.1,0c-0.1,0-0.2,0.1-0.2,0.1c-1,0.5-2,1.2-2.9,2c-12.8,2.4-22.8,13-24.1,26.2c0,0,0,0.1,0,0.1c-0.7-0.1-1.5-0.1-2.3,0.2
			c-1.5,0.6-2.7,1.4-3.6,2.6c-0.8,1.1-1.5,2.4-2,3.8c-0.3,0.9-0.5,1.6-0.5,2.3c0,0.9,0.4,1.9,1.1,2.6c0.6,0.6,1.3,0.9,2.1,1
			c0.4,0.9,1,1.5,2,1.9c0.9,0.4,1.8,0.4,2.7,0.2c0.2,0.2,0.4,0.5,0.6,0.7c0.8,0.9,1.9,1.4,3.1,1.4c5,9.5,14.9,16,26.4,16
			c13.4,0,24.8-8.9,28.4-21.1c0.5-0.1,1.1-0.3,1.5-0.5c0.4-0.2,0.7-0.4,1-0.7c0.3,0,0.5,0,0.8,0c1.7-0.2,3.2-0.9,4.6-2.2
			c0.6-0.5,1-1.1,1.3-1.7C138.6,51.9,138.1,50.2,136.4,49.3z M131.6,46.6c0.6-0.2,1.2-0.2,1.8-0.1c0.8,0.2,1.2,1,0.9,1.7
			c-0.1,0.4-0.3,0.8-0.5,1.2c-1,1.4-2.3,2.5-4.1,2.9c-0.6,0.2-1.2,0.2-1.9,0.1c-0.3-0.1-0.5-0.1-0.7-0.4c1-0.5,1.4-1.3,1.6-2.3
			c0-0.2,0.1-0.3,0.1-0.5c0-0.4,0.1-0.6,0.4-0.8c0.7-0.5,1.4-1.1,2-1.7C131.4,46.7,131.5,46.6,131.6,46.6z M129.9,42.9
			c0.1,0,0.2,0,0.3,0.1c1.2,0.5,1.3,1.1,0.8,2c-0.3,0.6-0.7,1.2-1.3,1.6c-0.4,0.3-0.7,0.6-1.2,0.9c-0.6-1.3-1.6-2.1-2.9-2.6
			c0.7-0.9,1.5-1.4,2.4-1.8C128.7,42.9,129.3,42.8,129.9,42.9z M126.5,41.6c-1,0.5-1.8,1.3-2.5,2.4c0,0,0,0,0,0c0,0,0,0,0,0
			c0,0,0,0,0,0c-0.9,0-1.8,0.2-2.6,0.6c-1.5,0.7-2.2,2-2.2,3.7c0,1.2,0.2,2.3,0.9,3.5c0,0,0,0,0,0c-0.4,0.2-0.9,0.5-1.3,0.6
			c0.6-5-0.2-9.3-2.5-13.2c1.1-1.4,1.6-3,1.5-4.7c-0.1-1.6-0.6-3-1.7-4.2l0.1,0c0.7-0.4,1.4-0.8,2.2-1.2
			C122,32.4,124.9,36.7,126.5,41.6z M84.4,73.2c0.9-0.1,1.7-0.2,2.6-0.3c1.1-0.1,2.1-0.2,3.3-0.3c0.3,0.7,0.7,1.4,1,2.2
			c-1.2,0.1-2.3,0.2-3.4,0.3C86.6,74.6,85.5,73.9,84.4,73.2z M93.1,75.8c-1-2.2-2-4.5-3.1-6.7c-0.1-0.1-0.1-0.3-0.2-0.5
			c1.8,0.6,3.6,1.3,5.4,1.6c1,2.6,2,5.1,3,7.7c-1.5-0.1-3-0.3-4.5-0.6C93.6,76.8,93.3,76.3,93.1,75.8z M96.1,68.7
			c0.8,0.2,1.6,0.3,2.3,0.5c0,0.9-0.7,1.6-1.6,1.4c-0.1-0.3-0.2-0.6-0.3-0.9C96.3,69.4,96.2,69.1,96.1,68.7z M97.3,71.8
			c0.7-0.1,1.4-0.3,1.9-0.9c1,0.3,2,0.5,3,0.7c-0.4,0.7-1,1.3-1.7,1.7c-0.7,0.4-1.5,0.5-2.4,0.6C97.8,73.2,97.6,72.5,97.3,71.8z
			 M101.6,68.3c-4.5-0.5-8.8-1.6-13.1-3.1c-3.5-1.3-6.9-2.8-10.2-4.6c-0.2-0.1-0.3-0.2-0.5-0.3c0.5-1,0.3-1.9-0.5-2.6
			c0.7-0.4,1.3-0.8,1.6-1.4c0.1,0,0.1,0,0.1,0c2.2,1.8,4.7,3.2,7.3,4.2c2.5,1,5.1,1.9,7.8,2.4c1.7,0.4,3.4,0.7,5.1,0.9
			c2,0.3,4.1,0.4,6.2,0.4c2.6,0,5.1-0.1,7.7-0.6c0.6-0.1,1.1-0.2,1.7-0.4c0.2,0.8,0.4,1.6,0,2.4c-0.1,0.1-0.1,0.2-0.2,0.3
			c-0.4,0.3-0.8,0.7-1.3,1c-1.4,0.7-2.8,1.1-4.4,1.3C106.6,68.6,104.1,68.6,101.6,68.3z M78.4,49.5c0.1,0,0.1,0.1,0.1,0.1
			c0,0,0,0,0,0c-0.4,0.6-0.7,1.1-1.1,1.8c-0.7-0.5-1.5-0.9-2.4-1.2c0-0.4,0.1-0.7,0.3-1c0.5-1,1.3-1.8,2.2-2.5
			c0.3-0.2,0.6-0.4,0.9-0.6c0,0.2-0.1,0.3-0.1,0.4c-0.1,0.5-0.3,1-0.4,1.5C77.8,48.7,77.9,49.2,78.4,49.5z M86.4,57.3
			c0.5-0.1,1.1-0.1,1.6-0.2c0.2,0,0.5,0,0.7,0c0.3,0,0.5,0.1,0.6,0.4c0.3,0.8,0.7,1.6,1,2.5c0.1,0.2,0.1,0.4,0.1,0.6
			c-1.1-0.4-2.2-0.8-3.2-1.2c-2.2-0.9-4.3-1.9-6.2-3.3c-0.5-0.3-0.9-0.7-1.4-1.1c-0.2-0.2-0.3-0.4-0.3-0.6c-0.1-0.4-0.2-0.8-0.3-1.1
			c-0.3-0.7-0.2-1.4,0.1-2.1c1.5,1.2,3.2,2.2,4.9,3.1c0.1,0.5,0.1,1,0.3,1.5C84.4,56.8,85.3,57.4,86.4,57.3z M85,52.8
			c4.2,1.9,8.6,3.3,13.1,4.2c-0.4,0.5-0.8,1-1.2,1.4c-0.9,1-1.8,1.9-2.9,2.7c-0.3,0.2-0.6,0.4-1,0.2c-0.3-0.1-0.7-0.2-1.1-0.3
			c-0.1-0.4-0.2-0.8-0.3-1.2c-0.1-0.2-0.1-0.5-0.2-0.7c-0.3-0.7-0.6-1.4-0.8-2c-0.4-0.9-1.1-1.3-2.2-1.3c-0.6,0-1.1,0.1-1.7,0.2
			c0,0-0.1,0-0.1,0c-0.9,0.1-1.1,0-1.3-0.9C85.2,54.4,85.2,53.6,85,52.8z M114.6,62c-1.1,0.4-2.3,0.5-3.5,0.7
			c-1.6,0.2-3.2,0.3-4.8,0.3c-1.5,0-3-0.1-4.5-0.2c-2.1-0.1-4.1-0.5-6.2-0.9c-0.1,0-0.3-0.1-0.5-0.1c1.3-1,2.4-2,3.4-3.2
			c1.2,0.2,2.3,0.5,3.4,0.6c1.1,0.1,2.2,0.2,3.3,0.2c1.3,0,2.5-0.1,3.8-0.2c1-0.1,2-0.3,3-0.4c1.1-0.2,2.2-0.4,3.2-0.8
			c0,0,0.1,0,0.2,0c0.2,0.7,0.3,1.4,0.2,2.2c0,0.3-0.1,0.5-0.1,0.8C115.4,61.4,115.1,61.8,114.6,62z M115.6,54.8
			c-1.7,0.8-3.6,1.2-5.4,1.5c-2.8,0.4-5.5,0.3-8.3,0c-4.9-0.5-9.5-1.8-14.1-3.7c-2.9-1.2-5.7-2.6-8.4-4.3c0,0,0,0-0.1-0.1
			c0.3-0.2,0.6-0.5,0.9-0.7c0.9-0.6,1.8-1.1,2.7-1.8c0.9-0.7,1.4-1.6,1.3-2.8c-0.1-0.8-0.5-1.3-1.3-1.6c-0.3-0.1-0.6-0.2-0.9-0.3
			c0.2-0.7,0.5-1.3,0.8-1.9c1.4-2.7,3.6-4.7,6.3-6c1.8-0.9,3.8-1.4,5.8-1.6c0.3,0,0.7,0,1.1,0c-0.1,0.2-0.2,0.3-0.2,0.4
			c-0.8,1.6-1,3.2-0.4,4.8c1,3,4.4,4.4,7.3,3.1c1.2-0.5,2.1-1.3,2.7-2.4c0.1-0.1,0.2-0.3,0.3-0.4c1.3,3.8,5.5,5,8.6,3
			c0.1,0.2,0.2,0.3,0.3,0.5c1,1.6,1.6,3.3,1.9,5.1c0.5,2.7,0.5,5.5-0.1,8.2C116.2,54.3,116,54.6,115.6,54.8z M95.6,22.6
			c1.4-0.2,2.8-0.3,4.3-0.4c2,2.4,3.9,4.9,5.7,7.5c-0.9,0.5-1.7,1.1-2.6,1.6c-2.8-2.7-5.2-5.6-8.1-8.2C95.2,23,95.4,22.8,95.6,22.6z
			 M100.2,30.3c0.1,0.2,0.3,0.3,0.4,0.5c0,0,0.1,0.1,0.1,0.1c-0.2,0.2-0.3,0.5-0.5,0.8c-0.3,0.4-0.2,0.5,0.2,0.8
			c0.7,0.6,1,1.5,0.7,2.3c-0.3,0.8-1,1.2-1.9,1.1c-0.5-0.1-0.6,0-0.6,0.5c0,0.7,0.1,1.3,0.3,2c0,0.2,0.1,0.3,0.1,0.6
			c-0.8-0.3-1.3-0.7-1.7-1.2c-0.9-1.2-1.1-2.5-0.8-3.9c0.4-1.7,1.5-2.9,3.2-3.6C99.8,30.1,100,30.1,100.2,30.3z M116.6,27.8
			c-2.2,1.1-4.2,2.4-6.2,3.7c-0.4-0.4-0.7-0.7-1.1-1.1c0.1-0.1,0.1-0.2,0.2-0.2c1.6-1.4,3.3-2.6,5.1-3.8
			C115.3,26.9,115.9,27.3,116.6,27.8z M110,33c-0.1,0.1-0.1,0.3-0.2,0.6c0.2,0.1,0.3,0.1,0.5,0.2c0.2,0,0.4,0.1,0.6,0.1
			c0.5,0.2,0.9,0.6,0.9,1.2c0.1,0.9-0.8,1.8-1.7,1.8c-0.2,0-0.4,0-0.6,0c-0.3,0-0.5,0.2-0.4,0.5c0.1,0.5,0.3,1,0.4,1.5
			c0.1,0.2,0.1,0.4,0.2,0.7c-1.6-0.6-2.6-1.8-2.8-3.4c-0.3-1.9,0.3-3.4,1.8-4.7C109,31.9,109.5,32.5,110,33z M112.6,25.3
			c-1.6,1-3.1,2.2-4.7,3.5l-0.1,0.1c-0.1,0.1-0.2,0.2-0.3,0.3c0,0,0,0,0,0c-0.1-0.2-0.2-0.4-0.3-0.5l0,0c-0.9-1.5-2-2.9-3.1-4.3
			c-0.2-0.2-0.4-0.5-0.6-0.7c-0.3-0.4-0.6-0.8-0.9-1.1C106.2,22.7,109.5,23.8,112.6,25.3z M92.8,23.2c0,0.4,0.2,0.8,0.6,1.2
			c1.4,1.5,2.9,3,4.3,4.5c-0.3,0.2-0.5,0.3-0.8,0.5c-0.1,0.1-0.2,0.1-0.2,0.1c-2.4-0.2-4.9,0.2-7.3,1.2c-3.9,1.6-6.7,4.2-8.5,7.6
			c-0.3,0.5-0.5,1-0.7,1.5c0,0.1-0.1,0.2-0.1,0.3c-0.3,0-0.6,0-0.9,0.1c-2.4,0.2-4.4,1.2-6.1,2.8C75.6,33.4,83.2,25.8,92.8,23.2z
			 M71.1,59.9c-0.3-0.5-0.7-0.6-1.2-0.4c-0.2,0.1-0.5,0.2-0.8,0.3c-0.6,0.1-1.2-0.1-1.7-0.5c-0.3-0.3-0.5-0.6-0.5-1.1
			c0-0.1,0-0.3,0-0.4c-0.1-0.5-0.5-0.7-0.9-0.4c-0.3,0.2-0.5,0.3-0.8,0.2c-0.2,0-0.3-0.1-0.4-0.2c-0.6-0.5-0.8-1-0.7-1.8
			c0.4-1.8,1.2-3.3,2.3-4.8c0.6-0.8,1.4-1.3,2.3-1.6c0.6-0.2,1.3-0.2,1.9,0c0.1,0,0.2,0.1,0.3,0.1c0.5,0.2,0.9,0,1-0.6
			c0.1-0.5,0.3-1.1,0.5-1.6c0.2-0.7,0.7-1.3,1.1-1.9c1.1-1.3,2.4-2.3,4-2.8c1.2-0.4,2.4-0.5,3.7-0.4c0.4,0,0.7,0.1,1.1,0.2
			c0.5,0.1,0.6,0.5,0.6,1c-0.1,0.3-0.2,0.6-0.5,0.9c-0.5-0.1-0.9-0.2-1.3-0.2c-0.8-0.1-1.5,0.1-2.2,0.4c-1.7,0.7-3.1,1.7-4.1,3.2
			c-0.5,0.7-0.8,1.4-1,2.2c-0.1,0.8,0.2,1.3,0.9,1.5c0.8,0.2,1.6,0.6,2.2,1.2c0.3,0.3,0.5,0.6,0.8,0.9c0.4,0.5,0.4,1.1,0.2,1.7
			c0,0.2-0.1,0.4-0.2,0.5c-0.6,0.7-1.3,1-2.3,1c0.2-0.5,0.4-0.9,0.6-1.3c0.1-0.2,0.2-0.3,0.2-0.5c0.1-0.3,0-0.6-0.3-0.7
			c-0.2-0.1-0.5-0.1-0.7,0.1c-0.1,0.1-0.1,0.2-0.2,0.2c-0.5,1-1,2-1.3,3.1c-0.1,0.5-0.2,1-0.2,1.5c0,0.2,0,0.4,0,0.5
			c0.1,0.3,0.3,0.5,0.6,0.5c0.3,0,0.5-0.2,0.6-0.5c0-0.2,0-0.3,0-0.5c0-0.3,0-0.5,0.1-0.8c0-0.1,0-0.1,0.1-0.2c0.5,0,1-0.1,1.4,0.3
			c0.4,0.3,0.5,0.6,0.3,1c-0.6,1.2-1.5,2-2.9,2.2c-0.7,0.1-1.4-0.1-1.9-0.7C71.7,60.7,71.4,60.3,71.1,59.9z M75.5,63.4
			c0.6-0.3,1.2-0.7,1.7-1.1c3.1,1.7,6.2,3.2,9.5,4.4l0,0c0.4,1,0.9,1.9,1.3,2.9l0.5,1.2l-6.2,0.6c-0.1,0-0.2,0-0.2,0
			c0,0-0.1,0-0.1,0c0,0,0,0,0,0c0,0,0,0,0,0C79.4,69.2,77.2,66.5,75.5,63.4z M100.4,78c-0.1-0.3-0.2-0.6-0.3-0.9
			c-0.1-0.2-0.2-0.5-0.3-0.7c-0.1-0.2-0.2-0.4-0.2-0.6c2.6-0.6,4.4-2.3,5.3-5.2c0.2,0,0.4,0,0.6,0c0.7,0,1.4,0,2-0.1
			c1.6-0.1,3.1-0.3,4.5-0.8c1.3-0.4,2.7-0.9,3.9-2c0.9-0.9,1.4-1.9,1.3-3c0-0.7-0.2-1.3-0.4-1.9c0.7-0.9,0.9-2,0.9-2.9
			c2.2-0.4,3.9-1,5.4-1.9c0.5,0.4,1.1,0.7,1.8,0.8c0.4,0.1,0.9,0.1,1.4,0.1C122.8,69.8,112.5,77.8,100.4,78z M128,56.7
			c-1,0.2-1.9,0.3-2.9,0c-0.7-0.2-1.1-0.6-1.4-1.3c0-0.1-0.1-0.2-0.1-0.3c-0.1-0.2-0.4-0.4-0.6-0.3c-0.2,0-0.4,0.2-0.5,0.5
			c0,0.1,0,0.2,0,0.3c0,0.1,0.1,0.2,0.1,0.4c-0.4,0.2-0.7,0.4-1.1,0.6c-0.8,0.3-1.6,0.5-2.5,0.8c-0.3,0.1-0.4,0.1-0.4-0.3
			c-0.1-0.5-0.3-1-0.1-1.5c0.2-0.7,0.6-1.2,1.2-1.5c0.7-0.4,1.4-0.8,2.2-1.2c0.1,0.1,0.3,0.3,0.4,0.4c0.2,0.2,0.4,0.3,0.7,0.2
			c0.4-0.1,0.5-0.6,0.3-1c-0.2-0.2-0.4-0.4-0.5-0.6c-0.8-0.8-1.3-1.6-1.6-2.7c-0.2-0.6-0.2-1.1-0.1-1.7c0.1-0.4,0.3-0.7,0.6-1
			c1.2-1,3.8-1.3,5.3,0.6c0.6,0.8,0.8,1.7,0.5,2.6c-0.3,0.9-1.1,1.2-2,0.9c-0.5-0.2-0.9-0.5-1.2-1c-0.2-0.3-0.4-0.5-0.5-0.8
			c-0.2-0.4-0.5-0.5-0.8-0.3c-0.3,0.2-0.4,0.5-0.2,0.9c0.6,1.1,1.4,2.3,3.1,2.7c0.4,1.1,1.3,1.4,2.3,1.6c0,0.5-0.1,1,0.2,1.4
			c0.2,0.4,0.6,0.7,0.9,1.1C128.8,56.5,128.4,56.6,128,56.7z M135.9,52.7c-0.5,0.9-1.3,1.6-2.2,2.1c-0.8,0.4-1.6,0.7-2.5,0.7
			c-0.4-0.1-0.8-0.2-1.2-0.4c-0.4-0.2-0.6-0.5-0.6-1c0-0.3,0.1-0.4,0.4-0.4c0.7-0.1,1.3-0.3,1.9-0.6c1-0.5,1.8-1.2,2.6-2
			c0.3-0.3,0.5-0.4,0.9-0.2c0.1,0,0.1,0.1,0.2,0.1C136.2,51.3,136.4,51.9,135.9,52.7z"/>
		<g>
			<path class="st0" d="M105.6,29.8c-0.9,0.5-1.7,1.1-2.6,1.6c-2.8-2.7-5.2-5.6-8.1-8.2c1.1-1,2.2-1.8,3.5-2.6
				C101,23.5,103.4,26.6,105.6,29.8z"/>
		</g>
		<g>
			<path class="st0" d="M110.4,31.5c-0.4-0.4-0.7-0.7-1.1-1.1c0.1-0.1,0.1-0.2,0.2-0.2c1.8-1.6,3.8-2.9,5.8-4.2
				c0.3-0.2,0.5-0.2,0.7,0c0.5,0.4,1,0.8,1.6,1.3C115,28.5,112.7,30,110.4,31.5z"/>
		</g>
	</g>
</g>
</svg>
