<?xml version="1.0" encoding="utf-8"?>
<!-- Generator: Adobe Illustrator 25.0.1, SVG Export Plug-In . SVG Version: 6.00 Build 0)  -->
<svg version="1.1" id="Livello_1" xmlns="http://www.w3.org/2000/svg" xmlns:xlink="http://www.w3.org/1999/xlink" x="0px" y="0px"
	 viewBox="0 0 300 150" style="enable-background:new 0 0 300 150;" xml:space="preserve">
<style type="text/css">
	.st0{fill:#1E1E1C;}
	.st1{fill:#020203;}
	.st2{fill:#02943C;}
	.st3{fill:#DA1615;}
</style>
<g id="Spizzico_1_">
	<g>
		<polygon class="st0" points="110,54.8 108.9,54.8 108.9,40.2 205.6,40.2 205.6,41.3 110,41.3 		"/>
		<polygon class="st0" points="206.1,115.4 109.5,115.4 109.5,114.3 205.1,114.3 205.1,100.9 206.1,100.9 		"/>
		<path class="st1" d="M0,77.9h1.5c0.7,13.4,9.2,18,20.5,18c9,0,14.1-4.8,14.1-12.5c0-9-5.7-11.6-16.4-15c-14.6-4.7-17.8-9-17.8-17
			c0-9.9,5.7-16.3,16.2-16.3c9.7,0,10.7,3,13.9,3c2.1,0,3.2-0.4,3.4-1.5h1.8v15.2h-1.5c-1.6-8.3-4.3-15.2-16.8-15.2
			c-7.9,0-13.1,4.1-12.8,12.1c0.3,6.3,3.6,7.4,16.8,11.7C36.1,64.7,42,66.9,42,78.2c0,11.4-7,19.1-20.5,19.1
			c-9.4,0-14.3-3.4-17.8-3.4c-2.3,0-2.3,0.9-2.3,2H0V77.9z"/>
		<path class="st1" d="M56.1,61.5h-6v-1.4h13.3v7h0.2c1.6-4.1,5.7-8.9,12-8.9c10.4,0,17.3,10.8,17.3,19.3c0,10.2-7,19.3-17.9,19.3
			c-6,0-10.1-4.4-11.4-7.4h-0.2v28.5h6.7v1.4h-20v-1.4h6C56.1,117.9,56.1,61.5,56.1,61.5z M63.4,83.3c0,6.8,5.2,12.2,11.6,12.2
			c8.5,0,9.6-5,9.6-17.9c0-11.9-1.3-17.9-9-17.9c-7.2,0-12.2,7.1-12.2,13.4V83.3z"/>
		<path class="st1" d="M146.5,61.5h-5c-9.1,0-13.2,0.9-13.2,8.1H127l1.4-9.5h27l-21.6,34.3h7.7c8.4,0,11.5-0.6,13.4-9.7h1.2l-2.1,11
			h-29.3L146.5,61.5z"/>
		<path class="st1" d="M181.9,61.5h-5c-9.1,0-13.2,0.9-13.2,8.1h-1.2l1.4-9.5h27l-21.6,34.3h7.7c8.4,0,11.6-0.4,13.4-9.7h1.2
			l-2.1,11h-29.3L181.9,61.5z"/>
		<polygon class="st1" points="202.1,61.5 195.4,61.5 195.4,60.2 209.1,60.2 209.1,94.4 215.8,94.4 215.8,95.9 195.4,95.9 
			195.4,94.4 202.1,94.4 		"/>
		<path class="st2" d="M206,36.3c2.4,0,4.4,2,4.4,4.4s-2,4.4-4.4,4.4c-2.4,0-4.4-2-4.4-4.4C201.6,38.3,203.6,36.3,206,36.3z"/>
		<polygon class="st1" points="106,61.5 99.3,61.5 99.3,60.2 119.7,60.2 119.7,61.5 113,61.5 113,95.9 99.3,95.9 99.3,94.4 
			106,94.4 		"/>
		<path class="st3" d="M105.5,114.9c0-2.4,2-4.4,4.4-4.4s4.4,2,4.4,4.4c0,2.4-2,4.4-4.4,4.4C107.5,119.3,105.5,117.3,105.5,114.9z"
			/>
		<path class="st1" d="M255.2,83.9c-0.3,6.5-6.1,13-14.9,13c-11.4,0-18.8-7.8-18.8-17.4c0-11.1,8.9-20.3,19.4-20.3
			c6.2,0,12.8,2.6,12.8,7.9c0,2.6-2.1,4.3-4.3,4.3c-2.8,0-4.3-1.9-4.3-3.7c0-3.4,2.2-3.2,2.2-4.5c0-1.9-4.1-2.6-6.7-2.6
			c-8.6,0-10.7,5.4-10.7,13.4v7.4c0,7.4,0.3,14.2,10.3,14.2c9,0,12.9-6.5,13.5-11.6L255.2,83.9L255.2,83.9z"/>
		<path class="st1" d="M280.8,59.2c11.6,0,19.2,9.1,19.2,18.8s-7.5,18.8-19.2,18.8c-11.6,0-19.2-9.1-19.2-18.8S269,59.2,280.8,59.2z
			 M291.2,74.7c0-7.4-0.3-14.2-10.5-14.2c-10.1,0-10.5,6.8-10.5,14.2v6.6c0,7.4,0.3,14.2,10.5,14.2c10.1,0,10.5-6.8,10.5-14.2V74.7z
			"/>
	</g>
</g>
</svg>
