<?xml version="1.0" encoding="utf-8"?>
<!-- Generator: Adobe Illustrator 25.0.1, SVG Export Plug-In . SVG Version: 6.00 Build 0)  -->
<svg version="1.1" id="Livello_1" xmlns="http://www.w3.org/2000/svg" xmlns:xlink="http://www.w3.org/1999/xlink" x="0px" y="0px"
	 viewBox="0 0 300 150" style="enable-background:new 0 0 300 150;" xml:space="preserve">
<style type="text/css">
	.st0{fill:#DB0032;}
</style>
<g>
	<polygon class="st0" points="121.1,27.1 119.1,22.2 125.5,25.3 125.9,25.2 123.4,18.4 122.6,18.6 124.1,22.5 119.1,20 117.6,20.6 
		120.4,27.4 	"/>
	<polygon class="st0" points="112.8,31.3 110.2,26.7 116.9,29 117.4,28.8 113.9,22.4 113.2,22.7 115.1,26.4 109.9,24.6 108.5,25.4 
		112.1,31.7 	"/>
	<path class="st0" d="M233.7,95.7c-0.4,6.8,4.7,11.6,6.4,12.6C238.3,106.5,234.2,101.2,233.7,95.7z"/>
	<path class="st0" d="M132,23.4c2.3-0.6,3.1-2.5,2.6-4.5s-2.2-3.3-4.5-2.6c-2.4,0.6-3.1,2.6-2.6,4.6C128,22.9,129.7,24,132,23.4z
		 M130.2,16.9c1.1-0.3,2.1,0.6,2.6,2.5c0.5,1.8,0.1,3.1-1,3.4s-2.1-0.6-2.6-2.4C128.7,18.4,129.1,17.1,130.2,16.9z"/>
	<path class="st0" d="M105.3,36.7l-0.5-1.7l2.5-1.9l1.6,0.9l1.5-1.1l-6.9-3.9l-1,0.8l2.1,7.6L105.3,36.7z M103.6,31l2.9,1.6l-2,1.5
		L103.6,31z"/>
	<path class="st0" d="M217.4,100.2c1.1,0,2-0.9,2-2c0-1.1-0.9-2-2-2c-1.1,0-2,0.9-2,2C215.4,99.3,216.3,100.2,217.4,100.2z
		 M216.4,96.8h1.1c0.7,0,1.2,0.2,1.2,0.9c0,0.5-0.3,0.7-0.8,0.7l0.7,1.2H218l-0.6-1.2H217v1.2h-0.6L216.4,96.8L216.4,96.8z"/>
	<path class="st0" d="M218,97.5c0-0.2-0.2-0.3-0.5-0.3H217v0.7h0.5C217.9,97.9,218,97.7,218,97.5z"/>
	<path class="st0" d="M244.4,111.7c-2.2-3.5-2.8-6.5-2.8-9.1C240.4,106.8,242.9,110.4,244.4,111.7z"/>
	<path class="st0" d="M65.9,79.9c-0.1-1.4-1-3.3-2.3-4.2c4.5,6.1-5.1,12.2-8,19.1c5.7-7.9,11.3-10.3,15.3-17.9
		c2-3.9,1.6-9.7-2.8-10.4c0.4-0.9,3-2.3,5-1.4c-4-2.3-9.2,0.4-9.1,5.2C67.6,66.6,75.7,72.3,65.9,79.9z"/>
	<path class="st0" d="M54.8,97.5c0.2,0,0.6,0,0.6,0s2.1-4.3,6.5-8.4C57.1,92.5,54.9,97.4,54.8,97.5z"/>
	<path class="st0" d="M242.4,116.6c0-1.5-2.6-6.7-7.4-7.8C239,110.6,241.2,114,242.4,116.6z"/>
	<path class="st0" d="M70.1,80.3c2.8-3.1,6.2-9,2.3-13.2C75.4,72,71.4,78.3,70.1,80.3z"/>
	<path class="st0" d="M133.7,43.8c0.5,0.6,1.5,1.8,2.3,2.4c0.2-0.1,0.4-0.2,0.7-0.2c-0.5-0.4-1.3-1.3-1.7-1.6c0.3-0.8,0-2.2-1.6-2.6
		c0.8,0.3,0.7,1.2,0.5,1.6c-0.2-0.1-0.6-0.2-1.1,0C133.4,43.3,133.7,43.7,133.7,43.8z"/>
	<path class="st0" d="M239.7,110.1c2.9,2.9,5.3,8.4,5.4,16.5C246.1,120.3,244.2,112.8,239.7,110.1z"/>
	<path class="st0" d="M231.4,82.9c-3.1-3.4-5.1-6.2-6.3-9.1C225.8,76.8,227.8,79.8,231.4,82.9z"/>
	<path class="st0" d="M189.9,34c1.4,0.9,2.9,0.6,3.7-0.6c0.8-1.2,0.4-2.5-0.9-3.3c-0.1-0.1-0.4-0.2-0.4-0.2l3-1.1l-1.3-0.9
		c0,0-0.8,0.3-1.1,0.4c-1.1,0.4-3.3,1-4.1,2.3C188.2,31.8,188.6,33.2,189.9,34z M190.1,31.4c0.4-0.7,1.3-1.2,2-0.8l0,0
		c0.7,0.4,0.7,1.3,0.2,2c-0.4,0.7-1.3,1.2-1.9,0.7l0,0C189.7,32.9,189.7,32.1,190.1,31.4z"/>
	<path class="st0" d="M129.4,33.6c-0.2,0.1-0.3,0.3-0.2,0.6c1,4.4,2.8,6.9,3.2,7.5c0.4,0,0.4,0,0.7,0c-1-1.5-2-3.4-3.3-7.3
		c1-0.5,1.3-1.6,0.3-2.3C130.2,32.6,130,33.1,129.4,33.6z"/>
	<path class="st0" d="M230,80.3c-1.4-2.1-5.4-8.3-2.3-13.2C223.7,71.3,227.2,77.2,230,80.3z"/>
	<path class="st0" d="M236.1,70.3c0.1-4.8-5.2-7.5-9.1-5.2c2-0.9,4.6,0.5,5,1.4c-4.4,0.7-4.8,6.5-2.8,10.4c3.9,7.6,9.5,10,15.3,17.9
		c-2.9-6.9-12.5-13-8-19.1c-1.3,1-2.2,2.8-2.3,4.2C224.3,72.3,232.5,66.6,236.1,70.3z"/>
	<path class="st0" d="M244.6,97.6c0,0,0.3,0,0.6,0c0-0.1-2.3-5-7-8.4C242.5,93.2,244.6,97.6,244.6,97.6z"/>
	<path class="st0" d="M227.6,128.8c1.3,0.7,2.7,3.2,2.1,7.2C230.7,133.7,230.2,129.9,227.6,128.8z"/>
	<path class="st0" d="M182.2,29.1c1.5,0.8,3,0.4,3.7-1c0.7-1.3,0.2-2.5-1.2-3.2c-0.1-0.1-0.4-0.1-0.4-0.1l2.9-1.4l-1.4-0.8
		c0,0-0.8,0.4-1,0.5c-1,0.5-3.2,1.3-3.9,2.6C180.3,27.1,180.8,28.4,182.2,29.1z M182.2,26.5c0.4-0.7,1.1-1.3,1.9-1l0,0
		c0.8,0.4,0.8,1.2,0.4,2c-0.4,0.7-1.1,1.3-1.8,0.9l0,0C181.9,28.1,181.8,27.3,182.2,26.5z"/>
	<path class="st0" d="M137.3,38.3c0.2,1.5,1.1,6.2,4.4,8.5c3.2,2.3,9,2.1,11.7-2.9c-2.6,3.1-6.6,4.5-9.6,3.1c-1.5-0.7-2.4-1.6-2.6-3
		c-0.3-2.3,2.1-2.9,2.8-1.5c-0.2,0.5-0.6,0.8-0.9,1c3.5,0.1,3.6-3.3,1.9-3.7c1.4-1,1.1-2,2.7-2.8c-2.2-1.4-4-0.4-4.9,0.7
		c0.7-1.5-0.2-3.4-1.8-3.1c1.3,1-0.6,2.7,0,5.5v0c-0.7,1.2-0.8,2.6-0.6,3.9c-1.2-1.7-2-3.9-2.3-5.8c1.3-0.2,1.8-1.5,1.9-2.4
		c-0.1,0-0.2,0.1-0.4,0.1c0.2-1-0.1-1.6-0.1-2.3c-0.3,0.6,0,1.6-0.3,2.5c-0.6,0.3-1.2,0.6-1.6,1.2c-0.5-0.4-0.9-0.5-1.2-0.8
		c0.1-1.5,1-2,1-2c0.1,0,1,0.5,1.3,1.5c0-0.4,0-0.8-0.2-1.1c0,0,0.2-0.9,0.8-1.3c-0.5,0.1-1,0.7-1.1,0.9c-0.2-0.2-0.5-0.4-0.8-0.6
		c-0.4,0.3-0.7,0.7-0.9,1c-0.2-0.3-0.3-0.4-0.8-0.8c0.4,0,0.7,0.1,0.8,0.1c0-0.3,0.4-1.3,1-1.6c0.4,0.2,0.6,0.4,1,1
		c0-0.2,0-0.4,0-0.5c0-0.2,0.2-0.3,0.3-0.4c0.1,0,0.2,0.2,0.4,0.5c0-0.4-0.2-0.8-0.2-1.1c-0.2,0.1-0.5,0.3-0.6,0.5
		c-0.3-0.9-0.8-1.3-0.8-1.3s-0.7,0.6-0.8,1.4c0,0-0.2-0.3-0.5-0.5c0.1,0.5-0.1,0.6,0,1.6c-0.2,0-0.5,0-0.6,0
		c0.2,0.4-0.3,1.3,0.4,2.5c-0.2,0-0.4-0.1-0.6,0C135.4,37,135.9,38.3,137.3,38.3z M146.7,37c-0.6,0.1-0.9,1.9-3.1,2.8
		c0.6,0.1,1.1,0.8,0.7,2c-0.3-0.8-1.8-1.6-3.2-0.2C141.5,39.4,143.9,35.9,146.7,37z"/>
	<polygon class="st0" points="147,19.6 143.8,24.6 148.7,21.4 150,35.4 151.4,21.4 156.3,24.6 153,19.6 161.3,18.3 153,17 156.3,12 
		151.4,15.2 150,1.3 148.7,15.2 143.8,12 147,17 138.7,18.3 	"/>
	<path class="st0" d="M234,127.7c0.1-1.5-2.1-5.9,0.4-8.5C230.7,121.4,233.7,126.2,234,127.7z"/>
	<path class="st0" d="M173.5,25.3l0.2,0.1c1.7,0.7,3.1,0.1,3.7-1.3c0.4-1.1-0.1-2.1-1.2-2.7l2.6-1.7l0-0.3l-4.2-1.5l-0.6,1.2
		l2.9,1.1l-2.4,1.6c0.7,0.2,1.8,1,1.4,2.1c-0.3,0.9-1.2,1.1-1.9,0.8c-0.7-0.3-1-0.8-1-1.6l-1,0.2C172,24.1,172.6,24.9,173.5,25.3z"
		/>
	<polygon class="st0" points="169,16 167.4,16.5 165.9,23 167.4,23.4 	"/>
	<path class="st0" d="M75,73.8c-1.2,2.9-3.2,5.7-6.3,9.1C72.2,79.8,74.2,76.8,75,73.8z"/>
	<path class="st0" d="M66.4,95.7c-0.5,5.5-4.6,10.8-6.4,12.6C61.6,107.2,66.8,102.5,66.4,95.7z"/>
	<path class="st0" d="M54.9,126.6c0-8,2.6-13.6,5.4-16.5C55.8,112.8,53.9,120.3,54.9,126.6z"/>
	<path class="st0" d="M65,108.8c-4.8,1.1-7.4,6.2-7.4,7.8C58.8,114,61.1,110.6,65,108.8z"/>
	<path class="st0" d="M72.4,128.8c-2.6,1.1-3.1,4.9-2.1,7.2C69.7,132,71.1,129.4,72.4,128.8z"/>
	<path class="st0" d="M66,127.7c0.3-1.5,3.3-6.4-0.4-8.5C68.1,121.8,65.9,126.3,66,127.7z"/>
	<path class="st0" d="M123.8,108.8c0.9-0.5,1.5-1.4,1.5-2.8c0-1.2-0.3-2-1.2-2.6c-1-0.8-2.1-0.7-4.7-0.7v6.6
		C121.1,109.3,122.7,109.4,123.8,108.8z"/>
	<path class="st0" d="M97.4,140.5c-0.2,0-1.9,0-2.5,0.3c0.6,0.3,1.9,0.4,2.5,0.4c0,0,105.1,0,105.2,0c0.6,0,1.9-0.1,2.5-0.4
		c-0.6-0.3-2.3-0.3-2.5-0.3H97.4z"/>
	<path class="st0" d="M77.8,65.6c0.3,2.3-0.3,4.9-1.3,6.9C78,70.6,78.6,67.3,77.8,65.6z"/>
	<path class="st0" d="M95.2,104.7C95.2,104.6,95.2,104.6,95.2,104.7c-0.3,1.2-0.9,3.2-1.7,5.1l-0.9,2.5h5.4l-1-2.4
		C96.2,108,95.6,106.2,95.2,104.7z"/>
	<path class="st0" d="M58.4,102.6c0,2.6-0.7,5.6-2.8,9.1C57.1,110.4,59.6,106.8,58.4,102.6z"/>
	<path class="st0" d="M247.8,93.6c-5.7-11.2-9.3-12.3-6.8-19.2c-3.2-0.5-4.5,2.3-4.3,4.2c0.3,4.4,7.1,7.7,11.9,20.1
		c-4-2-6.5,2.5-3.7,8.5c0.1,0.2,0.2,0.5,0.3,0.7c0.7,1.4,1.9,3.6,2.8,6.9c0-0.5-0.7-8.4-2-11.6c-0.4,0.4-0.7,1.1-1,1.7
		c0-2.6,0.7-5,3.9-5.3c0.2,0.5,0.3,1,0.5,1.5c2.1,6.3,3,14.4,1.1,22.4c0-0.8,0-1.5-0.2-2.4c0.2-2.2,1.2-10.2-1.6-17.1
		c1.3,6.4,1.5,10.7,0.9,14.3c-0.1-0.3-0.3-0.9-0.3-1.2c0.1-1.5,0.4-6.7-1.7-13.1c1.3,6.4,1.3,11.2,1.2,12.5c0,0.4,0,0.7,0.1,1.3
		c1.1,5,0.6,9.2-0.8,12.7c-0.1,0.2-0.2,0.4-0.3,0.6c0.5-1.9,1-4.6,0.5-7.9c0,4.5-1.9,11.7-4.1,13.3c3.1-6,6.8-17.6-3-27.4
		c9.8,11.4,4.1,31-10.5,36.5c0.4-0.3,0.8-0.7,1.2-1.1c1-0.4,2.3-1.2,3.5-2.3c-0.9,0.7-2,1.1-2.7,1.3c0.1-0.2,0.3-0.4,0.4-0.7
		c1-0.6,3.2-2,3.9-3.4c-1,1.1-2.6,2-3.3,2.4c0.2-0.3,0.3-0.7,0.5-1.2c0.8-0.5,2.7-1.7,3.8-3.3c-0.7,0.9-2.7,2.2-3.6,2.6
		c0.1-0.3,0.1-0.6,0.2-0.9c0.3-0.1,1.3-0.8,1.8-1.6c-0.5,0.5-1.4,1-1.7,1.1c0.1-0.5,0.1-0.9,0.2-1.5c-1.5,6.5-5.4,9.6-9.6,9.8
		c1.2-0.4,2.5-1.1,3.5-2c4.4-4,7.3-12.5,1.3-21.7c4.4,9.1,2.5,18.2-3.7,21.6c-2.7,1.5-6.5,1.9-10.5,0.6c-1.1-0.4-2.1-0.8-2.9-1.3
		c0-0.1,0-0.3,0.1-0.4c2.9,1.6,11.8,3.9,15.6-2.4c-5.9,6.1-13.6,2.6-15.5,1.6c0-0.2,0-0.4,0-0.6c1.6,1,7.4,3.3,11.6,0.5
		c-5,2-9.9-0.1-11.6-1.3c0-0.3,0-0.4-0.1-0.8c0.5,0.4,2.2,1.6,5.2,1.7c-3.7-0.8-5.2-2.4-5.4-2.7c0-0.2-0.1-0.4-0.2-0.6
		c0.4,8.8-6.5,7.5-8,4.6h0.4c1.1,1.5,4.6,2.3,5.8-0.2c-1.5,1.7-4.3,1.3-5.2,0.2h0.1c0.2,0,0.4,0,0.6,0c3.1,1.3,5-1,4.5-4
		c-0.2,3.1-1.8,4-3.7,3.7c0.1-0.1,0.3-0.2,0.5-0.3c2.5-0.4,2.6-3.1,2.5-4.7c-0.1,0.8-0.3,2.3-1.4,3.1c0.1-0.3,0.1-0.6,0.1-0.9
		c0.8-1.7,0.4-3.5,1.3-5c-1.1,1.3-1.3,2.6-1.6,3.8c-0.1-3.8,2-6.6,4.9-7.4c2-0.5,4.5-0.3,6.4,1.8c2,2.5,0.3,5.2-0.3,5.5
		c-0.1-1.3-1.4-2.7-3.2-3c0-0.1,0-0.3,0-0.4c1,0.1,2.4,0.6,3.1,2.2c-0.2-1.7-1.9-2.5-2.9-2.8c0-0.1,0.1-0.2,0.1-0.3
		c0.6,0.1,1.5,0.5,2.5,1.3c-0.5-1-1.5-1.5-2.2-1.7c0.1-0.1,0.2-0.2,0.4-0.3c0.3,0,1,0.4,1.4,0.7c-0.2-0.4-0.7-0.9-1-1
		c0.3-0.1,0.5-0.1,0.9-0.1c-3.9-2.2-6.5,3.1-3.2,5.9c1.7,1.4,5.2,2.3,8.4,0.9c6.2-2.8,5.7-8.3,4.1-10.7c-1.5-2.2-3.6-2.6-4.9-2.1
		c2.5-1.2,5.6-0.4,7,2.5c0.9,1.9,1.3,5.8-0.6,9.7c2.5-3.6,2-8,1.1-10.1c-1.6-3.7-5.7-4.5-8.3-1.7c0-1.9,1-2.9,2-3.3
		c1.7-0.9,3.9,0,4.7,1.1c-0.7-1.5-1.7-1.9-2.5-2.2c-1.5-3.4,0.2-6.3-0.3-8.5c2,0.5,5.2,2.7,5.9,4.5l0,0c0.8-1.7,4.4-2.9,6.8-0.6l0,0
		c-1.4,0.4-3,1.9-3.2,3.8c-0.2-2,0.7-3.5,2.1-3.9c-3-0.4-3.1,2.3-3,3.9c0.1,2,1.4,6.3,0.5,12.1c2.1-1.4,4.7-3.5,6-7.7
		c0.2,3.9-1.2,10.4-5.4,14.4c5.7-4.6,7.5-13.2,6.8-19.4c-0.7-5.9-4.3-10.5-8.9-12.6c-1.7-0.8-3.7-1.2-5.4-1.1c1.4-2.7,5-3.4,8.3-1.8
		c-1-0.8-7.1-6.4-3-14c1.1,3.6,5.7,4.1,6.7,11.8c0-3.6,0.8-6,3.3-7.1c-4.2-9.3-16.9-15-22.9-26.2c-3.6-6.7-3.5-13.1-3.7-16.5
		c-0.2-3.3-1.3-7.9-4.8-8.9c5.5-1.4,9.8,4.5,10.2,14.1c-0.2,0.1-0.4,0.2-0.7,0.4c0-1.5-0.5-6.2-2.8-9.4c1.6,3.4,2.1,8.5,2.2,10
		c-0.1,0.2-0.3,0.4-0.4,0.6c-0.1-1.8-0.6-5.3-1.9-8.4c1.1,3.4,1.3,7.9,1.4,9.7c-0.2,1.1-0.2,2.7,0.7,4.5c-1.3-6.8,3.7-7.2,4.7-7
		c-3.1,3.2-2.7,9.5-1.1,12.2c-0.7-2.2-0.7-5.1,1.3-7.1c-0.2-1.3-0.4-3.3,1-5.9c0,0-1.3-0.2-2.8,0c-1.3-5.8-0.1-10,2.1-12
		c1.8-1.7,4.4-1.6,5,0c0.3,0.8,0,1.7-0.7,2.1c-0.7,0.3-2,0.1-2.4-1.5c0,2.6,3.3,5.3,6.1,3.5c-0.2,0.8-1.1,2.4-2.8,2.7
		c-0.6-0.1-1.7-0.5-2.2-2.3c0,1,0.2,1.7,0.5,2.2c-0.3-0.1-0.6-0.2-0.8-0.4c-0.6-0.7-1-1.8-0.8-2.9c-0.3,0.6-0.4,1.2-0.3,1.8
		c-0.8-1.1-1-2.7,0-4.4c-2.2,1.9-1.7,4.7-0.5,6.1c1.4,1.8,3.9,2,5.7,0.9c3.4-2.1,4.4-7.7,0.4-10.9c-1.7-1.3-4.8-2.4-8.1-1.3
		c-1.3,0.4-2.7,1.2-3.7,2.2c2.5-1.8,5.3-1.5,6.5-1.1c-2.4,1.3-5.1,4.4-5.2,7.9c-0.1-0.5-0.3-1.1-0.6-1.6c0.1-1.1,0.6-3.1,2.3-4.9
		c-1.8,0.9-2.6,2.9-2.8,3.9c-0.1-0.2-0.3-0.5-0.5-0.7c0.2-0.9,0.8-2.2,1.8-2.9c-1.3,0.5-1.9,1.7-2.2,2.5c0,0,0,0-0.1-0.1
		c-0.1-0.9,0-1.7,0.4-2.3c-0.5,0.6-0.8,1.2-1,1.6c-2.4-2.5-5.8-3.9-9.4-1.6h-13.4c-0.5-0.6-1.1-1.2-1.9-1.7c1.9,1.4,1.6,8.4-5,8.7
		c4.8,1.1,7.4-3.3,6.6-6.5c1.3,3.1-0.1,6.6-2.5,7.6c-2.6,1-5.8,0.1-6.3-3.2c2.8,1.8,7.6-1.3,6.5-5.2c-1.2-3.9-6.8-1.2-11.9,1.9l0,0
		c0.2-0.4,0.3-0.8,0.3-1.1c0.2-0.4,0.7-1.2,0.5-1.3c-1.7,2.7-4.3,2.6-5.3,3.5c0-0.4,0.1-1,0-1.4c0.3-0.5,0.6-1,0.4-1.3
		c-1.1,2.1-2.6,2.7-3.4,3.7c0-0.1,0-0.4,0-0.6c0-0.1,0.4-0.6,0.6-1.3c0.1-0.2,0.1-0.3,0.1-0.5c-1.5,2.7-3.3,3.5-4,4.2
		c0-0.1,0-0.3,0-0.5c-0.7,0.5-1.6,0.8-2.4,0.8c0,2.2-1.2,4.9-5.9,4.7c-0.7,0.6-1.9,1.3-3.5,1.9c-0.4,0.1-0.6,0.2-1,0.3
		c-2.1,0.6-3.5,0.7-5.8,0.8l0,0c0,0-0.1,0-0.2,0c4.6-0.5,8.5-2.1,10.4-3.5c3.9,0.2,5.6-2.1,5.4-4.6c2.9-0.2,5.5-1.9,4.7-5.2
		c3.6-2.3,14,0,13.4-5.4c-0.3-2.5-3.9-6.1-10.9-9.2c-5.9-2.7-13.3-4.6-19-3.7c-4,0.7-4.2,3.2-2.6,5.6c1.4,2.3,3.7,3.4,4.2,6.1
		c-1.6,0.8-2.3,2.4-2.2,3.9c-1.8,0.7-2.7,1.9-2.8,3.9c-4.8,3.2-11,1.9-13.3,0.7c0-0.9-0.6-2.6-2.9-2.4c0.8,0,1.2,1.2,1.3,1.9
		c-0.5-0.1-1-0.1-1.3,0.1c0.7,0,1.5,0.6,1.5,0.6c6.1,3.6,13.1,1.4,15.2,0.2c0,1.3,0.3,2.4,0.8,3.4c-3.6,2-9.9,2.8-17,0.6
		c5.4,2.5,11.8,3.5,17.7,0.8c0.2,0.4,0.5,0.7,0.8,1c-4.9,2.3-15.5,2.7-21.6-2.8c-0.1-1.1,0.2-2.7,1.7-3.5c-1.5,0.5-2.2,1.8-2.4,2.6
		c-0.5-0.3-1.3-2.3,1.5-4.3c-1.1,0.4-1.9,1.4-2.4,2c-0.4-0.4-1.7-1.7-2.2-2.3c0.1,0.8,1.3,2.5,1.8,2.9l-0.2,0.3
		c-0.8-1-1.9-2.6-2.4-3.6c0-0.9,0.7-2.1,1.8-2.3c-1.2,0-2.3,1.3-2.1,2.2c-0.6-0.7-0.6-3.1,2-3.9c-1.2,0.2-2.2,0.8-2.9,1.5
		c-0.8-2-1.3-3.5-1.6-5c0.3-0.4,0.7-0.7,1.4-0.8c-0.2-0.7-0.8-2.3-0.7-3.6c-0.2,0-0.4,0-0.6,0c-0.4-1.6,1.3-2,1.8-2
		c-2.2-0.7-4.4,0.6-4.1,1.8c0.1,0.5,0.5,0.8,1,1c0.3,4.9,2.2,9.7,2.2,9.7c-0.6,1.4,0.4,2.3,1.1,2.6c0.7,1.3,1.2,2.2,1.8,3
		c-0.7-0.3-1.5-0.9-2.2-2.1c-0.1,0.3-0.1,0.6-0.2,0.9c-0.7-1-3.1-2.5-3.7-5.9c-0.3,0.7,0.5,2.4,0.6,2.7c0.1,0.3,0,0.8,0,0.9
		c-0.6-0.9-2.5-1.7-3.6-6.2c0,0.1,0,0.2,0,0.5c0.1,0.7,0.4,1.8,0.6,2.3c0,0.2,0.2,0.7,0.2,1c0,0.3-0.1,0.7,0,1
		c-1.9-1.5-3.6-1-5.5-5.1c0,0.1,0,0.4,0.1,0.6c0.2,0.6,0.6,1.3,0.9,1.8c0.1,1,0.6,2.6,1.4,4c-1.7-0.4-2.6-1.4-4-3.1
		c-0.1,0.1,0.2,0.5,0.6,1c1,1.2,1.6,1.6,1.7,1.8c0.5,1.1,1.3,2.5,2.4,3.6c-5.7-3.6-13.8-8.8-15.3-4c-1.2,3.8,3.6,7,6.5,5.2
		c-0.5,3.2-3.7,4.2-6.3,3.2c-2.4-0.9-3.7-4.4-2.5-7.6c-0.8,3.2,1.8,7.6,6.6,6.5c-6.5-0.3-6.9-7.2-5-8.7c-0.8,0.5-1.4,1.1-1.9,1.7
		H89.4c-3.6-1.9-7-0.6-9.4,1.9c-0.2-0.4-0.5-1-1-1.6c0.4,0.6,0.5,1.4,0.4,2.3c0,0,0,0-0.1,0.1c-0.3-0.7-0.9-1.9-2.2-2.5
		c1,0.7,1.5,2,1.8,2.9c-0.2,0.2-0.3,0.5-0.5,0.7c-0.3-0.9-1.1-3-2.8-3.9c1.7,1.7,2.2,3.8,2.3,4.9c-0.3,0.6-0.5,1.2-0.6,1.6
		c-0.1-3.6-2.8-6.7-5.2-7.9c1.1-0.4,3.9-0.7,6.5,1.1c-1-1.1-2.4-1.8-3.7-2.2c-3.3-1-6.4,0-8.1,1.3c-4,3.2-3,8.8,0.4,10.9
		c1.8,1.2,4.2,0.9,5.7-0.9c1.2-1.4,1.7-4.2-0.5-6.1c0.9,1.7,0.7,3.3,0,4.4c0-0.5,0-1.2-0.3-1.8c0.2,1.1-0.2,2.2-0.8,2.9
		c-0.2,0.1-0.5,0.3-0.8,0.4c0.3-0.5,0.6-1.3,0.5-2.2c-0.5,1.7-1.5,2.2-2.2,2.3c-1.8-0.4-2.6-2-2.8-2.7c2.8,1.9,6.2-0.9,6.1-3.5
		c-0.4,1.6-1.7,1.8-2.4,1.5c-0.7-0.4-1-1.3-0.7-2.1c0.6-1.6,3.2-1.7,5,0c2.2,2,3.4,6.2,2.1,12c-1.5-0.2-2.8,0-2.8,0
		c1.4,2.6,1.3,4.6,1,5.9c2,2.1,2,5,1.3,7.1c1.6-2.7,2-9.1-1.1-12.2c1.1-0.2,6.1,0.2,4.7,7c0.9-1.8,0.9-3.4,0.7-4.5
		c0.1-1.8,0.4-6.4,1.4-9.7c-1.3,3-1.7,6.5-1.9,8.4c-0.1-0.2-0.2-0.4-0.4-0.6c0.1-1.5,0.5-6.6,2.2-10c-2.4,3.2-2.7,7.9-2.8,9.4
		c-0.2-0.1-0.4-0.3-0.7-0.4c0.3-9.5,4.7-15.5,10.2-14.1c-3.4,1-4.6,5.6-4.8,8.9c-0.2,3.4,0,9.7-3.7,16.5c-6,11.2-18.7,17-22.9,26.2
		c2.5,1.1,3.3,3.5,3.3,7.1c1.1-7.6,5.7-8.1,6.7-11.8c4.1,7.6-2.1,13.1-3,14c3.4-1.6,6.9-0.9,8.3,1.8c-1.7-0.1-3.7,0.3-5.4,1.1
		c-4.6,2.2-8.1,6.7-8.9,12.6c-0.7,6.2,1.1,14.8,6.8,19.4c-4.2-4.1-5.6-10.5-5.4-14.4c1.4,4.3,4,6.3,6,7.7c-1-5.8,0.3-10.1,0.5-12.1
		c0.1-1.6,0.1-4.2-3-3.9c1.2,0.4,2.3,1.7,2.1,3.9c-0.2-1.9-1.7-3.4-3.2-3.8c2.5-2.3,6-1.1,6.8,0.6c0.7-1.8,3.9-4,5.9-4.5
		c-0.6,2.3,1.2,5.2-0.3,8.5c-0.8,0.2-1.8,0.7-2.5,2.2c0.8-1.1,3-1.9,4.7-1.1c1,0.5,1.9,1.5,2,3.3c-2.6-2.8-6.7-1.9-8.3,1.7
		c-0.9,2.1-1.3,6.5,1.1,10.1c-1.8-3.9-1.5-7.8-0.6-9.7c1.4-2.9,4.5-3.7,7-2.5c-1.3-0.5-3.4-0.1-4.9,2.1c-1.6,2.5-2.1,7.9,4.1,10.7
		c3.1,1.4,6.6,0.6,8.4-0.9c3.3-2.8,0.7-8-3.2-5.9c0.4,0,0.6,0,0.9,0.1c-0.3,0.1-0.7,0.6-1,1c0.4-0.3,1.1-0.7,1.4-0.7
		c0.2,0.1,0.2,0.2,0.4,0.3c-0.7,0.2-1.7,0.7-2.2,1.7c0.9-0.9,1.9-1.2,2.5-1.3c0,0.1,0.1,0.2,0.1,0.3c-1.1,0.3-2.7,1.1-2.9,2.8
		c0.8-1.5,2.2-2,3.1-2.2c0,0.1,0,0.3,0,0.4c-1.7,0.2-3,1.7-3.2,3c-0.6-0.2-2.3-3-0.3-5.5c1.9-2.1,4.4-2.4,6.4-1.8
		c2.8,0.8,5.1,3.6,4.9,7.4c-0.3-1.2-0.5-2.5-1.6-3.8c0.9,1.5,0.5,3.3,1.3,5c0,0.3,0,0.6,0.1,0.9c-1.1-0.8-1.3-2.4-1.4-3.1
		c-0.1,1.6,0,4.2,2.5,4.7c0.1,0.1,0.3,0.2,0.5,0.3c-1.9,0.3-3.4-0.6-3.7-3.7c-0.5,3,1.4,5.4,4.5,4c0.2,0,0.4,0,0.6,0h0.1
		c-1,1.1-3.8,1.5-5.2-0.2c1.3,2.5,4.7,1.8,5.8,0.2h0.4c-1.4,2.9-8.4,4.2-8-4.6c0,0.2-0.1,0.4-0.2,0.6c-0.2,0.3-1.8,1.9-5.4,2.7
		c2.9-0.1,4.6-1.3,5.2-1.7c-0.1,0.3,0,0.5-0.1,0.8c-1.7,1.2-6.6,3.3-11.6,1.3c4.2,2.7,10,0.4,11.6-0.5c0,0.2,0,0.4,0,0.6
		c-1.9,1-9.6,4.5-15.5-1.6c3.9,6.3,12.7,4,15.6,2.4c0,0.1,0,0.3,0.1,0.4c-0.9,0.4-1.8,0.9-2.9,1.3c-4,1.3-7.8,0.9-10.5-0.6
		c-6.2-3.4-8-12.6-3.7-21.6c-5.9,9.2-3,17.7,1.3,21.7c1,0.9,2.3,1.5,3.5,2c-4.1-0.2-8-3.3-9.6-9.8c0,0.6,0.1,1,0.2,1.5
		c-0.3-0.1-1.2-0.6-1.7-1.1c0.6,0.9,1.5,1.5,1.8,1.6c0,0.3,0.1,0.6,0.2,0.9c-0.9-0.5-2.9-1.7-3.6-2.6c1.2,1.7,3,2.9,3.8,3.3
		c0.1,0.4,0.3,0.8,0.5,1.2c-0.8-0.4-2.3-1.3-3.3-2.4c0.7,1.4,2.8,2.8,3.9,3.4c0.1,0.2,0.3,0.5,0.4,0.7c-0.7-0.2-1.7-0.7-2.7-1.3
		c1.2,1.2,2.5,1.9,3.5,2.3c0.4,0.4,0.8,0.8,1.2,1.1c-14.4-5.4-20.1-25-10.3-36.4c-9.8,9.8-6.1,21.4-3,27.4
		c-2.2-1.6-4.2-8.8-4.1-13.3c-0.5,3.3,0,6.1,0.5,7.9c-0.1-0.2-0.2-0.4-0.3-0.6c-1.4-3.5-1.9-7.8-0.8-12.7c0.1-0.6,0.1-0.9,0.1-1.3
		c0-1.3-0.1-6.2,1.2-12.5c-2.1,6.4-1.9,11.6-1.7,13.1c-0.1,0.3-0.2,0.9-0.3,1.2c-0.6-3.7-0.5-7.9,0.9-14.3c-2.7,7-1.9,14.9-1.6,17.1
		c-0.1,0.8-0.2,1.6-0.2,2.4c-2-8-1-16.1,1.1-22.4c0.2-0.5,0.3-1,0.5-1.5c3.1,0.4,3.9,2.8,3.9,5.3c-0.2-0.6-0.5-1.3-1-1.7
		c-1.3,3.1-2,11.1-2,11.6c1-3.4,2.1-5.5,2.8-6.9c0.1-0.2,0.2-0.4,0.3-0.7c2.7-6,0.3-10.5-3.7-8.5c4.9-12.4,11.7-15.7,11.9-20.1
		c0.1-2-1.2-4.7-4.3-4.2c2.5,6.9-1.1,8-6.8,19.2c-19.3,37.7,12.9,64,35.4,52.1c0.8,1.4,2.2,2.2,3.6,2.4c2.8,0.3,5.8-1.4,7.6-4h102.3
		c1.8,2.6,4.8,4.4,7.6,4c1.4-0.1,2.8-1,3.6-2.4C234.9,157.7,267.1,131.3,247.8,93.6z M234,51c-0.5,0.8-2,1-2.9,0.3
		c2.2,0,2.9-2.8,0.9-4.4C234,47.7,234.8,49.9,234,51z M68.9,51.3c-0.9,0.7-2.4,0.4-2.9-0.3c-0.7-1.1,0-3.3,2.1-4
		C66,48.5,66.7,51.3,68.9,51.3z M215.8,115.2c-0.2,3.9-3.5,7-9.1,7.1c-2.9,0-5.7-0.5-8.2-1.6v-5.9c0.9,1.1,2.6,2.5,4.6,3.2
		c2.7,0.9,5.2,0.5,5.8-1.1c0.3-0.9,0.2-1.9-1-2.6c-1.3-0.8-3.5-1.3-5.7-2.4c-2.8-1.5-4.1-3.2-4-6.2c0-2.2,1-3.9,2.4-5.1
		c1.5-1.3,3.4-2,5.8-2.1c2.7-0.1,5.4,0.3,7.8,1.3v5.2c-1.1-1.1-2.6-2-4.2-2.6c-2.6-0.8-4.6-0.3-5.2,0.9c-0.5,1.1,0,2.1,1.3,2.7
		c1.7,0.8,4.2,1.4,6.2,2.6C215.1,110.2,216,112.3,215.8,115.2z M217.4,95.6c1.4,0,2.6,1.2,2.6,2.6c0,1.4-1.2,2.6-2.6,2.6
		c-1.4,0-2.6-1.1-2.6-2.6C214.9,96.7,216,95.6,217.4,95.6z M211.4,47.6c0.9,0,1.7,0.8,1.7,1.7c0,0.9-0.8,1.7-1.7,1.7h-12.9
		c0.1-0.6,0-1.1,0-1.5h10.9c0,0,1.3,0,1.9-0.4c-0.6-0.4-2-0.4-2-0.4h-11c-0.1-0.3-0.2-0.7-0.3-1H211.4z M191.8,87.5
		c0.5-1.2,5.8-15,5.8-15c0.4-1.1,0.1-2.2-0.5-3.4c2.8,0,8.5,0,8.5,0s7.1,17.1,7.6,18.4c0.5,1.3,0.9,2.2,2.7,4.2h-10.7
		c0.8-1.9,0.7-2.7,0.2-4.2c-0.1-0.5-0.6-1.4-0.6-1.4h-8.3c0,0-0.3,0.9-0.5,1.4c-0.5,1.4-0.7,2.3,0.1,4.2h-7
		C190.7,90,190.9,89.8,191.8,87.5z M195.2,121.7h-10c1.2-2.2,1.4-2.9,1.4-5.8v-11c0-2.9-0.2-3.7-1.4-5.8h10
		c-1.2,2.2-1.3,2.9-1.3,5.8v11C193.9,118.8,194.1,119.5,195.2,121.7z M189.1,86l-0.6,5.7h-18.6c1.2-2.2,1.4-2.9,1.4-5.8V74.9
		c0-2.9-0.2-3.7-1.4-5.8H180c-1.2,2.2-1.3,2.9-1.3,5.8v12.9h5.6C186.4,87.8,187.5,87.1,189.1,86z M183.1,110.4c0,7.3-5.8,12-13,12
		s-13-4.7-13-12c0-7.3,5.8-12,13-12C177.2,98.4,183.1,103.1,183.1,110.4z M177.8,52.9c-0.4,0-0.7-0.2-0.5-0.5c0.6-1.2,2.9-1,4.5-1.4
		c-0.3,0.3-1,1.5-2.3,2.2c-0.7,0.4-1.7,0.4-1.3-0.1c0.1-0.1,0.5-0.3,0.7-0.5C178.3,52.8,178.1,52.9,177.8,52.9z M178,54.3
		c0,0-1.5,0.8-2.5,1c-0.5,0.1-1.4,0-1.2-0.3c0.1-0.1,1,0,1.4-0.6c-0.6,0.1-1.3,0.1-1.5,0.1c-0.5-0.1-0.3-0.7,0.4-1
		C175.9,53.2,177.3,54.1,178,54.3z M182.1,48.9c2.4-1.3,5.1-2.7,7.5-3.4c1.1-0.3,1.9-0.1,2.3,0.2c-1.6,0.2-5.1,1-9.9,4.1
		c5.4-2.8,9.1-3.4,10.5-3.5c0.1,0.1,0.3,0.4,0.3,0.6c-1.7,0-6,0.9-8.3,2.6c3.9-1.6,6.9-2.1,8.5-1.9c0,0.2,0.1,0.3,0.1,0.5
		c-1.4-0.2-5,0.1-9.6,2.9c5.8-2.6,8.7-2.4,9.6-2.2c0,0.2,0,0.4-0.1,0.6c-1.9-0.5-4.8,0.3-7.4,1.4c-1.5,0.6-3.1,1.4-4.8,2.2l0,0
		c0.7-0.7,2.5-3,3.1-3.8c-0.5,0.1-0.9,0.9-2.9,1.3C181.6,50,181.9,49.5,182.1,48.9L182.1,48.9z M177.9,50.3c0.3-1.4,2.7-1.3,3.9-2.5
		c-0.2,0.7-1.3,2.6-2.6,3.1c-0.1,0-0.2,0-0.2-0.1c0-0.2,0.2-0.7,0.2-0.7s-0.6,0.7-0.8,0.8C178,50.9,177.9,50.4,177.9,50.3z
		 M177.7,48.3c0,0.5-0.6,3.9-1.6,4.2c-0.4,0.1-0.2-1.1-0.2-1.2c-0.2,0.2-0.3,0.6-0.4,0.8c-0.2,0.4-0.7,0.5-0.8,0
		C174.5,51.3,176.8,49.4,177.7,48.3z M171.6,53.4c0.7-1.3,2.6-2.6,3.1-3.3c-0.2,1-1,3.3-1.5,4c-0.7,0.8-1.2,0.3-0.8-0.7
		c-0.2,0.1-0.4,0.6-0.6,0.9c-0.1,0.1-0.3,0.1-0.3,0C171.4,53.9,171.5,53.6,171.6,53.4z M171.6,55.1c0.7,0.1,1.4,0.7,1.8,0.9
		c-0.9,0.3-1.9,0.7-2.6,0.3c-0.1,0-0.1-0.1,0-0.1c0.2-0.1,0.8,0,0.9-0.3c-0.6,0.1-1.2,0-1.3-0.3C170.2,55.3,170.7,54.9,171.6,55.1z
		 M168.2,56.3c0.8-0.2,1.2,0.4,1.8,0.7c-1,0.2-1.4,0.3-1.8,0.1c-0.1,0-0.1-0.1,0-0.1c0.1,0,0.6,0,0.8-0.1c-0.3,0-0.9-0.1-1-0.1
		C167.8,56.6,167.9,56.4,168.2,56.3z M159.2,69.1c-1.2,2.2-1.3,2.9-1.3,5.8v12.9h5.6c2.1,0,3.2-0.7,4.8-1.8l-0.6,5.7h-18.6
		c1.2-2.2,1.4-2.9,1.4-5.8V74.9c0-2.9-0.2-3.7-1.4-5.8H159.2z M149.1,115.9c0,2.9,0.2,3.7,1.3,5.8h-10c1.2-2.2,1.4-2.9,1.4-5.8
		c0,0,0-12.6,0-13c-0.3,0-1.7,0-2,0c-2.3,0.1-3,0.5-4.8,1.8l0.5-5.6h19.8l0.5,5.6c-1.8-1.3-2.6-1.7-4.8-1.8c-0.3,0-1.7,0-2,0
		C149.1,103.3,149.1,115.9,149.1,115.9z M121,121.7h-9.7c1.2-2.2,1.4-2.9,1.4-5.8v-11c0-2.9-0.2-3.7-1.4-5.8H124
		c3.2,0,4.9,0.2,6.3,1.2c1.7,1.2,2.5,3,2.5,4.8c0,3.4-2.1,5.8-5.3,6.1c0,0,0,0,0,0c1.4,0.6,2.6,1.4,4.4,3.9c0.6,0.9,1.2,1.9,2.4,3.5
		c0.7,0.9,1.6,1.9,3.1,3h-6.6c-2,0-3.2-0.4-4.6-2.7c-0.7-1.2-1.3-2-1.8-2.9c-0.9-1.4-1.5-2.2-2.1-2.6c-0.7-0.5-1.3-0.7-2.3-0.7
		c-0.1,0-0.2,0-0.3,0v3.1C119.6,118.8,119.8,119.5,121,121.7z M127.5,69.1H146l0.5,5.3c-1.6-1.1-2.7-1.5-4.8-1.5c-2.1,0-5.5,0-5.5,0
		v4.7h7l0.5,5.3c-1.6-1.1-2.7-1.6-4.8-1.6h-2.7v6.5h6.4c2.1,0,3.2-0.4,4.8-1.5l-0.5,5.4h-19.4c1.2-2.2,1.4-2.9,1.4-5.8V74.9
		C128.9,71.9,128.7,71.2,127.5,69.1z M126.2,52.1c0.1,0.3-0.9,0.3-1.5,0c-0.5-0.2-1.2-0.5-1.7-0.9c-0.3-0.2-0.7-0.5-0.9-0.6
		c0.9-0.1,2.6-0.8,4.1-0.1c0.8,0.4,0.8,0.9,0.1,0.9c-0.3,0-1.1-0.2-1.7-0.4C125.2,51.8,126.2,52,126.2,52.1z M129.8,53.1
		c0.9,0.5,0.3,0.8-0.6,0.8c-0.5,0-0.8,0-1.4-0.1c0.3,0.2,0.7,0.4,1.3,0.5c0.3,0-0.1,0.4-0.9,0.3c-1-0.1-1.3-0.5-2.7-1
		C126.3,53.3,128,52.1,129.8,53.1z M135.3,57.4c0,0,0,0.1-0.1,0.1c-1.1,0.3-2.3-0.3-2.3-0.3s1.6-0.9,2.4-0.7c0.5,0.1,0,0.6-0.8,0.6
		C134.8,57.3,135.3,57.2,135.3,57.4z M165.1,55.2c0.9-0.6,1.2-1.1,1.1-2.2c0.2-0.1,0.6-0.2,0.9-0.5C167.6,53.4,167.1,55,165.1,55.2z
		 M170.3,50.4c0.8-0.6,0.8-1.5,0.7-2c0.4-0.1,0.7-0.4,0.9-0.7C172.4,48.3,172,50.2,170.3,50.4z M170,47.8c-0.3,0.1-0.5,0-0.4-0.3
		c0.4-1.2,2.1-2.9,2.6-3.2c1.2,0.3,1.5,0.3,1.8,0.4C171.9,45.3,170.6,47.5,170,47.8z M155.1,30.2c1-2,7.2-3.2,17.4,0.6
		c9.1,3.4,14.4,8.5,12.9,11.3c-1.2,2.1-8.1,3.3-18.9-1.2C158.5,37.6,153.6,33.1,155.1,30.2z M159.2,38.1c2.4,1.7,3.5,8.5,8.5,10.1
		c-2.8-0.2-6.5-2.2-7.6-4.8C159.5,41.9,160.3,40.5,159.2,38.1z M158,41.3c-0.1,0.5-0.2,1.2,0.1,1.9c0.1-1.1,0.5-2.2,1.3-2.5
		c0,0.1,0,0.3,0,0.6c0,0.2,0,0.7,0,1c0.1,3.9,6.1,6.9,9.6,6.3c-1.9,1.4-6.9,0.5-9.6-2.9c1.4,3,4.6,4.6,6.9,5.1c-2-0.3-4.6-1.4-6.4-3
		C157.6,45.8,156.7,43.1,158,41.3z M162.6,52.6c-3.6-1.2-5.7-4.4-4.9-6.5c0.5,1.1,1.5,2.1,1.5,2.1S160.1,51.1,162.6,52.6z
		 M155.4,50.1c-1.6-3.1-0.3-5.2,1.5-5.9c0.2,0.5,0.2,0.8,0.4,1.3c-0.8,1.5-0.2,3.5,1,4.8c1.7,1.9,4.4,3.3,7,2.9
		c-2.4,1.9-7.6-0.7-8.7-2.9c0.6,2,3.4,4,5.3,4.7C159.3,54.6,156.7,52.5,155.4,50.1z M158.7,56.2c0.3,0.2,0.6,0.4,1,0.6
		c-6.2,2.8-12.6,2.2-17.6,0.1C145.9,58,153.4,58.6,158.7,56.2z M132.3,51c0,1.8,0.9,2.6,2.6,2.8c2.7,2.5,5.6,3.9,8.2,4.8h0
		c0,0-0.8-0.1-1.7-0.4c-4.8-1.5-6.9-3.9-6.9-3.9S131.5,54.6,132.3,51z M133.1,55.1c0.6,0.3,0.3,0.6-0.5,0.6c-0.4,0-0.6,0-1,0
		c0.2,0.2,0.5,0.3,1,0.3c0.2,0-0.1,0.3-0.7,0.2c-0.7,0-1-0.3-2.1-0.7C130.4,55.3,131.7,54.4,133.1,55.1z M131.4,52.2
		c0,0.3,0,0.6-0.3,0.6c-0.2,0-0.1-0.7-0.3-1.1c0,0.7,0,1-0.2,0.9c-0.6-0.1-0.5-2.3-0.9-3.3C130.1,50,131.2,50.7,131.4,52.2z
		 M129.5,51.2c0,0.8-0.4,0.7-0.5,0.5c-0.1-0.3-0.2-1-0.5-1.3c0.2,1.1-0.4,1.6-0.9,0.6c-0.4-0.7-1-3.9-1-4.3
		C127.1,48,129.4,49.7,129.5,51.2z M123.7,44.7c0.8,1.3,2.7,2.8,2.7,4.4c0,0.2,0,0.4-0.2,0.5c-0.4,0.2-0.3-0.6-0.7-1.2
		c0,0.1,0,1.3-0.3,1.1C124.2,48.8,123.6,45.2,123.7,44.7z M119.7,43.8c1.1,1.2,3.2,1.4,3.7,3.1c0.1,0.3,0,0.7-0.4,0.5
		c-0.2-0.1-0.5-0.5-0.7-0.7c0.1,0.4-0.2,0.6-0.4,0.4C120.9,46.3,119.9,44.3,119.7,43.8z M119.5,47c1.5,0.6,3.5,0.9,4.2,1.9
		c0.2,0.3-0.1,0.4-0.5,0.4c-0.4-0.1-0.5-0.1-1.1-0.4c0.2,0.2,0.5,0.5,0.6,0.6c0.4,0.5-0.5,0.3-1.2-0.1
		C120.4,48.5,119.8,47.3,119.5,47z M106.9,49.5c0-0.2-0.1-0.4-0.1-0.6c0.9-0.2,3.8-0.5,9.6,2.2c-4.6-2.8-8.2-3.2-9.6-2.9
		c0-0.2,0-0.3,0.1-0.5c1.2-0.1,4.6,0.1,10.1,2.7c-4.1-2.6-8.2-3.4-9.9-3.4c0.1-0.1,0.2-0.5,0.3-0.6c1.5,0,5.1,0.7,10.5,3.5
		c-4.8-3.1-8.3-3.9-9.9-4.1c0.3-0.3,1.2-0.5,2.3-0.2c3.4,0.9,7.4,3.3,10.1,4.9c-0.2,0-0.5,0.1-0.8,0.1c1.5,0.4,3.7,2.3,5.8,2.4
		c-0.4,0.2-0.7,0.3-1.2,0.4c-0.5-0.2-1.5-0.5-2.7-1c0.7,0.5,1.6,0.9,2.3,1.1c1.2,0.6,1.9,1.3,2.9,1.6c-1.3-0.4-3.2-1-5.6-2
		c2.1,1.3,5.1,2.4,6.5,2.8c0.5,0.3,0.7,0.5,1,0.6c-5.5-1.3-10.4-4-14.4-5.7C111.6,49.8,108.7,48.9,106.9,49.5z M106.1,69.1h19.4
		l0.5,5.6c-1.7-1.3-2.5-1.7-4.7-1.8c-0.3,0-1.5,0-1.9,0c0,0.4,0,13,0,13c0,2.9,0.2,3.7,1.3,5.8h-10c1.2-2.2,1.4-2.9,1.4-5.8
		c0,0,0-12.6,0-13c-0.3,0-1.5,0-1.9,0c-2.2,0.1-2.9,0.5-4.7,1.8L106.1,69.1z M103.3,69.9V75c-1.1-1.1-2.6-2-4.2-2.6
		c-2.6-0.8-4.6-0.3-5.1,0.9c-0.5,1.1,0,2.1,1.3,2.7c1.7,0.7,4.2,1.4,6.2,2.5c2.7,1.6,3.6,3.7,3.5,6.6c-0.2,3.9-3.5,6.9-9.1,7
		c-2.9,0-5.6-0.5-8.2-1.6v-5.9c0.9,1.1,2.6,2.6,4.6,3.2c2.7,0.9,5.2,0.5,5.8-1.1c0.3-0.9,0.2-1.8-1-2.6c-1.3-0.8-3.5-1.3-5.7-2.4
		c-2.8-1.5-4-3.2-3.9-6.2c0-2.1,1-3.9,2.4-5.1c1.5-1.3,3.4-2,5.8-2.1C98.3,68.4,100.9,68.9,103.3,69.9z M88.7,47.6h13.4
		c-0.1,0.3-0.2,0.7-0.3,1h-11c0,0-1.4,0-2,0.4c0.6,0.4,1.9,0.4,1.9,0.4h10.9c0,0.4-0.1,0.9,0,1.5H88.7c-0.9,0-1.7-0.8-1.7-1.7
		C87,48.4,87.7,47.6,88.7,47.6z M91.3,116c0,0-0.3,0.9-0.5,1.4c-0.5,1.4-0.7,2.3,0.1,4.2h-7c1.5-1.6,1.7-1.8,2.6-4.2
		c0.5-1.2,5.8-15,5.8-15c0.4-1.1,0.1-2.2-0.5-3.4c2.8,0,8.5,0,8.5,0s7.1,17.1,7.6,18.4c0.5,1.3,0.9,2.2,2.7,4.2H99.9
		c0.8-1.8,0.7-2.7,0.2-4.2c-0.1-0.5-0.6-1.4-0.6-1.4L91.3,116L91.3,116z M94.3,142.5c-1,0-1.8-0.8-1.8-1.7c0-0.9,0.8-1.7,1.8-1.7
		h111.3c1,0,1.8,0.8,1.8,1.7c0,0.9-0.8,1.7-1.8,1.7H94.3z"/>
	<path class="st0" d="M180.8,42.5c1.3-0.2,2.3-0.6,2.6-1.3c0.7-1.5-1.3-3.4-1.3-3.4s-2.2,0-5.9,3.4c0.7-2,3-3.5,5-4.3
		c-1.8-1.4-6.1-4.4-13.8-6.4c4.8,1.9,9.6,4.5,10.5,5.4c0.1,0.1,0.1,0.3,0,0.3c-2.1,1-3.1,2-4.3,3.9c-1.1,0.2-3.8-0.2-7.2-1.5
		c0-0.8-0.2-3-1.3-4.4c0.7,1.7,0.6,3.6,0.6,4.2c-0.6-0.2-1.1-0.5-1.7-0.7c-0.1-5.3-4.2-7.9-4.2-7.9s-2.3,0.2-2.7,1.4
		c-0.3,0.7-0.2,2.4,3.3,4.9C166.4,40.6,176.4,43.2,180.8,42.5z M161.1,36.4c0-0.5-0.2-2-0.9-3.1c1,1.2,1.3,2.8,1.3,3.3
		C161.4,36.6,161.3,36.5,161.1,36.4z M162.2,37c0-0.6-0.2-3.1-1.8-5.1c2.3,2,2.6,4.9,2.6,5.4C162.8,37.2,162.5,37.1,162.2,37z"/>
	<path class="st0" d="M104.1,52.1c1.3,2.9,4.9,1.9,5.3,1.5C109,53.7,105.8,54.2,104.1,52.1z"/>
	<path class="st0" d="M164.3,110.4c0,5.4,2.6,8.3,5.8,8.3s5.8-2.8,5.8-8.3c0-5.4-2.6-8.3-5.8-8.3C166.9,102.1,164.3,105,164.3,110.4
		z"/>
	<path class="st0" d="M223.5,72.5c-0.9-2-1.5-4.6-1.3-6.9C221.4,67.3,222.1,70.6,223.5,72.5z"/>
	<path class="st0" d="M202.3,79.8c-0.8-1.9-1.4-3.7-1.8-5.2c0,0,0,0,0,0c-0.2,1.2-0.9,3.1-1.7,5.1l-0.9,2.5h5.4L202.3,79.8z"/>
	<path class="st0" d="M195.9,52.1c-1.6,2.1-4.8,1.6-5.3,1.5C190.9,54,194.5,55,195.9,52.1z"/>
</g>
</svg>
