<?xml version="1.0" encoding="utf-8"?>
<!-- Generator: Adobe Illustrator 23.1.0, SVG Export Plug-In . SVG Version: 6.00 Build 0)  -->
<svg version="1.1" id="Livello_1" xmlns="http://www.w3.org/2000/svg" xmlns:xlink="http://www.w3.org/1999/xlink" x="0px" y="0px"
	 viewBox="0 0 200 100" style="enable-background:new 0 0 200 100;" xml:space="preserve">
<style type="text/css">
	.st0{fill:#E32213;}
	.st1{fill:#FFFFFF;}
</style>
<g id="Sushi_daily_1_">
	<g>
		<path d="M2.4,75.6C2.5,75,2.3,74.5,2,74.1c-0.1-0.1-0.1-0.4,0.1-0.5c0.1-0.2,0.2-0.2,0.2-0.3c0.2-0.1,0.3-0.3,0.4-0.6
			c0.1-0.4,0.2-0.9,0.3-1.3c0.3-1.1,0.5-2.1,0.8-3.2c0-0.1,0.1-0.2,0.2-0.3c0.2-0.2,0.7,0,0.7,0.3c0,0.2,0.1,0.5,0.1,0.8
			s0,0.7-0.1,1c0,0.2-0.1,0.5-0.3,0.7c-0.4,0.4-0.6,1-0.7,1.6c0,0.1,0.1,0.3,0.2,0.3c0.1,0,0.3,0,0.4,0c1-0.2,1.9-0.4,2.9-0.6
			c0.3-0.1,0.4-0.2,0.4-0.5c0.1-0.8,0.2-1.5,0.3-2.2C8,68.7,8.2,68,8.3,67.4c0.1-0.2,0.2-0.3,0.3-0.5c0.1-0.1,0.2-0.2,0.4-0.1
			c0.4,0.1,0.5,0.4,0.3,0.8c-0.4,1-0.5,2-0.7,3.1c0,0.2,0,0.5,0,0.8c0,0.1,0.2,0.2,0.3,0.2c0.2,0,0.4,0,0.7-0.1
			c0.6-0.1,1.1-0.2,1.7-0.1c0.1,0,0.2,0.1,0.1,0.2c0,0.1,0,0.1-0.1,0.1l-0.1,0.1c-0.7,0.1-1.3,0.4-2,0.4c-0.2,0-0.4,0.1-0.5,0.1
			c-0.2,0.1-0.4,0.2-0.5,0.5c-0.1,0.2-0.1,0.4-0.2,0.6c-0.1,0.8-0.2,1.6-0.4,2.4c-0.1,0.7-0.2,1.4-0.4,2.1c-0.1,0.3-0.2,0.6-0.3,0.8
			c0,0.1-0.2,0.2-0.3,0.2c-0.1,0-0.2-0.2-0.2-0.3c0-0.2,0-0.4,0-0.6c0.3-1.5,0.4-3,0.7-4.5c0-0.1,0-0.2,0-0.3C7.1,73.2,7,73,6.8,73
			c-0.1,0-0.3,0-0.4,0c-0.8,0.2-1.7,0.4-2.5,0.7c-0.2,0-0.3,0.2-0.5,0.2C3.1,74,3,74.3,2.9,74.6c-0.1,0.3-0.1,0.6-0.1,0.9
			c-0.1,0.7-0.2,1.3-0.4,1.9l-0.1,0.1c-0.1,0-0.2-0.1-0.2-0.1C2,77.3,2,77.2,2,77.1c0-0.3-0.1-0.7-0.1-0.8
			C2.4,75.7,2.4,75.6,2.4,75.6"/>
		<path d="M2.4,75.6C2.5,75,2.3,74.5,2,74.1c-0.1-0.1-0.1-0.4,0.1-0.5c0.1-0.2,0.2-0.2,0.2-0.3c0.2-0.1,0.3-0.3,0.4-0.6
			c0.1-0.4,0.2-0.9,0.3-1.3c0.3-1.1,0.5-2.1,0.8-3.2c0-0.1,0.1-0.2,0.2-0.3c0.2-0.2,0.7,0,0.7,0.3c0,0.2,0.1,0.5,0.1,0.8
			s0,0.7-0.1,1c0,0.2-0.1,0.5-0.3,0.7c-0.4,0.4-0.6,1-0.7,1.6c0,0.1,0.1,0.3,0.2,0.3c0.1,0,0.3,0,0.4,0c1-0.2,1.9-0.4,2.9-0.6
			c0.3-0.1,0.4-0.2,0.4-0.5c0.1-0.8,0.2-1.5,0.3-2.2C8,68.7,8.2,68,8.3,67.4c0.1-0.2,0.2-0.3,0.3-0.5c0.1-0.1,0.2-0.2,0.4-0.1
			c0.4,0.1,0.5,0.4,0.3,0.8c-0.4,1-0.5,2-0.7,3.1c0,0.2,0,0.5,0,0.8c0,0.1,0.2,0.2,0.3,0.2c0.2,0,0.4,0,0.7-0.1
			c0.6-0.1,1.1-0.2,1.7-0.1c0.1,0,0.2,0.1,0.1,0.2c0,0.1,0,0.1-0.1,0.1l-0.1,0.1c-0.7,0.1-1.3,0.4-2,0.4c-0.2,0-0.4,0.1-0.5,0.1
			c-0.2,0.1-0.4,0.2-0.5,0.5c-0.1,0.2-0.1,0.4-0.2,0.6c-0.1,0.8-0.2,1.6-0.4,2.4c-0.1,0.7-0.2,1.4-0.4,2.1c-0.1,0.3-0.2,0.6-0.3,0.8
			c0,0.1-0.2,0.2-0.3,0.2c-0.1,0-0.2-0.2-0.2-0.3c0-0.2,0-0.4,0-0.6c0.3-1.5,0.4-3,0.7-4.5c0-0.1,0-0.2,0-0.3C7.1,73.2,7,73,6.8,73
			c-0.1,0-0.3,0-0.4,0c-0.8,0.2-1.7,0.4-2.5,0.7c-0.2,0-0.3,0.2-0.5,0.2C3.1,74,3,74.3,2.9,74.6c-0.1,0.3-0.1,0.6-0.1,0.9
			c-0.1,0.7-0.2,1.3-0.4,1.9l-0.1,0.1c-0.1,0-0.2-0.1-0.2-0.1C2,77.3,2,77.2,2,77.1c0-0.3-0.1-0.7-0.1-0.8
			C2.4,75.7,2.4,75.6,2.4,75.6z"/>
		<path d="M17.5,78.1c0,0.1,0,0.2-0.1,0.2l-0.1,0.1c-0.1,0-0.1,0-0.2,0.1c-0.2,0.1-0.4,0.1-0.6,0.2c-0.1,0-0.2,0-0.3,0
			c-0.4,0-0.8-0.1-1.2-0.3c-0.4-0.3-0.7-0.7-0.9-1.4c0-0.1,0-0.1-0.1-0.2c0-0.2-0.1-0.3-0.2-0.4l-0.1-0.1l0,0
			c-0.1,0.1-0.2,0.2-0.3,0.3c-0.2,0.2-0.3,0.4-0.5,0.6s-0.3,0.4-0.5,0.6s-0.5,0.4-0.8,0.6c-0.1,0-0.2,0.1-0.3,0.1
			c-0.4,0-0.8-0.3-0.8-0.8v-0.2c0-0.1,0-0.1,0-0.1l0,0c0.1-1.6,0.6-2.9,1.7-4c0.3-0.3,0.6-0.5,1.1-0.7c0.1-0.1,0.3-0.1,0.4-0.1
			c0.2,0,0.4,0.1,0.5,0.2s0.2,0.1,0.2,0.2c0.1,0,0.1,0.1,0.2,0.2c0.1,0,0.1,0.1,0.2,0.1c0.1,0,0.1,0,0.2-0.1c0.1,0,0.1-0.1,0.2-0.1
			h0.1c0.1,0,0.3,0.1,0.3,0.2c0.1,0.1,0.1,0.3,0.1,0.3c-0.2,0.4-0.4,0.8-0.6,1.1c-0.2,0.3-0.3,0.6-0.2,1V76c0,0.2,0,0.5,0,0.7
			s0.1,0.4,0.1,0.5c0.2,0.6,0.7,0.9,1.4,0.9h0.1c0.1,0,0.2,0,0.3,0c0.1,0,0.3,0,0.4,0S17.4,78.1,17.5,78.1
			C17.4,78,17.5,78,17.5,78.1 M13.6,73.2c-0.4,0.2-0.9,0.5-1.2,1c-0.6,0.8-1,1.8-1.1,2.8v0.1c0,0,0,0.1,0,0.2s0.1,0.2,0.2,0.2h0.1
			c0,0,0.1,0,0.1-0.1c0.1,0,0.1-0.1,0.2-0.1c0.7-0.6,1.4-1.3,2-2.2c0.2-0.3,0.3-0.7,0.4-1.1c0-0.1,0-0.2-0.1-0.3
			c-0.1-0.1-0.1-0.2-0.3-0.3C13.8,73.2,13.7,73.1,13.6,73.2"/>
		<path d="M17.5,78.1c0,0.1,0,0.2-0.1,0.2l-0.1,0.1c-0.1,0-0.1,0-0.2,0.1c-0.2,0.1-0.4,0.1-0.6,0.2c-0.1,0-0.2,0-0.3,0
			c-0.4,0-0.8-0.1-1.2-0.3c-0.4-0.3-0.7-0.7-0.9-1.4c0-0.1,0-0.1-0.1-0.2c0-0.2-0.1-0.3-0.2-0.4l-0.1-0.1l0,0
			c-0.1,0.1-0.2,0.2-0.3,0.3c-0.2,0.2-0.3,0.4-0.5,0.6s-0.3,0.4-0.5,0.6s-0.5,0.4-0.8,0.6c-0.1,0-0.2,0.1-0.3,0.1
			c-0.4,0-0.8-0.3-0.8-0.8v-0.2c0-0.1,0-0.1,0-0.1l0,0c0.1-1.6,0.6-2.9,1.7-4c0.3-0.3,0.6-0.5,1.1-0.7c0.1-0.1,0.3-0.1,0.4-0.1
			c0.2,0,0.4,0.1,0.5,0.2s0.2,0.1,0.2,0.2c0.1,0,0.1,0.1,0.2,0.2c0.1,0,0.1,0.1,0.2,0.1c0.1,0,0.1,0,0.2-0.1c0.1,0,0.1-0.1,0.2-0.1
			h0.1c0.1,0,0.3,0.1,0.3,0.2c0.1,0.1,0.1,0.3,0.1,0.3c-0.2,0.4-0.4,0.8-0.6,1.1c-0.2,0.3-0.3,0.6-0.2,1V76c0,0.2,0,0.5,0,0.7
			s0.1,0.4,0.1,0.5c0.2,0.6,0.7,0.9,1.4,0.9h0.1c0.1,0,0.2,0,0.3,0c0.1,0,0.3,0,0.4,0S17.4,78.1,17.5,78.1
			C17.4,78,17.5,78,17.5,78.1z M13.6,73.2c-0.4,0.2-0.9,0.5-1.2,1c-0.6,0.8-1,1.8-1.1,2.8v0.1c0,0,0,0.1,0,0.2s0.1,0.2,0.2,0.2h0.1
			c0,0,0.1,0,0.1-0.1c0.1,0,0.1-0.1,0.2-0.1c0.7-0.6,1.4-1.3,2-2.2c0.2-0.3,0.3-0.7,0.4-1.1c0-0.1,0-0.2-0.1-0.3
			c-0.1-0.1-0.1-0.2-0.3-0.3C13.8,73.2,13.7,73.1,13.6,73.2z"/>
		<path d="M20.5,77.2c-0.5,0.6-1.1,1-1.9,1.2c-0.1,0-0.1,0-0.2,0c-0.4,0-0.4,0-0.5,0.3c-0.2,0.6-0.5,1.3-0.6,1.9
			c-0.2,0.6-0.4,1.2-0.6,1.8c0,0.1-0.2,0.2-0.4,0.1c-0.1,0-0.2-0.2-0.2-0.3c0-0.1,0-0.2,0.1-0.3c0.5-1.6,0.9-3.3,1.2-5
			c0.2-1.1,0.5-2.2,1-3.2c0.1-0.1,0.1-0.2,0.2-0.3c0.1-0.1,0.2-0.2,0.4-0.2c0.1,0,0.3,0.2,0.3,0.4c0,0.1,0,0.2,0,0.2
			c-0.1,0.2-0.2,0.3-0.3,0.5c-0.3,0.5-0.5,1.1-0.6,1.7v0.1c0,0.1,0.1,0.1,0.1,0c0.1-0.2,0.2-0.3,0.3-0.5c0.4-0.7,0.7-1.4,1.1-2.2
			c0.1-0.2,0.3-0.5,0.3-0.7c0-0.1,0.1-0.1,0.1-0.2c0.1-0.2,0.5-0.2,0.6,0c0.4,0.5,0.5,1.1,0.5,1.6C21.3,75.2,21.2,76.3,20.5,77.2
			 M20.7,73.9c0-0.1-0.1-0.2-0.1-0.3c0-0.1-0.2-0.1-0.2,0c-0.2,0.4-0.5,0.7-0.7,1.1c-0.3,0.6-0.6,1.3-0.9,1.9
			c-0.1,0.2-0.2,0.3-0.2,0.5c0,0.1,0,0.2,0,0.3c0,0.1,0.2,0.3,0.3,0.2c0.7-0.3,1.1-0.8,1.5-1.4c0.3-0.6,0.4-1.2,0.4-1.9
			C20.7,74.2,20.7,74.1,20.7,73.9"/>
		<path d="M20.5,77.2c-0.5,0.6-1.1,1-1.9,1.2c-0.1,0-0.1,0-0.2,0c-0.4,0-0.4,0-0.5,0.3c-0.2,0.6-0.5,1.3-0.6,1.9
			c-0.2,0.6-0.4,1.2-0.6,1.8c0,0.1-0.2,0.2-0.4,0.1c-0.1,0-0.2-0.2-0.2-0.3c0-0.1,0-0.2,0.1-0.3c0.5-1.6,0.9-3.3,1.2-5
			c0.2-1.1,0.5-2.2,1-3.2c0.1-0.1,0.1-0.2,0.2-0.3c0.1-0.1,0.2-0.2,0.4-0.2c0.1,0,0.3,0.2,0.3,0.4c0,0.1,0,0.2,0,0.2
			c-0.1,0.2-0.2,0.3-0.3,0.5c-0.3,0.5-0.5,1.1-0.6,1.7v0.1c0,0.1,0.1,0.1,0.1,0c0.1-0.2,0.2-0.3,0.3-0.5c0.4-0.7,0.7-1.4,1.1-2.2
			c0.1-0.2,0.3-0.5,0.3-0.7c0-0.1,0.1-0.1,0.1-0.2c0.1-0.2,0.5-0.2,0.6,0c0.4,0.5,0.5,1.1,0.5,1.6C21.3,75.2,21.2,76.3,20.5,77.2z
			 M20.7,73.9c0-0.1-0.1-0.2-0.1-0.3c0-0.1-0.2-0.1-0.2,0c-0.2,0.4-0.5,0.7-0.7,1.1c-0.3,0.6-0.6,1.3-0.9,1.9
			c-0.1,0.2-0.2,0.3-0.2,0.5c0,0.1,0,0.2,0,0.3c0,0.1,0.2,0.3,0.3,0.2c0.7-0.3,1.1-0.8,1.5-1.4c0.3-0.6,0.4-1.2,0.4-1.9
			C20.7,74.2,20.7,74.1,20.7,73.9z"/>
		<path d="M25.8,77.2c-0.5,0.6-1.1,1-1.9,1.2c-0.1,0-0.1,0-0.2,0c-0.4,0-0.4,0-0.5,0.3c-0.2,0.6-0.5,1.3-0.6,1.9
			c-0.2,0.6-0.4,1.2-0.6,1.8c0,0.1-0.2,0.2-0.4,0.1c-0.1,0-0.2-0.2-0.2-0.3c0-0.1,0-0.2,0.1-0.3c0.5-1.6,0.9-3.3,1.2-5
			c0.2-1.1,0.5-2.2,1-3.2c0.1-0.1,0.1-0.2,0.2-0.3c0.1-0.1,0.2-0.2,0.4-0.2c0.1,0,0.3,0.2,0.3,0.4c0,0.1,0,0.2,0,0.2
			c-0.1,0.2-0.2,0.3-0.3,0.5c-0.3,0.5-0.5,1.1-0.6,1.7v0.1c0,0.1,0.1,0.1,0.1,0c0.1-0.2,0.2-0.3,0.3-0.5c0.4-0.7,0.7-1.4,1.1-2.2
			c0.1-0.2,0.3-0.5,0.3-0.7c0-0.1,0.1-0.1,0.1-0.2c0.1-0.2,0.5-0.2,0.6,0c0.4,0.5,0.5,1.1,0.5,1.6C26.7,75.2,26.5,76.3,25.8,77.2
			 M26,73.9c0-0.1-0.1-0.2-0.1-0.3c0-0.1-0.2-0.1-0.2,0c-0.2,0.4-0.5,0.7-0.7,1.1c-0.3,0.6-0.6,1.3-0.9,1.9
			c-0.1,0.2-0.2,0.3-0.2,0.5c0,0.1,0,0.2,0,0.3c0,0.1,0.2,0.3,0.3,0.2c0.7-0.3,1.1-0.8,1.5-1.4c0.3-0.6,0.4-1.2,0.4-1.9
			C26,74.2,26,74.1,26,73.9"/>
		<path d="M25.8,77.2c-0.5,0.6-1.1,1-1.9,1.2c-0.1,0-0.1,0-0.2,0c-0.4,0-0.4,0-0.5,0.3c-0.2,0.6-0.5,1.3-0.6,1.9
			c-0.2,0.6-0.4,1.2-0.6,1.8c0,0.1-0.2,0.2-0.4,0.1c-0.1,0-0.2-0.2-0.2-0.3c0-0.1,0-0.2,0.1-0.3c0.5-1.6,0.9-3.3,1.2-5
			c0.2-1.1,0.5-2.2,1-3.2c0.1-0.1,0.1-0.2,0.2-0.3c0.1-0.1,0.2-0.2,0.4-0.2c0.1,0,0.3,0.2,0.3,0.4c0,0.1,0,0.2,0,0.2
			c-0.1,0.2-0.2,0.3-0.3,0.5c-0.3,0.5-0.5,1.1-0.6,1.7v0.1c0,0.1,0.1,0.1,0.1,0c0.1-0.2,0.2-0.3,0.3-0.5c0.4-0.7,0.7-1.4,1.1-2.2
			c0.1-0.2,0.3-0.5,0.3-0.7c0-0.1,0.1-0.1,0.1-0.2c0.1-0.2,0.5-0.2,0.6,0c0.4,0.5,0.5,1.1,0.5,1.6C26.7,75.2,26.5,76.3,25.8,77.2z
			 M26,73.9c0-0.1-0.1-0.2-0.1-0.3c0-0.1-0.2-0.1-0.2,0c-0.2,0.4-0.5,0.7-0.7,1.1c-0.3,0.6-0.6,1.3-0.9,1.9
			c-0.1,0.2-0.2,0.3-0.2,0.5c0,0.1,0,0.2,0,0.3c0,0.1,0.2,0.3,0.3,0.2c0.7-0.3,1.1-0.8,1.5-1.4c0.3-0.6,0.4-1.2,0.4-1.9
			C26,74.2,26,74.1,26,73.9z"/>
		<path d="M28.6,73.9c0.2-0.3,0.6-0.4,0.8,0c0,0.1,0.1,0.2,0,0.2c0,0.2-0.1,0.3-0.2,0.5c-0.2,0.5-0.4,1.1-0.6,1.6
			c-0.2,0.6-0.3,1.1-0.2,1.7V78c0,0.1-0.2,0.2-0.2,0.3c-0.1,0-0.2,0-0.3-0.1c-0.1-0.1-0.1-0.2-0.2-0.3c-0.1-0.2-0.1-0.5-0.1-0.6
			C27.8,76,28.1,74.9,28.6,73.9 M29.8,67.9c0.3,0.4,0.6,0.8,1,1.2c0.1,0.1,0.1,0.2,0,0.2c-0.1,0.1-0.2,0.2-0.3,0.2
			c-0.5-0.1-0.9-0.3-1.2-0.7c-0.2-0.2-0.1-0.7,0.1-0.9c0.1,0,0.1,0,0.2-0.1C29.6,67.8,29.7,67.8,29.8,67.9"/>
		<path d="M28.6,73.9c0.2-0.3,0.6-0.4,0.8,0c0,0.1,0.1,0.2,0,0.2c0,0.2-0.1,0.3-0.2,0.5c-0.2,0.5-0.4,1.1-0.6,1.6
			c-0.2,0.6-0.3,1.1-0.2,1.7V78c0,0.1-0.2,0.2-0.2,0.3c-0.1,0-0.2,0-0.3-0.1c-0.1-0.1-0.1-0.2-0.2-0.3c-0.1-0.2-0.1-0.5-0.1-0.6
			C27.8,76,28.1,74.9,28.6,73.9z M29.8,67.9c0.3,0.4,0.6,0.8,1,1.2c0.1,0.1,0.1,0.2,0,0.2c-0.1,0.1-0.2,0.2-0.3,0.2
			c-0.5-0.1-0.9-0.3-1.2-0.7c-0.2-0.2-0.1-0.7,0.1-0.9c0.1,0,0.1,0,0.2-0.1C29.6,67.8,29.7,67.8,29.8,67.9z"/>
		<path d="M34.1,77.5c-0.4,0.2-0.7,0.4-1.1,0.7c-0.2,0.1-0.4,0.2-0.7,0.2s-0.6-0.2-0.9-0.5c-0.2-0.5-0.4-1-0.4-1.5v-0.8
			c-0.1-1.2,0.1-2.2,0.3-3.2c0.2-1.1,0.4-2,0.8-3c0.2-0.6,0.4-1,0.8-1.4c0.1-0.1,0.2-0.2,0.4-0.2c0.1,0,0.3,0.1,0.3,0.3
			c0.1,0.1,0.1,0.4,0,0.5s-0.1,0.2-0.1,0.2c-0.5,0.5-0.8,1.2-1,2c-0.2,0.7-0.4,1.4-0.5,2.1c-0.2,0.9-0.3,1.9-0.3,2.9
			c0,0.4,0.1,0.8,0.3,1.2c0.1,0.3,0.3,0.4,0.5,0.4c0.3,0,0.6,0,1-0.2c0.2-0.1,0.4-0.2,0.6-0.3h0.1c0.1,0,0.3,0,0.3,0.2
			c0,0.1,0,0.2-0.1,0.3C34.2,77.3,34.2,77.4,34.1,77.5"/>
		<path d="M34.1,77.5c-0.4,0.2-0.7,0.4-1.1,0.7c-0.2,0.1-0.4,0.2-0.7,0.2s-0.6-0.2-0.9-0.5c-0.2-0.5-0.4-1-0.4-1.5v-0.8
			c-0.1-1.2,0.1-2.2,0.3-3.2c0.2-1.1,0.4-2,0.8-3c0.2-0.6,0.4-1,0.8-1.4c0.1-0.1,0.2-0.2,0.4-0.2c0.1,0,0.3,0.1,0.3,0.3
			c0.1,0.1,0.1,0.4,0,0.5s-0.1,0.2-0.1,0.2c-0.5,0.5-0.8,1.2-1,2c-0.2,0.7-0.4,1.4-0.5,2.1c-0.2,0.9-0.3,1.9-0.3,2.9
			c0,0.4,0.1,0.8,0.3,1.2c0.1,0.3,0.3,0.4,0.5,0.4c0.3,0,0.6,0,1-0.2c0.2-0.1,0.4-0.2,0.6-0.3h0.1c0.1,0,0.3,0,0.3,0.2
			c0,0.1,0,0.2-0.1,0.3C34.2,77.3,34.2,77.4,34.1,77.5z"/>
		<path d="M41.7,73.3c-0.5,0.5-0.8,1.2-1,1.9c-0.4,0.9-0.9,1.8-1.3,2.7c-1.3,2.6-1.2,3.4-2.2,6.3c-0.1,0.4-0.2,0.7-0.4,1.1h-0.1
			c-0.1,0-0.1,0-0.1-0.1c0-0.2,0-0.5,0.1-0.8c0.2-0.9,0.4-2,0.7-3c0.8-2.2,0.5-1.9,1.4-3.8c0.1-0.2,0.2-0.5,0.3-0.7
			c0.1-0.1,0-0.3,0.1-0.4c-0.6,0.6-1.3,1.2-2,1.6c-0.1,0.1-0.3,0.2-0.4,0.3c-0.3,0.1-0.5,0.1-0.8,0c-0.5-0.3-0.7-0.9-0.7-1.5
			s0.2-1.1,0.3-1.6c0.3-0.8,0.7-1.5,1.2-2.1c0.1-0.1,0.2-0.2,0.4-0.3c0.1,0,0.2,0,0.3,0.1c0.2,0.2,0.2,0.5,0,0.7
			c-0.7,0.7-1.1,1.6-1.4,2.6c-0.1,0.4-0.1,0.8,0,1.1c0.1,0.1,0.1,0.1,0.2,0.1h0.1c0.8-0.4,1.6-0.8,2.2-1.6c0.4-0.4,0.7-0.8,1.1-1.3
			c0.4-0.5,0.6-1,0.7-1.6c0-0.2,0.1-0.3,0.2-0.4c0.3-0.2,0.5-0.2,0.7,0.1c0.1,0.1,0.2,0.3,0.2,0.4C41.7,73.1,41.8,73.3,41.7,73.3"/>
		<path d="M41.7,73.3c-0.5,0.5-0.8,1.2-1,1.9c-0.4,0.9-0.9,1.8-1.3,2.7c-1.3,2.6-1.2,3.4-2.2,6.3c-0.1,0.4-0.2,0.7-0.4,1.1h-0.1
			c-0.1,0-0.1,0-0.1-0.1c0-0.2,0-0.5,0.1-0.8c0.2-0.9,0.4-2,0.7-3c0.8-2.2,0.5-1.9,1.4-3.8c0.1-0.2,0.2-0.5,0.3-0.7
			c0.1-0.1,0-0.3,0.1-0.4c-0.6,0.6-1.3,1.2-2,1.6c-0.1,0.1-0.3,0.2-0.4,0.3c-0.3,0.1-0.5,0.1-0.8,0c-0.5-0.3-0.7-0.9-0.7-1.5
			s0.2-1.1,0.3-1.6c0.3-0.8,0.7-1.5,1.2-2.1c0.1-0.1,0.2-0.2,0.4-0.3c0.1,0,0.2,0,0.3,0.1c0.2,0.2,0.2,0.5,0,0.7
			c-0.7,0.7-1.1,1.6-1.4,2.6c-0.1,0.4-0.1,0.8,0,1.1c0.1,0.1,0.1,0.1,0.2,0.1h0.1c0.8-0.4,1.6-0.8,2.2-1.6c0.4-0.4,0.7-0.8,1.1-1.3
			c0.4-0.5,0.6-1,0.7-1.6c0-0.2,0.1-0.3,0.2-0.4c0.3-0.2,0.5-0.2,0.7,0.1c0.1,0.1,0.2,0.3,0.2,0.4C41.7,73.1,41.8,73.3,41.7,73.3z"
			/>
		<path d="M45.2,75.6c0.1-0.6-0.1-1.1-0.4-1.5c-0.1-0.1-0.1-0.4,0.1-0.5c0.1-0.1,0.1-0.1,0.2-0.2c0.2-0.1,0.4-0.3,0.4-0.6
			c0.1-0.4,0.2-0.9,0.3-1.3c0.3-1.1,0.6-2.1,0.9-3.2c0-0.1,0.1-0.2,0.3-0.3c0.3-0.2,0.8,0,0.8,0.3c0,0.2,0.1,0.5,0.1,0.8
			s0,0.7-0.1,1c0,0.2-0.1,0.5-0.3,0.7c-0.5,0.4-0.6,1-0.7,1.6c0,0.1,0.1,0.3,0.3,0.3c0.1,0,0.3,0,0.4,0c1-0.2,2.1-0.4,3.1-0.6
			c0.3-0.1,0.4-0.2,0.5-0.5c0.1-0.8,0.2-1.5,0.3-2.2c0.1-0.6,0.3-1.3,0.4-1.9c0.1-0.2,0.2-0.3,0.3-0.5c0.1-0.1,0.2-0.2,0.4-0.1
			c0.4,0.1,0.5,0.4,0.4,0.8c-0.4,1-0.5,2-0.7,3.1c0,0.2,0,0.5,0,0.8c0,0.1,0.2,0.2,0.3,0.2c0.2,0,0.5,0,0.7-0.1
			c0.6-0.1,1.2-0.2,1.9-0.1c0.1,0,0.2,0.1,0.1,0.2c0,0.1,0,0.1-0.1,0.1L55,72c-0.7,0.1-1.4,0.4-2.1,0.4c-0.2,0-0.4,0.1-0.6,0.1
			c-0.2,0.1-0.4,0.2-0.5,0.5c-0.1,0.2-0.1,0.4-0.2,0.6c-0.1,0.8-0.2,1.6-0.4,2.4c-0.1,0.7-0.2,1.4-0.4,2.1c-0.1,0.3-0.2,0.6-0.3,0.8
			c0,0.1-0.2,0.2-0.4,0.2c-0.1,0-0.3-0.2-0.3-0.3c0-0.2,0-0.4,0-0.6c0.3-1.5,0.5-3,0.7-4.5c0-0.1,0-0.2,0-0.3c0-0.1-0.1-0.3-0.3-0.3
			c-0.1,0-0.3,0-0.4,0c-0.9,0.2-1.8,0.4-2.7,0.7c-0.2,0-0.3,0.2-0.5,0.2c-0.3,0.1-0.5,0.4-0.6,0.7c-0.1,0.3-0.1,0.6-0.1,0.9
			c-0.1,0.7-0.2,1.3-0.4,1.9l-0.1,0.1c-0.1,0-0.2-0.1-0.2-0.1c-0.1-0.1-0.1-0.2-0.1-0.3c0-0.3-0.1-0.7-0.1-0.8
			C45.2,75.7,45.2,75.6,45.2,75.6"/>
		<path d="M45.2,75.6c0.1-0.6-0.1-1.1-0.4-1.5c-0.1-0.1-0.1-0.4,0.1-0.5c0.1-0.1,0.1-0.1,0.2-0.2c0.2-0.1,0.4-0.3,0.4-0.6
			c0.1-0.4,0.2-0.9,0.3-1.3c0.3-1.1,0.6-2.1,0.9-3.2c0-0.1,0.1-0.2,0.3-0.3c0.3-0.2,0.8,0,0.8,0.3c0,0.2,0.1,0.5,0.1,0.8
			s0,0.7-0.1,1c0,0.2-0.1,0.5-0.3,0.7c-0.5,0.4-0.6,1-0.7,1.6c0,0.1,0.1,0.3,0.3,0.3c0.1,0,0.3,0,0.4,0c1-0.2,2.1-0.4,3.1-0.6
			c0.3-0.1,0.4-0.2,0.5-0.5c0.1-0.8,0.2-1.5,0.3-2.2c0.1-0.6,0.3-1.3,0.4-1.9c0.1-0.2,0.2-0.3,0.3-0.5c0.1-0.1,0.2-0.2,0.4-0.1
			c0.4,0.1,0.5,0.4,0.4,0.8c-0.4,1-0.5,2-0.7,3.1c0,0.2,0,0.5,0,0.8c0,0.1,0.2,0.2,0.3,0.2c0.2,0,0.5,0,0.7-0.1
			c0.6-0.1,1.2-0.2,1.9-0.1c0.1,0,0.2,0.1,0.1,0.2c0,0.1,0,0.1-0.1,0.1L55,72c-0.7,0.1-1.4,0.4-2.1,0.4c-0.2,0-0.4,0.1-0.6,0.1
			c-0.2,0.1-0.4,0.2-0.5,0.5c-0.1,0.2-0.1,0.4-0.2,0.6c-0.1,0.8-0.2,1.6-0.4,2.4c-0.1,0.7-0.2,1.4-0.4,2.1c-0.1,0.3-0.2,0.6-0.3,0.8
			c0,0.1-0.2,0.2-0.4,0.2c-0.1,0-0.3-0.2-0.3-0.3c0-0.2,0-0.4,0-0.6c0.3-1.5,0.5-3,0.7-4.5c0-0.1,0-0.2,0-0.3c0-0.1-0.1-0.3-0.3-0.3
			c-0.1,0-0.3,0-0.4,0c-0.9,0.2-1.8,0.4-2.7,0.7c-0.2,0-0.3,0.2-0.5,0.2c-0.3,0.1-0.5,0.4-0.6,0.7c-0.1,0.3-0.1,0.6-0.1,0.9
			c-0.1,0.7-0.2,1.3-0.4,1.9l-0.1,0.1c-0.1,0-0.2-0.1-0.2-0.1c-0.1-0.1-0.1-0.2-0.1-0.3c0-0.3-0.1-0.7-0.1-0.8
			C45.2,75.7,45.2,75.6,45.2,75.6z"/>
		<path d="M67.2,77.5c0,0.1-0.1,0.1-0.1,0.2c-0.1,0.1-0.3,0-0.3-0.1s-0.1-0.1-0.1-0.2c-0.1-0.4-0.3-0.9-0.2-1.4
			c0-0.2-0.1-0.4-0.1-0.6c0-0.1-0.2-0.2-0.3-0.1c-0.2,0.1-0.4,0.2-0.6,0.3C65,76,64.6,76.5,64.2,77c-0.3,0.3-0.6,0.7-1,0.9
			c-0.2,0.2-0.5,0.3-0.7,0.4s-0.4,0.1-0.6,0.1c-0.2,0-0.4-0.2-0.4-0.4c0-0.3,0-0.7,0.1-1s0.1-0.6,0.1-0.9c0,0,0-0.1-0.1-0.1
			s-0.1,0-0.2,0c-0.6,0.4-1.2,0.9-1.8,1.4c-0.5,0.3-1,0.7-1.6,0.8c-0.3,0.1-0.6-0.2-0.6-0.4c-0.1-0.4,0-0.8,0.1-1.3
			c0.1-0.4,0.2-0.8,0.3-1.2c0,0,0-0.1-0.1-0.1s-0.2,0-0.2,0c-0.6,0.5-1.1,0.9-1.7,1.4c-0.3,0.2-0.6,0.4-0.9,0.6
			c-0.2,0.1-0.4,0.2-0.6,0.3c-0.5,0.2-1-0.2-0.8-0.8c0-0.2,0.1-0.3,0.1-0.5c0.7-1.6,1.8-2.9,3.3-3.7c0.2-0.1,0.5-0.2,0.8-0.3
			c0.5-0.2,1.1,0,1.5,0.5c0.2,0.2,0.3,0.5,0.4,0.8c0.1,0.5,0.1,1-0.4,1.3c-0.3,0.2-0.5,0.5-0.6,0.9s-0.2,0.7-0.2,1.1
			c0,0.2,0.2,0.3,0.3,0.2c0.1,0,0.1-0.1,0.2-0.1c0.1-0.1,0.3-0.2,0.4-0.3c1.1-0.7,2.1-1.5,2.9-2.5c0.1-0.1,0.3-0.1,0.4-0.1
			c0.1,0.1,0.2,0.2,0.2,0.3c0,0.3,0,0.6-0.1,0.8c-0.2,0.6-0.2,1.2-0.3,1.8c0,0,0,0.1,0.1,0.1s0.2,0,0.2-0.1c0.3-0.2,0.6-0.4,0.8-0.7
			c0.4-0.3,0.8-0.7,1.1-1.1c0.4-0.4,0.9-0.7,1.3-1c0.1,0,0.1-0.1,0.2-0.1c0.3-0.1,0.7,0,0.8,0.3c0.1,0.3,0.3,0.5,0.3,0.8v1.4
			C67.3,76.9,67.3,77.2,67.2,77.5 M58.1,73.3c-0.2-0.1-0.5-0.1-0.7,0c-0.8,0.3-1.4,0.7-2,1.3c-0.4,0.5-0.8,1-1,1.6
			c-0.1,0.1-0.1,0.2-0.1,0.3l0.1,0.1c0.1,0,0.2,0,0.3-0.1c0.9-0.5,1.6-1.3,2.4-1.9c0.3-0.3,0.7-0.6,1-0.9c0.1,0,0.1-0.1,0.1-0.2
			C58.2,73.4,58.2,73.3,58.1,73.3"/>
		<path d="M67.2,77.5c0,0.1-0.1,0.1-0.1,0.2c-0.1,0.1-0.3,0-0.3-0.1s-0.1-0.1-0.1-0.2c-0.1-0.4-0.3-0.9-0.2-1.4
			c0-0.2-0.1-0.4-0.1-0.6c0-0.1-0.2-0.2-0.3-0.1c-0.2,0.1-0.4,0.2-0.6,0.3C65,76,64.6,76.5,64.2,77c-0.3,0.3-0.6,0.7-1,0.9
			c-0.2,0.2-0.5,0.3-0.7,0.4s-0.4,0.1-0.6,0.1c-0.2,0-0.4-0.2-0.4-0.4c0-0.3,0-0.7,0.1-1s0.1-0.6,0.1-0.9c0,0,0-0.1-0.1-0.1
			s-0.1,0-0.2,0c-0.6,0.4-1.2,0.9-1.8,1.4c-0.5,0.3-1,0.7-1.6,0.8c-0.3,0.1-0.6-0.2-0.6-0.4c-0.1-0.4,0-0.8,0.1-1.3
			c0.1-0.4,0.2-0.8,0.3-1.2c0,0,0-0.1-0.1-0.1s-0.2,0-0.2,0c-0.6,0.5-1.1,0.9-1.7,1.4c-0.3,0.2-0.6,0.4-0.9,0.6
			c-0.2,0.1-0.4,0.2-0.6,0.3c-0.5,0.2-1-0.2-0.8-0.8c0-0.2,0.1-0.3,0.1-0.5c0.7-1.6,1.8-2.9,3.3-3.7c0.2-0.1,0.5-0.2,0.8-0.3
			c0.5-0.2,1.1,0,1.5,0.5c0.2,0.2,0.3,0.5,0.4,0.8c0.1,0.5,0.1,1-0.4,1.3c-0.3,0.2-0.5,0.5-0.6,0.9s-0.2,0.7-0.2,1.1
			c0,0.2,0.2,0.3,0.3,0.2c0.1,0,0.1-0.1,0.2-0.1c0.1-0.1,0.3-0.2,0.4-0.3c1.1-0.7,2.1-1.5,2.9-2.5c0.1-0.1,0.3-0.1,0.4-0.1
			c0.1,0.1,0.2,0.2,0.2,0.3c0,0.3,0,0.6-0.1,0.8c-0.2,0.6-0.2,1.2-0.3,1.8c0,0,0,0.1,0.1,0.1s0.2,0,0.2-0.1c0.3-0.2,0.6-0.4,0.8-0.7
			c0.4-0.3,0.8-0.7,1.1-1.1c0.4-0.4,0.9-0.7,1.3-1c0.1,0,0.1-0.1,0.2-0.1c0.3-0.1,0.7,0,0.8,0.3c0.1,0.3,0.3,0.5,0.3,0.8v1.4
			C67.3,76.9,67.3,77.2,67.2,77.5z M58.1,73.3c-0.2-0.1-0.5-0.1-0.7,0c-0.8,0.3-1.4,0.7-2,1.3c-0.4,0.5-0.8,1-1,1.6
			c-0.1,0.1-0.1,0.2-0.1,0.3l0.1,0.1c0.1,0,0.2,0,0.3-0.1c0.9-0.5,1.6-1.3,2.4-1.9c0.3-0.3,0.7-0.6,1-0.9c0.1,0,0.1-0.1,0.1-0.2
			C58.2,73.4,58.2,73.3,58.1,73.3z"/>
		<path d="M72.4,71.8c0.1,0,0.2-0.1,0.3-0.1c0.2,0,0.3,0.1,0.5,0.2c0.1,0.1,0.2,0.2,0.4,0.2h0.1c0.1,0,0.3-0.1,0.3-0.3
			c0-0.1,0-0.1,0.1-0.1c0-0.1,0.1-0.2,0.1-0.3c0.1-0.6,0.2-1.1,0.4-1.6c0.1-0.2,0.1-0.4,0.2-0.6c0.1-0.4,0.4-0.9,0.7-1.3
			c0.1-0.1,0.3-0.2,0.4-0.2H76c0.3,0.1,0.5,0.4,0.4,0.6c0,0.2-0.1,0.4-0.2,0.5c-0.3,0.7-0.7,1.4-1,2.2c-0.2,0.5-0.3,1-0.3,1.5
			c0,0.6-0.1,1.1-0.2,1.7c-0.1,0.7,0,1.4,0.4,2.3c0.2,0.4,0.4,0.7,0.7,0.9c0.3,0.2,0.7,0.3,1.1,0.4H77h0.2c0.1,0,0.1,0,0.2,0.1V78
			c0,0.1-0.1,0.2-0.2,0.3c-0.1,0.1-0.3,0.1-0.5,0.1c-0.1,0-0.2,0-0.3,0c-0.6-0.1-1.1-0.4-1.6-0.9c-0.1-0.1-0.3-0.3-0.4-0.6
			c-0.4-0.9-0.6-1.7-0.6-2.4c0-0.1-0.1-0.2-0.1-0.3l0,0c0,0,0,0-0.1,0s-0.1,0.1-0.2,0.1c-0.1,0.2-0.3,0.4-0.5,0.6l0,0
			c-0.4,0.6-0.9,1.2-1.3,1.8c-0.4,0.5-0.8,1-1.5,1.4c-0.1,0.1-0.2,0.1-0.4,0.1h-0.1c-0.2,0-0.3-0.1-0.5-0.2
			c-0.2-0.3-0.3-0.6-0.2-1.2c0-0.1,0.1-0.3,0.1-0.4c0.1-0.4,0.2-1,0.4-1.5c0.1-0.5,0.5-1,0.8-1.4c0.1-0.1,0.1-0.1,0.1-0.2
			C70.9,72.6,71.5,72.1,72.4,71.8 M71.1,73.5c-0.5,0.6-0.8,1.2-1.1,1.8c-0.1,0.4-0.2,0.8-0.2,1.2l0,0c0,0,0,0,0,0.1s0,0.1,0,0.2
			s0,0.1,0.1,0.2H70c0.1,0,0.1,0,0.1,0c1-0.7,1.7-1.7,2.4-2.7c0.1-0.1,0.1-0.2,0.2-0.3c0.1-0.2,0.1-0.4,0-0.7c0-0.1-0.1-0.2-0.1-0.2
			l0,0c-0.1-0.2-0.3-0.3-0.4-0.3s-0.1,0-0.1,0C71.8,73,71.4,73.2,71.1,73.5"/>
		<path d="M72.4,71.8c0.1,0,0.2-0.1,0.3-0.1c0.2,0,0.3,0.1,0.5,0.2c0.1,0.1,0.2,0.2,0.4,0.2h0.1c0.1,0,0.3-0.1,0.3-0.3
			c0-0.1,0-0.1,0.1-0.1c0-0.1,0.1-0.2,0.1-0.3c0.1-0.6,0.2-1.1,0.4-1.6c0.1-0.2,0.1-0.4,0.2-0.6c0.1-0.4,0.4-0.9,0.7-1.3
			c0.1-0.1,0.3-0.2,0.4-0.2H76c0.3,0.1,0.5,0.4,0.4,0.6c0,0.2-0.1,0.4-0.2,0.5c-0.3,0.7-0.7,1.4-1,2.2c-0.2,0.5-0.3,1-0.3,1.5
			c0,0.6-0.1,1.1-0.2,1.7c-0.1,0.7,0,1.4,0.4,2.3c0.2,0.4,0.4,0.7,0.7,0.9c0.3,0.2,0.7,0.3,1.1,0.4H77h0.2c0.1,0,0.1,0,0.2,0.1V78
			c0,0.1-0.1,0.2-0.2,0.3c-0.1,0.1-0.3,0.1-0.5,0.1c-0.1,0-0.2,0-0.3,0c-0.6-0.1-1.1-0.4-1.6-0.9c-0.1-0.1-0.3-0.3-0.4-0.6
			c-0.4-0.9-0.6-1.7-0.6-2.4c0-0.1-0.1-0.2-0.1-0.3l0,0c0,0,0,0-0.1,0s-0.1,0.1-0.2,0.1c-0.1,0.2-0.3,0.4-0.5,0.6l0,0
			c-0.4,0.6-0.9,1.2-1.3,1.8c-0.4,0.5-0.8,1-1.5,1.4c-0.1,0.1-0.2,0.1-0.4,0.1h-0.1c-0.2,0-0.3-0.1-0.5-0.2
			c-0.2-0.3-0.3-0.6-0.2-1.2c0-0.1,0.1-0.3,0.1-0.4c0.1-0.4,0.2-1,0.4-1.5c0.1-0.5,0.5-1,0.8-1.4c0.1-0.1,0.1-0.1,0.1-0.2
			C70.9,72.6,71.5,72.1,72.4,71.8z M71.1,73.5c-0.5,0.6-0.8,1.2-1.1,1.8c-0.1,0.4-0.2,0.8-0.2,1.2l0,0c0,0,0,0,0,0.1s0,0.1,0,0.2
			s0,0.1,0.1,0.2H70c0.1,0,0.1,0,0.1,0c1-0.7,1.7-1.7,2.4-2.7c0.1-0.1,0.1-0.2,0.2-0.3c0.1-0.2,0.1-0.4,0-0.7c0-0.1-0.1-0.2-0.1-0.2
			l0,0c-0.1-0.2-0.3-0.3-0.4-0.3s-0.1,0-0.1,0C71.8,73,71.4,73.2,71.1,73.5z"/>
		<path d="M83.8,74.6C83.8,74.5,83.8,74.5,83.8,74.6c-0.1-0.1-0.2-0.1-0.2,0c-0.3,0.3-0.6,0.7-0.8,1.1c-0.5,0.8-1.1,1.4-1.7,2
			c-0.1,0.2-0.3,0.2-0.5,0.3c-0.1,0-0.3,0-0.4-0.1c-0.2-0.2-0.3-0.5-0.2-0.8c0.1-0.4,0.1-0.7,0.1-1.1c0-0.1-0.1-0.2-0.1-0.2h-0.1
			c-0.2,0.2-0.3,0.3-0.5,0.5C79,76.9,78.5,77.4,78,78c-0.1,0.1-0.2,0.2-0.4,0.3c-0.3,0.1-0.7-0.1-0.7-0.4c0-0.4,0-0.8,0.1-1.2
			c0.3-1.4,0.6-2.8,1.1-4.1c0.1-0.1,0.1-0.2,0.2-0.3c0.2-0.1,0.3,0,0.4,0.1s0.2,0.3,0.2,0.4s0,0.2-0.1,0.3c-0.5,1-0.7,2-1,3.1
			c0,0,0,0.1,0.1,0.1H78c0.2-0.1,0.4-0.3,0.6-0.4c0.4-0.5,0.8-1,1.3-1.4c0.2-0.2,0.3-0.5,0.5-0.7c0.1-0.1,0.2-0.2,0.3-0.3
			c0.1-0.1,0.3-0.1,0.4,0c0.1,0.2,0.2,0.3,0.2,0.6c0,0.1,0,0.2-0.1,0.2c-0.3,0.7-0.3,1.5-0.5,2.3c0,0,0,0.1,0.1,0.1h0.1
			c0.1-0.1,0.3-0.2,0.4-0.2c0.8-0.8,1.5-1.8,2.2-2.7c0.1-0.1,0.1-0.2,0.2-0.3c0.1-0.2,0.3-0.3,0.5-0.2c0.2,0.1,0.3,0.2,0.4,0.4
			c0.1,0.2,0.1,0.5,0.1,0.7c0,0.8,0,1.6-0.1,2.4c-0.1,0.6-0.1,1.3,0.1,1.9c0,0.1,0,0.3,0,0.4s-0.1,0.2-0.1,0.2c-0.1,0-0.2,0-0.2,0
			c-0.1-0.1-0.2-0.2-0.2-0.3c-0.3-0.9-0.4-1.7-0.3-2.6C83.9,75.5,83.9,75,83.8,74.6"/>
		<path d="M83.8,74.6C83.8,74.5,83.8,74.5,83.8,74.6c-0.1-0.1-0.2-0.1-0.2,0c-0.3,0.3-0.6,0.7-0.8,1.1c-0.5,0.8-1.1,1.4-1.7,2
			c-0.1,0.2-0.3,0.2-0.5,0.3c-0.1,0-0.3,0-0.4-0.1c-0.2-0.2-0.3-0.5-0.2-0.8c0.1-0.4,0.1-0.7,0.1-1.1c0-0.1-0.1-0.2-0.1-0.2h-0.1
			c-0.2,0.2-0.3,0.3-0.5,0.5C79,76.9,78.5,77.4,78,78c-0.1,0.1-0.2,0.2-0.4,0.3c-0.3,0.1-0.7-0.1-0.7-0.4c0-0.4,0-0.8,0.1-1.2
			c0.3-1.4,0.6-2.8,1.1-4.1c0.1-0.1,0.1-0.2,0.2-0.3c0.2-0.1,0.3,0,0.4,0.1s0.2,0.3,0.2,0.4s0,0.2-0.1,0.3c-0.5,1-0.7,2-1,3.1
			c0,0,0,0.1,0.1,0.1H78c0.2-0.1,0.4-0.3,0.6-0.4c0.4-0.5,0.8-1,1.3-1.4c0.2-0.2,0.3-0.5,0.5-0.7c0.1-0.1,0.2-0.2,0.3-0.3
			c0.1-0.1,0.3-0.1,0.4,0c0.1,0.2,0.2,0.3,0.2,0.6c0,0.1,0,0.2-0.1,0.2c-0.3,0.7-0.3,1.5-0.5,2.3c0,0,0,0.1,0.1,0.1h0.1
			c0.1-0.1,0.3-0.2,0.4-0.2c0.8-0.8,1.5-1.8,2.2-2.7c0.1-0.1,0.1-0.2,0.2-0.3c0.1-0.2,0.3-0.3,0.5-0.2c0.2,0.1,0.3,0.2,0.4,0.4
			c0.1,0.2,0.1,0.5,0.1,0.7c0,0.8,0,1.6-0.1,2.4c-0.1,0.6-0.1,1.3,0.1,1.9c0,0.1,0,0.3,0,0.4s-0.1,0.2-0.1,0.2c-0.1,0-0.2,0-0.2,0
			c-0.1-0.1-0.2-0.2-0.2-0.3c-0.3-0.9-0.4-1.7-0.3-2.6C83.9,75.5,83.9,75,83.8,74.6z"/>
		<path d="M93.4,78.1c0,0.1,0,0.2-0.1,0.2l-0.1,0.1c-0.1,0-0.1,0-0.2,0.1c-0.2,0.1-0.4,0.1-0.6,0.2c-0.1,0-0.2,0-0.4,0
			c-0.4,0-0.8-0.1-1.3-0.3c-0.5-0.3-0.8-0.7-1-1.4c0-0.1,0-0.1-0.1-0.2c0-0.2-0.1-0.3-0.2-0.4l-0.1-0.1l0,0
			c-0.1,0.1-0.2,0.2-0.3,0.3c-0.2,0.2-0.3,0.4-0.5,0.6s-0.4,0.4-0.6,0.6s-0.5,0.4-0.8,0.6c-0.1,0-0.2,0.1-0.3,0.1
			c-0.4,0-0.9-0.3-0.9-0.8v-0.2c0-0.1,0-0.1,0-0.1l0,0c0.1-1.6,0.7-2.9,1.8-4c0.3-0.3,0.7-0.5,1.1-0.7c0.1-0.1,0.3-0.1,0.4-0.1
			c0.2,0,0.4,0.1,0.6,0.2c0.1,0.1,0.2,0.1,0.3,0.2c0.1,0,0.1,0.1,0.2,0.2c0.1,0,0.1,0.1,0.2,0.1s0.1,0,0.2-0.1
			c0.1,0,0.1-0.1,0.2-0.1H91c0.1,0,0.3,0.1,0.3,0.2c0.1,0.1,0.1,0.3,0.1,0.3c-0.2,0.4-0.4,0.8-0.6,1.1c-0.2,0.3-0.3,0.6-0.3,1V76
			c0,0.2,0,0.5,0,0.7s0.1,0.4,0.1,0.5c0.3,0.6,0.7,0.9,1.5,0.9h0.1c0.1,0,0.2,0,0.3,0c0.1,0,0.3,0,0.4,0s0.2,0,0.3,0
			C93.3,78,93.4,78,93.4,78.1 M89.2,73.2c-0.5,0.2-0.9,0.5-1.3,1c-0.7,0.8-1,1.8-1.1,2.8v0.1c0,0,0,0.1,0,0.2s0.1,0.2,0.2,0.2h0
			c0,0,0.1,0,0.1-0.1c0.1,0,0.1-0.1,0.2-0.1c0.8-0.6,1.5-1.3,2.2-2.2c0.2-0.3,0.4-0.7,0.5-1.1c0-0.1,0-0.2-0.1-0.3
			c-0.1-0.1-0.1-0.2-0.3-0.3C89.4,73.2,89.3,73.1,89.2,73.2"/>
		<path d="M93.4,78.1c0,0.1,0,0.2-0.1,0.2l-0.1,0.1c-0.1,0-0.1,0-0.2,0.1c-0.2,0.1-0.4,0.1-0.6,0.2c-0.1,0-0.2,0-0.4,0
			c-0.4,0-0.8-0.1-1.3-0.3c-0.5-0.3-0.8-0.7-1-1.4c0-0.1,0-0.1-0.1-0.2c0-0.2-0.1-0.3-0.2-0.4l-0.1-0.1l0,0
			c-0.1,0.1-0.2,0.2-0.3,0.3c-0.2,0.2-0.3,0.4-0.5,0.6s-0.4,0.4-0.6,0.6s-0.5,0.4-0.8,0.6c-0.1,0-0.2,0.1-0.3,0.1
			c-0.4,0-0.9-0.3-0.9-0.8v-0.2c0-0.1,0-0.1,0-0.1l0,0c0.1-1.6,0.7-2.9,1.8-4c0.3-0.3,0.7-0.5,1.1-0.7c0.1-0.1,0.3-0.1,0.4-0.1
			c0.2,0,0.4,0.1,0.6,0.2c0.1,0.1,0.2,0.1,0.3,0.2c0.1,0,0.1,0.1,0.2,0.2c0.1,0,0.1,0.1,0.2,0.1s0.1,0,0.2-0.1
			c0.1,0,0.1-0.1,0.2-0.1H91c0.1,0,0.3,0.1,0.3,0.2c0.1,0.1,0.1,0.3,0.1,0.3c-0.2,0.4-0.4,0.8-0.6,1.1c-0.2,0.3-0.3,0.6-0.3,1V76
			c0,0.2,0,0.5,0,0.7s0.1,0.4,0.1,0.5c0.3,0.6,0.7,0.9,1.5,0.9h0.1c0.1,0,0.2,0,0.3,0c0.1,0,0.3,0,0.4,0s0.2,0,0.3,0
			C93.3,78,93.4,78,93.4,78.1z M89.2,73.2c-0.5,0.2-0.9,0.5-1.3,1c-0.7,0.8-1,1.8-1.1,2.8v0.1c0,0,0,0.1,0,0.2s0.1,0.2,0.2,0.2h0
			c0,0,0.1,0,0.1-0.1c0.1,0,0.1-0.1,0.2-0.1c0.8-0.6,1.5-1.3,2.2-2.2c0.2-0.3,0.4-0.7,0.5-1.1c0-0.1,0-0.2-0.1-0.3
			c-0.1-0.1-0.1-0.2-0.3-0.3C89.4,73.2,89.3,73.1,89.2,73.2z"/>
		<path d="M96.2,71.8c0.1,0,0.2-0.1,0.3-0.1c0.2,0,0.3,0.1,0.5,0.2c0.1,0.1,0.2,0.2,0.4,0.2h0.1c0.1,0,0.3-0.1,0.3-0.3
			c0-0.1,0-0.1,0.1-0.1c0-0.1,0.1-0.2,0.1-0.3c0.1-0.6,0.2-1.1,0.4-1.6c0.1-0.2,0.1-0.4,0.2-0.6c0.1-0.4,0.4-0.9,0.7-1.3
			c0.1-0.1,0.3-0.2,0.4-0.2h0.1c0.3,0.1,0.5,0.4,0.4,0.6c0,0.2-0.1,0.4-0.2,0.5c-0.3,0.7-0.7,1.4-1,2.2c-0.2,0.5-0.3,1-0.3,1.5
			c0,0.6-0.1,1.1-0.2,1.7c-0.1,0.7,0,1.4,0.4,2.3c0.2,0.4,0.4,0.7,0.7,0.9c0.3,0.2,0.7,0.3,1.1,0.4h0.2h0.2c0.1,0,0.1,0,0.2,0.1V78
			c0,0.1-0.1,0.2-0.2,0.3c-0.1,0.1-0.3,0.1-0.5,0.1c-0.1,0-0.2,0-0.3,0c-0.6-0.1-1.1-0.4-1.6-0.9c-0.1-0.1-0.3-0.3-0.4-0.6
			c-0.4-0.9-0.6-1.7-0.6-2.4c0-0.1-0.1-0.2-0.1-0.3l0,0c0,0,0,0-0.1,0s-0.1,0.1-0.2,0.1c-0.1,0.2-0.3,0.4-0.5,0.6l0,0
			c-0.4,0.6-0.9,1.2-1.3,1.8c-0.4,0.5-0.8,1-1.5,1.4c-0.1,0.1-0.2,0.1-0.4,0.1h-0.1c-0.2,0-0.3-0.1-0.5-0.2
			c-0.2-0.3-0.3-0.6-0.2-1.2c0-0.1,0.1-0.3,0.1-0.4c0.1-0.4,0.2-1,0.4-1.5c0.1-0.5,0.5-1,0.8-1.4c0.1-0.1,0.1-0.1,0.1-0.2
			C94.7,72.6,95.3,72.1,96.2,71.8 M94.9,73.5c-0.5,0.6-0.8,1.2-1.1,1.8c-0.1,0.4-0.2,0.8-0.2,1.2l0,0c0,0,0,0,0,0.1s0,0.1,0,0.2
			s0,0.1,0.1,0.2h0.1c0.1,0,0.1,0,0.1,0c1-0.7,1.7-1.7,2.4-2.7c0.1-0.1,0.1-0.2,0.2-0.3c0.1-0.2,0.1-0.4,0-0.7
			c0-0.1-0.1-0.2-0.1-0.2l0,0c-0.1-0.2-0.3-0.3-0.4-0.3s-0.1,0-0.1,0C95.6,73,95.2,73.2,94.9,73.5"/>
		<path d="M96.2,71.8c0.1,0,0.2-0.1,0.3-0.1c0.2,0,0.3,0.1,0.5,0.2c0.1,0.1,0.2,0.2,0.4,0.2h0.1c0.1,0,0.3-0.1,0.3-0.3
			c0-0.1,0-0.1,0.1-0.1c0-0.1,0.1-0.2,0.1-0.3c0.1-0.6,0.2-1.1,0.4-1.6c0.1-0.2,0.1-0.4,0.2-0.6c0.1-0.4,0.4-0.9,0.7-1.3
			c0.1-0.1,0.3-0.2,0.4-0.2h0.1c0.3,0.1,0.5,0.4,0.4,0.6c0,0.2-0.1,0.4-0.2,0.5c-0.3,0.7-0.7,1.4-1,2.2c-0.2,0.5-0.3,1-0.3,1.5
			c0,0.6-0.1,1.1-0.2,1.7c-0.1,0.7,0,1.4,0.4,2.3c0.2,0.4,0.4,0.7,0.7,0.9c0.3,0.2,0.7,0.3,1.1,0.4h0.2h0.2c0.1,0,0.1,0,0.2,0.1V78
			c0,0.1-0.1,0.2-0.2,0.3c-0.1,0.1-0.3,0.1-0.5,0.1c-0.1,0-0.2,0-0.3,0c-0.6-0.1-1.1-0.4-1.6-0.9c-0.1-0.1-0.3-0.3-0.4-0.6
			c-0.4-0.9-0.6-1.7-0.6-2.4c0-0.1-0.1-0.2-0.1-0.3l0,0c0,0,0,0-0.1,0s-0.1,0.1-0.2,0.1c-0.1,0.2-0.3,0.4-0.5,0.6l0,0
			c-0.4,0.6-0.9,1.2-1.3,1.8c-0.4,0.5-0.8,1-1.5,1.4c-0.1,0.1-0.2,0.1-0.4,0.1h-0.1c-0.2,0-0.3-0.1-0.5-0.2
			c-0.2-0.3-0.3-0.6-0.2-1.2c0-0.1,0.1-0.3,0.1-0.4c0.1-0.4,0.2-1,0.4-1.5c0.1-0.5,0.5-1,0.8-1.4c0.1-0.1,0.1-0.1,0.1-0.2
			C94.7,72.6,95.3,72.1,96.2,71.8z M94.9,73.5c-0.5,0.6-0.8,1.2-1.1,1.8c-0.1,0.4-0.2,0.8-0.2,1.2l0,0c0,0,0,0,0,0.1s0,0.1,0,0.2
			s0,0.1,0.1,0.2h0.1c0.1,0,0.1,0,0.1,0c1-0.7,1.7-1.7,2.4-2.7c0.1-0.1,0.1-0.2,0.2-0.3c0.1-0.2,0.1-0.4,0-0.7
			c0-0.1-0.1-0.2-0.1-0.2l0,0c-0.1-0.2-0.3-0.3-0.4-0.3s-0.1,0-0.1,0C95.6,73,95.2,73.2,94.9,73.5z"/>
		<path d="M104.3,77.1c0.3-0.1,0.7-0.3,1-0.5c0.1,0,0.1,0,0.2,0s0.1,0.2,0,0.3l-0.1,0.1c-0.7,0.5-1.5,0.8-2.3,1.1
			c-0.4,0.1-0.8,0.1-1.2,0.1c-0.7-0.1-1.3-0.7-1.3-1.4c0-0.4,0-0.8,0.1-1.2c0.1-0.7,0.3-1.3,0.7-1.9c0.1-0.1,0.1-0.2,0.2-0.3
			c0.4-0.4,0.9-0.8,1.4-1c0.1-0.1,0.3-0.1,0.4-0.2c0.5-0.2,1,0.2,1.1,0.7c0.1,0.3,0,0.5-0.1,0.7c-0.3,0.4-0.8,0.8-1.2,1
			c-0.2,0.1-0.5,0.1-0.8,0.2c-0.1,0-0.2,0-0.3,0c-0.2,0-0.3,0.1-0.3,0.2c-0.2,0.3-0.3,0.7-0.3,1.1c0,0.3,0,0.6,0.2,0.9
			c0.1,0.2,0.3,0.3,0.4,0.3s0.3,0,0.3,0C103,77.6,103.6,77.3,104.3,77.1 M102.6,74c0.4,0,0.6-0.2,0.8-0.5v-0.1l-0.1-0.1
			c-0.4,0-0.6,0.1-0.8,0.4v0.1C102.4,73.9,102.5,74,102.6,74"/>
		<path d="M104.3,77.1c0.3-0.1,0.7-0.3,1-0.5c0.1,0,0.1,0,0.2,0s0.1,0.2,0,0.3l-0.1,0.1c-0.7,0.5-1.5,0.8-2.3,1.1
			c-0.4,0.1-0.8,0.1-1.2,0.1c-0.7-0.1-1.3-0.7-1.3-1.4c0-0.4,0-0.8,0.1-1.2c0.1-0.7,0.3-1.3,0.7-1.9c0.1-0.1,0.1-0.2,0.2-0.3
			c0.4-0.4,0.9-0.8,1.4-1c0.1-0.1,0.3-0.1,0.4-0.2c0.5-0.2,1,0.2,1.1,0.7c0.1,0.3,0,0.5-0.1,0.7c-0.3,0.4-0.8,0.8-1.2,1
			c-0.2,0.1-0.5,0.1-0.8,0.2c-0.1,0-0.2,0-0.3,0c-0.2,0-0.3,0.1-0.3,0.2c-0.2,0.3-0.3,0.7-0.3,1.1c0,0.3,0,0.6,0.2,0.9
			c0.1,0.2,0.3,0.3,0.4,0.3s0.3,0,0.3,0C103,77.6,103.6,77.3,104.3,77.1z M102.6,74c0.4,0,0.6-0.2,0.8-0.5v-0.1l-0.1-0.1
			c-0.4,0-0.6,0.1-0.8,0.4v0.1C102.4,73.9,102.5,74,102.6,74z"/>
		<path d="M2.5,58.9c2-2.4,3.4-5.6,3.4-8.6c0-2.6-0.6-3.9-2.2-7.5c-1.4-3-2-5.2-2-8.3c0-4.2,1.3-8.3,3.7-11.7h5.4
			c-3.1,2.9-5.1,7.1-5.1,11.7c0,1.9,0.2,3.4,1.8,7.1c1.8,3.8,2.4,5.7,2.4,8.4c0,2.1-0.5,5.6-2.3,8.9H2.5z"/>
		<path d="M20.1,22.9v30c0,0.5,0,3,2.4,3c2.5,0,2.5-2.3,2.5-3v-30h4v30c0,1.5-0.2,3.5-1.8,5.1c-1.2,1.2-2.9,1.8-4.6,1.8
			c-1.9,0-6.4-0.7-6.4-6.9v-30C16.2,22.9,20.1,22.9,20.1,22.9z"/>
		<path d="M35.4,58.9c2-2.4,3.4-5.6,3.4-8.6c0-2.6-0.6-3.9-2.3-7.5c-1.4-3-2-5.2-2-8.3c0-4.2,1.3-8.3,3.7-11.7h5.4
			c-3.1,2.9-5.1,7.1-5.1,11.7c0,1.9,0.2,3.4,1.8,7.1c1.8,3.8,2.4,5.7,2.4,8.4c0,2.1-0.5,5.6-2.3,8.9H35.4z"/>
		<polygon points="49,22.9 53,22.9 53,47.7 58.1,47.7 58.1,22.9 62,22.9 62,58.9 58.1,58.9 58.1,51.4 53,51.4 53,58.9 49,58.9 		"/>
		<rect x="69.2" y="22.9" width="3.9" height="36"/>
		<path d="M103.8,29c0-5.5,3.6-7.3,6.4-7.3c1,0,3.4,0.2,4.9,2.1c1.4,2,1.4,3.6,1.4,5.1v29.7h-3.9v-7.5h-4.8v7.5h-3.9L103.8,29
			L103.8,29z M112.6,47.5V29c0-1.2,0-3.3-2.4-3.3s-2.4,2.1-2.4,3.3v18.5H112.6z"/>
		<rect x="122.1" y="22.6" width="3.9" height="36"/>
		<path d="M142.2,58.7h-4.4c-2.2,0-4-0.4-5-1.8c-1.3-1.7-1.3-3.1-1.3-5V22.6h4v29.2c0,2.4,0.1,2.9,2.3,2.9h4.4V58.7z"/>
		<path d="M148,51c-1.4-0.5-2.6-1.2-3.3-2.4c-0.7-1.1-1.1-2.6-1.1-4.3V22.6h3.9v21.7c0,1.9,1.2,2.8,2.5,2.8c1,0,2.5-0.6,2.5-2.8
			V22.6h3.9v21.7c0,3.5-1.6,5.7-4.5,6.6v7.7H148V51z"/>
		<path d="M86.1,21.5c8.5,3.4,13.3,10.3,13.3,18.9s-4.8,15.5-13.3,18.9V21.5z M90,52.7c3.4-3.2,5.6-7.4,5.6-12c0-4.7-2.2-9-5.6-12.2
			V52.7z"/>
		<path class="st0" d="M198.4,58.2c0,0.5-0.4,1-0.9,1h-34.8c-0.5,0-0.9-0.4-0.9-1V22.6c0-0.5,0.4-1,0.9-1h34.8c0.5,0,0.9,0.4,0.9,1
			V58.2z"/>
		<path class="st1" d="M163.9,43.9c0.3,0.3,0.8,0.3,1.1,0.2c0.4-0.1,0.7-0.4,1.1-0.7c0.4-0.3,1.5-1.6,2.6-1.8c0.3,0,0.5,0,0.7,0.2
			c0.3,0.2,0.5,0.3,0.7,0.5c0.4,0.3,0.7,0.4,0.7,0.4s1.2,0.6,2.6,0.8c1.5,0.2,3.1-0.3,3.5-0.6c0.9-0.5,1.3-0.9,1.7-1.6
			c-0.7,0.4-1.2,0.6-2,1c-0.4,0.2-1.8,0.7-3.2,0.5c-1.3-0.2-2.4-0.8-2.4-0.8s-0.3-0.1-0.7-0.4c-0.2-0.1-0.5-0.3-0.7-0.4
			c-0.3-0.2-0.8-0.4-1.2-0.3c-0.9,0.2-1.4,0.7-1.9,1.1c-0.5,0.4-0.8,0.8-1,0.9C164.9,43.5,164.7,44,163.9,43.9"/>
		<path class="st1" d="M178.5,39.6c-0.5-0.7-0.9-1.1-1.8-1.5c-0.5-0.2-2.1-0.7-3.6-0.4s-2.6,1-2.6,1s-0.3,0.2-0.7,0.4
			c-0.2,0.1-0.5,0.3-0.7,0.5c-0.2,0.1-0.4,0.2-0.7,0.1c-1.1-0.4-2.1-1.8-2.5-2.1c-0.3-0.3-0.7-0.6-1-0.7c-0.3-0.1-0.9-0.2-1.1,0.1
			c0.8-0.1,1,0.5,1.7,1.1c0.4,0.3,1.2,1.6,2.8,2.2c0.4,0.1,0.9,0.1,1.2-0.2c0.3-0.2,0.5-0.4,0.7-0.5c0.4-0.3,0.7-0.4,0.7-0.4
			s1.1-0.7,2.4-0.9c1.3-0.3,2.7,0.1,3.2,0.3C177.3,39,177.8,39.3,178.5,39.6"/>
		<path class="st1" d="M175.8,40.3c-0.1-0.3,0.1-0.3,0-0.4c0,0,0-0.1,0-0.2c0-0.1,0,0,0,0s-0.1,0,0,0c0,0.1,0,0.2,0,0.2
			C175.8,40,175.9,40.1,175.8,40.3c0.1,0.2,0.4,0.2,0.5,0c0.1-0.1,0.2-0.5,0.1-0.8c-0.1-0.4-0.6-0.5-0.6-0.5s-0.5,0-0.6,0.4
			c-0.2,0.3-0.1,0.7,0,0.8C175.4,40.5,175.7,40.5,175.8,40.3"/>
		<path class="st1" d="M196.3,37c-0.3-0.3-0.8-0.3-1.1-0.2c-0.4,0.1-0.7,0.4-1.1,0.7c-0.4,0.3-1.5,1.6-2.6,1.8c-0.3,0-0.5,0-0.7-0.2
			c-0.3-0.2-0.5-0.3-0.7-0.5c-0.4-0.3-0.7-0.4-0.7-0.4s-1.2-0.6-2.6-0.8c-1.5-0.2-3.1,0.3-3.5,0.6c-0.9,0.5-1.3,0.9-1.7,1.6
			c0.7-0.4,1.2-0.6,2-1c0.4-0.2,1.8-0.7,3.2-0.5c1.3,0.2,2.4,0.8,2.4,0.8s0.3,0.1,0.7,0.4c0.2,0.1,0.4,0.3,0.7,0.4
			c0.3,0.2,0.8,0.4,1.2,0.3c0.9-0.2,1.4-0.7,1.9-1.1c0.5-0.4,0.8-0.8,1-0.9C195.3,37.5,195.5,36.9,196.3,37"/>
		<path class="st1" d="M181.7,41.4c0.5,0.7,0.9,1.1,1.8,1.5c0.5,0.2,2.1,0.7,3.6,0.4s2.6-1,2.6-1s0.3-0.2,0.7-0.4
			c0.2-0.1,0.5-0.3,0.7-0.5c0.2-0.1,0.4-0.2,0.7-0.1c1.1,0.4,2.1,1.8,2.5,2.1c0.3,0.3,0.7,0.6,1,0.7c0.3,0.1,0.8,0.2,1.1-0.1
			c-0.8,0.1-1-0.5-1.7-1.1c-0.4-0.3-1.2-1.6-2.8-2.2c-0.4-0.1-0.9-0.1-1.2,0.2c-0.3,0.2-0.5,0.4-0.7,0.5c-0.4,0.3-0.7,0.4-0.7,0.4
			s-1.1,0.7-2.4,0.9c-1.3,0.3-2.7-0.1-3.2-0.3C182.9,41.9,182.4,41.7,181.7,41.4"/>
		<path class="st1" d="M184.4,39.5c0.1,0.3-0.1,0.3,0,0.3c0,0,0,0.1,0,0.2c0,0.1,0,0,0,0s0.1,0,0,0c0-0.1,0-0.2,0-0.2
			C184.4,39.8,184.3,39.7,184.4,39.5c-0.1-0.2-0.4-0.2-0.6,0c-0.1,0.1-0.2,0.5-0.1,0.8c0.1,0.4,0.6,0.5,0.6,0.5s0.5,0,0.6-0.4
			c0.2-0.3,0.1-0.7,0-0.8C184.8,39.3,184.5,39.3,184.4,39.5"/>
		<path class="st1" d="M176.7,23.3c-0.3,0.3-0.3,0.8-0.2,1.2c0.1,0.4,0.3,0.7,0.6,1.1c0.2,0.4,1.6,1.6,1.8,2.8
			c0.1,0.5-0.5,1.1-0.7,1.6s-0.4,0.8-0.4,0.8s-0.6,1.2-0.8,2.8c-0.2,1.5,0.3,3.2,0.5,3.6c0.4,0.9,0.9,1.3,1.5,1.8
			c-0.3-0.8-0.6-1.3-0.9-2.1c-0.2-0.4-0.7-1.9-0.5-3.3c0.1-1.4,0.7-2.6,0.7-2.6s0.1-0.3,0.4-0.7c0.1-0.2,0.3-0.5,0.4-0.8
			c0.2-0.3,0.4-0.8,0.3-1.2c-0.1-0.9-0.6-1.5-1-2.1c-0.4-0.5-0.7-0.9-0.9-1.1C177.2,24.4,176.6,24.1,176.7,23.3"/>
		<path class="st1" d="M180.8,38.8c0.7-0.5,1.1-0.9,1.5-1.9c0.2-0.5,0.7-2.2,0.4-3.7c-0.2-1.5-0.9-2.7-0.9-2.7s-0.1-0.3-0.4-0.8
			c-0.1-0.2-0.3-0.5-0.5-0.8c-0.1-0.2-0.2-0.5-0.1-0.7c0.4-1.2,1.7-2.3,2-2.7c0.3-0.4,0.6-0.7,0.7-1.1c0.1-0.4,0.2-0.9-0.1-1.2
			c0.1,0.8-0.5,1.1-1.1,1.8c-0.2,0.2-0.5,0.6-1,1.1c-0.4,0.5-1,1.1-1.2,1.9c-0.1,0.4,0,0.9,0.2,1.3c0.2,0.3,0.3,0.5,0.5,0.7
			c0.2,0.4,0.4,0.7,0.4,0.7s0.6,1.1,0.9,2.5c0.3,1.4-0.1,2.9-0.3,3.3C181.3,37.5,181.1,38,180.8,38.8"/>
		<path class="st1" d="M180.1,36c0.2-0.1,0.3,0,0.4,0c0.1,0,0.2,0,0.1,0h-0.1C180.4,36,180.3,36.1,180.1,36
			c-0.2,0.1-0.3,0.4-0.1,0.5c0.1,0.1,0.5,0.3,0.8,0.1c0.4-0.1,0.4-0.6,0.4-0.6s0-0.5-0.4-0.6c-0.3-0.2-0.7-0.1-0.8,0
			C179.9,35.6,179.9,35.8,180.1,36"/>
		<path class="st1" d="M183.2,57.6c0.3-0.3,0.3-0.8,0.2-1.2s-0.3-0.7-0.6-1.1c-0.3-0.4-1.6-1.6-1.8-2.8c-0.1-0.5,0.5-1.1,0.7-1.6
			s0.4-0.8,0.4-0.8s0.6-1.2,0.8-2.8c0.2-1.5-0.3-3.2-0.5-3.6c-0.4-0.9-0.9-1.3-1.5-1.8c0.3,0.8,0.5,1.3,0.9,2.1
			c0.2,0.4,0.7,1.9,0.5,3.3c-0.1,1.4-0.7,2.6-0.7,2.6s-0.1,0.3-0.3,0.7c-0.1,0.2-0.3,0.5-0.4,0.8c-0.2,0.3-0.4,0.8-0.3,1.2
			c0.1,0.9,0.6,1.5,1,2.1c0.4,0.5,0.7,0.9,0.9,1.1C182.8,56.5,183.3,56.8,183.2,57.6"/>
		<path class="st1" d="M179.1,42.1c-0.7,0.5-1.1,1-1.5,1.9c-0.2,0.5-0.7,2.2-0.4,3.7c0.2,1.5,0.9,2.7,0.9,2.7s0.1,0.3,0.4,0.8
			c0.1,0.2,0.3,0.5,0.5,0.8c0.1,0.2,0.2,0.5,0.1,0.7c-0.4,1.2-1.7,2.3-2,2.7s-0.5,0.7-0.7,1.1c-0.1,0.4-0.2,0.9,0.1,1.2
			c-0.1-0.8,0.5-1.1,1-1.8c0.2-0.2,0.5-0.6,1-1.1c0.4-0.5,1-1.1,1.2-1.9c0.1-0.4,0-0.9-0.2-1.3c-0.2-0.3-0.3-0.5-0.5-0.7
			c-0.3-0.4-0.4-0.7-0.4-0.7s-0.6-1.1-0.8-2.5c-0.3-1.4,0.1-2.9,0.3-3.3C178.6,43.4,178.8,42.9,179.1,42.1"/>
		<path class="st1" d="M180.9,45c-0.2,0.1-0.3,0-0.3,0c-0.1,0-0.2,0-0.1,0h0.1C180.6,45,180.7,44.9,180.9,45
			c0.2-0.1,0.3-0.4,0.1-0.5c-0.1-0.1-0.5-0.3-0.8-0.1c-0.4,0.1-0.4,0.6-0.4,0.6s0,0.5,0.4,0.6c0.3,0.2,0.7,0.1,0.8,0
			C181.1,45.4,181.1,45.1,180.9,45"/>
		<path class="st1" d="M175.9,33.6c-0.3,0.8-0.6,1.3-1.2,1.9c-0.2,0.2-0.6,0.5-1.1,0.6c-0.6,0.1-1.3,0-1.8-0.4
			c-1.2-0.8-1.1-2.3-1.1-2.2c0,0.1,0-1.4,1.1-2.2c0.5-0.4,1.3-0.5,1.8-0.3c0.6,0.1,1,0.5,1.1,0.6C175.4,32.3,175.7,32.8,175.9,33.6
			c0.2-0.8,0.1-1.6-0.6-2.4c-0.2-0.2-0.7-0.6-1.4-0.8c-0.7-0.2-1.7-0.1-2.4,0.4c-1.5,1-1.5,2.8-1.5,2.7s-0.1,1.7,1.4,2.8
			c0.7,0.5,1.6,0.7,2.4,0.5c0.8-0.2,1.2-0.6,1.5-0.8C176,35.2,176.1,34.4,175.9,33.6"/>
		<path class="st1" d="M174.6,33.6c-0.2,0.4-0.4,0.6-0.7,0.9c-0.1,0.2-0.8,0.5-1.3,0.1c-0.5-0.4-0.5-1-0.5-1s0-0.6,0.5-1
			c0.5-0.4,1.2,0,1.3,0.1C174.2,33,174.4,33.2,174.6,33.6c0.2-0.4,0.2-0.9-0.2-1.4c-0.1-0.1-0.4-0.4-0.8-0.5c-0.4-0.1-0.9,0-1.3,0.2
			c-0.8,0.6-0.8,1.6-0.8,1.5c0,0-0.1,1,0.8,1.5c0.4,0.3,0.9,0.4,1.3,0.3c0.4-0.1,0.7-0.3,0.8-0.4C174.8,34.5,174.8,34,174.6,33.6"/>
		<path class="st1" d="M183.9,33.4c0.3-0.8,0.5-1.3,1.2-1.9c0.2-0.2,0.6-0.5,1.1-0.6c0.6-0.1,1.3,0,1.8,0.4c1.2,0.8,1.1,2.2,1.1,2.2
			c0-0.1,0.1,1.4-1.1,2.2c-0.5,0.4-1.3,0.5-1.8,0.4c-0.6-0.1-1-0.5-1.1-0.6C184.4,34.7,184.1,34.2,183.9,33.4
			c-0.2,0.8-0.1,1.6,0.7,2.4c0.2,0.2,0.7,0.6,1.4,0.8s1.7,0,2.4-0.5c1.5-1,1.4-2.8,1.4-2.7c0,0.1,0.1-1.7-1.4-2.7
			c-0.7-0.5-1.6-0.6-2.4-0.5c-0.7,0.2-1.2,0.6-1.4,0.8C183.8,31.8,183.7,32.5,183.9,33.4"/>
		<path class="st1" d="M185.2,33.3c0.2-0.4,0.4-0.6,0.7-0.9c0.1-0.2,0.8-0.5,1.3-0.1c0.5,0.3,0.5,1,0.5,1s0,0.6-0.5,1
			c-0.5,0.4-1.2,0.1-1.3-0.1C185.6,33.9,185.4,33.7,185.2,33.3c-0.2,0.4-0.2,0.9,0.2,1.4c0.1,0.1,0.4,0.4,0.8,0.5
			c0.4,0.1,1,0,1.3-0.3c0.8-0.6,0.8-1.6,0.8-1.5c0,0,0.1-1-0.8-1.5c-0.4-0.3-0.9-0.4-1.3-0.3c-0.4,0.1-0.7,0.3-0.8,0.4
			C185,32.4,185,32.9,185.2,33.3"/>
		<path class="st1" d="M175.8,47.5c-0.3,0.8-0.6,1.3-1.2,1.9c-0.2,0.2-0.6,0.5-1.1,0.6c-0.6,0.1-1.3,0-1.8-0.4
			c-1.2-0.8-1.1-2.3-1.1-2.2s0-1.4,1.2-2.2c0.5-0.4,1.3-0.5,1.8-0.3c0.6,0.1,1,0.5,1.1,0.6C175.3,46.1,175.5,46.6,175.8,47.5
			c0.2-0.8,0.1-1.6-0.6-2.4c-0.2-0.2-0.7-0.6-1.4-0.8s-1.7-0.1-2.4,0.4c-1.5,1-1.5,2.8-1.5,2.7s-0.1,1.7,1.4,2.8
			c0.7,0.5,1.6,0.7,2.4,0.5c0.7-0.2,1.2-0.6,1.5-0.8C175.9,49.1,175.9,48.3,175.8,47.5"/>
		<path class="st1" d="M174.5,47.5c-0.2,0.4-0.4,0.6-0.7,0.9c-0.1,0.2-0.8,0.5-1.3,0.1s-0.5-1-0.5-1s0-0.6,0.5-1s1.2,0,1.3,0.1
			C174.1,46.9,174.2,47.1,174.5,47.5c0.2-0.4,0.2-0.9-0.2-1.4c-0.1-0.1-0.4-0.4-0.8-0.5c-0.4-0.1-0.9,0-1.3,0.2
			c-0.8,0.6-0.8,1.6-0.8,1.5c0,0-0.1,1,0.8,1.5c0.4,0.3,0.9,0.4,1.3,0.3c0.4-0.1,0.7-0.3,0.8-0.4C174.7,48.4,174.7,47.9,174.5,47.5"
			/>
		<path class="st1" d="M184,47.5c0.3-0.8,0.5-1.3,1.2-1.9c0.2-0.2,0.6-0.5,1.1-0.6c0.6-0.1,1.3,0,1.8,0.4c1.2,0.8,1.1,2.2,1.1,2.2
			c0-0.1,0.1,1.4-1.1,2.2c-0.5,0.4-1.3,0.5-1.8,0.4c-0.6-0.1-1-0.5-1.1-0.6C184.5,48.8,184.2,48.4,184,47.5
			c-0.2,0.8-0.1,1.6,0.7,2.4c0.2,0.2,0.7,0.6,1.4,0.8s1.7,0,2.4-0.5c1.5-1,1.4-2.8,1.4-2.7s0.1-1.7-1.4-2.7
			c-0.7-0.5-1.6-0.6-2.4-0.5c-0.7,0.2-1.2,0.6-1.5,0.8C183.9,45.9,183.8,46.7,184,47.5"/>
		<path class="st1" d="M185.3,47.5c0.2-0.4,0.4-0.6,0.7-0.9c0.1-0.2,0.8-0.5,1.3-0.1s0.5,1,0.5,1s0,0.6-0.5,1s-1.2,0.1-1.3-0.1
			C185.7,48.1,185.5,47.9,185.3,47.5c-0.2,0.4-0.2,0.9,0.2,1.4c0.1,0.1,0.4,0.4,0.8,0.4c0.4,0.1,0.9,0,1.3-0.3
			c0.8-0.6,0.8-1.6,0.8-1.5c0,0,0-1-0.8-1.5c-0.4-0.3-0.9-0.4-1.3-0.3c-0.4,0.1-0.7,0.3-0.8,0.4C185.1,46.6,185.1,47.1,185.3,47.5"
			/>
		<polygon class="st0" points="112.2,75.4 112.2,78.4 111.1,78.4 111.1,75.4 108.9,71.1 110.1,71.1 111.6,74.3 113.2,71.1 
			114.4,71.1 		"/>
		<path class="st0" d="M117.9,77.9c-0.3,0.3-0.9,0.6-1.6,0.6s-1.2-0.3-1.6-0.6c-0.5-0.5-0.6-1.2-0.6-2.1s0.1-1.5,0.6-2
			c0.3-0.3,0.8-0.6,1.6-0.6c0.7,0,1.2,0.3,1.6,0.6c0.5,0.5,0.6,1.2,0.6,2C118.5,76.7,118.4,77.4,117.9,77.9 M117.1,74.4
			c-0.2-0.2-0.5-0.3-0.8-0.3s-0.6,0.1-0.8,0.3c-0.3,0.3-0.4,0.9-0.4,1.4c0,0.6,0,1.1,0.4,1.4c0.2,0.2,0.5,0.3,0.8,0.3
			s0.6-0.1,0.8-0.3c0.3-0.3,0.4-0.9,0.4-1.4S117.4,74.7,117.1,74.4"/>
		<path class="st0" d="M123.1,78.4v-0.5c-0.4,0.4-0.9,0.6-1.4,0.6s-1-0.2-1.3-0.5c-0.4-0.4-0.5-0.9-0.5-1.5v-3.3h1v3.2
			c0,0.8,0.5,1.2,1,1.2s1.1-0.4,1.1-1.2v-3.2h1v5.2H123.1z"/>
		<path class="st0" d="M128.7,74.5c-0.2-0.2-0.4-0.3-0.8-0.3c-0.6,0-1,0.5-1,1.2v3h-1v-5.2h1v0.6c0.3-0.4,0.8-0.6,1.4-0.6
			c0.5,0,0.9,0.1,1.2,0.5L128.7,74.5z"/>
		<path class="st0" d="M134.8,78.5c-1.1,0-1.9-0.3-2.6-1l0.7-0.7c0.5,0.5,1.1,0.7,1.9,0.7c1,0,1.5-0.4,1.5-1.1
			c0-0.3-0.1-0.6-0.3-0.8c-0.2-0.2-0.4-0.2-0.8-0.3l-0.9-0.1c-0.6-0.1-1.1-0.3-1.4-0.6c-0.4-0.3-0.5-0.8-0.5-1.4
			c0-1.3,0.9-2.1,2.4-2.1c1,0,1.6,0.2,2.3,0.8l-0.7,0.7c-0.5-0.4-1-0.6-1.6-0.6c-0.9,0-1.3,0.5-1.3,1.1c0,0.3,0.1,0.5,0.3,0.7
			s0.5,0.3,0.8,0.3l0.8,0.1c0.7,0.1,1.1,0.3,1.4,0.5c0.4,0.3,0.6,0.9,0.6,1.5C137.5,77.7,136.4,78.5,134.8,78.5"/>
		<path class="st0" d="M142,78.4v-0.5c-0.4,0.4-0.9,0.6-1.4,0.6s-1-0.2-1.3-0.5c-0.4-0.4-0.5-0.9-0.5-1.5v-3.3h1v3.2
			c0,0.8,0.5,1.2,1,1.2c0.6,0,1.1-0.4,1.1-1.2v-3.2h1v5.2H142z"/>
		<path class="st0" d="M146.4,78.5c-0.9,0-1.6-0.1-2.2-0.8l0.7-0.7c0.4,0.4,1,0.5,1.5,0.5c0.6,0,1.1-0.2,1.1-0.7
			c0-0.3-0.2-0.6-0.7-0.6l-0.8-0.1c-1-0.1-1.5-0.5-1.5-1.4c0-1,0.9-1.6,2-1.6c0.8,0,1.4,0.2,1.9,0.6l-0.7,0.7
			c-0.3-0.3-0.8-0.4-1.3-0.4c-0.6,0-0.9,0.3-0.9,0.7c0,0.3,0.2,0.5,0.7,0.6l0.8,0.1c1,0.1,1.6,0.5,1.6,1.5
			C148.5,77.9,147.6,78.5,146.4,78.5"/>
		<path class="st0" d="M153,78.4v-3.2c0-0.8-0.5-1.1-1-1.1c-0.6,0-1.1,0.4-1.1,1.1v3.2h-1v-7.3h1v2.6c0.4-0.4,0.8-0.6,1.3-0.6
			c1.2,0,1.8,0.8,1.8,1.9v3.4H153z"/>
		<path class="st0" d="M155.6,71.1h1.1v1.1h-1.1V71.1z M155.6,73.2h1v5.2h-1V73.2z"/>
		<path class="st0" d="M165.2,78.4l-0.5-1.5h-2.9l-0.5,1.5h-1.2l2.7-7.3h0.9l2.7,7.3H165.2z M163.2,72.8l-1.1,3.2h2.3L163.2,72.8z"
			/>
		<path class="st0" d="M170.1,74.5c-0.2-0.2-0.4-0.3-0.8-0.3c-0.6,0-1,0.5-1,1.2v3h-1v-5.2h1v0.6c0.3-0.4,0.8-0.6,1.4-0.6
			c0.5,0,0.9,0.1,1.2,0.5L170.1,74.5z"/>
		<path class="st0" d="M173.3,78.4c-1,0-1.4-0.7-1.4-1.4v-2.9h-0.6v-0.8h0.6v-1.6h1v1.6h1v0.8h-1v2.8c0,0.4,0.2,0.6,0.6,0.6h0.4v0.9
			H173.3z"/>
		<path class="st0" d="M175.2,71.1h1.1v1.1h-1.1V71.1z M175.3,73.2h1v5.2h-1V73.2z"/>
		<path class="st0" d="M179.7,78.5c-0.9,0-1.6-0.1-2.2-0.8l0.7-0.7c0.4,0.4,1,0.5,1.5,0.5c0.6,0,1.1-0.2,1.1-0.7
			c0-0.3-0.2-0.6-0.7-0.6l-0.8-0.1c-1-0.1-1.5-0.5-1.5-1.4c0-1,0.9-1.6,2-1.6c0.8,0,1.4,0.2,1.9,0.6l-0.7,0.7
			c-0.3-0.3-0.8-0.4-1.3-0.4c-0.6,0-0.9,0.3-0.9,0.7c0,0.3,0.2,0.5,0.7,0.6l0.8,0.1c1,0.1,1.6,0.5,1.6,1.5
			C181.9,77.9,180.9,78.5,179.7,78.5"/>
		<path class="st0" d="M185.9,78.4v-0.5c-0.4,0.4-0.7,0.5-1.4,0.5c-0.6,0-1.1-0.2-1.4-0.5c-0.3-0.3-0.4-0.7-0.4-1.1
			c0-0.9,0.6-1.5,1.8-1.5h1.4v-0.4c0-0.7-0.3-1-1.1-1c-0.6,0-0.9,0.1-1.1,0.5l-0.7-0.6c0.5-0.6,1-0.8,1.9-0.8c1.4,0,2.1,0.6,2.1,1.8
			v3.6H185.9z M185.9,76.1h-1.2c-0.6,0-0.9,0.3-0.9,0.8s0.3,0.7,1,0.7c0.4,0,0.7,0,1-0.3c0.2-0.2,0.2-0.4,0.2-0.8v-0.4H185.9z"/>
		<path class="st0" d="M191.8,78.4v-3.2c0-0.8-0.5-1.2-1-1.2c-0.6,0-1.1,0.4-1.1,1.2v3.2h-1v-5.2h1v0.5c0.4-0.4,0.9-0.6,1.4-0.6
			s1,0.2,1.3,0.5c0.4,0.4,0.5,0.9,0.5,1.5v3.3H191.8z"/>
		<path class="st0" d="M196.1,78.5c-0.9,0-1.6-0.1-2.2-0.8l0.7-0.7c0.4,0.4,1,0.5,1.5,0.5c0.6,0,1.1-0.2,1.1-0.7
			c0-0.3-0.2-0.6-0.7-0.6l-0.8-0.1c-1-0.1-1.5-0.5-1.5-1.4c0-1,0.9-1.6,2-1.6c0.8,0,1.4,0.2,1.9,0.6l-0.7,0.7
			c-0.3-0.3-0.8-0.4-1.3-0.4c-0.6,0-0.9,0.3-0.9,0.7c0,0.3,0.2,0.5,0.7,0.6l0.8,0.1c1,0.1,1.6,0.5,1.6,1.5
			C198.3,77.9,197.3,78.5,196.1,78.5"/>
	</g>
</g>
</svg>
