<?xml version="1.0" encoding="utf-8"?>
<!-- Generator: Adobe Illustrator 23.1.0, SVG Export Plug-In . SVG Version: 6.00 Build 0)  -->
<svg version="1.1" id="Livello_1" xmlns="http://www.w3.org/2000/svg" xmlns:xlink="http://www.w3.org/1999/xlink" x="0px" y="0px"
	 viewBox="0 0 200 100" style="enable-background:new 0 0 200 100;" xml:space="preserve">
<style type="text/css">
	.st0{fill-rule:evenodd;clip-rule:evenodd;fill:#93744D;}
	.st1{fill:#93744D;}
</style>
<g id="The_Bridge_1_">
	<g>
		<g>
			<path class="st0" d="M50.7,58.7h4.9v1.4h-2.9v1.1h2.5v1.3h-2.5v2.6h-2V58.7z M58.9,58.7h2v6.4h-2V58.7z M64.4,65.1v-6.4h3.3
				c0.6,0,1.1,0,1.4,0.1c0.3,0.1,0.6,0.3,0.8,0.6c0.2,0.3,0.3,0.7,0.3,1c0,0.4-0.1,0.7-0.2,0.9c-0.2,0.2-0.4,0.5-0.6,0.6
				c-0.2,0.1-0.4,0.2-0.7,0.3c0.2,0.1,0.4,0.2,0.5,0.2c0.1,0.1,0.2,0.1,0.3,0.3c0.1,0.2,0.3,0.3,0.3,0.4l0.9,1.9h-2.2l-1.1-2
				c-0.1-0.2-0.3-0.4-0.4-0.5c-0.2-0.1-0.3-0.1-0.5-0.1h-0.2v2.6H64.4z M66.4,61.3h0.9c0.1,0,0.2,0,0.5-0.1c0.1,0,0.2-0.1,0.3-0.2
				c0.1-0.1,0.1-0.2,0.1-0.4c0-0.2,0-0.4-0.2-0.5c-0.1-0.1-0.4-0.1-0.7-0.1h-0.9V61.3z M73.5,58.7h5.3v1.4h-3.3v1h3.1v1.3h-3.1v1.3
				h3.4v1.4h-5.4V58.7z M82.2,58.7h1.9l2.4,3.6v-3.6h1.9v6.4h-1.9l-2.4-3.5v3.5h-1.9V58.7z M91.6,58.7h5.6V60l-3.6,3.7h3.7v1.4h-6.1
				v-1.3l3.6-3.7h-3.2V58.7z M100.4,58.7h5.3v1.4h-3.3v1h3.1v1.3h-3.1v1.3h3.4v1.4h-5.4V58.7z"/>
			<g>
				<polygon class="st0" points="0,35 11,35 11,37.9 7.3,37.9 7.3,46.8 3.7,46.8 3.7,37.9 0,37.9 				"/>
				<polygon class="st0" points="190,35 199.8,35 199.8,37.5 193.7,37.5 193.7,39.4 199.3,39.4 199.3,41.8 193.7,41.8 193.7,44.2 
					200,44.2 200,46.8 190,46.8 				"/>
				<rect x="124.4" y="35" class="st0" width="3.6" height="11.8"/>
				<polygon class="st0" points="48.4,35 58.1,35 58.1,37.5 52,37.5 52,39.4 57.7,39.4 57.7,41.8 52,41.8 52,44.2 58.2,44.2 
					58.2,46.8 48.4,46.8 				"/>
				<path class="st0" d="M85.4,40.5c1.2-0.5,1.8-1.5,1.8-2.6c0-1.4-0.9-2.9-3.8-2.9h-6.7v11.8h7.1c2.1,0,3.9-1.4,3.9-3.4
					C87.6,41.9,87.1,41.2,85.4,40.5z M80.4,37.4h1.2c1.3,0,2,0.2,2,1.1c0,0.8-0.7,1.1-2,1.1h-1.2V37.4z M81.9,44.2h-1.5v-2.4H82
					c1.3,0,1.9,0.1,1.9,1.1C83.9,44.2,83.2,44.2,81.9,44.2z"/>
				<path class="st0" d="M146.9,35h-5.2v11.7h5.9c3.5,0,5-3.1,5-5.7C152.6,38.3,151,35,146.9,35z M146.3,44h-1v-6.2h1
					c1.9,0,2.6,1.5,2.6,3.1C148.9,43,148.1,44,146.3,44z"/>
				<path class="st0" d="M176.9,40h-5.7v2.5h2.5v1.1c-3.9,2-5.1-0.6-5.1-2.8c0-2,0.3-3.7,3.2-3.5c0.6,0.1,1.4,0.6,1.4,1.3l3.6-0.7
					c-1-3.4-3.8-3.3-5.5-3.3c-4.4,0-6.3,2.6-6.3,6.2c0,3,1.5,5.9,6.1,5.9c1.2,0,3,0.3,5.9-1.8V40z"/>
				<path class="st0" d="M110.5,43.7c-0.5-1.2-1.3-1.8-2-2.1c1.8-0.5,2.6-2,2.6-3.2c0-2.6-1.8-3.3-4.6-3.3h-5.9v11.7h3.7V42h0.4
					c1,0,1.4,0.9,2.5,3.1l0.8,1.7h4.2L110.5,43.7z M105.1,39.8h-1v-2.3h1.1c1.2,0,2.3,0.1,2.3,1.2C107.5,39.7,106.3,39.8,105.1,39.8
					z"/>
				<polygon class="st0" points="23.7,35 27.3,35 27.3,39.1 31.3,39.1 31.3,35 35,35 35,46.8 31.3,46.8 31.3,42 27.3,42 27.3,46.8 
					23.7,46.8 				"/>
			</g>
		</g>
		<g>
			<path class="st1" d="M119.9,65.1h-1.8v-6.6h1.8V65.1z"/>
			<path class="st1" d="M130.9,61.1c0,0.5-0.1,1-0.3,1.5c-0.2,0.5-0.5,1-0.9,1.4c-0.4,0.5-0.9,0.9-1.4,1.2l-1.6-0.5
				c0.8-0.6,1.3-1.2,1.7-1.8c-0.1,0-0.3,0-0.4,0c-0.4,0-0.7-0.1-1.1-0.3c-0.3-0.2-0.6-0.4-0.8-0.8c-0.2-0.3-0.3-0.7-0.3-1.1
				c0-0.3,0.1-0.6,0.2-0.9c0.1-0.3,0.3-0.5,0.5-0.8c0.2-0.2,0.5-0.4,0.8-0.5c0.3-0.1,0.7-0.2,1-0.2c0.4,0,0.8,0.1,1.1,0.2
				c0.3,0.1,0.6,0.3,0.8,0.6c0.2,0.2,0.4,0.5,0.5,0.8C130.8,60.4,130.9,60.7,130.9,61.1z M129.2,60.9c0-0.3-0.1-0.5-0.2-0.7
				c-0.2-0.2-0.4-0.3-0.6-0.3c-0.2,0-0.4,0-0.5,0.1c-0.1,0.1-0.2,0.2-0.3,0.4c-0.1,0.1-0.1,0.3-0.1,0.4c0,0.3,0.1,0.5,0.3,0.7
				c0.2,0.1,0.4,0.2,0.6,0.2c0.2,0,0.4,0,0.5-0.1c0.1-0.1,0.2-0.2,0.3-0.3C129.1,61.1,129.2,61,129.2,60.9z"/>
			<path class="st1" d="M140.1,62.9c0,0.3-0.1,0.6-0.2,0.9c-0.1,0.3-0.3,0.5-0.5,0.8c-0.2,0.2-0.5,0.4-0.8,0.5
				c-0.3,0.1-0.7,0.2-1,0.2c-0.5,0-1-0.1-1.4-0.4c-0.4-0.2-0.7-0.6-0.9-1c-0.2-0.4-0.3-0.8-0.3-1.3c0-0.4,0.1-0.7,0.2-1.1
				c0.1-0.4,0.3-0.7,0.5-1.1c0.2-0.4,0.5-0.7,0.8-1c0.3-0.3,0.7-0.6,1.1-0.9l1.6,0.5c-0.3,0.2-0.5,0.4-0.7,0.6
				c-0.2,0.2-0.4,0.4-0.5,0.6c-0.2,0.2-0.3,0.4-0.5,0.6c0.1,0,0.3,0,0.4,0c0.4,0,0.7,0.1,1.1,0.3c0.3,0.2,0.6,0.4,0.8,0.8
				C140,62.1,140.1,62.4,140.1,62.9z M138.4,62.8c0-0.3-0.1-0.5-0.3-0.7c-0.2-0.1-0.4-0.2-0.6-0.2c-0.3,0-0.5,0.1-0.7,0.3
				c-0.1,0.2-0.2,0.4-0.2,0.6c0,0.3,0.1,0.5,0.2,0.6c0.2,0.2,0.4,0.3,0.6,0.3c0.2,0,0.4,0,0.5-0.1c0.1-0.1,0.2-0.2,0.3-0.4
				C138.4,63.1,138.4,63,138.4,62.8z"/>
			<path class="st1" d="M149.4,61.1c0,0.5-0.1,1-0.3,1.5c-0.2,0.5-0.5,1-0.9,1.4c-0.4,0.5-0.9,0.9-1.4,1.2l-1.6-0.5
				c0.8-0.6,1.3-1.2,1.7-1.8c-0.1,0-0.3,0-0.4,0c-0.4,0-0.7-0.1-1.1-0.3c-0.3-0.2-0.6-0.4-0.8-0.8c-0.2-0.3-0.3-0.7-0.3-1.1
				c0-0.3,0.1-0.6,0.2-0.9c0.1-0.3,0.3-0.5,0.5-0.8c0.2-0.2,0.5-0.4,0.8-0.5c0.3-0.1,0.7-0.2,1-0.2c0.4,0,0.8,0.1,1.1,0.2
				c0.3,0.1,0.6,0.3,0.8,0.6c0.2,0.2,0.4,0.5,0.5,0.8C149.3,60.4,149.4,60.7,149.4,61.1z M147.7,60.9c0-0.3-0.1-0.5-0.2-0.7
				c-0.2-0.2-0.4-0.3-0.6-0.3c-0.2,0-0.4,0-0.5,0.1c-0.1,0.1-0.2,0.2-0.3,0.4c-0.1,0.1-0.1,0.3-0.1,0.4c0,0.3,0.1,0.5,0.3,0.7
				c0.2,0.1,0.4,0.2,0.6,0.2c0.2,0,0.4,0,0.5-0.1c0.1-0.1,0.2-0.2,0.3-0.3C147.6,61.1,147.7,61,147.7,60.9z"/>
		</g>
	</g>
</g>
</svg>
