<?xml version="1.0" encoding="utf-8"?>
<!-- Generator: Adobe Illustrator 25.0.1, SVG Export Plug-In . SVG Version: 6.00 Build 0)  -->
<svg version="1.1" id="CARTOUCHE" xmlns="http://www.w3.org/2000/svg" xmlns:xlink="http://www.w3.org/1999/xlink" x="0px" y="0px"
	 viewBox="0 0 300 160" style="enable-background:new 0 0 300 160;" xml:space="preserve">
<g id="layer1" transform="translate(-424.86898,-1751.993)">
	<g id="g3069" transform="matrix(1.019368,0,0,1.019368,499.28285,1349.8672)">
		<path id="path3021" d="M-11.6,519.3v19.1c0,7.8,5.3,12.7,13.1,12.7c8.1,0,13.1-5.3,13.1-13.2v-18.6H7.7v18.3
			c0,4.4-2.2,7.1-6.1,7.1c-4.3,0-6.2-3.2-6.2-6.7v-18.6h-7V519.3z"/>
		<path id="path3023" d="M17.9,519.6v31.3h11c6.1,0,11.2-3.1,11.2-9.2c0-6.4-5.6-7.8-5.6-7.8s4.2-1.1,4.2-6.6s-5.3-7.6-9.8-7.6h-11
			V519.6z M24.7,525.6H28c2.3,0,3.8,1.2,3.8,3.3c0,1.8-1.2,3.3-3.7,3.3h-3.5v-6.6H24.7z M24.7,537.1h3.7c3.4,0,4.6,1.8,4.6,3.9
			c0,2.4-1.6,3.9-4.3,3.9h-4V537.1z"/>
		<path id="path3025" d="M42.5,519.6h7v31.3h-7V519.6z"/>
		<path id="path3027" d="M117.9,550.9h-7v-31.3h21.6v6.5h-14.8v7.2h13.4v5.3h-13.4v12.3H117.9z"/>
		<path id="path3029" d="M135.2,519.6v6.5h8.9v24.8h7v-24.8h8.8v-6.5L135.2,519.6L135.2,519.6z"/>
		<path id="path3031" d="M57.4,540.5l-5.5,4c0,0,2,7,11.4,7c6.4,0,11-3.7,11-10.1c0-10.5-14.7-8.2-14.7-13.7c0-1.5,1.2-2.7,3.5-2.7
			c3.8,0,5.1,3.7,5.1,3.7l5.5-3.9c0,0-2.2-5.7-10.4-5.7c-6.7,0-10.4,4.3-10.4,8.8c0,10.6,14.2,8.3,14.2,13.9c0,1.8-1.5,3.3-3.8,3.3
			C59,545,57.4,540.5,57.4,540.5L57.4,540.5z"/>
		<path id="path3033" d="M92.1,519c-8.2,0-11.7,4.4-11.7,4.4l1.1,1.1c0,0-5.3,3.8-5.3,11.7c0,9.3,7.1,15.1,16,15.1
			c10.4,0,16.1-7.6,16.1-16.1C108.4,526.1,101.7,519,92.1,519z M92.2,525.5c5.5,0,9,4.3,9,9.6s-3.5,9.8-9,9.8s-9-3.8-9-8.9
			c0-4.6,3.2-6.6,3.2-6.6l-1.1-1.1C85.2,528.3,87.6,525.5,92.2,525.5z"/>
	</g>
	<path id="path3049" d="M571.7,1752c-36.2,0-51.8,32.1-51.8,32.1l4.6,3.3c0,0-5.7,11-5.6,25c0,28.8,23,55.9,56.7,55.9
		c30.7,0,55.9-24.9,55.9-55.8C631.4,1772.4,600.2,1752,571.7,1752L571.7,1752z M571.9,1761.9c28.2,0,50.2,22.7,50.2,49.2
		c0,28.1-21.1,47.5-45.7,47.5c-18.1,0-34.4-13.8-34.4-32.6c0-10.9,5.7-18.6,12.3-22.6l1,1c-1.8,1.3-6.8,9.5-6.8,17.6
		c0,14.9,11.6,25.2,26.4,25.2c18.7,0,31.1-16,31.1-34.4c0-21.5-19.1-39.8-41.9-39.8c-12.7,0-23.5,5.5-29.6,10.3l-1-0.9
		C541.5,1769.7,555.5,1761.9,571.9,1761.9L571.9,1761.9z M563.5,1782.5c14.7,0,28.8,9.6,32.5,23.3l-1.3,0.5
		c-6.4-8.4-16.9-15.4-29.2-15.4c-22.7,0-34.7,20.6-33,38l-1.3,0.5c0,0-2.6-5.5-2.6-12.1C528.5,1798.2,544.3,1782.5,563.5,1782.5
		L563.5,1782.5z M573.1,1806.3c7,0,12.5,5.6,12.5,12.2c0,5.5-3.5,8.8-3.5,8.8l4.2,2.9c0,0-4.2,6.5-12.6,6.5
		c-8.1,0-15.3-6.6-15.3-15.4C558.4,1812.5,566.2,1806.3,573.1,1806.3L573.1,1806.3z"/>
</g>
</svg>
