<?xml version="1.0" encoding="utf-8"?>
<!-- Generator: Adobe Illustrator 23.0.0, SVG Export Plug-In . SVG Version: 6.00 Build 0)  -->
<svg version="1.1" id="Livello_1" xmlns="http://www.w3.org/2000/svg" xmlns:xlink="http://www.w3.org/1999/xlink" x="0px" y="0px"
	 viewBox="0 0 200 100" style="enable-background:new 0 0 200 100;" xml:space="preserve">
<style type="text/css">
	.st0{fill:#F15F4D;}
	.st1{fill:#008CC8;}
	.st2{fill-rule:evenodd;clip-rule:evenodd;fill:#0C94D2;}
	.st3{fill:#AD1F2A;}
	.st4{fill:#010101;}
	.st5{fill-rule:evenodd;clip-rule:evenodd;}
	.st6{fill-rule:evenodd;clip-rule:evenodd;fill:#FFFFFF;}
	.st7{fill-rule:evenodd;clip-rule:evenodd;fill:#ED1C24;}
	.st8{fill-rule:evenodd;clip-rule:evenodd;fill:#BB9A31;}
	.st9{fill:#E82946;}
	.st10{fill:#FFFFFF;}
	.st11{fill:#BB2826;}
	.st12{fill:#005596;}
	.st13{fill:#0096D6;}
	.st14{fill:#2F3382;}
	.st15{fill:#25275E;}
	.st16{fill:#7F6D62;}
	.st17{fill:#F68A3E;}
	.st18{fill:#005566;}
	.st19{fill:#FCB648;}
</style>
<g id="zetaservice_1_">
	<g>
		<polygon class="st12" points="19.9,44 11.1,59.3 19.4,59.3 19.4,63.5 3.6,63.5 12.4,48.2 5,48.2 5,44 		"/>
		<path class="st12" d="M35.8,51.3c-0.3-1.1-1-2-1.9-2.7c-1-0.6-2-1-3.2-1c-1.4,0-2.5,0.4-3.6,1.1c-0.6,0.5-1.2,1.3-1.8,2.5H35.8z
			 M40.7,54.2l0,0.9H25c0.2,1.4,0.9,2.5,1.9,3.3c1,0.8,2.2,1.2,3.7,1.2c1.8,0,3.4-0.6,4.7-1.9l4.1,1.9c-2,2.8-4.9,4.3-8.8,4.3
			c-3,0-5.5-0.9-7.4-2.8c-1.9-1.9-2.9-4.3-2.9-7.3c0-2.9,0.9-5.4,2.8-7.4c1.9-2,4.3-3,7.2-3c3.1,0,5.5,1,7.5,2.9
			C39.8,48.5,40.8,51.1,40.7,54.2"/>
		<polygon class="st12" points="51.5,48.3 48.6,48.3 48.6,63.5 43.8,63.5 43.8,48.3 41.3,48.3 41.3,44 43.8,44 43.8,36.9 48.6,36.9 
			48.6,44 51.5,44 		"/>
		<path class="st12" d="M67.3,53.7c0-1.6-0.5-3-1.5-4c-1-1.1-2.3-1.6-3.9-1.6c-1.6,0-2.9,0.6-3.8,1.7c-0.9,1.1-1.4,2.4-1.4,4
			c0,1.6,0.5,2.9,1.4,4c1,1.2,2.3,1.7,3.8,1.7c1.6,0,2.9-0.6,3.9-1.7C66.8,56.7,67.3,55.4,67.3,53.7 M71.9,63.5H67v-2.1
			c-1.8,1.7-3.8,2.6-6,2.6c-2.7,0-4.9-1-6.7-3.1c-1.7-2-2.6-4.3-2.6-7.1c0-2.8,0.8-5.2,2.4-7.1c1.7-2.1,4-3.1,6.7-3.1
			c2.3,0,4.4,0.9,6.1,2.6V44h4.9V63.5z"/>
		<path class="st13" d="M86.6,58.2c0,1.6-0.6,3-1.7,4.1c-1.1,1.1-2.5,1.6-4.2,1.6c-2.4,0-4.3-0.9-5.7-2.7l1.6-1.8
			c1.3,1.4,2.6,2.1,4,2.1c0.9,0,1.8-0.3,2.5-0.9c0.7-0.6,1.1-1.4,1.1-2.3c0-0.9-0.4-1.8-1.3-2.5c-0.4-0.4-1.3-0.9-2.5-1.5
			c-1.4-0.7-2.5-1.5-3.2-2.2c-0.9-1-1.4-2.1-1.4-3.5c0-1.5,0.5-2.7,1.5-3.7c1-1,2.3-1.4,3.8-1.4c1.8,0,3.6,0.9,5.4,2.6L85,47.8
			c-1.3-1.3-2.6-1.9-3.9-1.9c-0.8,0-1.5,0.3-2,0.8c-0.6,0.5-0.9,1.1-0.9,1.9c0,1.3,1.2,2.6,3.7,3.8c1.5,0.8,2.6,1.5,3.3,2.3
			C86.2,55.7,86.6,56.9,86.6,58.2"/>
		<path class="st13" d="M106,51.8c-0.6-2.4-1.9-4.1-4-5.1c-1.1-0.5-2.1-0.7-3.3-0.7c-1.9,0-3.5,0.6-4.9,1.8c-1,0.9-1.8,2.2-2.3,4
			H106z M108.7,53.9H91.2c0,2.2,0.7,4,2,5.4c1.4,1.5,3.1,2.3,5.3,2.3c2.1,0,3.8-0.6,5.3-1.9c0.7-0.6,1.4-1.5,2.1-2.8l2.1,1.1
			c-1.3,2.6-3.1,4.3-5.4,5.2c-1.1,0.4-2.4,0.7-3.8,0.7c-2.9,0-5.3-1-7.2-2.9c-1.9-1.9-2.9-4.4-2.9-7.3c0-2.5,0.8-4.7,2.3-6.6
			c1.9-2.5,4.5-3.7,7.7-3.7c3.3,0,6,1.3,7.9,3.8C107.9,49.1,108.7,51.3,108.7,53.9"/>
		<path class="st13" d="M120.8,44.2l-1.3,2.1c-0.5-0.2-1-0.3-1.3-0.3c-2,0-3.4,1.4-4.2,4.2c-0.3,1.1-0.5,3.3-0.5,6.7v6.6H111V44h2.6
			v2.9c1.5-2.2,3.2-3.4,5-3.4C119.3,43.5,120,43.8,120.8,44.2"/>
		<polygon class="st13" points="140.6,44 131.7,63.5 131.2,63.5 122.3,44 125,44 131.5,58.2 137.9,44 		"/>
		<path class="st13" d="M145.1,63.5h-2.5V44h2.5V63.5z M145.9,38.1c0,0.6-0.2,1.1-0.6,1.4c-0.4,0.4-0.9,0.6-1.5,0.6
			c-0.6,0-1-0.2-1.4-0.6c-0.4-0.4-0.6-0.9-0.6-1.4c0-0.6,0.2-1.1,0.6-1.5c0.4-0.4,0.9-0.6,1.4-0.6c0.6,0,1.1,0.2,1.5,0.6
			C145.7,37,145.9,37.5,145.9,38.1"/>
		<path class="st13" d="M167.7,59.6c-1.9,2.9-5,4.4-9.1,4.4c-3,0-5.5-0.9-7.5-2.8c-2.1-1.9-3.2-4.3-3.2-7.3c0-1.9,0.5-3.6,1.4-5.2
			c0.9-1.6,2.2-2.9,3.9-3.8c1.7-0.9,3.5-1.4,5.6-1.4c2.6,0,4.9,0.7,6.8,2.1c0.8,0.6,1.5,1.4,2.1,2.4l-2,1.2c-1.7-2.3-4.1-3.4-7-3.4
			c-2.3,0-4.2,0.7-5.8,2.2c-1.6,1.5-2.4,3.4-2.4,5.6c0,1.4,0.4,2.8,1.1,4c0.7,1.2,1.7,2.2,3,2.9c1.2,0.7,2.7,1,4.2,1
			c2.9,0,5.2-1.1,7-3.4L167.7,59.6z"/>
		<path class="st13" d="M187.4,51.8c-0.6-2.4-1.9-4.1-4-5.1c-1-0.5-2.2-0.7-3.3-0.7c-1.9,0-3.5,0.6-4.9,1.8c-1,0.9-1.8,2.2-2.3,4
			H187.4z M190.1,53.9h-17.4c0,2.2,0.7,4,2,5.4c1.4,1.5,3.1,2.3,5.3,2.3c2.1,0,3.8-0.6,5.3-1.9c0.7-0.6,1.4-1.5,2.1-2.8l2.1,1.1
			c-1.3,2.6-3.1,4.3-5.4,5.2c-1.1,0.4-2.4,0.7-3.8,0.7c-2.9,0-5.3-1-7.2-2.9c-1.9-1.9-2.9-4.4-2.9-7.3c0-2.5,0.8-4.7,2.3-6.6
			c1.9-2.5,4.5-3.7,7.7-3.7c3.3,0,6,1.3,7.9,3.8C189.4,49.1,190.1,51.3,190.1,53.9"/>
		<path class="st13" d="M192.7,37.9V39h0.5c0.3,0,0.5-0.1,0.7-0.2c0.1-0.1,0.2-0.3,0.2-0.5c0-0.2-0.1-0.3-0.2-0.4
			c-0.1-0.1-0.3-0.1-0.6-0.1H192.7z M195.2,40.7h-0.8l-1.2-1.3h-0.6v1.3h-0.6v-3.3h1.1c0.5,0,0.9,0.1,1.1,0.2
			c0.2,0.2,0.3,0.4,0.3,0.7c0,0.4-0.3,0.7-0.8,0.9L195.2,40.7z M193.3,36.4c-0.7,0-1.4,0.3-1.9,0.8c-0.5,0.5-0.8,1.2-0.8,1.9
			c0,0.8,0.3,1.4,0.8,1.9c0.5,0.5,1.2,0.8,1.9,0.8c0.7,0,1.4-0.3,1.9-0.8c0.5-0.5,0.8-1.2,0.8-1.9c0-0.7-0.3-1.4-0.8-1.9
			C194.6,36.7,194,36.4,193.3,36.4 M193.3,42.3c-0.9,0-1.6-0.3-2.2-0.9c-0.6-0.6-0.9-1.3-0.9-2.2c0-0.9,0.3-1.6,0.9-2.2
			c0.6-0.6,1.3-0.9,2.2-0.9c0.9,0,1.6,0.3,2.2,0.9c0.6,0.6,0.9,1.3,0.9,2.2c0,0.9-0.3,1.6-0.9,2.2C194.8,42,194.1,42.3,193.3,42.3"
			/>
	</g>
</g>
</svg>
