<?xml version="1.0" encoding="utf-8"?>
<!-- Generator: Adobe Illustrator 23.0.0, SVG Export Plug-In . SVG Version: 6.00 Build 0)  -->
<svg version="1.1" id="Livello_1" xmlns="http://www.w3.org/2000/svg" xmlns:xlink="http://www.w3.org/1999/xlink" x="0px" y="0px"
	 viewBox="0 0 100 100" style="enable-background:new 0 0 100 100;" xml:space="preserve">
<style type="text/css">
	.st0{fill:#FFFFFF;}
</style>
<g>
	<path class="st0" d="M97.9,45L87.4,34.5V19.7c0-3.9-3.2-7.1-7.1-7.1H65.5L55.1,2.1c-2.8-2.8-7.3-2.8-10.1,0L34.5,12.6H19.7
		c-3.9,0-7.1,3.2-7.1,7.1v14.8L2.1,45c-2.8,2.8-2.8,7.3,0,10.1l10.5,10.5v14.8c0,3.9,3.2,7.1,7.1,7.1h14.8l10.5,10.5
		c1.4,1.4,3.2,2.1,5.1,2.1c1.8,0,3.7-0.7,5.1-2.1l10.5-10.5h14.8c3.9,0,7.1-3.2,7.1-7.1V65.5L97.9,55C100.7,52.3,100.7,47.7,97.9,45
		z M50,74.5c-13.5,0-24.5-11-24.5-24.5c0-13.5,11-24.5,24.5-24.5c13.5,0,24.5,11,24.5,24.5C74.5,63.5,63.5,74.5,50,74.5z"/>
</g>
</svg>
