<?xml version="1.0" encoding="utf-8"?>
<!-- Generator: Adobe Illustrator 23.0.0, SVG Export Plug-In . SVG Version: 6.00 Build 0)  -->
<svg version="1.1" id="Livello_1" xmlns="http://www.w3.org/2000/svg" xmlns:xlink="http://www.w3.org/1999/xlink" x="0px" y="0px"
	 viewBox="0 0 200 33.9" style="enable-background:new 0 0 200 33.9;" xml:space="preserve">
<style type="text/css">
	.st0{fill:#FFFFFF;}
</style>
<g id="logo_bianco_1_">
	<g>
		<g>
			<path class="st0" d="M53.4,16c0.9-0.8,1.6-2,1.6-3.7c0-3.1-2.4-5.2-6.1-5.2h-7.7c-0.3,0-0.6,0.3-0.6,0.6v2.8
				c0,0.3,0.3,0.6,0.6,0.6h1v12.7c0,1.5,0.8,2.3,2.3,2.3H49c4.1,0,6.7-2.3,6.7-5.7C55.7,18.4,54.8,16.8,53.4,16 M49.2,22.1l-2.5,0
				v-4h2.5c1.2,0,1.9,0.8,1.9,2C51.2,21.4,50.4,22.1,49.2,22.1 M48.9,14.4h-2.2v-3.3h2.2c1.4,0,1.6,1,1.6,1.6
				C50.5,13.5,50.1,14.4,48.9,14.4"/>
			<path class="st0" d="M74.2,22.1h-0.3c-0.5,0-0.6-0.1-0.7-0.3l-1.7-3.4c-0.1-0.2-0.2-0.4-0.3-0.5c1.1-0.7,2.5-2.3,2.5-4.9
				c0-3.6-2.5-5.9-6.1-5.9h-8c-0.3,0-0.6,0.3-0.6,0.6v2.8c0,0.3,0.3,0.6,0.6,0.6h1v14.4c0,0.3,0.3,0.6,0.6,0.6h3.3
				c0.3,0,0.6-0.3,0.6-0.6v-6.1h1.1c0.8,0,0.9,0.1,1.2,0.5l2.3,4.5c0.7,1.4,1.5,1.6,3,1.6h1.7c0.3,0,0.6-0.3,0.6-0.6v-2.8
				C74.8,22.4,74.6,22.1,74.2,22.1 M65,11h2.1c1.7,0,2,1.2,2,2.2c0,1-0.4,2.2-2,2.2h-2V11z"/>
			<path class="st0" d="M93.8,22.1h-0.4c-0.1,0-0.2,0-0.2,0c0,0,0-0.1-0.1-0.2L88,7.5c-0.1-0.2-0.3-0.4-0.5-0.4H84
				c-0.2,0-0.5,0.2-0.5,0.4L78.1,22c0,0.1-0.1,0.1-0.1,0.1c0,0-0.1,0-0.2,0h-0.4c-0.3,0-0.6,0.3-0.6,0.6v2.8c0,0.3,0.3,0.6,0.6,0.6
				h2c1.5,0,2.1-0.5,2.6-1.8l1-2.7h5.2l1,2.7c0.5,1.4,1.2,1.8,2.7,1.8h2c0.3,0,0.6-0.3,0.6-0.6v-2.8C94.4,22.4,94.2,22.1,93.8,22.1
				 M85.7,13.4c0.1,0.2,0.1,0.4,0.2,0.6l1.3,3.7h-2.9l1.3-3.7C85.6,13.8,85.6,13.6,85.7,13.4"/>
			<path class="st0" d="M104.2,7.1h-6.7c-0.3,0-0.6,0.3-0.6,0.6v2.8c0,0.3,0.3,0.6,0.6,0.6h1.2v11.1h-1.2c-0.3,0-0.6,0.3-0.6,0.6
				v2.8c0,0.3,0.3,0.6,0.6,0.6h6.7c0.3,0,0.6-0.3,0.6-0.6v-2.8c0-0.3-0.3-0.6-0.6-0.6H103V11h1.2c0.3,0,0.6-0.3,0.6-0.6V7.7
				C104.8,7.4,104.6,7.1,104.2,7.1"/>
			<path class="st0" d="M126.1,7.1h-3.2c-1.5,0-2.3,0.8-2.3,2.3v8.1v0.1c-0.1-0.2-0.2-0.3-0.3-0.4l-6.7-9.8
				c-0.1-0.2-0.3-0.3-0.5-0.3h-3c-0.3,0-0.6,0.3-0.6,0.6l0,14.4h-1c-0.3,0-0.6,0.3-0.6,0.6v2.8c0,0.3,0.3,0.6,0.6,0.6h3.2
				c1.5,0,2.3-0.8,2.3-2.3v-8.1v-0.1c0.1,0.2,0.2,0.3,0.3,0.4l6.8,9.8c0.1,0.2,0.3,0.3,0.5,0.3h2.9c0.3,0,0.6-0.3,0.6-0.6V11h1
				c0.3,0,0.6-0.3,0.6-0.6V7.7C126.7,7.4,126.4,7.1,126.1,7.1"/>
			<path class="st0" d="M138.5,7.1h-8.1c-0.3,0-0.6,0.3-0.6,0.6v2.8c0,0.3,0.3,0.6,0.6,0.6h1v14.4c0,0.3,0.3,0.6,0.6,0.6h3.3
				c0.3,0,0.6-0.3,0.6-0.6v-5.6h2.7c3.7,0,6.2-2.6,6.2-6.4C144.7,9.7,142.2,7.1,138.5,7.1 M135.8,11h2.1c1.4,0,2.3,0.9,2.3,2.4
				c0,1.6-0.8,2.5-2.3,2.5h-2V11z"/>
			<path class="st0" d="M165,7.1h-3.2c-1.5,0-2.3,0.8-2.3,2.3V19c0,2-1.2,3.1-3.1,3.1c-2,0-3.1-1.2-3.1-3.1V9.4
				c0-1.5-0.8-2.3-2.3-2.3h-3.2c-0.3,0-0.6,0.3-0.6,0.6v2.8c0,0.3,0.3,0.6,0.6,0.6l1,0v8.1c0,4.3,3.1,7.2,7.6,7.2
				c4.4,0,7.5-3,7.5-7.2V11h1c0.3,0,0.6-0.3,0.6-0.6V7.7C165.6,7.4,165.3,7.1,165,7.1"/>
			<path class="st0" d="M181.9,20.5h-3c-0.3,0-0.6,0.3-0.6,0.6v1l-3.8,0V9.4c0-1.5-0.8-2.3-2.3-2.3H169c-0.3,0-0.6,0.3-0.6,0.6v2.8
				c0,0.3,0.3,0.6,0.6,0.6h1v12.7c0,1.5,0.8,2.3,2.3,2.3h7.8c1.5,0,2.3-0.8,2.3-2.3v-2.7C182.5,20.7,182.2,20.5,181.9,20.5"/>
			<path class="st0" d="M197.6,20.5h-3c-0.3,0-0.6,0.3-0.6,0.6l0,1l-3.8,0V9.4c0-1.5-0.8-2.3-2.3-2.3h-3.2c-0.3,0-0.6,0.3-0.6,0.6
				v2.8c0,0.3,0.3,0.6,0.6,0.6h1v12.7c0,1.5,0.8,2.3,2.3,2.3h7.8c1.5,0,2.3-0.8,2.3-2.3v-2.7C198.2,20.7,197.9,20.5,197.6,20.5"/>
			<g>
				<path class="st0" d="M29.5,15.6l-3.2-3.2V8c0-1.2-1-2.2-2.2-2.2h-4.5l-3.2-3.2c-0.8-0.8-2.2-0.8-3,0l-3.1,3.2H5.9
					c-1.2,0-2.2,1-2.2,2.2v4.5l-3.2,3.2c-0.8,0.8-0.8,2.2,0,3l3.2,3.1v4.5c0,1.2,1,2.2,2.2,2.2h4.5l3.1,3.2c0.4,0.4,1,0.6,1.5,0.6
					c0.6,0,1.1-0.2,1.5-0.6l3.2-3.2h4.5c1.2,0,2.2-1,2.2-2.2v-4.5l3.2-3.1C30.3,17.8,30.3,16.4,29.5,15.6z M15.1,24.5
					c-4.1,0-7.4-3.3-7.4-7.4c0-4.1,3.3-7.4,7.4-7.4c4.1,0,7.4,3.3,7.4,7.4C22.4,21.2,19.1,24.5,15.1,24.5z"/>
			</g>
		</g>
	</g>
</g>
</svg>
